<svg width="960" height="720" xmlns="http://www.w3.org/2000/svg" xmlns:xlink="http://www.w3.org/1999/xlink" overflow="hidden"><defs><clipPath id="clip0"><rect x="0" y="0" width="960" height="720"/></clipPath></defs><g clip-path="url(#clip0)"><rect x="0" y="0" width="960" height="720" fill="#FFFFFF"/><path d="M33.5001 71.5001 921.5 71.5002" stroke="#FFCC66" stroke-width="1.33333" stroke-linejoin="round" stroke-miterlimit="10" fill="none" fill-rule="evenodd"/><text fill="#CC0000" font-family="Arial,Arial_MSFontService,sans-serif" font-weight="700" font-size="43" transform="translate(90.6667 59)">ALU<tspan font-family="SimSun,SimSun_MSFontService,sans-serif" font-size="43" x="87.6667" y="0">的功能说明</tspan><tspan fill="#000000" font-family="Wingdings,Wingdings_MSFontService,sans-serif" font-weight="400" font-size="16" x="-70.6667" y="388"></tspan><tspan fill="#000000" font-family="Times New Roman,Times New Roman_MSFontService,sans-serif" font-size="27" x="-49.3333" y="388">ALU Control Lines (</tspan><tspan fill="#000000" font-family="Times New Roman,Times New Roman_MSFontService,sans-serif" font-size="27" x="187" y="388">ALUop</tspan><tspan fill="#000000" font-family="Times New Roman,Times New Roman_MSFontService,sans-serif" font-size="27" x="271.667" y="388">) Function</tspan><tspan fill="#000000" font-family="Times New Roman,Times New Roman_MSFontService,sans-serif" font-weight="400" font-size="27" x="-18.6667" y="430">•</tspan><tspan fill="#000000" font-family="Times New Roman,Times New Roman_MSFontService,sans-serif" font-size="27" x="1.33334" y="430">000</tspan><tspan fill="#000000" font-family="Times New Roman,Times New Roman_MSFontService,sans-serif" font-size="27" x="340" y="430">And</tspan><tspan fill="#000000" font-family="Times New Roman,Times New Roman_MSFontService,sans-serif" font-weight="400" font-size="27" x="-18.6667" y="472">•</tspan><tspan fill="#000000" font-family="Times New Roman,Times New Roman_MSFontService,sans-serif" font-size="27" x="1.33334" y="472">001</tspan><tspan fill="#000000" font-family="Times New Roman,Times New Roman_MSFontService,sans-serif" font-size="27" x="353.333" y="472">Or</tspan><tspan fill="#000000" font-family="Times New Roman,Times New Roman_MSFontService,sans-serif" font-weight="400" font-size="27" x="-18.6667" y="513">•</tspan><tspan fill="#000000" font-family="Times New Roman,Times New Roman_MSFontService,sans-serif" font-size="27" x="1.33334" y="513">010</tspan><tspan fill="#000000" font-family="Times New Roman,Times New Roman_MSFontService,sans-serif" font-size="27" x="346.667" y="513">Add</tspan><tspan fill="#000000" font-family="Times New Roman,Times New Roman_MSFontService,sans-serif" font-weight="400" font-size="27" x="-18.6667" y="555">•</tspan><tspan fill="#000000" font-family="Times New Roman,Times New Roman_MSFontService,sans-serif" font-size="27" x="1.33334" y="555">110</tspan><tspan fill="#000000" font-family="Times New Roman,Times New Roman_MSFontService,sans-serif" font-size="27" x="326.667" y="555">Subtract</tspan><tspan fill="#000000" font-family="Times New Roman,Times New Roman_MSFontService,sans-serif" font-weight="400" font-size="27" x="-18.6667" y="596">•</tspan><tspan fill="#000000" font-family="Times New Roman,Times New Roman_MSFontService,sans-serif" font-size="27" x="1.33334" y="596">111</tspan><tspan fill="#000000" font-family="Times New Roman,Times New Roman_MSFontService,sans-serif" font-size="27" x="313.333" y="596">Set</tspan><tspan fill="#000000" font-family="Times New Roman,Times New Roman_MSFontService,sans-serif" font-size="27" x="348.833" y="596">-</tspan><tspan fill="#000000" font-family="Times New Roman,Times New Roman_MSFontService,sans-serif" font-size="27" x="357.667" y="596">on</tspan><tspan fill="#000000" font-family="Times New Roman,Times New Roman_MSFontService,sans-serif" font-size="27" x="385.833" y="596">-</tspan><tspan fill="#000000" font-family="Times New Roman,Times New Roman_MSFontService,sans-serif" font-size="27" x="394.667" y="596">less</tspan><tspan fill="#000000" font-family="Times New Roman,Times New Roman_MSFontService,sans-serif" font-size="27" x="434.5" y="596">-</tspan><tspan fill="#000000" font-family="Times New Roman,Times New Roman_MSFontService,sans-serif" font-size="27" x="443.333" y="596">than</tspan></text><path d="M6.6666-0.66666 98-0.666562 98 0.666772 6.66659 0.666674ZM8 4.00001 0 0 8-3.99999Z" transform="matrix(-1 0 0 1 287.5 152.5)"/><path d="M0 0 1 48" stroke="#000000" stroke-width="2.66667" stroke-linejoin="round" stroke-miterlimit="10" fill="none" fill-rule="evenodd" transform="matrix(-1 0 0 1 286.5 129.5)"/><path d="M287.5 129.5 369.5 169.5" stroke="#000000" stroke-width="2.66667" stroke-linejoin="round" stroke-miterlimit="10" fill="none" fill-rule="evenodd"/><path d="M284.5 175.5 321.5 195.5" stroke="#000000" stroke-width="2.66667" stroke-linejoin="round" stroke-miterlimit="10" fill="none" fill-rule="evenodd"/><path d="M318.5 193.5 318.5 223.5" stroke="#000000" stroke-width="2.66667" stroke-linejoin="round" stroke-miterlimit="10" fill="none" fill-rule="evenodd"/><path d="M366.5 169.5 366.5 223.5" stroke="#000000" stroke-width="2.66667" stroke-linejoin="round" stroke-miterlimit="10" fill="none" fill-rule="evenodd"/><path d="M0 0 0.000104987 50" stroke="#000000" stroke-width="2.66667" stroke-linejoin="round" stroke-miterlimit="10" fill="none" fill-rule="evenodd" transform="matrix(1 0 0 -1 286.5 321.5)"/><path d="M0 0 78 42" stroke="#000000" stroke-width="2.66667" stroke-linejoin="round" stroke-miterlimit="10" fill="none" fill-rule="evenodd" transform="matrix(1 0 0 -1 287.5 321.5)"/><path d="M0 0 30 18" stroke="#000000" stroke-width="2.66667" stroke-linejoin="round" stroke-miterlimit="10" fill="none" fill-rule="evenodd" transform="matrix(1 0 0 -1 287.5 273.5)"/><path d="M0 0 0.000104987 34" stroke="#000000" stroke-width="2.66667" stroke-linejoin="round" stroke-miterlimit="10" fill="none" fill-rule="evenodd" transform="matrix(1 0 0 -1 318.5 257.5)"/><path d="M0 0 0.000104987 58" stroke="#000000" stroke-width="2.66667" stroke-linejoin="round" stroke-miterlimit="10" fill="none" fill-rule="evenodd" transform="matrix(1 0 0 -1 366.5 281.5)"/><path d="M367.5 223.833 478.833 223.833 478.833 225.167 367.5 225.167ZM477.5 220.5 485.5 224.5 477.5 228.5Z"/><path d="M6.6666-0.66666 98-0.666562 98 0.666772 6.66659 0.666674ZM8 4.00001 0 0 8-3.99999Z" transform="matrix(-1 0 0 1 287.5 296.5)"/><text font-family="Times New Roman,Times New Roman_MSFontService,sans-serif" font-weight="700" font-size="27" transform="matrix(6.12323e-17 1 -1 6.12323e-17 327.167 203)">ALU</text><path d="M0 0 18 14" stroke="#000000" stroke-width="1.33333" stroke-linejoin="round" stroke-miterlimit="10" fill="none" fill-rule="evenodd" transform="matrix(-1 0 0 1 239.5 289.5)"/><path d="M0 0 18 14" stroke="#000000" stroke-width="1.33333" stroke-linejoin="round" stroke-miterlimit="10" fill="none" fill-rule="evenodd" transform="matrix(-1 0 0 1 239.5 145.5)"/><path d="M0 0 18 14" stroke="#000000" stroke-width="1.33333" stroke-linejoin="round" stroke-miterlimit="10" fill="none" fill-rule="evenodd" transform="matrix(-1 0 0 1 439.5 217.5)"/><text font-family="Times New Roman,Times New Roman_MSFontService,sans-serif" font-weight="700" font-size="27" transform="translate(206 183)">N<tspan font-size="27" x="0" y="144">N</tspan><tspan font-size="27" x="200" y="72">N</tspan><tspan font-size="27" x="-40" y="-16">A</tspan><tspan font-size="27" x="-40" y="128">B</tspan><tspan font-size="27" x="288" y="56">Result</tspan></text><path d="M367.5 183.833 438.833 183.833 438.833 185.167 367.5 185.167ZM437.5 180.5 445.5 184.5 437.5 188.5Z"/><path d="M367.5 271.833 438.833 271.833 438.833 273.167 367.5 273.167ZM437.5 268.5 445.5 272.5 437.5 276.5Z"/><text font-family="Times New Roman,Times New Roman_MSFontService,sans-serif" font-weight="700" font-size="27" transform="translate(454 287)">Overflow<tspan font-size="27" x="0" y="-88">Zero</tspan></text><path d="M335.167 89.5001 335.167 144.833 333.833 144.833 333.833 89.5001ZM338.5 143.5 334.5 151.5 330.5 143.5Z"/><path d="M0 0 14 18" stroke="#000000" stroke-width="1.33333" stroke-linejoin="round" stroke-miterlimit="10" fill="none" fill-rule="evenodd" transform="matrix(1 0 0 -1 327.5 121.5)"/><text font-family="Times New Roman,Times New Roman_MSFontService,sans-serif" font-weight="700" font-size="27" transform="translate(350 127)">3<tspan font-size="27" x="-116" y="-20">ALUop</tspan></text><path d="M335.167 297.5 335.167 352.833 333.833 352.833 333.833 297.5ZM338.5 351.5 334.5 359.5 330.5 351.5Z"/><text font-family="Times New Roman,Times New Roman_MSFontService,sans-serif" font-weight="700" font-size="27" transform="translate(350 359)">CarryOut<tspan fill="#0000FF" font-family="Arial,Arial_MSFontService,sans-serif" font-size="29" x="228.6" y="-29">ALU</tspan><tspan fill="#0000FF" font-family="SimHei,SimHei_MSFontService,sans-serif" font-size="29" x="288.933" y="-29">可进行基本的加</tspan><tspan fill="#0000FF" font-family="Arial,Arial_MSFontService,sans-serif" font-size="29" x="495.433" y="-29">/</tspan><tspan fill="#0000FF" font-family="SimHei,SimHei_MSFontService,sans-serif" font-size="29" x="503.6" y="-29">减算术</tspan><tspan fill="#0000FF" font-family="SimHei,SimHei_MSFontService,sans-serif" font-size="29" x="228.6" y="12">运算和逻辑运算。</tspan><tspan fill="#FF0066" font-family="SimHei,SimHei_MSFontService,sans-serif" font-size="29" x="464.6" y="12">其核心部</tspan><tspan fill="#FF0066" font-family="SimHei,SimHei_MSFontService,sans-serif" font-size="29" x="228.6" y="52">件是加法器。</tspan><tspan fill="#CC3300" font-family="SimHei,SimHei_MSFontService,sans-serif" font-size="29" x="228.6" y="121">有关串行加法器和并行加法</tspan><tspan fill="#CC3300" font-family="SimHei,SimHei_MSFontService,sans-serif" font-size="29" x="228.6" y="162">器的原理在数字逻辑电路课</tspan><tspan fill="#CC3300" font-family="SimHei,SimHei_MSFontService,sans-serif" font-size="29" x="228.6" y="202">已讲过，在此仅简单回顾。</tspan><tspan font-size="19" x="581.6" y="347">16</tspan></text></g></svg>