<svg width="960" height="720" xmlns="http://www.w3.org/2000/svg" xmlns:xlink="http://www.w3.org/1999/xlink" overflow="hidden"><defs><clipPath id="clip0"><rect x="0" y="0" width="960" height="720"/></clipPath></defs><g clip-path="url(#clip0)"><rect x="0" y="0" width="960" height="720" fill="#FFFFFF"/><path d="M33.5001 71.5001 921.5 71.5002" stroke="#FFCC66" stroke-width="1.33333" stroke-linejoin="round" stroke-miterlimit="10" fill="none" fill-rule="evenodd"/><text fill="#CC0000" font-family="Arial,Arial_MSFontService,sans-serif" font-weight="700" font-size="43" transform="translate(49.6667 60)">MIPS<tspan font-family="SimSun,SimSun_MSFontService,sans-serif" font-size="43" x="104.333" y="0">定点算术运算指令</tspan><tspan fill="#000000" font-family="Times New Roman,Times New Roman_MSFontService,sans-serif" font-style="italic" font-size="27" x="-16.1666" y="42">Instruction</tspan><tspan fill="#000000" font-family="Times New Roman,Times New Roman_MSFontService,sans-serif" font-style="italic" font-size="27" x="175.833" y="42">Example</tspan><tspan fill="#000000" font-family="Times New Roman,Times New Roman_MSFontService,sans-serif" font-style="italic" font-size="27" x="343.833" y="42">Meaning</tspan><tspan fill="#000000" font-family="Times New Roman,Times New Roman_MSFontService,sans-serif" font-style="italic" font-size="27" x="523.833" y="42">Comments</tspan></text><path d="M33.5001 104.333 252.5 104.333 471.5 104.333 690.5 104.333 690.5 105.333 471.5 105.333 252.5 105.333 33.5001 105.333Z" fill-rule="evenodd"/><text font-family="Times New Roman,Times New Roman_MSFontService,sans-serif" font-weight="700" font-size="24" transform="translate(33.5001 137)">add <tspan font-size="24" x="192" y="0">add $1,$2,$3</tspan><tspan font-size="24" x="360" y="0">$1 = $2 + $3</tspan><tspan font-size="24" x="540" y="0">3 operands; exception possible</tspan><tspan font-size="24" x="0" y="34">subtract</tspan><tspan font-size="24" x="192" y="34">sub $1,$2,$3</tspan><tspan font-size="24" x="360" y="34">$1 = $2 </tspan><tspan font-size="24" x="439.667" y="34">–</tspan><tspan font-size="24" x="457.667" y="34">$3</tspan><tspan font-size="24" x="540" y="34">3 operands; exception possible</tspan><tspan font-size="24" x="0" y="69">add immediate</tspan><tspan font-size="24" x="192" y="69">addi</tspan><tspan font-size="24" x="243.333" y="69">$1,$2,100</tspan><tspan font-size="24" x="360" y="69">$1 = $2 + 100</tspan><tspan font-size="24" x="540" y="69">+ constant; exception possible</tspan><tspan font-size="24" x="0" y="104">add unsigned</tspan><tspan font-size="24" x="192" y="104">addu</tspan><tspan font-size="24" x="250" y="104">$1,$2,$3</tspan><tspan font-size="24" x="360" y="104">$1 = $2 + $3</tspan><tspan font-size="24" x="540" y="104">3 operands; no exceptions</tspan><tspan font-size="24" x="0" y="138">subtract unsigned</tspan><tspan font-size="24" x="192" y="138">subu</tspan><tspan font-size="24" x="247.333" y="138">$1,$2,$3</tspan><tspan font-size="24" x="360" y="138">$1 = $2 </tspan><tspan font-size="24" x="439.667" y="138">–</tspan><tspan font-size="24" x="457.667" y="138">$3</tspan><tspan font-size="24" x="540" y="138">3 operands; no exceptions</tspan><tspan font-size="24" x="0" y="173">add </tspan><tspan font-size="24" x="44.6667" y="173">imm</tspan><tspan font-size="24" x="91.3333" y="173">. </tspan>unsign.<tspan font-size="24" x="192" y="173">addiu</tspan><tspan font-size="24" x="256.667" y="173">$1,$2,100</tspan><tspan font-size="24" x="360" y="173">$1 = $2 + 100</tspan><tspan font-size="24" x="540" y="173">+ constant; no exceptions</tspan><tspan fill="#FF0000" font-size="24" x="0" y="207">multiply </tspan><tspan fill="#FF0000" font-size="24" x="192" y="207">mult</tspan><tspan fill="#FF0000" font-size="24" x="246" y="207">$2,$3</tspan><tspan fill="#FF0000" font-size="24" x="360" y="207">Hi, Lo = $2 x $3</tspan><tspan fill="#FF0000" font-size="24" x="540" y="207">64</tspan><tspan fill="#FF0000" font-size="24" x="564" y="207">-</tspan><tspan fill="#FF0000" font-size="24" x="572" y="207">bit signed product</tspan><tspan fill="#FF0000" font-size="24" x="0" y="242">multiply unsigned</tspan><tspan fill="#FF0000" font-size="24" x="192" y="242">multu$2,$3</tspan><tspan fill="#FF0000" font-size="24" x="360" y="242">Hi, Lo = $2 x $3</tspan><tspan fill="#FF0000" font-size="24" x="540" y="242">64</tspan><tspan fill="#FF0000" font-size="24" x="564" y="242">-</tspan><tspan fill="#FF0000" font-size="24" x="572" y="242">bit unsigned product</tspan><tspan fill="#FF0000" font-size="24" x="0" y="277">divide </tspan><tspan fill="#FF0000" font-size="24" x="192" y="277">div $2,$3</tspan><tspan fill="#FF0000" font-size="24" x="360" y="277">Lo = $2 </tspan><tspan fill="#FF0000" font-family="SimSun,SimSun_MSFontService,sans-serif" font-size="24" x="443.667" y="277">÷</tspan><tspan fill="#FF0000" font-size="24" x="473.833" y="277">$3,</tspan><tspan fill="#FF0000" font-size="24" x="540" y="277">Lo = quotient, Hi = remainder </tspan><tspan fill="#FF0000" font-size="24" x="366" y="311">Hi = $2 mod $3 </tspan><tspan fill="#FF0000" font-size="24" x="0" y="346">divide unsigned </tspan><tspan fill="#FF0000" font-size="24" x="192" y="346">divu</tspan><tspan fill="#FF0000" font-size="24" x="243.333" y="346">$2,$3</tspan><tspan fill="#FF0000" font-size="24" x="360" y="346">Lo = $2 </tspan><tspan fill="#FF0000" font-family="SimSun,SimSun_MSFontService,sans-serif" font-size="24" x="443.667" y="346">÷</tspan><tspan fill="#FF0000" font-size="24" x="473.833" y="346">$3,</tspan><tspan fill="#FF0000" font-size="24" x="540" y="346">Unsigned quotient &amp; remainder </tspan><tspan fill="#FF0000" font-size="24" x="366" y="380">Hi = $2 mod $3</tspan><tspan fill="#0000FF" font-family="SimHei,SimHei_MSFontService,sans-serif" font-size="27" x="20.7666" y="419">涉及到的操作数：</tspan><tspan fill="#0000FF" font-family="Arial,Arial_MSFontService,sans-serif" font-size="27" x="235.433" y="419">32/16</tspan><tspan fill="#0000FF" font-family="SimHei,SimHei_MSFontService,sans-serif" font-size="27" x="302.1" y="419">位</tspan><tspan fill="#0000FF" font-family="SimHei,SimHei_MSFontService,sans-serif" font-size="27" x="336.267" y="419">无符号数，</tspan><tspan fill="#0000FF" font-family="Arial,Arial_MSFontService,sans-serif" font-size="27" x="477.767" y="419">32/16</tspan><tspan fill="#0000FF" font-family="SimHei,SimHei_MSFontService,sans-serif" font-weight="400" font-size="27" x="544.433" y="419">位</tspan><tspan fill="#0000FF" font-family="SimHei,SimHei_MSFontService,sans-serif" font-size="27" x="571.1" y="419">带符号数</tspan><tspan fill="#0000FF" font-family="SimHei,SimHei_MSFontService,sans-serif" font-size="27" x="20.7666" y="459">涉及到的操作：</tspan><tspan fill="#0000FF" font-family="SimHei,SimHei_MSFontService,sans-serif" font-size="27" x="215.933" y="459">（带符号数</tspan><tspan fill="#0000FF" font-family="Arial,Arial_MSFontService,sans-serif" font-size="27" x="357.433" y="459">/ </tspan><tspan fill="#0000FF" font-family="SimHei,SimHei_MSFontService,sans-serif" font-size="27" x="372.1" y="459">无符号数）加</tspan><tspan fill="#0000FF" font-family="Arial,Arial_MSFontService,sans-serif" font-size="27" x="540.433" y="459">/ </tspan><tspan fill="#0000FF" font-family="SimHei,SimHei_MSFontService,sans-serif" font-size="27" x="555.1" y="459">减</tspan><tspan fill="#0000FF" font-family="Arial,Arial_MSFontService,sans-serif" font-size="27" x="589.267" y="459">/ </tspan><tspan fill="#0000FF" font-family="SimHei,SimHei_MSFontService,sans-serif" font-size="27" x="611.267" y="459">乘</tspan><tspan fill="#0000FF" font-family="Arial,Arial_MSFontService,sans-serif" font-size="27" x="645.433" y="459">/ </tspan><tspan fill="#0000FF" font-family="SimHei,SimHei_MSFontService,sans-serif" font-size="27" x="660.1" y="459">除</tspan><tspan font-size="19" x="907.433" y="569">8</tspan></text></g></svg>