<svg width="960" height="720" xmlns="http://www.w3.org/2000/svg" xmlns:xlink="http://www.w3.org/1999/xlink" overflow="hidden"><defs><clipPath id="clip0"><rect x="0" y="0" width="960" height="720"/></clipPath></defs><g clip-path="url(#clip0)"><rect x="0" y="0" width="960" height="720" fill="#FFFFFF"/><path d="M33.5001 71.5001 921.5 71.5002" stroke="#FFCC66" stroke-width="1.33333" stroke-linejoin="round" stroke-miterlimit="10" fill="none" fill-rule="evenodd"/><text fill="#CC0000" font-family="SimSun,SimSun_MSFontService,sans-serif" font-weight="700" font-size="43" transform="translate(90.6667 58)">无符号整数乘法运算举例<tspan font-family="Arial,Arial_MSFontService,sans-serif" font-size="43" x="471.167" y="0">--</tspan><tspan font-family="Arial,Arial_MSFontService,sans-serif" font-size="43" x="499.5" y="0">n=4</tspan><tspan fill="#000000" font-size="32" x="-34.4" y="70">设</tspan><tspan fill="#000000" font-family="Arial,Arial_MSFontService,sans-serif" font-size="32" x="-2.23333" y="70">x=1110 </tspan><tspan fill="#000000" font-family="Arial,Arial_MSFontService,sans-serif" font-size="32" x="137.4" y="70">y=1101</tspan><tspan fill="#000000" font-size="32" x="243.467" y="70">，计算</tspan><tspan fill="#000000" font-family="Arial,Arial_MSFontService,sans-serif" font-size="32" x="339.967" y="70">z=x*y</tspan><tspan fill="#000000" font-size="32" x="422.8" y="70">。</tspan><tspan fill="#000000" font-family="Arial,Arial_MSFontService,sans-serif" font-size="32" x="454.967" y="70">x</tspan><tspan fill="#000000" font-size="32" x="472.8" y="70">、</tspan><tspan fill="#000000" font-family="Arial,Arial_MSFontService,sans-serif" font-size="32" x="504.967" y="70">y</tspan><tspan fill="#000000" font-size="32" x="522.8" y="70">和</tspan><tspan fill="#000000" font-family="Arial,Arial_MSFontService,sans-serif" font-size="32" x="554.967" y="70">z</tspan><tspan fill="#000000" font-size="32" x="570.967" y="70">都是无符号数。</tspan><tspan fill="#000000" font-size="32" x="-34.4" y="120">应用</tspan><tspan fill="#000000" font-size="32" x="29.9333" y="120">递推公式：</tspan><tspan fill="#0000FF" font-family="Arial,Arial_MSFontService,sans-serif" font-size="32" x="199.6" y="120">P</tspan><tspan fill="#0000FF" font-family="Arial,Arial_MSFontService,sans-serif" font-size="21" x="220.933" y="122">i</tspan><tspan fill="#0000FF" font-family="Arial,Arial_MSFontService,sans-serif" font-size="32" x="226.933" y="120">=2</tspan><tspan fill="#0000FF" font-family="Arial,Arial_MSFontService,sans-serif" font-size="21" x="263.433" y="110">-</tspan><tspan fill="#0000FF" font-family="Arial,Arial_MSFontService,sans-serif" font-size="21" x="270.6" y="110">1</tspan><tspan fill="#0000FF" font-family="Arial,Arial_MSFontService,sans-serif" font-size="32" x="282.433" y="120">(x*</tspan><tspan fill="#0000FF" font-family="Arial,Arial_MSFontService,sans-serif" font-size="32" x="323.433" y="120">y</tspan><tspan fill="#0000FF" font-family="Arial,Arial_MSFontService,sans-serif" font-size="21" x="341.267" y="122">i</tspan><tspan fill="#0000FF" font-family="Arial,Arial_MSFontService,sans-serif" font-size="32" x="347.267" y="120">+ P</tspan><tspan fill="#0000FF" font-family="Arial,Arial_MSFontService,sans-serif" font-size="21" x="396.1" y="122">i</tspan><tspan fill="#0000FF" font-family="Arial,Arial_MSFontService,sans-serif" font-size="21" x="402.1" y="122">-</tspan><tspan fill="#0000FF" font-family="Arial,Arial_MSFontService,sans-serif" font-size="21" x="409.267" y="122">1</tspan><tspan fill="#0000FF" font-family="Arial,Arial_MSFontService,sans-serif" font-size="32" x="421.1" y="120">) </tspan><tspan fill="#0000FF" font-family="Arial,Arial_MSFontService,sans-serif" font-size="32" x="-16.7333" y="170">C </tspan><tspan fill="#0000FF" font-size="32" x="32.9333" y="170">乘积</tspan><tspan fill="#0000FF" font-family="Arial,Arial_MSFontService,sans-serif" font-size="32" x="97.2667" y="170">P </tspan><tspan fill="#0000FF" font-size="32" x="144.52" y="170">乘数</tspan><tspan fill="#0000FF" font-family="Arial,Arial_MSFontService,sans-serif" font-size="32" x="208.853" y="170">R</tspan><tspan fill="#0000FF" font-size="32" x="-2.06667" y="210">0 0000 110</tspan><tspan fill="#FF0000" font-size="32" x="191.933" y="210">1</tspan><tspan fill="#0000FF" font-size="32" x="-2.06667" y="249">+ 1110 </tspan><tspan fill="#0000FF" font-size="32" x="-2.06667" y="287">0 1110 1101</tspan><tspan fill="#0000FF" font-size="32" x="-2.06667" y="325">0 0111 011</tspan><tspan fill="#FF0000" font-size="32" x="191.933" y="325">0</tspan><tspan fill="#0000FF" font-size="32" x="-2.06667" y="364">0 0011 101</tspan><tspan fill="#FF0000" font-size="32" x="191.933" y="364">1</tspan><tspan fill="#0000FF" font-size="32" x="-2.06667" y="402">+ 1110</tspan><tspan fill="#0000FF" font-size="32" x="-2.06667" y="441">1 0001 1011</tspan><tspan fill="#0000FF" font-size="32" x="-2.06667" y="479">0 1000 110</tspan><tspan fill="#FF0000" font-size="32" x="191.933" y="479">1</tspan><tspan fill="#0000FF" font-size="32" x="-2.06667" y="517">+ 1110</tspan><tspan fill="#0000FF" font-size="32" x="-2.06667" y="556">1 0110 1101</tspan><tspan fill="#0000FF" font-size="32" x="-2.06667" y="594">0 1011 0110</tspan></text><path d="M37.5001 316.5 324.5 316.5" stroke="#000000" stroke-linejoin="round" stroke-miterlimit="10" fill="none" fill-rule="evenodd"/><path d="M43.5001 469.5 329.5 469.5" stroke="#000000" stroke-linejoin="round" stroke-miterlimit="10" fill="none" fill-rule="evenodd"/><path d="M23.5001 373 54.8334 373 54.8334 374 23.5001 374ZM53.5001 369.5 61.5001 373.5 53.5 377.5Z"/><path d="M21.5001 413 53.8334 413 53.8334 414 21.5001 414ZM52.5001 409.5 60.5001 413.5 52.5 417.5Z"/><path d="M23.5001 643 54.8334 643 54.8334 644 23.5001 644ZM53.5001 639.5 61.5001 643.5 53.5 647.5Z"/><path d="M37.5001 581.5 324.5 581.5" stroke="#000000" stroke-linejoin="round" stroke-miterlimit="10" fill="none" fill-rule="evenodd"/><rect x="122.5" y="236.5" width="174" height="43" stroke="#000000" stroke-width="1.33333" stroke-miterlimit="8" fill="none"/><text fill="#660066" font-family="SimHei,SimHei_MSFontService,sans-serif" font-weight="700" font-size="32" transform="translate(401.767 267)">部分<tspan font-size="32" x="64.3333" y="0">积（乘积</tspan><tspan font-size="32" x="193" y="0">P</tspan><tspan font-size="32" x="209.167" y="0">）初始</tspan>为<tspan font-size="32" x="337.833" y="0">0</tspan><tspan font-size="32" x="354" y="0">。</tspan></text><rect x="122.5" y="233.5" width="87" height="46" stroke="#CC0000" stroke-width="3" stroke-miterlimit="8" fill="none"/><text fill="#660066" font-family="SimHei,SimHei_MSFontService,sans-serif" font-weight="700" font-size="32" transform="translate(401.767 327)">相加时最高位的进位保留到<tspan font-family="Times New Roman,Times New Roman_MSFontService,sans-serif" font-size="32" x="386" y="0">C</tspan><tspan font-size="32" x="409.167" y="0">中。</tspan></text><rect x="63.5001" y="191.5" width="57" height="51" stroke="#CC0000" stroke-width="3" stroke-miterlimit="8" fill="none"/><path d="M23.5001 527 54.8334 527 54.8334 528 23.5001 528ZM53.5001 523.5 61.5001 527.5 53.5 531.5Z"/><text fill="#660066" font-family="SimHei,SimHei_MSFontService,sans-serif" font-weight="700" font-size="32" transform="translate(405.933 397)">右移时<tspan font-size="32" x="96.5" y="0">进位</tspan><tspan font-family="Times New Roman,Times New Roman_MSFontService,sans-serif" font-size="32" x="160.833" y="0">C</tspan><tspan font-size="32" x="184" y="0">、</tspan><tspan font-size="32" x="216.167" y="0">部分</tspan><tspan font-size="32" x="280.5" y="0">积</tspan><tspan font-family="Times New Roman,Times New Roman_MSFontService,sans-serif" font-size="32" x="312.667" y="0">P</tspan>和<tspan font-size="32" x="364.333" y="0">剩</tspan><tspan font-size="32" x="0" y="39">余</tspan><tspan font-size="32" x="32.1667" y="39">乘数</tspan><tspan font-family="Times New Roman,Times New Roman_MSFontService,sans-serif" font-size="32" x="96.5" y="39">R</tspan><tspan font-size="32" x="119.667" y="39">一起</tspan><tspan font-size="32" x="184" y="39">联合</tspan><tspan fill="#CC0000" font-size="32" x="248.333" y="39">逻辑</tspan><tspan fill="#CC0000" font-size="32" x="312.667" y="39">右移</tspan><tspan font-size="32" x="377" y="39">。</tspan></text><rect x="73.5001" y="468.5" width="232" height="78" stroke="#CC0000" stroke-width="3" stroke-miterlimit="8" stroke-dasharray="3 3" fill="none"/><text fill="#CC0000" font-family="SimHei,SimHei_MSFontService,sans-serif" font-weight="700" font-size="29" transform="translate(412.433 560)">验证：<tspan font-family="Arial,Arial_MSFontService,sans-serif" font-size="29" x="88.5" y="0">x=14, y=13, z=x*y=182</tspan><tspan font-size="29" x="0" y="55">当</tspan><tspan font-family="Arial,Arial_MSFontService,sans-serif" font-size="29" x="29.5" y="55">z</tspan><tspan font-size="29" x="44.1667" y="55">取</tspan><tspan font-family="Arial,Arial_MSFontService,sans-serif" font-size="29" x="73.6667" y="55">4</tspan><tspan font-size="29" x="90" y="55">位时</tspan>，会发生溢出，因为<tspan font-size="29" x="0" y="90">高</tspan><tspan font-family="Arial,Arial_MSFontService,sans-serif" font-size="29" x="29.5" y="90">4</tspan><tspan font-size="29" x="45.8333" y="90">位不为全</tspan><tspan font-family="Arial,Arial_MSFontService,sans-serif" font-size="29" x="163.833" y="90">0</tspan><tspan font-size="29" x="180.167" y="90">！</tspan><tspan fill="#000000" font-family="Times New Roman,Times New Roman_MSFontService,sans-serif" font-size="19" x="519.167" y="146">43</tspan></text></g></svg>