<svg width="960" height="720" xmlns="http://www.w3.org/2000/svg" xmlns:xlink="http://www.w3.org/1999/xlink" overflow="hidden"><defs><clipPath id="clip0"><rect x="0" y="0" width="960" height="720"/></clipPath></defs><g clip-path="url(#clip0)"><rect x="0" y="0" width="960" height="720" fill="#FFFFFF"/><text font-family="Times New Roman,Times New Roman_MSFontService,sans-serif" font-weight="400" font-size="16" transform="translate(934.267 706)">28</text><rect x="69.5001" y="214.5" width="156" height="49" stroke="#000000" stroke-miterlimit="8" fill="#0000FF" fill-opacity="0.258824"/><text font-family="Microsoft YaHei,Microsoft YaHei_MSFontService,sans-serif" font-weight="700" font-size="32" transform="translate(108.417 249)">控制器</text><rect x="36" y="171" width="520" height="440" stroke="#FF0000" stroke-width="4" stroke-linecap="round" stroke-miterlimit="8" stroke-dasharray="0 8" fill="none"/><text fill="#FF3300" font-family="Microsoft YaHei,Microsoft YaHei_MSFontService,sans-serif" font-weight="700" font-size="32" transform="translate(80.1667 207)">CPU</text><rect x="282.5" y="223.5" width="108" height="40" stroke="#000000" stroke-miterlimit="8" fill="#FF0000" fill-opacity="0.180392"/><text fill="#008000" font-family="Microsoft YaHei,Microsoft YaHei_MSFontService,sans-serif" font-weight="700" font-size="19" transform="translate(334.417 246)">PC</text><rect x="877.5" y="266.5" width="70" height="87" stroke="#000000" stroke-miterlimit="8" fill="#0000FF" fill-opacity="0.258824"/><text fill="#CC3300" font-family="Microsoft YaHei,Microsoft YaHei_MSFontService,sans-serif" font-weight="700" font-size="32" transform="translate(880 301)">输入<tspan font-size="32" x="0" y="38">设备</tspan></text><path d="M839.5 313 845.992 301.5 845.992 307.25 866.008 307.25 866.008 301.5 872.5 313 866.008 324.5 866.008 318.75 845.992 318.75 845.992 324.5Z" stroke="#CC3300" stroke-width="3" stroke-miterlimit="8" fill="#FFFFFF" fill-rule="evenodd"/><rect x="877.5" y="403.5" width="66" height="87" stroke="#000000" stroke-miterlimit="8" fill="#0000FF" fill-opacity="0.258824"/><text fill="#CC3300" font-family="Microsoft YaHei,Microsoft YaHei_MSFontService,sans-serif" font-weight="700" font-size="32" transform="translate(877.917 438)">输出<tspan font-size="32" x="0" y="38">设备</tspan></text><path d="M839.5 448 846.906 436.5 846.906 442.25 870.094 442.25 870.094 436.5 877.5 448 870.094 459.5 870.094 453.75 846.906 453.75 846.906 459.5Z" stroke="#CC3300" stroke-width="3" stroke-miterlimit="8" fill="#FFFFFF" fill-rule="evenodd"/><rect x="419.5" y="223.5" width="113" height="40" stroke="#000000" stroke-miterlimit="8" fill="#FF0000" fill-opacity="0.180392"/><text fill="#008000" font-family="Microsoft YaHei,Microsoft YaHei_MSFontService,sans-serif" font-weight="700" font-size="19" transform="translate(457.583 246)">MAR</text><rect x="423.5" y="540.5" width="114" height="39" stroke="#000000" stroke-miterlimit="8" fill="#FF0000" fill-opacity="0.180392"/><text fill="#063DE8" font-family="Microsoft YaHei,Microsoft YaHei_MSFontService,sans-serif" font-weight="700" font-size="19" transform="translate(462 562)">MDR</text><path d="M225 240 241 240 241 244 225 244ZM253 240 269 240 269 244 253 244ZM270 236 282 242 270 248Z" fill="#FF3300"/><path d="M390 240 409 240 409 244 390 244ZM407 236 419 242 407 248Z" fill="#007635"/><path d="M463 498 463 530 459 530 459 498ZM455 500 461 488 467 500ZM467 528 461 540 455 528Z" fill="#3333CC"/><path d="M370.5 303.5 371.5 371.5" stroke="#000000" stroke-width="2.66667" stroke-linejoin="round" stroke-miterlimit="10" fill="none" fill-rule="evenodd"/><path d="M0 0 76 31" stroke="#000000" stroke-width="2.66667" stroke-linejoin="round" stroke-miterlimit="10" fill="none" fill-rule="evenodd" transform="matrix(-1 0 0 1 368.5 303.5)"/><path d="M0 0 27 11" stroke="#000000" stroke-width="2.66667" stroke-linejoin="round" stroke-miterlimit="10" fill="none" fill-rule="evenodd" transform="matrix(-1 0 0 1 370.5 371.5)"/><path d="M0 0 1 45" stroke="#000000" stroke-width="2.66667" stroke-linejoin="round" stroke-miterlimit="10" fill="none" fill-rule="evenodd" transform="matrix(-1 0 0 1 292.5 334.5)"/><path d="M366.5 459.5 366.5 395.5" stroke="#000000" stroke-width="2.66667" stroke-linejoin="round" stroke-miterlimit="10" fill="none" fill-rule="evenodd"/><path d="M364.5 458.5 292.5 424.5" stroke="#000000" stroke-width="2.66667" stroke-linejoin="round" stroke-miterlimit="10" fill="none" fill-rule="evenodd"/><path d="M366.5 394.5 344.5 382.5" stroke="#000000" stroke-width="2.66667" stroke-linejoin="round" stroke-miterlimit="10" fill="none" fill-rule="evenodd"/><path d="M291.5 423.5 291.5 376.5" stroke="#000000" stroke-width="2.66667" stroke-linejoin="round" stroke-miterlimit="10" fill="none" fill-rule="evenodd"/><text font-family="Arial,Arial_MSFontService,sans-serif" font-weight="700" font-size="32" transform="matrix(-1.83697e-16 -1 1 -1.83697e-16 327.798 417)">ALU</text><path d="M4.99938e-06-2 32-1.99992 32 2.00008-4.99938e-06 2ZM30-5.99992 42 0.000104987 30 6.00007Z" fill="#3333CC" transform="matrix(-1 0 0 1 409 346)"/><path d="M4.99938e-06-2 32-1.99992 32 2.00008-4.99938e-06 2ZM30-5.99992 42 0.000104987 30 6.00007Z" fill="#3333CC" transform="matrix(-1 0 0 1 409 431)"/><rect x="187.5" y="294.5" width="47" height="171" stroke="#000000" stroke-miterlimit="8" fill="#FF0000" fill-opacity="0.180392"/><text font-family="Microsoft YaHei,Microsoft YaHei_MSFontService,sans-serif" font-weight="700" font-size="27" transform="translate(197.333 325)">标<tspan font-size="27" x="0" y="32">志</tspan><tspan font-size="27" x="0" y="64">寄</tspan><tspan font-size="27" x="0" y="96">存</tspan><tspan font-size="27" x="0" y="128">器</tspan></text><path d="M3.68375e-06-2 47-1.99991 47 2.00009-3.68375e-06 2ZM45-5.99992 57 0.000104987 45 6.00008Z" fill="#3333CC" transform="matrix(-1 0 0 1 291 355)"/><path d="M0 0 24 0.000104987" stroke="#3333CC" stroke-width="3" stroke-linejoin="round" stroke-miterlimit="10" fill="none" fill-rule="evenodd" transform="matrix(-1 0 0 1 183.5 351.5)"/><path d="M2-2.33304e-06 2.00009 80-1.99991 80-2 2.33304e-06ZM6.00009 78 0.000104987 90-5.99991 78Z" fill="#3333CC" transform="matrix(1 0 0 -1 159 351)"/><path d="M2-3.74953e-06 2.00009 46-1.99991 46-2 3.74953e-06ZM6.00008 44 0.000104987 56-5.99992 44Z" fill="#008000" transform="matrix(1 0 0 -1 475 322)"/><path d="M263 393 263 549" stroke="#3333CC" stroke-width="4" stroke-linejoin="round" stroke-miterlimit="10" fill="none" fill-rule="evenodd"/><path d="M263 547 413 547 413 551 263 551ZM411 543 423 549 411 555Z" fill="#3333CC"/><path d="M0 0 28 0.000104987" stroke="#3333CC" stroke-width="3" stroke-linejoin="round" stroke-miterlimit="10" fill="none" fill-rule="evenodd" transform="matrix(-1 0 0 1 291.5 393.5)"/><path d="M0 0 0.000104987 76" stroke="#3333CC" stroke-width="4" stroke-linejoin="round" stroke-miterlimit="10" fill="none" fill-rule="evenodd" transform="matrix(1 0 0 -1 353 549)"/><path d="M353 472 394 472 394 476 353 476ZM392 468 404 474 392 480Z" fill="#3333CC"/><path d="M0 0 496 0.000104987" stroke="#FF3300" stroke-width="4" stroke-linejoin="round" stroke-miterlimit="10" stroke-dasharray="16 12" fill="none" fill-rule="evenodd" transform="matrix(1 0 0 -1 121 507)"/><path d="M126 265 126 497" stroke="#FF3300" stroke-width="4" stroke-linejoin="round" stroke-miterlimit="10" stroke-dasharray="16 12" fill="none" fill-rule="evenodd"/><path d="M2-3.38667e-06 2.00003 16-1.99997 16-2 3.38667e-06ZM2.00005 28 2.00007 44-1.99993 44-1.99995 28ZM6.00008 50 0.000104987 62-5.99992 50Z" fill="#FF3300" transform="matrix(1 0 0 -1 319 502)"/><rect x="69.5001" y="544.5" width="109" height="40" stroke="#000000" stroke-miterlimit="8" fill="#FF0000" fill-opacity="0.180392"/><text fill="#12A5C8" font-family="Microsoft YaHei,Microsoft YaHei_MSFontService,sans-serif" font-weight="700" font-size="19" transform="translate(124.667 567)">IR</text><path d="M8.53552e-07-2 236-1.9999 236 2.0001-8.53552e-07 2ZM234-5.9999 246 0.000104987 234 6.0001Z" fill="#12A5C8" transform="matrix(-1 0 0 1 424 568)"/><path d="M2-7.41957e-07 2.0001 273-1.9999 273-2 7.41957e-07ZM6.0001 271 0.000104987 283-5.9999 271Z" fill="#12A5C8" transform="matrix(1 0 0 -1 88 544)"/><text fill="#008000" font-family="Microsoft YaHei,Microsoft YaHei_MSFontService,sans-serif" font-weight="700" font-size="27" transform="translate(592.917 211)">地址</text><path d="M561.5 389 586.82 365.5 586.82 377.25 663.18 377.25 663.18 365.5 688.5 389 663.18 412.5 663.18 400.75 586.82 400.75 586.82 412.5Z" stroke="#FF3300" stroke-width="3" stroke-miterlimit="8" fill="#FFFFFF" fill-rule="evenodd"/><text fill="#3333CC" font-family="Microsoft YaHei,Microsoft YaHei_MSFontService,sans-serif" font-weight="700" font-size="27" transform="translate(602.333 542)">数据</text><path d="M556.5 564 582.78 540.5 582.78 552.25 662.22 552.25 662.22 540.5 688.5 564 662.22 587.5 662.22 575.75 582.78 575.75 582.78 587.5Z" stroke="#3333CC" stroke-width="3" stroke-miterlimit="8" fill="#FFFFFF" fill-rule="evenodd"/><text fill="#FF3300" font-family="Microsoft YaHei,Microsoft YaHei_MSFontService,sans-serif" font-weight="700" font-size="27" transform="translate(602.417 359)">控制</text><path d="M556.5 227.75 655.32 227.75 655.32 213.5 688.5 242 655.32 270.5 655.32 256.25 556.5 256.25Z" stroke="#008000" stroke-width="3" stroke-miterlimit="8" fill="#FFFFFF" fill-rule="evenodd"/><text font-family="Microsoft YaHei,Microsoft YaHei_MSFontService,sans-serif" font-weight="700" font-size="32" transform="translate(386.083 305)">GPRs</text><rect x="409.5" y="322.5" width="108" height="166" stroke="#000000" stroke-width="3" stroke-miterlimit="8" fill="#FFFFFF"/><path d="M409.5 365.5 517.5 365.5" stroke="#000000" stroke-linejoin="round" stroke-miterlimit="10" fill="none" fill-rule="evenodd"/><path d="M409.5 407.5 517.5 407.5" stroke="#000000" stroke-linejoin="round" stroke-miterlimit="10" fill="none" fill-rule="evenodd"/><path d="M409.5 445.5 517.5 445.5" stroke="#000000" stroke-linejoin="round" stroke-miterlimit="10" fill="none" fill-rule="evenodd"/><text font-family="Microsoft YaHei,Microsoft YaHei_MSFontService,sans-serif" font-weight="700" font-size="19" transform="translate(528.333 346)">0<tspan font-size="19" x="0.166626" y="41">1</tspan><tspan font-size="19" x="0.166626" y="84">2</tspan><tspan font-size="19" x="0" y="131">3</tspan></text><rect x="409" y="322" width="109" height="166" fill="#008000" fill-opacity="0.168627"/><rect x="688" y="166" width="119" height="48" fill="#0000FF" fill-opacity="0.258824"/><text font-family="Microsoft YaHei,Microsoft YaHei_MSFontService,sans-serif" font-weight="700" font-size="32" transform="translate(699.356 202)">存储器</text><rect x="688.5" y="218.5" width="119" height="369" stroke="#000000" stroke-width="3" stroke-miterlimit="8" fill="#FFFFFF"/><path d="M688.5 261.5 807.5 261.5" stroke="#000000" stroke-linejoin="round" stroke-miterlimit="10" fill="none" fill-rule="evenodd"/><path d="M688.5 308.5 807.5 308.5" stroke="#000000" stroke-linejoin="round" stroke-miterlimit="10" fill="none" fill-rule="evenodd"/><path d="M688.5 355.5 807.5 355.5" stroke="#000000" stroke-linejoin="round" stroke-miterlimit="10" fill="none" fill-rule="evenodd"/><path d="M688.5 403.5 807.5 403.5" stroke="#000000" stroke-linejoin="round" stroke-miterlimit="10" fill="none" fill-rule="evenodd"/><path d="M688.5 450.5 807.5 450.5" stroke="#000000" stroke-linejoin="round" stroke-miterlimit="10" fill="none" fill-rule="evenodd"/><path d="M688.5 497.5 807.5 497.5" stroke="#000000" stroke-linejoin="round" stroke-miterlimit="10" fill="none" fill-rule="evenodd"/><path d="M688.5 544.5 807.5 544.5" stroke="#000000" stroke-linejoin="round" stroke-miterlimit="10" fill="none" fill-rule="evenodd"/><text fill="#008000" font-family="Microsoft YaHei,Microsoft YaHei_MSFontService,sans-serif" font-weight="700" font-size="19" transform="translate(812.517 252)">0<tspan font-size="19" x="0.161438" y="36">1</tspan><tspan font-size="19" x="0.161438" y="88">2</tspan><tspan font-size="19" x="0" y="135">3</tspan><tspan font-size="19" x="0.161438" y="173">4</tspan><tspan font-size="19" x="0.161438" y="230">5</tspan><tspan font-size="19" x="0" y="273">6</tspan><tspan font-size="19" x="0" y="324">7</tspan></text><rect x="688" y="218" width="118" height="369" fill="#008000" fill-opacity="0.168627"/><text font-family="Microsoft YaHei,Microsoft YaHei_MSFontService,sans-serif" font-weight="700" font-size="32" transform="translate(62.1667 117)">你还记得冯.诺依曼计算机结构的特点吗？</text><rect x="22" y="143" width="812" height="477" stroke="#000000" stroke-width="2" stroke-miterlimit="8" stroke-dasharray="8 6" fill="none"/><text fill="#FC0128" font-family="SimSun,SimSun_MSFontService,sans-serif" font-weight="700" font-size="48" transform="translate(54.6667 53)">现代计算机结构模型</text><path d="M2-2.01898e-06 2.00002 16-1.99998 16-2 2.01898e-06ZM2.00003 28 2.00004 44-1.99996 44-1.99997 28ZM2.00006 56 2.00007 72-1.99993 72-1.99994 56ZM2.00008 84 2.00009 94-1.9999 94-1.99992 84ZM6.00009 92 0.000104987 104-5.99991 92Z" fill="#FF3300" transform="matrix(1 0 0 -1 615 507)"/><path d="M564.5 373C564.5 246.251 589.124 143.5 619.5 143.5 649.876 143.5 674.5 246.251 674.5 373 674.5 499.749 649.876 602.5 619.5 602.5 589.124 602.5 564.5 499.749 564.5 373Z" stroke="#081D58" stroke-width="3" stroke-miterlimit="8" stroke-dasharray="12 9 3 9" fill="#FFFFFF" fill-rule="evenodd" fill-opacity="0"/><text font-family="SimSun,SimSun_MSFontService,sans-serif" font-weight="700" font-size="27" transform="translate(611.017 175)">总线<tspan font-size="27" x="46.0614" y="-38">主机</tspan></text></g></svg>