<svg width="960" height="720" xmlns="http://www.w3.org/2000/svg" xmlns:xlink="http://www.w3.org/1999/xlink" overflow="hidden"><defs><clipPath id="clip0"><rect x="0" y="0" width="960" height="720"/></clipPath></defs><g clip-path="url(#clip0)"><rect x="0" y="0" width="960" height="720" fill="#FFFFFF"/><text font-family="SimSun,SimSun_MSFontService,sans-serif" font-weight="400" font-size="19" transform="translate(731.667 695)">链路层和局域网<tspan font-family="Times New Roman,Times New Roman_MSFontService,sans-serif" font-size="19" x="152.5" y="0">5</tspan><tspan font-family="Times New Roman,Times New Roman_MSFontService,sans-serif" font-size="19" x="161.833" y="0">-</tspan><tspan font-family="Times New Roman,Times New Roman_MSFontService,sans-serif" font-size="19" x="168" y="0">26</tspan><tspan fill="#3333CC" font-weight="700" font-size="48" x="-666" y="-594">纯</tspan><tspan fill="#3333CC" font-family="Comic Sans MS,Comic Sans MS_MSFontService,sans-serif" font-weight="700" font-size="48" x="-617.833" y="-594">Aloha</tspan><tspan fill="#3333CC" font-weight="700" font-size="48" x="-490" y="-594">效率</tspan></text><path d="M65.6667 105.2 201.667 105.2 337.667 105.2 337.667 107.2 201.667 107.2 65.6667 107.2Z" fill="#3333CC" fill-rule="evenodd"/><text font-family="Comic Sans MS,Comic Sans MS_MSFontService,sans-serif" font-weight="700" font-size="37" transform="translate(65.6667 180)">P(<tspan font-family="SimSun,SimSun_MSFontService,sans-serif" font-size="37" x="33.5" y="0">给定节点成功传送</tspan><tspan font-size="37" x="333.5" y="0">) = P(</tspan><tspan font-family="SimSun,SimSun_MSFontService,sans-serif" font-size="37" x="435.833" y="0">节点传送</tspan><tspan font-size="37" x="585.833" y="0">) </tspan><tspan font-size="32" x="615.667" y="-8">.</tspan><tspan font-size="37" x="129.333" y="66">P(</tspan><tspan font-family="SimSun,SimSun_MSFontService,sans-serif" font-size="37" x="162.833" y="66">没有其他节点在</tspan>[t<tspan font-size="25" x="457" y="74">0</tspan><tspan font-size="37" x="472.167" y="66">-</tspan><tspan font-size="37" x="495" y="66">1,t</tspan><tspan font-size="25" x="551.667" y="74">0</tspan><tspan font-size="37" x="566.833" y="66">]</tspan><tspan font-family="SimSun,SimSun_MSFontService,sans-serif" font-size="37" x="580.833" y="66">内传送</tspan>) <tspan font-size="32" x="723.167" y="58">.</tspan><tspan font-size="37" x="129.333" y="123">P(</tspan><tspan font-family="SimSun,SimSun_MSFontService,sans-serif" font-size="37" x="162.833" y="123">没有其他节点在</tspan>[t<tspan font-size="25" x="457" y="131">0</tspan><tspan font-size="37" x="472.167" y="123">,t</tspan><tspan font-size="25" x="506" y="131">0 </tspan><tspan font-size="37" x="532" y="123">+1]</tspan><tspan font-family="SimSun,SimSun_MSFontService,sans-serif" font-size="37" x="591.667" y="123">内传送</tspan>)<tspan font-size="37" x="129.333" y="176">= p </tspan><tspan font-size="32" x="204.5" y="168">. </tspan><tspan font-size="37" x="232.167" y="176">(1</tspan>-p)<tspan font-size="25" x="325.167" y="165">N</tspan><tspan font-size="25" x="345.333" y="165">-</tspan><tspan font-size="25" x="360.5" y="165">1</tspan><tspan font-size="32" x="389.5" y="168">. </tspan><tspan font-size="37" x="417.167" y="176">(1</tspan><tspan font-size="37" x="453.667" y="176">-</tspan><tspan font-size="37" x="476.5" y="176">p)</tspan><tspan font-size="25" x="510.167" y="165">N</tspan><tspan font-size="25" x="530.333" y="165">-</tspan><tspan font-size="25" x="545.5" y="165">1</tspan><tspan font-size="37" x="130" y="243">= p </tspan><tspan font-size="32" x="205.167" y="235">. </tspan><tspan font-size="37" x="232.833" y="243">(1</tspan>-p)<tspan font-size="25" x="325.833" y="232">2(N</tspan><tspan font-size="25" x="370.333" y="232">-</tspan><tspan font-size="25" x="385.5" y="232">1)</tspan><tspan font-size="32" x="138.333" y="331">… </tspan><tspan font-family="SimSun,SimSun_MSFontService,sans-serif" font-size="32" x="173.833" y="331">选择</tspan><tspan font-size="32" x="238.167" y="331">p</tspan><tspan font-family="SimSun,SimSun_MSFontService,sans-serif" font-size="32" x="255.333" y="331">值，然后求</tspan><tspan font-size="32" x="416.167" y="331">N</tspan><tspan font-size="32" x="442.167" y="331">-</tspan><tspan font-size="32" x="461.667" y="331">&gt;</tspan><tspan font-family="SimSun,SimSun_MSFontService,sans-serif" font-size="32" x="481.167" y="331">无穷时的极限</tspan><tspan font-size="32" x="674.167" y="331">...</tspan><tspan font-size="32" x="132.833" y="420">= 1/(2e) = 0.18 </tspan><tspan fill="#FF0000" font-size="32" x="46.3333" y="371">Even worse !</tspan></text></g></svg>