<svg width="960" height="720" xmlns="http://www.w3.org/2000/svg" xmlns:xlink="http://www.w3.org/1999/xlink" overflow="hidden"><defs><clipPath id="clip0"><rect x="0" y="0" width="960" height="720"/></clipPath></defs><g clip-path="url(#clip0)"><rect x="0" y="0" width="960" height="720" fill="#FFFFFF"/><text font-family="SimSun,SimSun_MSFontService,sans-serif" font-weight="400" font-size="19" transform="translate(731.667 695)">链路层和局域网<tspan font-family="Times New Roman,Times New Roman_MSFontService,sans-serif" font-size="19" x="161.833" y="0">5</tspan><tspan font-family="Times New Roman,Times New Roman_MSFontService,sans-serif" font-size="19" x="171.167" y="0">-</tspan><tspan font-family="Times New Roman,Times New Roman_MSFontService,sans-serif" font-size="19" x="177.333" y="0">8</tspan><tspan fill="#3333CC" font-weight="700" font-size="53" x="-666" y="-592">适配器通信</tspan></text><path d="M65.6667 108 199.667 108 333.667 108 333.667 110 199.667 110 65.6667 110Z" fill="#3333CC" fill-rule="evenodd"/><text fill="#3333CC" font-family="Wingdings,Wingdings_MSFontService,sans-serif" font-weight="400" font-size="27" transform="translate(51.5001 362)"><tspan fill="#000000" font-family="SimSun,SimSun_MSFontService,sans-serif" font-weight="700" font-size="32" x="36" y="0">链路层在</tspan><tspan fill="#000000" font-family="SimSun,SimSun_MSFontService,sans-serif" font-weight="700" font-size="32" x="178.5" y="0">“适配器”</tspan><tspan fill="#000000" font-family="Comic Sans MS,Comic Sans MS_MSFontService,sans-serif" font-weight="700" font-size="32" x="353.167" y="0">(</tspan><tspan fill="#000000" font-family="SimSun,SimSun_MSFontService,sans-serif" font-weight="700" font-size="32" x="364.833" y="0">网</tspan><tspan fill="#000000" font-family="SimSun,SimSun_MSFontService,sans-serif" font-weight="700" font-size="32" x="36" y="38">卡</tspan><tspan fill="#000000" font-family="Comic Sans MS,Comic Sans MS_MSFontService,sans-serif" font-weight="700" font-size="32" x="68.1667" y="38">)</tspan><tspan fill="#000000" font-family="SimSun,SimSun_MSFontService,sans-serif" font-weight="700" font-size="32" x="79.8333" y="38">中实现</tspan><tspan font-size="20" x="48" y="78"></tspan><tspan fill="#000000" font-family="Comic Sans MS,Comic Sans MS_MSFontService,sans-serif" font-weight="700" font-size="27" x="78" y="78">Ethernet</tspan><tspan fill="#000000" font-family="SimSun,SimSun_MSFontService,sans-serif" font-weight="700" font-size="27" x="191.5" y="78">卡，</tspan><tspan fill="#000000" font-family="Comic Sans MS,Comic Sans MS_MSFontService,sans-serif" font-weight="700" font-size="27" x="245.167" y="78">PCMCIA</tspan><tspan fill="#000000" font-family="SimSun,SimSun_MSFontService,sans-serif" font-weight="700" font-size="27" x="349.833" y="78">卡，</tspan><tspan fill="#000000" font-family="Comic Sans MS,Comic Sans MS_MSFontService,sans-serif" font-weight="700" font-size="27" x="78" y="110">802.11</tspan><tspan fill="#000000" font-family="SimSun,SimSun_MSFontService,sans-serif" font-weight="700" font-size="27" x="171.167" y="110">卡</tspan><tspan font-size="27" x="0" y="155"></tspan><tspan fill="#000000" font-family="SimSun,SimSun_MSFontService,sans-serif" font-weight="700" font-size="32" x="36" y="155">发送方：</tspan><tspan font-size="20" x="48" y="194"></tspan><tspan fill="#000000" font-family="SimSun,SimSun_MSFontService,sans-serif" font-weight="700" font-size="27" x="78" y="194">封装分组成帧</tspan><tspan font-size="20" x="48" y="235"></tspan><tspan fill="#000000" font-family="SimSun,SimSun_MSFontService,sans-serif" font-weight="700" font-size="27" x="78" y="235">增加检错位、可靠传输、流</tspan><tspan fill="#000000" font-family="SimSun,SimSun_MSFontService,sans-serif" font-weight="700" font-size="27" x="78" y="265">量控制等</tspan><tspan font-size="27" x="431.5" y="-1"></tspan><tspan fill="#000000" font-family="SimSun,SimSun_MSFontService,sans-serif" font-weight="700" font-size="32" x="467.5" y="-1">接收方</tspan><tspan font-size="20" x="479.5" y="40"></tspan><tspan fill="#000000" font-family="SimSun,SimSun_MSFontService,sans-serif" font-weight="700" font-size="27" x="509.5" y="40">检测差错、可靠交付、流量控</tspan><tspan fill="#000000" font-family="SimSun,SimSun_MSFontService,sans-serif" font-weight="700" font-size="27" x="509.5" y="71">制等</tspan><tspan font-size="20" x="479.5" y="109"></tspan><tspan fill="#000000" font-family="SimSun,SimSun_MSFontService,sans-serif" font-weight="700" font-size="27" x="509.5" y="109">提取分组，传给接收节点</tspan><tspan font-size="27" x="431.5" y="154"></tspan><tspan fill="#000000" font-family="SimSun,SimSun_MSFontService,sans-serif" font-weight="700" font-size="32" x="467.5" y="154">适配器是半自治的</tspan><tspan font-size="27" x="431.5" y="200"></tspan><tspan fill="#000000" font-family="SimSun,SimSun_MSFontService,sans-serif" font-weight="700" font-size="32" x="467.5" y="200">链路层</tspan><tspan fill="#000000" font-family="Comic Sans MS,Comic Sans MS_MSFontService,sans-serif" font-weight="700" font-size="32" x="577.833" y="200">&amp; </tspan><tspan fill="#000000" font-family="SimSun,SimSun_MSFontService,sans-serif" font-weight="700" font-size="32" x="612.667" y="200">物理层</tspan><tspan fill="#000000" font-family="SimSun,SimSun_MSFontService,sans-serif" font-weight="700" font-size="24" x="-24.6667" y="-162">发送节</tspan><tspan fill="#000000" font-family="SimSun,SimSun_MSFontService,sans-serif" font-weight="700" font-size="24" x="-24.6667" y="-135">点</tspan></text><rect x="246.5" y="230.5" width="101" height="44" stroke="#000000" stroke-width="1.33333" stroke-miterlimit="8" fill="#CCFFFF"/><rect x="258.5" y="236.5" width="79" height="31" stroke="#000000" stroke-width="1.33333" stroke-miterlimit="8" fill="#00CC99"/><text font-family="SimSun,SimSun_MSFontService,sans-serif" font-weight="700" font-size="32" transform="translate(281.333 263)">帧</text><path d="M346.5 258.5 612.5 258.5" stroke="#000000" stroke-width="2.66667" stroke-linejoin="round" stroke-miterlimit="10" fill="none" fill-rule="evenodd"/><rect x="712.5" y="146.5" width="118" height="128" stroke="#000000" stroke-width="1.33333" stroke-miterlimit="8" fill="#FFFF00"/><rect x="744.5" y="186.5" width="51" height="29" stroke="#000000" stroke-width="1.33333" stroke-miterlimit="8" fill="#00CC99"/><rect x="128.5" y="146.5" width="118" height="128" stroke="#000000" stroke-width="1.33333" stroke-miterlimit="8" fill="#FFFF00"/><rect x="162.5" y="185.5" width="51" height="27" stroke="#000000" stroke-width="1.33333" stroke-miterlimit="8" fill="#00CC99"/><text font-family="SimSun,SimSun_MSFontService,sans-serif" font-weight="700" font-size="24" transform="translate(846.167 206)">接收节点</text><path d="M0.314435-0.587856 38.6116 19.8966 37.9827 21.0724-0.314435 0.587856ZM38.2971 20.4845 37.8323 15.6996 43 23 34.0591 22.7539Z" fill="#FF0000" transform="matrix(-1 0 0 1 260.5 169.5)"/><text fill="#FF0000" font-family="SimSun,SimSun_MSFontService,sans-serif" font-weight="700" font-size="24" transform="translate(255.833 157)">数据报</text><path d="M187.342 208.654 186.499 215.885 185.998 222.73 185.832 225.988 185.826 225.784 186.164 229.07 186.5 232.186 186.451 231.944 187.294 234.737 189.133 240.114 190.255 242.435 191.57 244.836 191.408 244.602 193.262 246.738 193.11 246.589 195.47 248.561 195.224 248.398 198.427 250.041 202.172 251.461 204.561 252.073 207.317 252.543 210.592 252.858 214.127 253.186 222.177 253.676 230.551 253.838 238.786 253.838 242.664 253.838 246.373 253.838 249.745 253.838 252.001 253.838C252.737 253.838 253.334 254.435 253.334 255.171 253.334 255.908 252.737 256.505 252.001 256.505L249.745 256.505 246.373 256.505 242.664 256.505 238.786 256.505 230.499 256.504 222.015 256.338 213.88 255.842 210.334 255.512 206.865 255.171 203.89 254.654 201.221 253.952 197.21 252.414 194.007 250.77C193.919 250.725 193.836 250.67 193.761 250.607L191.4 248.635C191.346 248.59 191.295 248.54 191.248 248.486L189.394 246.35C189.331 246.278 189.277 246.199 189.231 246.116L187.849 243.586 186.61 240.977 184.741 235.508 183.898 232.714C183.874 232.635 183.858 232.554 183.849 232.472L183.511 229.342 183.174 226.056C183.167 225.988 183.165 225.919 183.168 225.851L183.339 222.535 183.85 215.576 184.693 208.346C184.778 207.614 185.44 207.09 186.172 207.176 186.903 207.261 187.427 207.923 187.342 208.654ZM252.001 255.171 249.458 251.091 257.331 255.336 249.212 259.087Z" fill="#FF0000"/><rect x="611.5" y="229.5" width="101" height="45" stroke="#000000" stroke-width="1.33333" stroke-miterlimit="8" fill="#CCFFFF"/><rect x="623.5" y="235.5" width="79" height="31" stroke="#000000" stroke-width="1.33333" stroke-miterlimit="8" fill="#00CC99"/><text font-family="SimSun,SimSun_MSFontService,sans-serif" font-weight="700" font-size="32" transform="translate(646.167 262)">帧<tspan font-size="24" x="-383.333" y="39">适配器</tspan><tspan font-size="24" x="-25" y="39">适配器</tspan></text><path d="M638.333 221.16 637.833 218.777 636.5 216.564 634.167 214.521 631 212.819 623 210.266 613.333 209.415 513 209.415 503.333 208.394 495.333 205.84 492.333 204.138 489.833 202.096 488.333 199.883 488 197.5 487.5 199.883 486 202.096 483.667 204.138 480.667 205.84 472.667 208.394 462.833 209.415 362.667 209.415 352.833 210.266 344.833 212.819 341.833 214.692 339.5 216.564 338 218.777 337.5 221.33" stroke="#000000" stroke-width="1.33333" stroke-linecap="round" stroke-linejoin="round" stroke-miterlimit="10" fill="none" fill-rule="evenodd"/><text font-family="SimSun,SimSun_MSFontService,sans-serif" font-weight="700" font-size="24" transform="translate(427.333 185)">链路层协议</text><path d="M704.584 250.188 712.398 250.679 720.019 251.004 727.582 250.84 734.976 250.19 738.746 249.706 742.916 249.213 751.033 248.072 754.891 247.117 758.285 245.999 761.296 244.586 761.068 244.722 763.728 242.759 763.459 243.023 765.454 240.407 765.326 240.611 766.989 237.34 766.904 237.55 768.067 233.788 769.046 229.929 769.515 226.164 770.185 222.525C770.319 221.801 771.015 221.322 771.739 221.456 772.463 221.59 772.941 222.285 772.807 223.01L772.16 226.5 771.631 230.585 770.615 234.576 769.451 238.338C769.429 238.41 769.4 238.481 769.366 238.548L767.703 241.819C767.667 241.891 767.624 241.959 767.575 242.023L765.58 244.64C765.503 244.741 765.413 244.83 765.311 244.905L762.651 246.867C762.58 246.92 762.503 246.965 762.423 247.003L759.116 248.533 755.528 249.706 751.404 250.713 743.229 251.862 739.085 252.351 735.208 252.847 727.639 253.506 719.905 253.669 712.231 253.34 704.417 252.849C703.682 252.803 703.123 252.17 703.169 251.435 703.216 250.7 703.849 250.142 704.584 250.188ZM771.496 222.767 767.127 224.773 772.334 217.5 775.028 226.029Z" fill="#FF0000"/></g></svg>