<svg width="653" height="277" xmlns="http://www.w3.org/2000/svg" xmlns:xlink="http://www.w3.org/1999/xlink" overflow="hidden"><defs><clipPath id="clip0"><rect x="35" y="397" width="653" height="277"/></clipPath></defs><g clip-path="url(#clip0)" transform="translate(-35 -397)"><rect x="325.5" y="507.5" width="357" height="70" stroke="#000000" stroke-width="1.33333" stroke-miterlimit="8" fill="#CCCCFF"/><text font-family="Comic Sans MS,Comic Sans MS_MSFontService,sans-serif" font-weight="700" font-size="24" transform="translate(75.6667 536)">B’s MAC<tspan font-size="24" x="21.5" y="29">addr</tspan><tspan font-size="24" x="109.333" y="0">A’s MAC</tspan><tspan font-size="24" x="132" y="29">addr</tspan><tspan font-size="24" x="269" y="-1">A’s IP</tspan><tspan font-size="24" x="277.913" y="28">addr</tspan><tspan font-size="24" x="370.5" y="-1">B’s IP</tspan><tspan font-size="24" x="378.247" y="28">addr</tspan><tspan font-size="24" x="474.5" y="13">IP payload</tspan></text><rect x="46.5001" y="506.5" width="637" height="71" stroke="#FF0000" stroke-width="2.66667" stroke-miterlimit="8" fill="none"/><path d="M182.5 508.5 182.5 578.5" stroke="#000000" stroke-width="1.33333" stroke-linejoin="round" stroke-miterlimit="10" fill="none" fill-rule="evenodd"/><path d="M297.5 507.5 297.5 578.5" stroke="#000000" stroke-width="1.33333" stroke-linejoin="round" stroke-miterlimit="10" fill="none" fill-rule="evenodd"/><path d="M326.5 508.5 326.5 578.5" stroke="#000000" stroke-width="1.33333" stroke-linejoin="round" stroke-miterlimit="10" fill="none" fill-rule="evenodd"/><rect x="61" y="501" width="7" height="17" fill="#FFFFFF"/><rect x="58" y="568" width="8" height="16" fill="#FFFFFF"/><rect x="307" y="502" width="8" height="16" fill="#FFFFFF"/><rect x="309" y="569" width="8" height="17" fill="#FFFFFF"/><text font-family="Comic Sans MS,Comic Sans MS_MSFontService,sans-serif" font-weight="700" font-size="24" transform="translate(440.667 618)">datagram<tspan font-size="24" x="-154.333" y="35">frame</tspan></text><path d="M553.5 609.833 673.167 609.833 673.167 611.167 553.5 611.167ZM673.167 610.5 670.5 606.5 678.5 610.5 670.5 614.5Z"/><path d="M6.79527e-07-0.666667 97.6667-0.666567 97.6667 0.666766-6.79527e-07 0.666667ZM97.6667 9.95507e-05 95-3.9999 103 0.000104987 95 4.0001Z" transform="matrix(-1 0 0 1 433.5 611.5)"/><path d="M2.97835e-07-0.666667 229.667-0.666564 229.667 0.666769-2.97835e-07 0.666667ZM229.667 0.000102604 227-3.9999 235 0.000104987 227 4.0001Z" transform="matrix(-1 0 0 1 278.5 641.5)"/><path d="M360.5 643.833 673.168 643.833 673.168 645.167 360.5 645.167ZM673.167 644.5 670.5 640.5 678.5 644.5 670.5 648.5Z"/><text font-family="Comic Sans MS,Comic Sans MS_MSFontService,sans-serif" font-weight="700" font-size="24" transform="translate(124.333 428)">frame source,<tspan font-size="24" x="0" y="29">dest</tspan><tspan font-size="24" x="61" y="29">address</tspan><tspan font-size="24" x="219.833" y="3">datagram source,</tspan><tspan font-size="24" x="245.913" y="32">dest address</tspan></text><path d="M0.364833-0.55798 47.901 30.5234 47.1714 31.6393-0.364833 0.55798ZM47.5362 31.0813 47.4932 26.2741 52 34 43.1152 32.9699Z" transform="matrix(-1 0 0 1 176.5 467.5)"/><path d="M193.896 466.964 235.607 497.794 234.815 498.866 193.104 468.036ZM235.211 498.33 235.444 493.528 239.5 501.5 230.689 499.962Z"/><path d="M0.364833-0.55798 47.901 30.5234 47.1714 31.6393-0.364833 0.55798ZM47.5362 31.0813 47.4932 26.2741 52 34 43.1152 32.9699Z" transform="matrix(-1 0 0 1 422.5 468.5)"/><path d="M439.896 466.964 481.607 497.794 480.815 498.866 439.104 468.036ZM481.211 498.33 481.444 493.528 485.5 501.5 476.689 499.962Z"/></g></svg>