<svg width="409" height="269" xmlns="http://www.w3.org/2000/svg" xmlns:xlink="http://www.w3.org/1999/xlink" overflow="hidden"><defs><clipPath id="clip0"><rect x="304" y="418" width="409" height="269"/></clipPath></defs><g clip-path="url(#clip0)" transform="translate(-304 -418)"><rect x="354.5" y="439.5" width="66" height="237" stroke="#000000" stroke-width="1.33333" stroke-miterlimit="8" fill="#FFFFFF"/><path d="M0 0 65 1" stroke="#000000" stroke-width="1.33333" stroke-linejoin="round" stroke-miterlimit="10" fill="none" fill-rule="evenodd" transform="matrix(1 0 0 -1 354.5 556.5)"/><path d="M0 0 67 1" stroke="#000000" stroke-width="1.33333" stroke-linejoin="round" stroke-miterlimit="10" fill="none" fill-rule="evenodd" transform="matrix(1 0 0 -1 353.5 598.5)"/><path d="M0 0 65 1" stroke="#000000" stroke-width="1.33333" stroke-linejoin="round" stroke-miterlimit="10" fill="none" fill-rule="evenodd" transform="matrix(1 0 0 -1 354.5 638.5)"/><path d="M0 0 67 1" stroke="#000000" stroke-width="1.33333" stroke-linejoin="round" stroke-miterlimit="10" fill="none" fill-rule="evenodd" transform="matrix(1 0 0 -1 353.5 516.5)"/><path d="M0 0 66 1" stroke="#000000" stroke-width="1.33333" stroke-linejoin="round" stroke-miterlimit="10" fill="none" fill-rule="evenodd" transform="matrix(1 0 0 -1 354.5 476.5)"/><path d="M429.5 467.833 658.167 467.833 658.167 469.167 429.5 469.167ZM658.167 468.5 655.5 464.5 663.5 468.5 655.5 472.5Z"/><path d="M445.5 468.336 445.5 456.993 627.333 456.5 627.333 468.336" stroke="#000000" stroke-width="1.33333" stroke-linecap="round" stroke-linejoin="round" stroke-miterlimit="10" fill="none" fill-rule="evenodd"/><path d="M434.5 510.833 663.167 510.833 663.167 512.167 434.5 512.167ZM663.167 511.5 660.5 507.5 668.5 511.5 660.5 515.5Z"/><path d="M434.5 551.833 663.167 551.833 663.167 553.167 434.5 553.167ZM663.167 552.5 660.5 548.5 668.5 552.5 660.5 556.5Z"/><path d="M450.5 552.336 450.5 540.993 632.333 540.5 632.333 552.336" stroke="#000000" stroke-width="1.33333" stroke-linecap="round" stroke-linejoin="round" stroke-miterlimit="10" fill="none" fill-rule="evenodd"/><path d="M436.5 594.833 665.167 594.833 665.167 596.167 436.5 596.167ZM665.167 595.5 662.5 591.5 670.5 595.5 662.5 599.5Z"/><path d="M452.5 595.322 452.5 583.034 633.334 582.5 633.334 595.322" stroke="#000000" stroke-width="1.33333" stroke-linecap="round" stroke-linejoin="round" stroke-miterlimit="10" fill="none" fill-rule="evenodd"/><path d="M439.5 637.833 668.167 637.833 668.167 639.167 439.5 639.167ZM668.167 638.5 665.5 634.5 673.5 638.5 665.5 642.5Z"/><path d="M440.5 671.833 669.167 671.833 669.167 673.167 440.5 673.167ZM669.167 672.5 666.5 668.5 674.5 672.5 666.5 676.5Z"/><text font-family="Comic Sans MS,Comic Sans MS_MSFontService,sans-serif" font-weight="700" font-size="24" transform="matrix(-1.83697e-16 -1 1 -1.83697e-16 334.667 640)">frequency bands</text><text font-family="Comic Sans MS,Comic Sans MS_MSFontService,sans-serif" font-weight="700" font-size="24" transform="matrix(0.999848 0.0174524 -0.0174524 0.999848 647.354 449)">time</text><text font-family="Comic Sans MS,Comic Sans MS_MSFontService,sans-serif" font-weight="700" font-size="24" transform="translate(383.267 467)">1<tspan font-size="24" x="-1.33334" y="36">2</tspan><tspan font-size="24" x="-1.33334" y="78">3</tspan><tspan font-size="24" x="-1.33334" y="119">4</tspan><tspan font-size="24" x="-2.49994" y="158">5</tspan><tspan font-size="24" x="-2.49994" y="199">6</tspan></text></g></svg>