<svg width="960" height="720" xmlns="http://www.w3.org/2000/svg" xmlns:xlink="http://www.w3.org/1999/xlink" overflow="hidden"><defs><clipPath id="clip0"><rect x="0" y="0" width="960" height="720"/></clipPath></defs><g clip-path="url(#clip0)"><rect x="0" y="0" width="960" height="720" fill="#FFFFFF"/><path d="M33.5001 71.5001 921.5 71.5002" stroke="#FFCC66" stroke-width="1.33333" stroke-linejoin="round" stroke-miterlimit="10" fill="none" fill-rule="evenodd"/><text fill="#CC0000" font-family="SimSun,SimSun_MSFontService,sans-serif" font-weight="700" font-size="43" transform="translate(187.667 50)">大端方式与小端方式的比较<tspan fill="#000000" font-size="29" x="-158.233" y="71">例</tspan><tspan fill="#000000" font-family="Arial,Arial_MSFontService,sans-serif" font-size="29" x="-128.733" y="71">1</tspan><tspan fill="#000000" font-family="Arial,Arial_MSFontService,sans-serif" font-size="29" x="-112.4" y="71">: </tspan><tspan fill="#000000" font-size="29" x="-86.2333" y="71">将一个</tspan><tspan fill="#000000" font-family="Arial,Arial_MSFontService,sans-serif" font-size="29" x="2.26672" y="71">16</tspan><tspan fill="#000000" font-size="29" x="34.9334" y="71">位的十六进制数</tspan><tspan fill="#000000" font-family="Arial,Arial_MSFontService,sans-serif" font-size="29" x="241.433" y="71">ABCDH </tspan><tspan fill="#000000" font-size="29" x="355.433" y="71">存储在</tspan><tspan fill="#000000" font-family="Arial,Arial_MSFontService,sans-serif" font-size="29" x="443.933" y="71">1000</tspan><tspan fill="#000000" font-size="29" x="509.267" y="71">地址单元</tspan><tspan fill="#000000" font-size="29" x="-151.067" y="313">例</tspan><tspan fill="#000000" font-family="Arial,Arial_MSFontService,sans-serif" font-size="29" x="-121.567" y="313">2</tspan><tspan fill="#000000" font-family="Arial,Arial_MSFontService,sans-serif" font-size="29" x="-105.233" y="313">: </tspan><tspan fill="#000000" font-size="29" x="-87.2333" y="313">将一个</tspan><tspan fill="#000000" font-family="Arial,Arial_MSFontService,sans-serif" font-size="29" x="1.26666" y="313">32</tspan><tspan fill="#000000" font-size="29" x="33.9333" y="313">位的十六进制数</tspan><tspan fill="#000000" font-family="Arial,Arial_MSFontService,sans-serif" font-size="29" x="240.433" y="313">00ABCDEFH </tspan><tspan fill="#000000" font-size="29" x="424.6" y="313">存储在</tspan><tspan fill="#000000" font-family="Arial,Arial_MSFontService,sans-serif" font-size="29" x="513.1" y="313">1000</tspan><tspan fill="#000000" font-size="29" x="578.433" y="313">地址单元</tspan><tspan fill="#000000" font-size="29" x="4.26666" y="222">小端方式</tspan><tspan fill="#000000" font-family="Arial,Arial_MSFontService,sans-serif" font-size="29" x="122.267" y="222">:</tspan></text><path d="M447.5 264.833 488.833 264.833 488.833 266.167 447.5 266.167ZM487.5 261.5 495.5 265.5 487.5 269.5Z"/><text font-family="Arial,Arial_MSFontService,sans-serif" font-weight="700" font-size="29" transform="translate(519.933 257)">CD<tspan font-size="29" x="0" y="32">AB</tspan><tspan fill="#0000FF" font-size="29" x="72.6666" y="2">100</tspan><tspan fill="#0000FF" font-size="29" x="121.667" y="2">0</tspan><tspan fill="#0000FF" font-size="29" x="72.6666" y="34">100</tspan><tspan fill="#0000FF" font-size="29" x="121.667" y="34">1</tspan><tspan font-family="SimSun,SimSun_MSFontService,sans-serif" font-size="29" x="-328" y="-64">大端方式</tspan>:</text><path d="M450.5 185.833 491.833 185.833 491.833 187.167 450.5 187.167ZM490.5 182.5 498.5 186.5 490.5 190.5Z"/><text font-family="Arial,Arial_MSFontService,sans-serif" font-weight="700" font-size="29" transform="translate(519.933 184)">AB<tspan font-size="29" x="0" y="32">CD</tspan><tspan fill="#0000FF" font-size="29" x="68.1667" y="-1">100</tspan><tspan fill="#0000FF" font-size="29" x="117.167" y="-1">0</tspan><tspan fill="#0000FF" font-size="29" x="68.1667" y="31">100</tspan><tspan fill="#0000FF" font-size="29" x="117.167" y="31">1</tspan><tspan fill="#0000FF" font-size="29" x="67.8334" y="245">100</tspan><tspan fill="#0000FF" font-size="29" x="116.833" y="245">0</tspan><tspan fill="#0000FF" font-size="29" x="67.8334" y="277">100</tspan><tspan fill="#0000FF" font-size="29" x="116.833" y="277">1</tspan><tspan fill="#0000FF" font-size="29" x="67.8334" y="308">1002</tspan><tspan fill="#0000FF" font-size="29" x="67.8334" y="340">1003</tspan><tspan font-family="SimSun,SimSun_MSFontService,sans-serif" font-size="29" x="-331.833" y="279">大端方式</tspan><tspan font-size="29" x="-213.833" y="279">:</tspan><tspan font-size="29" x="-4.02869" y="246">00</tspan><tspan font-size="29" x="-4.02869" y="278">AB</tspan><tspan font-size="29" x="-4.02869" y="309">CD</tspan><tspan font-size="29" x="-4.02869" y="341">EF</tspan></text><path d="M433.5 456.833 478.833 456.833 478.833 458.167 433.5 458.167ZM477.5 453.5 485.5 457.5 477.5 461.5Z"/><text font-family="SimSun,SimSun_MSFontService,sans-serif" font-weight="700" font-size="29" transform="translate(178.933 607)">小端方式<tspan font-family="Arial,Arial_MSFontService,sans-serif" font-size="29" x="118" y="0">:</tspan></text><path d="M435.5 603.833 479.833 603.833 479.833 605.167 435.5 605.167ZM478.5 600.5 486.5 604.5 478.5 608.5Z"/><text font-family="Arial,Arial_MSFontService,sans-serif" font-weight="700" font-size="29" transform="translate(517.617 574)">EF<tspan font-size="29" x="0" y="32">CD</tspan><tspan font-size="29" x="0" y="63">AB</tspan><tspan font-size="29" x="0" y="95">00</tspan><tspan fill="#0000FF" font-size="29" x="70.8164" y="0">100</tspan><tspan fill="#0000FF" font-size="29" x="119.816" y="0">0</tspan><tspan fill="#0000FF" font-size="29" x="70.8164" y="32">100</tspan><tspan fill="#0000FF" font-size="29" x="119.816" y="32">1</tspan><tspan fill="#0000FF" font-size="29" x="70.8164" y="63">1002</tspan><tspan fill="#0000FF" font-size="29" x="70.8164" y="95">1003</tspan><tspan font-family="Times New Roman,Times New Roman_MSFontService,sans-serif" font-size="16" x="416.65" y="128">41</tspan></text></g></svg>