<svg width="960" height="720" xmlns="http://www.w3.org/2000/svg" xmlns:xlink="http://www.w3.org/1999/xlink" overflow="hidden"><defs><clipPath id="clip0"><rect x="0" y="0" width="960" height="720"/></clipPath></defs><g clip-path="url(#clip0)"><rect x="0" y="0" width="960" height="720" fill="#FFFFFF"/><path d="M33.5001 71.5001 921.5 71.5002" stroke="#FFCC66" stroke-width="1.33333" stroke-linejoin="round" stroke-miterlimit="10" fill="none" fill-rule="evenodd"/><text fill="#0000FF" font-family="SimSun,SimSun_MSFontService,sans-serif" font-weight="700" font-size="27" transform="translate(54.5833 102)">十进制数表示<tspan fill="#000000" font-family="Arial,Arial_MSFontService,sans-serif" font-size="27" x="36" y="32"> </tspan><tspan fill="#000000" font-style="oblique" font-size="27" x="124" y="32">尾数</tspan><tspan fill="#000000" font-family="Arial,Arial_MSFontService,sans-serif" font-style="italic" font-size="27" x="177.667" y="32"> </tspan><tspan fill="#000000" font-family="Arial,Arial_MSFontService,sans-serif" font-size="27" x="0" y="66"></tspan><tspan fill="#000000" font-family="Arial,Arial_MSFontService,sans-serif" font-size="29" x="234.667" y="66">6.02 </tspan><tspan fill="#000000" font-family="Tahoma,Tahoma_MSFontService,sans-serif" font-size="24" x="332.667" y="66">x</tspan><tspan fill="#000000" font-family="Arial,Arial_MSFontService,sans-serif" font-size="29" x="347.167" y="66"> </tspan><tspan fill="#000000" font-family="Arial,Arial_MSFontService,sans-serif" font-size="29" x="379.833" y="66">10 </tspan><tspan fill="#000000" font-family="Arial,Arial_MSFontService,sans-serif" font-size="20" x="420.667" y="57">21</tspan><tspan fill="#000000" font-family="Arial,Arial_MSFontService,sans-serif" font-size="27" x="0" y="91"> </tspan><tspan fill="#000000" font-family="Arial,Arial_MSFontService,sans-serif" font-style="italic" font-size="27" x="0" y="122"></tspan><tspan fill="#000000" font-style="oblique" font-size="27" x="447.333" y="122">基数</tspan><tspan fill="#000000" font-size="27" x="0" y="170">°</tspan><tspan fill="#000000" font-family="Arial,Arial_MSFontService,sans-serif" font-size="27" x="26.8333" y="170"> </tspan><tspan fill="#990000" font-family="SimHei,SimHei_MSFontService,sans-serif" font-size="27" x="34.1667" y="170">规格化形式</tspan><tspan fill="#990000" font-family="Arial,Arial_MSFontService,sans-serif" font-size="27" x="168.333" y="170">: </tspan><tspan fill="#000000" font-family="SimHei,SimHei_MSFontService,sans-serif" font-size="27" x="184.5" y="170">小数点前只有一位非</tspan><tspan fill="#000000" font-family="Arial,Arial_MSFontService,sans-serif" font-size="27" x="426" y="170">0</tspan><tspan fill="#000000" font-family="SimHei,SimHei_MSFontService,sans-serif" font-size="27" x="440.833" y="170">数</tspan><tspan fill="#000000" font-family="Arial,Arial_MSFontService,sans-serif" font-size="27" x="0" y="211"> </tspan><tspan fill="#000000" font-family="Arial,Arial_MSFontService,sans-serif" font-size="27" x="7.33334" y="211"></tspan><tspan fill="#000000" font-family="SimHei,SimHei_MSFontService,sans-serif" font-size="27" x="36.6667" y="211">例</tspan><tspan fill="#000000" font-family="SimHei,SimHei_MSFontService,sans-serif" font-size="27" x="63.5" y="211">：</tspan><tspan fill="#000000" font-family="SimHei,SimHei_MSFontService,sans-serif" font-size="27" x="90.3333" y="211">对于数</tspan><tspan fill="#000000" font-family="Arial,Arial_MSFontService,sans-serif" font-size="27" x="170.833" y="211"> </tspan><tspan fill="#000000" font-family="Arial,Arial_MSFontService,sans-serif" font-size="27" x="178.167" y="211">1</tspan><tspan fill="#000000" font-family="Arial,Arial_MSFontService,sans-serif" font-size="27" x="193" y="211">/</tspan><tspan fill="#000000" font-family="Arial,Arial_MSFontService,sans-serif" font-size="27" x="200.333" y="211">1,000,000,000</tspan><tspan fill="#000000" font-family="Arial,Arial_MSFontService,sans-serif" font-size="27" x="0" y="253"> </tspan><tspan fill="#000000" font-family="Arial,Arial_MSFontService,sans-serif" font-size="27" x="36.6667" y="253">• </tspan><tspan fill="#000000" font-family="SimHei,SimHei_MSFontService,sans-serif" font-size="27" x="53.3333" y="253">唯一的规格化形式</tspan><tspan fill="#000000" font-family="Arial,Arial_MSFontService,sans-serif" font-size="27" x="268" y="253">: </tspan><tspan fill="#000000" font-family="Arial,Arial_MSFontService,sans-serif" font-size="27" x="284.167" y="253">1.0 </tspan><tspan fill="#000000" font-family="Arial,Arial_MSFontService,sans-serif" font-size="24" x="328.5" y="253">x</tspan><tspan fill="#000000" font-family="Arial,Arial_MSFontService,sans-serif" font-size="27" x="341.833" y="253"> </tspan><tspan fill="#000000" font-family="Arial,Arial_MSFontService,sans-serif" font-size="27" x="349.167" y="253">10</tspan><tspan fill="#000000" font-family="Arial,Arial_MSFontService,sans-serif" font-size="18" x="378.833" y="245">-</tspan><tspan fill="#000000" font-family="Arial,Arial_MSFontService,sans-serif" font-size="18" x="384.833" y="245">9</tspan><tspan fill="#000000" font-family="Arial,Arial_MSFontService,sans-serif" font-size="27" x="0" y="295"> </tspan><tspan fill="#000000" font-family="Arial,Arial_MSFontService,sans-serif" font-size="27" x="36.6667" y="295">• </tspan><tspan fill="#000000" font-family="SimHei,SimHei_MSFontService,sans-serif" font-size="27" x="53.3333" y="295">非规格化形式不唯一</tspan><tspan fill="#000000" font-family="Arial,Arial_MSFontService,sans-serif" font-size="27" x="294.833" y="295">: </tspan><tspan fill="#000000" font-family="Arial,Arial_MSFontService,sans-serif" font-size="27" x="311" y="295">0.1 </tspan><tspan fill="#000000" font-family="Arial,Arial_MSFontService,sans-serif" font-size="24" x="355.333" y="295">x</tspan><tspan fill="#000000" font-family="Arial,Arial_MSFontService,sans-serif" font-size="27" x="368.667" y="295"> </tspan><tspan fill="#000000" font-family="Arial,Arial_MSFontService,sans-serif" font-size="27" x="376" y="295">10</tspan><tspan fill="#000000" font-family="Arial,Arial_MSFontService,sans-serif" font-size="18" x="405.667" y="287">-</tspan><tspan fill="#000000" font-family="Arial,Arial_MSFontService,sans-serif" font-size="18" x="411.667" y="287">8</tspan><tspan fill="#000000" font-family="Arial,Arial_MSFontService,sans-serif" font-size="27" x="421.5" y="295">, </tspan><tspan fill="#000000" font-family="Arial,Arial_MSFontService,sans-serif" font-size="27" x="436.167" y="295">10.0 </tspan><tspan fill="#000000" font-family="Arial,Arial_MSFontService,sans-serif" font-size="24" x="495.333" y="295">x</tspan><tspan fill="#000000" font-family="Arial,Arial_MSFontService,sans-serif" font-size="27" x="508.667" y="295"> </tspan><tspan fill="#000000" font-family="Arial,Arial_MSFontService,sans-serif" font-size="27" x="516" y="295">10</tspan><tspan fill="#000000" font-family="Arial,Arial_MSFontService,sans-serif" font-size="18" x="545.667" y="287">-</tspan><tspan fill="#000000" font-family="Arial,Arial_MSFontService,sans-serif" font-size="18" x="551.667" y="287">10 </tspan><tspan fill="#000000" font-family="SimHei,SimHei_MSFontService,sans-serif" font-size="18" x="581.333" y="287">。。。。。</tspan></text><path d="M229.673 140.117 276.255 156.753 274.91 160.52 228.327 143.883ZM275.717 152.314 285 162 271.681 163.614Z" fill="#990000"/><path d="M0.541491-1.9253 54.915 13.3672 53.832 17.2178-0.541491 1.9253ZM54.0727 8.97515 64 18 50.8237 20.527Z" fill="#990000" transform="matrix(-1 0 0 1 558 137)"/><path d="M508.094 204.783 458.007 179.315 459.82 175.75 509.906 201.217ZM457.977 183.787 450 173 463.416 173.091Z" fill="#990000"/><text fill="#CC0000" font-family="SimSun,SimSun_MSFontService,sans-serif" font-weight="400" font-size="43" transform="translate(82.6667 56)">科学计数法<tspan font-family="Arial,Arial_MSFontService,sans-serif" font-size="43" x="213.333" y="0">(Scientific Notation)</tspan>与浮点数<tspan fill="#000000" font-style="oblique" font-weight="700" font-size="27" x="223.933" y="433">尾数</tspan><tspan fill="#000000" font-style="oblique" font-weight="700" font-size="27" x="563.6" y="433">阶码</tspan><tspan fill="#000000" font-family="Arial,Arial_MSFontService,sans-serif" font-weight="700" font-size="27" x="345.933" y="470">0.101 x </tspan><tspan fill="#0000FF" font-family="Arial,Arial_MSFontService,sans-serif" font-weight="700" font-size="27" x="471.433" y="470">2</tspan><tspan fill="#000000" font-family="Arial,Arial_MSFontService,sans-serif" font-weight="700" font-size="18" x="493.6" y="462">-</tspan><tspan fill="#000000" font-family="Arial,Arial_MSFontService,sans-serif" font-weight="700" font-size="18" x="499.6" y="462">10</tspan><tspan fill="#000000" font-style="oblique" font-weight="700" font-size="27" x="501.267" y="532">基数为</tspan><tspan fill="#000000" font-family="Arial,Arial_MSFontService,sans-serif" font-style="italic" font-weight="700" font-size="27" x="581.767" y="532">2</tspan></text><path d="M359.599 482.092 401.057 495.098 399.86 498.915 358.401 485.908ZM400.346 490.683 410 500 396.754 502.133Z" fill="#990000"/><path d="M1.08838-1.67792 29.6988 16.8802 27.522 20.236-1.08838 1.67792ZM30.1976 12.4359 37 24 23.6673 22.5035Z" fill="#990000" transform="matrix(-1 0 0 1 637 480)"/><path d="M616.705 570.524 584.324 543 586.915 539.953 619.295 567.476ZM583.257 547.343 578 535 591.029 538.2Z" fill="#990000"/><text fill="#063DE9" font-family="SimSun,SimSun_MSFontService,sans-serif" font-weight="700" font-size="27" transform="translate(63.1001 448)">对于二进制数<tspan font-family="Arial,Arial_MSFontService,sans-serif" font-size="27" x="161" y="0">:</tspan><tspan fill="#CC0000" font-family="SimHei,SimHei_MSFontService,sans-serif" font-size="32" x="-38.6667" y="248">只要对尾数和指数分别编码，就可表示一个浮点数</tspan><tspan fill="#CC0000" font-family="SimHei,SimHei_MSFontService,sans-serif" font-size="32" x="669" y="248">（实数</tspan><tspan fill="#CC0000" font-family="SimHei,SimHei_MSFontService,sans-serif" font-size="32" x="765.5" y="248">）</tspan><tspan fill="#000000" font-style="oblique" font-size="27" x="498.5" y="-321">阶码</tspan><tspan fill="#000000" font-family="Times New Roman,Times New Roman_MSFontService,sans-serif" font-size="16" x="871.167" y="254">10</tspan><tspan fill="#0000FF" font-size="32" x="-37.8298" y="197">对于基数，如果都采用默认的值则不需要在表示中出现。</tspan></text></g></svg>