<svg width="960" height="720" xmlns="http://www.w3.org/2000/svg" xmlns:xlink="http://www.w3.org/1999/xlink" overflow="hidden"><defs><clipPath id="clip0"><rect x="0" y="0" width="960" height="720"/></clipPath></defs><g clip-path="url(#clip0)"><rect x="0" y="0" width="960" height="720" fill="#FFFFFF"/><text font-family="DengXian Light,DengXian Light_MSFontService,sans-serif" font-weight="300" font-size="44" transform="translate(73 79)">Internet 校验和例子<tspan font-family="Arial,Arial_MSFontService,sans-serif" font-weight="400" font-size="37" x="-7.33334" y="72">•</tspan><tspan font-family="SimSun,SimSun_MSFontService,sans-serif" font-weight="700" font-size="37" x="10.6667" y="72">Note</tspan><tspan fill="#1F2021" font-family="Arial,Arial_MSFontService,sans-serif" font-weight="400" font-size="24" x="28.6667" y="106">•</tspan><tspan font-family="SimSun,SimSun_MSFontService,sans-serif" font-weight="700" font-size="24" x="46.6667" y="106">在加数字的时候，从最高位溢出的</tspan><tspan font-family="SimSun,SimSun_MSFontService,sans-serif" font-weight="700" font-size="24" x="409.167" y="106">bit</tspan><tspan font-family="SimSun,SimSun_MSFontService,sans-serif" font-weight="700" font-size="24" x="445.667" y="106">必须要加到结果上</tspan><tspan font-family="Arial,Arial_MSFontService,sans-serif" font-weight="400" font-size="37" x="-7.33334" y="164">•</tspan><tspan font-family="SimSun,SimSun_MSFontService,sans-serif" font-weight="700" font-size="37" x="10.6667" y="164">例</tspan><tspan font-family="SimSun,SimSun_MSFontService,sans-serif" font-weight="700" font-size="37" x="48.1667" y="164">:</tspan><tspan font-family="SimSun,SimSun_MSFontService,sans-serif" font-weight="700" font-size="37" x="67" y="164">加两个</tspan><tspan font-family="SimSun,SimSun_MSFontService,sans-serif" font-weight="700" font-size="37" x="179.5" y="164">16</tspan><tspan font-family="SimSun,SimSun_MSFontService,sans-serif" font-weight="700" font-size="37" x="217.167" y="164">位整数</tspan><tspan fill="#919293" font-family="Arial,Arial_MSFontService,sans-serif" font-weight="400" font-size="19" x="790.667" y="614">19</tspan><tspan fill="#FFFFFF" font-family="Comic Sans MS,Comic Sans MS_MSFontService,sans-serif" font-weight="700" font-size="27" x="121.667" y="301">1</tspan><tspan font-family="Comic Sans MS,Comic Sans MS_MSFontService,sans-serif" font-weight="700" font-size="27" x="161" y="301">1 1 1 0 0 1 1 0 0 1 1 0 0 1 1 0</tspan><tspan fill="#FFFFFF" font-family="Comic Sans MS,Comic Sans MS_MSFontService,sans-serif" font-weight="700" font-size="27" x="121.667" y="333">1</tspan><tspan font-family="Comic Sans MS,Comic Sans MS_MSFontService,sans-serif" font-weight="700" font-size="27" x="161" y="333">1 1 0 1 0 1 0 1 0 1 0 1 0 1 0 1</tspan><tspan font-family="Comic Sans MS,Comic Sans MS_MSFontService,sans-serif" font-weight="700" font-size="27" x="121.667" y="404">1 1 0 1 1 1 0 1 1 1 0 1 1 1 0 1 1</tspan><tspan fill="#FFFFFF" font-family="Comic Sans MS,Comic Sans MS_MSFontService,sans-serif" font-weight="700" font-size="27" x="121.667" y="474">1</tspan><tspan font-family="Comic Sans MS,Comic Sans MS_MSFontService,sans-serif" font-weight="700" font-size="27" x="161" y="474">1 0 1 1 1 0 1 1 1 0 1 1 1 1 0 0</tspan><tspan fill="#FFFFFF" font-family="Comic Sans MS,Comic Sans MS_MSFontService,sans-serif" font-weight="700" font-size="27" x="121.667" y="506">1</tspan><tspan font-family="Comic Sans MS,Comic Sans MS_MSFontService,sans-serif" font-weight="700" font-size="27" x="161" y="506">0 </tspan><tspan font-family="Comic Sans MS,Comic Sans MS_MSFontService,sans-serif" font-weight="700" font-size="27" x="200.333" y="506">1 0 0 0 1 0 0 0 1 0 0 0 0 1 </tspan><tspan font-family="Comic Sans MS,Comic Sans MS_MSFontService,sans-serif" font-weight="700" font-size="27" x="751" y="506">1</tspan></text><path d="M0 0 680 0.000104987" stroke="#000000" stroke-width="1.33333" stroke-linejoin="round" stroke-miterlimit="10" fill="none" fill-rule="evenodd" transform="matrix(-1 0 0 1 872.5 505.5)"/><path d="M185.5 473.5C185.5 464.664 192.663 457.5 201.5 457.5 210.337 457.5 217.5 464.664 217.5 473.5 217.5 482.337 210.337 489.5 201.5 489.5 192.663 489.5 185.5 482.337 185.5 473.5Z" stroke="#FF0000" stroke-width="1.33333" stroke-linejoin="round" stroke-miterlimit="10" fill="none" fill-rule="evenodd"/><text font-family="SimHei,SimHei_MSFontService,sans-serif" font-weight="700" font-size="27" transform="translate(121.667 488)">回卷<tspan font-size="27" x="13.5001" y="61">和</tspan><tspan font-size="27" x="-19.8333" y="97">校验和</tspan></text><path d="M0 0 680 0.000104987" stroke="#000000" stroke-width="1.33333" stroke-linejoin="round" stroke-miterlimit="10" fill="none" fill-rule="evenodd" transform="matrix(-1 0 0 1 879.5 434.5)"/><path d="M193.167 485.5 193.167 495.331 192.5 494.664 819.001 494.664C819.369 494.664 819.668 494.962 819.668 495.331 819.668 495.699 819.369 495.997 819.001 495.997L192.5 495.997C192.132 495.997 191.833 495.699 191.833 495.331L191.833 485.5C191.833 485.132 192.132 484.833 192.5 484.833 192.868 484.833 193.167 485.132 193.167 485.5ZM819 495.331 816.333 491.331 824.333 495.331 816.333 499.331Z" fill="#FF0000"/></g></svg>