<svg width="960" height="720" xmlns="http://www.w3.org/2000/svg" xmlns:xlink="http://www.w3.org/1999/xlink" overflow="hidden"><defs><clipPath id="clip0"><rect x="0" y="0" width="960" height="720"/></clipPath></defs><g clip-path="url(#clip0)"><rect x="0" y="0" width="960" height="720" fill="#FFFFFF"/><text font-family="DengXian Light,DengXian Light_MSFontService,sans-serif" font-weight="300" font-size="43" transform="translate(36.6667 78)">TCP <tspan font-size="43" x="83.1667" y="0">报文段结构</tspan><tspan fill="#919293" font-family="Arial,Arial_MSFontService,sans-serif" font-weight="400" font-size="19" x="827" y="615">57</tspan></text><rect x="304" y="159" width="415" height="506" fill="#ED7D31"/><rect x="295.5" y="171.5" width="415" height="505" stroke="#000000" stroke-width="1.33333" stroke-miterlimit="8" fill="#FFFFFF"/><text font-family="SimHei,SimHei_MSFontService,sans-serif" font-weight="700" font-size="27" transform="translate(344.167 196)">源端口号<tspan font-size="27" x="192.333" y="1">目的端口号</tspan></text><path d="M296.5 210.5 710.5 211.5" stroke="#000000" stroke-width="1.33333" stroke-linejoin="round" stroke-miterlimit="10" fill="none" fill-rule="evenodd"/><path d="M295.5 250.5 709.5 250.5" stroke="#000000" stroke-width="1.33333" stroke-linejoin="round" stroke-miterlimit="10" fill="none" fill-rule="evenodd"/><path d="M0 0 0.000104987 41" stroke="#000000" stroke-width="1.33333" stroke-linejoin="round" stroke-miterlimit="10" fill="none" fill-rule="evenodd" transform="matrix(1 0 0 -1 499.5 212.5)"/><text font-family="Comic Sans MS,Comic Sans MS_MSFontService,sans-serif" font-weight="700" font-size="24" transform="translate(454.5 144)">32 bits</text><path d="M556.505 140.833 701.171 141.798 701.162 143.131 556.496 142.167ZM701.167 142.464 698.527 138.447 706.5 142.5 698.474 146.447Z"/><path d="M4.99938e-07-0.666667 134.667-0.666566 134.667 0.666768-4.99938e-07 0.666667ZM134.667 0.000100987 132-3.9999 140 0.000104987 132 4.0001Z" transform="matrix(-1 0 0 1 433.5 142.5)"/><text font-family="SimHei,SimHei_MSFontService,sans-serif" font-weight="700" font-size="27" transform="translate(484.333 509)">数据<tspan font-family="Comic Sans MS,Comic Sans MS_MSFontService,sans-serif" font-size="27" x="-36.6667" y="32">(</tspan><tspan font-size="27" x="-26.8333" y="32">可变长度</tspan><tspan font-family="Comic Sans MS,Comic Sans MS_MSFontService,sans-serif" font-size="27" x="80.5" y="32">)</tspan><tspan font-size="27" x="-19" y="-270">序号</tspan></text><path d="M296.5 290.5 710.5 290.5" stroke="#000000" stroke-width="1.33333" stroke-linejoin="round" stroke-miterlimit="10" fill="none" fill-rule="evenodd"/><text font-family="SimHei,SimHei_MSFontService,sans-serif" font-weight="700" font-size="27" transform="translate(458.417 281)">确认号</text><path d="M295.5 332.5 710.5 332.5" stroke="#000000" stroke-width="1.33333" stroke-linejoin="round" stroke-miterlimit="10" fill="none" fill-rule="evenodd"/><path d="M295.5 373.5 709.5 373.5" stroke="#000000" stroke-width="1.33333" stroke-linejoin="round" stroke-miterlimit="10" fill="none" fill-rule="evenodd"/><path d="M295.5 432.5 709.5 432.5" stroke="#000000" stroke-width="1.33333" stroke-linejoin="round" stroke-miterlimit="10" fill="none" fill-rule="evenodd"/><path d="M502.5 372.5 501.5 291.5" stroke="#000000" stroke-width="1.33333" stroke-linejoin="round" stroke-miterlimit="10" fill="none" fill-rule="evenodd"/><text font-family="SimHei,SimHei_MSFontService,sans-serif" font-weight="700" font-size="24" transform="translate(555 317)">接收窗口<tspan font-size="24" x="-17.4999" y="42">紧急数据指针</tspan><tspan font-size="24" x="-193.667" y="40">检查和</tspan><tspan font-family="Comic Sans MS,Comic Sans MS_MSFontService,sans-serif" font-size="21" x="-69.4999" y="2">F</tspan></text><path d="M0 0 0.000104987 42" stroke="#000000" stroke-width="1.33333" stroke-linejoin="round" stroke-miterlimit="10" fill="none" fill-rule="evenodd" transform="matrix(1 0 0 -1 484.5 331.5)"/><path d="M0 0 0.000104987 41" stroke="#000000" stroke-width="1.33333" stroke-linejoin="round" stroke-miterlimit="10" fill="none" fill-rule="evenodd" transform="matrix(1 0 0 -1 467.5 331.5)"/><path d="M0 0 0.000104987 41" stroke="#000000" stroke-width="1.33333" stroke-linejoin="round" stroke-miterlimit="10" fill="none" fill-rule="evenodd" transform="matrix(1 0 0 -1 450.5 331.5)"/><path d="M0 0 0.000104987 42" stroke="#000000" stroke-width="1.33333" stroke-linejoin="round" stroke-miterlimit="10" fill="none" fill-rule="evenodd" transform="matrix(1 0 0 -1 433.5 332.5)"/><path d="M0 0 0.000104987 41" stroke="#000000" stroke-width="1.33333" stroke-linejoin="round" stroke-miterlimit="10" fill="none" fill-rule="evenodd" transform="matrix(1 0 0 -1 416.5 331.5)"/><path d="M0 0 0.000104987 41" stroke="#000000" stroke-width="1.33333" stroke-linejoin="round" stroke-miterlimit="10" fill="none" fill-rule="evenodd" transform="matrix(1 0 0 -1 398.5 332.5)"/><text font-family="Comic Sans MS,Comic Sans MS_MSFontService,sans-serif" font-weight="700" font-size="21" transform="translate(467.667 319)">S<tspan font-size="21" x="-16.9999" y="0">R</tspan><tspan font-size="21" x="-33.4167" y="-1">P</tspan><tspan font-size="21" x="-51.4999" y="-1">A</tspan><tspan font-size="21" x="-68.4999" y="-1">U</tspan><tspan font-family="SimHei,SimHei_MSFontService,sans-serif" font-size="19" x="-166.167" y="-14">首部</tspan><tspan font-family="SimHei,SimHei_MSFontService,sans-serif" font-size="19" x="-166.167" y="8">长度</tspan><tspan font-family="SimHei,SimHei_MSFontService,sans-serif" font-size="19" x="-116.5" y="-14">保留</tspan><tspan font-family="SimHei,SimHei_MSFontService,sans-serif" font-size="19" x="-116.5" y="8">未用</tspan></text><path d="M0 0 0.000104987 41" stroke="#000000" stroke-width="1.33333" stroke-linejoin="round" stroke-miterlimit="10" fill="none" fill-rule="evenodd" transform="matrix(1 0 0 -1 345.5 331.5)"/><text font-family="SimHei,SimHei_MSFontService,sans-serif" font-weight="700" font-size="27" transform="translate(404.5 415)">选项<tspan font-family="Comic Sans MS,Comic Sans MS_MSFontService,sans-serif" font-size="27" x="65.1667" y="0">(</tspan><tspan font-size="27" x="75" y="0">可变长度</tspan><tspan font-family="Comic Sans MS,Comic Sans MS_MSFontService,sans-serif" font-size="27" x="182.333" y="0">)</tspan><tspan font-family="Comic Sans MS,Comic Sans MS_MSFontService,sans-serif" font-size="24" x="-372.167" y="-237">URG: urgent data </tspan><tspan font-family="Comic Sans MS,Comic Sans MS_MSFontService,sans-serif" font-size="24" x="-385.333" y="-208">(generally not used)</tspan><tspan font-family="Comic Sans MS,Comic Sans MS_MSFontService,sans-serif" font-size="24" x="-305.5" y="-161">ACK: ACK #</tspan><tspan font-family="Comic Sans MS,Comic Sans MS_MSFontService,sans-serif" font-size="24" x="-212.667" y="-132">valid</tspan><tspan font-family="Comic Sans MS,Comic Sans MS_MSFontService,sans-serif" font-size="24" x="-392.333" y="-90">PSH: push data now</tspan><tspan font-family="Comic Sans MS,Comic Sans MS_MSFontService,sans-serif" font-size="24" x="-388.333" y="-61">(generally not used)</tspan><tspan font-family="Comic Sans MS,Comic Sans MS_MSFontService,sans-serif" font-size="24" x="-355.167" y="-6">RST, SYN, FIN:</tspan><tspan font-family="Comic Sans MS,Comic Sans MS_MSFontService,sans-serif" font-size="24" x="-349.667" y="23">connection estab</tspan><tspan font-family="Comic Sans MS,Comic Sans MS_MSFontService,sans-serif" font-size="24" x="-353.167" y="51">(setup, teardown</tspan><tspan font-family="Comic Sans MS,Comic Sans MS_MSFontService,sans-serif" font-size="24" x="-279.167" y="80">commands)</tspan></text><path d="M249.5 189.5 406.5 290.5" stroke="#FF0000" stroke-width="1.33333" stroke-linejoin="round" stroke-miterlimit="10" fill="none" fill-rule="evenodd"/><path d="M246.5 260.5 419.5 297.5" stroke="#FF0000" stroke-width="1.33333" stroke-linejoin="round" stroke-miterlimit="10" fill="none" fill-rule="evenodd"/><path d="M0 0 193 48" stroke="#FF0000" stroke-width="1.33333" stroke-linejoin="round" stroke-miterlimit="10" fill="none" fill-rule="evenodd" transform="matrix(1 0 0 -1 247.5 345.5)"/><path d="M251.5 400.334 459.357 326.5 494.333 327.498" stroke="#FF0000" stroke-width="1.33333" stroke-linecap="round" stroke-linejoin="round" stroke-miterlimit="10" fill="none" fill-rule="evenodd"/><text font-family="SimHei,SimHei_MSFontService,sans-serif" font-weight="700" font-size="24" transform="translate(785.667 361)">接收方愿意<tspan font-size="24" x="0" y="29">接收的字节数</tspan><tspan font-size="24" x="-27.1666" y="-175">用数据的首字节</tspan><tspan font-size="24" x="-27.1666" y="-146">编号填充</tspan><tspan font-size="24" x="-693.833" y="186">差错检测，同</tspan><tspan font-family="Comic Sans MS,Comic Sans MS_MSFontService,sans-serif" font-size="24" x="-693.333" y="215">UDP</tspan>中的一样</text><path d="M0 0 221 208" stroke="#FF0000" stroke-width="1.33333" stroke-linejoin="round" stroke-miterlimit="10" fill="none" fill-rule="evenodd" transform="matrix(1 0 0 -1 238.5 568.5)"/><path d="M787.5 366.5 702.5 317.5" stroke="#FF0000" stroke-width="1.33333" stroke-linejoin="round" stroke-miterlimit="10" fill="none" fill-rule="evenodd"/><path d="M0 0 58 93" stroke="#FF0000" stroke-width="1.33333" stroke-linejoin="round" stroke-miterlimit="10" fill="none" fill-rule="evenodd" transform="matrix(-1 0 0 1 753.5 181.5)"/><path d="M0 0 60 55" stroke="#FF0000" stroke-width="1.33333" stroke-linejoin="round" stroke-miterlimit="10" fill="none" fill-rule="evenodd" transform="matrix(-1 0 0 1 751.5 180.5)"/></g></svg>