<svg width="799" height="388" xmlns="http://www.w3.org/2000/svg" xmlns:xlink="http://www.w3.org/1999/xlink" overflow="hidden"><defs><clipPath id="clip0"><rect x="78" y="261" width="799" height="388"/></clipPath></defs><g clip-path="url(#clip0)" transform="translate(-78 -261)"><path d="M543.596 432.84 748.511 462.528C748.876 462.58 749.128 462.918 749.075 463.283 749.023 463.647 748.685 463.9 748.32 463.847L543.404 434.16C543.04 434.107 542.787 433.769 542.84 433.404 542.893 433.04 543.231 432.788 543.596 432.84ZM748.415 463.187 743.711 458.464 756.333 464.334 742.564 466.381Z"/><path d="M0 0 94 48" stroke="#000000" stroke-width="1.33333" stroke-linejoin="round" stroke-miterlimit="10" fill="none" fill-rule="evenodd" transform="matrix(1 0 0 -1 297.5 510.5)"/><path d="M300.5 396.5 379.5 414.5" stroke="#000000" stroke-width="1.33333" stroke-linejoin="round" stroke-miterlimit="10" fill="none" fill-rule="evenodd"/><path d="M307.5 314.5 396.5 394.5" stroke="#000000" stroke-width="1.33333" stroke-linejoin="round" stroke-miterlimit="10" fill="none" fill-rule="evenodd"/><path d="M448.5 390.689 443.333 389.688 438.333 388.018 428 383.678 423 381.508 418.167 379.671 413.667 378.336 409.5 377.668 401.833 377.167 398.333 377 395.167 377.334 392.167 378.336 389.333 380.005 386.833 382.843 384.5 386.683 383.5 389.187 382.5 392.359 381.667 395.865 380.833 399.871 379.167 408.553 378 417.901 377 427.417 376.333 436.432 376 444.279 376 447.785 376 450.623 376.167 455.464 376.5 459.304 376.833 462.643 377.667 465.147 379.167 467.15 381.167 468.82 384.167 470.322 388.167 471.658 390.833 472.326 393.833 472.659 400.833 473.327 409 473.327 417.833 473.16 426.667 472.826 435.5 472.492 443.5 472.326 450.5 472.492 456.5 472.993 461.833 473.661 466.833 474.496 471.333 475.331 480.333 476.666 489.5 476.833 499.667 476.499 510.167 475.497 515.333 474.663 520.167 473.327 525 471.324 529.5 468.82 534 465.481 538.5 461.14 543 456.132 547.167 450.79 551 445.28 554.333 439.604 556.833 434.429 558.5 429.588 559.333 425.08 559.833 420.573 559.5 416.065 558.667 411.558 557.167 407.551 554.833 403.711 551.833 400.372 548 397.534 543 395.364 536.5 393.694 529.167 392.526 521.167 391.524 513 391.023 504.833 390.523 497.333 390.022 490.5 389.688 484.5 389.521 478.833 389.688 468.333 390.523 458.5 391.19 453.5 391.19 448.5 390.689" fill="#66CCFF" fill-rule="evenodd"/><text font-family="SimSun,SimSun_MSFontService,sans-serif" font-weight="700" font-size="19" transform="translate(577.333 369)">把地址从<tspan font-family="Comic Sans MS,Comic Sans MS_MSFontService,sans-serif" font-size="19" x="0" y="21">200.23.16.0/20</tspan><tspan font-size="19" x="147.333" y="21">开始</tspan><tspan font-size="19" x="0" y="44">的所有内容送给我</tspan></text><path d="M108.68 292 103.843 293.5 99.8406 294.833 96.6716 296 94.1697 297 92.335 297.833 91.0007 298.667 90 300 90.1668 301.167 91.0007 302.333 92.0015 303.833 92.1683 305.667 92.1683 311 92.5018 313.833 93.5026 317 95.0037 320 97.1719 322.667 100.341 325 104.511 326.667 110.015 327.833 117.187 328.333 125.193 328.333 134.032 328.167 143.039 327.833 151.712 327.5 159.718 327.5 166.723 327.5 172.394 328 176.897 328.667 180.733 329.5 184.403 330.333 188.239 331 192.909 331.667 198.413 331.833 205.752 331.833 210.255 331.833 215.259 331.667 226.934 331.167 240.11 330.667 253.787 330 267.13 329 279.472 327.5 284.976 326.833 289.98 325.833 294.317 324.833 297.819 323.833 303.824 321.167 308.994 317.5 312.997 313.167 315.832 308.833 316.833 304.667 315.832 300.5 314.498 298.833 312.497 297.167 309.995 296 306.826 294.833 302.823 294 297.486 293.5 291.481 293.167 284.476 292.833 276.971 292.833 268.631 292.833 251.118 293.167 232.938 293.833 215.259 294.333 206.752 294.667 198.747 294.833 191.408 294.833 184.903 294.833 172.727 294.667 161.219 294.333 150.378 293.833 140.37 293.333 131.03 293 122.691 292.667 115.185 292.167 108.68 292" fill="#66CCFF" fill-rule="evenodd"/><rect x="117" y="295" width="188" height="35" fill="#66CCFF"/><text font-family="Comic Sans MS,Comic Sans MS_MSFontService,sans-serif" font-weight="700" font-size="21" transform="translate(126.333 319)">200.23.16.0/23</text><path d="M111.612 354 106.793 355.66 102.804 356.822 99.6471 357.983 97.1544 359.145 95.3265 359.975 93.9971 360.639 93 362.133 93.1662 363.295 93.9971 364.456 94.8279 365.95 95.1603 367.776 95.1603 373.087 95.4926 376.075 96.3235 379.062 97.9853 382.05 100.146 384.705 103.137 387.029 107.291 388.689 112.941 389.851 119.921 390.349 128.063 390.349 136.871 390.183 145.678 390.017 154.485 389.685 162.628 389.519 169.441 389.519 175.091 390.017 179.578 390.68 183.4 391.51 187.056 392.34 190.878 393.004 195.531 393.502 201.181 393.834 208.326 393.834 212.813 393.834 217.799 393.502 229.597 393.336 242.559 392.672 256.019 392.008 269.313 391.012 281.776 389.685 287.26 388.855 292.246 388.025 296.566 387.029 300.056 385.867 306.038 383.046 311.19 379.394 315.344 375.411 318.003 370.929 318.834 366.614 318.003 362.797 316.674 360.971 314.846 359.477 312.187 358.149 309.196 357.154 305.041 356.324 299.89 355.66 293.741 355.328 286.762 355.162 279.118 354.996 270.975 354.996 253.526 355.494 235.413 355.992 217.632 356.656 209.324 356.822 201.347 356.988 194.035 357.154 187.388 357.154 175.424 356.822 163.957 356.49 153.156 355.992 143.019 355.66 133.879 355.162 125.571 354.664 118.093 354.332 111.612 354" fill="#66CCFF" fill-rule="evenodd"/><rect x="120" y="357" width="188" height="35" fill="#66CCFF"/><text font-family="Comic Sans MS,Comic Sans MS_MSFontService,sans-serif" font-weight="700" font-size="21" transform="translate(129.333 381)">200.23.18.0/23</text><path d="M102.847 503 97.8435 504.653 93.8406 505.81 90.6716 506.967 88.1697 508.124 86.335 508.95 85.0007 509.777 84 510.934 84.1668 512.091 85.0007 513.413 86.0015 514.901 86.335 516.719 86.1683 522.008 86.5018 524.983 87.5026 528.124 88.8369 530.934 91.1719 533.578 94.3409 535.893 98.3439 537.545 104.015 538.702 111.02 539.198 119.193 539.198 127.866 539.033 137.039 538.702 145.712 538.537 153.718 538.207 160.723 538.372 166.394 538.868 170.897 539.529 174.733 540.355 178.403 541.017 182.239 541.843 186.909 542.504 192.413 542.835 199.752 542.835 204.255 542.669 209.259 542.504 220.934 542.008 234.11 541.512 247.787 540.851 261.13 539.859 273.472 538.537 278.976 537.711 283.98 536.884 288.317 535.893 291.819 534.736 297.824 531.926 302.994 528.289 306.997 524.322 309.832 519.859 310.833 515.562 309.832 511.76 308.498 509.942 306.663 508.455 303.995 507.132 300.826 505.975 296.823 505.314 291.486 504.653 285.481 504.322 278.476 504.157 270.971 503.992 262.631 504.157 245.118 504.322 226.938 504.983 209.092 505.479 200.586 505.81 192.747 505.975 185.241 505.975 178.736 505.975 166.727 505.81 155.219 505.479 144.378 504.983 134.37 504.653 125.03 504.157 116.691 503.661 109.185 503.331 102.847 503" fill="#66CCFF" fill-rule="evenodd"/><rect x="111" y="506" width="188" height="35" fill="#66CCFF"/><text font-family="Comic Sans MS,Comic Sans MS_MSFontService,sans-serif" font-weight="700" font-size="21" transform="translate(120.333 530)">200.23.30.0/23<tspan font-size="19" x="268" y="-87">Fly</tspan><tspan font-size="19" x="294.833" y="-87">-</tspan><tspan font-size="19" x="306.167" y="-87">By</tspan><tspan font-size="19" x="328.333" y="-87">-</tspan><tspan font-size="19" x="339.667" y="-87">Night</tspan><tspan font-size="19" x="389.5" y="-87">-</tspan><tspan font-size="19" x="400.833" y="-87">ISP</tspan></text><path d="M807.544 344 805.216 342.667 803.221 342 799.729 342.333 797.401 345 795.405 349 793.743 354.167 792.08 359.833 790.084 365.667 787.756 371 784.763 376.333 781.437 382.167 774.453 395.167 767.802 409.5 762.647 424 760.651 431.667 758.822 440 755.995 457.333 754.998 465.667 754.333 473.833 754 481.167 754.166 487.833 754.998 493.333 756.162 498.167 760.153 506 764.975 513 767.469 516.833 769.797 521 774.121 530.5 778.61 540.5 783.599 550.5 789.585 560 793.41 565.333 797.9 571.5 802.722 578.167 807.711 584.333 812.533 589.833 817.023 593.833 819.018 595 820.681 595.667 822.344 595.833 823.508 595 824.506 593.5 825.337 590.833 826.002 587.667 826.501 583.667 826.834 574 826.834 563.167 826.501 552 826.169 541.167 825.67 532 825.67 528.167 825.67 525 825.67 520.5 825.67 517.667 825.67 515.667 825.503 514.667 825.005 512.833 824.339 511.333 823.508 509 821.014 502.5 817.355 494.667 813.531 486.167 810.704 477.167 808.376 468.5 806.547 459.667 805.882 454.833 805.383 449.167 804.884 442.667 804.551 435 804.551 430.5 804.551 425.5 804.718 414.167 805.216 401.5 805.715 388.333 806.214 375.333 806.879 363.167 807.212 352.5 807.378 348 807.544 344" fill="#66CCFF" fill-rule="evenodd"/><text font-family="SimSun,SimSun_MSFontService,sans-serif" font-weight="700" font-size="19" transform="translate(89.3333 286)">组织<tspan font-family="Comic Sans MS,Comic Sans MS_MSFontService,sans-serif" font-size="19" x="45.5" y="0">0</tspan><tspan font-size="19" x="3" y="210">组织</tspan><tspan font-family="Comic Sans MS,Comic Sans MS_MSFontService,sans-serif" font-size="19" x="48.5" y="210">7</tspan><tspan font-family="Comic Sans MS,Comic Sans MS_MSFontService,sans-serif" font-size="19" x="698" y="191">Internet</tspan><tspan font-size="19" x="1" y="68">组织</tspan><tspan font-family="Comic Sans MS,Comic Sans MS_MSFontService,sans-serif" font-size="19" x="46.5" y="68">1</tspan></text><path d="M442.5 528.667 437.333 527.667 432.167 526 422 521.667 417 519.5 412.333 517.667 407.667 516.333 403.5 515.667 396 515.167 392.5 515 389.167 515.333 386.167 516.333 383.333 518 380.833 520.833 378.5 524.667 377.5 527.333 376.5 530.333 375.5 534 374.667 537.833 373.167 546.5 371.833 555.833 371 565.333 370.333 574.333 370 582.167 370 585.667 370 588.5 370.333 593.333 370.5 597.333 371 600.5 371.833 603 373.167 605 375.167 606.667 378.167 608.167 382.167 609.5 384.833 610.167 387.833 610.5 394.833 611 403 611.167 411.667 611 420.667 610.667 429.5 610.333 437.5 610.333 444.5 610.333 450.5 610.833 455.833 611.5 460.667 612.333 465.333 613.167 474.167 614.5 478.833 614.833 483.5 614.667 493.667 614.333 504.167 613.333 509.333 612.5 514.333 611.167 519 609.167 523.5 606.667 528 603.333 532.5 599 537 594 541.167 588.667 545 583 548.333 577.5 551 572.333 552.5 567.5 553.5 563 553.833 558.5 553.5 554 552.667 549.5 551.167 545.5 548.833 541.667 545.833 538.333 542 535.5 537 533.333 530.667 531.667 523.167 530.5 515.167 529.5 507 529 498.833 528.5 491.333 528 484.5 527.667 478.5 527.5 472.833 527.667 462.333 528.5 452.5 529.167 447.5 529.167 442.5 528.667" fill="#66CCFF" fill-rule="evenodd"/><text font-family="Comic Sans MS,Comic Sans MS_MSFontService,sans-serif" font-weight="700" font-size="19" transform="translate(410.333 575)">ISPs<tspan font-size="19" x="42.3333" y="0">-</tspan><tspan font-size="19" x="53.6667" y="0">R</tspan>-<tspan font-size="19" x="77" y="0">Us</tspan></text><path d="M550.404 545.674 755.32 515.987C755.685 515.934 756.023 516.187 756.075 516.551 756.128 516.916 755.876 517.254 755.511 517.307L550.596 546.994C550.231 547.047 549.893 546.794 549.84 546.43 549.787 546.065 550.04 545.727 550.404 545.674ZM755.415 516.647 749.564 513.453 763.333 515.5 750.711 521.37Z"/><path d="M318.5 572.5 369.5 572.5" stroke="#000000" stroke-width="1.33333" stroke-linejoin="round" stroke-miterlimit="10" fill="none" fill-rule="evenodd"/><path d="M0 0 67 18" stroke="#000000" stroke-width="1.33333" stroke-linejoin="round" stroke-miterlimit="10" fill="none" fill-rule="evenodd" transform="matrix(1 0 0 -1 302.5 597.5)"/><path d="M0 0 26 43" stroke="#000000" stroke-width="1.33333" stroke-linejoin="round" stroke-miterlimit="10" fill="none" fill-rule="evenodd" transform="matrix(1 0 0 -1 348.5 648.5)"/><text font-family="Comic Sans MS,Comic Sans MS_MSFontService,sans-serif" font-weight="700" font-size="19" transform="translate(590.333 564)">“<tspan font-family="SimSun,SimSun_MSFontService,sans-serif" font-size="19" x="8.16669" y="0">把地址从</tspan><tspan font-size="19" x="0" y="22">199.31.0.0/16</tspan><tspan font-family="SimSun,SimSun_MSFontService,sans-serif" font-size="19" x="136" y="22">开始</tspan><tspan font-family="SimSun,SimSun_MSFontService,sans-serif" font-size="19" x="0" y="45">的所有内容送给我”</tspan><tspan font-family="SimSun,SimSun_MSFontService,sans-serif" font-size="19" x="0" y="67">”</tspan></text><path d="M113.847 416 108.843 417.66 104.841 418.822 101.672 419.983 99.1697 421.145 97.335 421.975 96.0007 422.805 95 423.967 95.1668 425.129 96.0007 426.456 97.0015 427.95 97.335 429.776 97.1683 435.087 97.5018 438.075 98.5026 441.228 99.8369 444.05 102.172 446.705 105.341 449.029 109.344 450.689 115.015 451.851 122.02 452.349 130.193 452.349 138.866 452.183 148.039 451.851 156.712 451.685 164.718 451.519 171.723 451.685 177.394 452.017 181.897 452.68 185.733 453.51 189.403 454.174 193.239 455.004 197.909 455.668 203.413 455.834 210.752 455.834 215.255 455.834 220.259 455.668 231.934 455.17 245.11 454.672 258.787 454.008 272.13 453.012 284.472 451.685 289.976 450.855 294.98 450.025 299.317 449.029 302.819 447.867 308.824 445.046 313.994 441.394 317.997 437.411 320.832 432.929 321.833 428.614 320.832 424.797 319.498 422.971 317.663 421.311 314.995 420.149 311.826 418.988 307.823 418.324 302.486 417.66 296.481 417.328 289.476 417.162 281.971 416.996 273.631 417.162 256.118 417.328 237.938 417.992 220.259 418.49 211.752 418.822 203.747 418.988 196.408 418.988 189.903 418.988 177.727 418.822 166.219 418.49 155.378 417.992 145.37 417.66 136.03 417.162 127.691 416.664 120.185 416.332 113.847 416" fill="#66CCFF" fill-rule="evenodd"/><rect x="122" y="419" width="188" height="35" fill="#66CCFF"/><text font-family="Comic Sans MS,Comic Sans MS_MSFontService,sans-serif" font-weight="700" font-size="21" transform="translate(131.333 443)">200.23.20.0/23<tspan font-family="SimSun,SimSun_MSFontService,sans-serif" font-size="19" x="-39" y="-28">组织</tspan><tspan font-size="19" x="6.5" y="-28">2</tspan><tspan font-size="27" x="105" y="28">.</tspan><tspan font-size="27" x="104.667" y="43">.</tspan><tspan font-size="27" x="104.833" y="56">.</tspan><tspan font-size="27" x="213" y="-3">.</tspan><tspan font-size="27" x="212.667" y="12">.</tspan><tspan font-size="27" x="212.833" y="25">.</tspan></text></g></svg>