<svg width="957" height="688" xmlns="http://www.w3.org/2000/svg" xmlns:xlink="http://www.w3.org/1999/xlink" overflow="hidden"><defs><clipPath id="clip0"><rect x="9" y="18" width="957" height="688"/></clipPath></defs><g clip-path="url(#clip0)" transform="translate(-9 -18)"><text font-family="SimSun,SimSun_MSFontService,sans-serif" font-weight="700" font-size="43" transform="translate(52.4334 76)">IP 数据报格式<tspan fill="#919293" font-family="Times New Roman,Times New Roman_MSFontService,sans-serif" font-weight="400" font-size="12" x="819.833" y="615">25</tspan></text><rect x="322" y="155" width="414" height="506" fill="#ED7D31"/><rect x="311.5" y="166.5" width="416" height="505" stroke="#000000" stroke-width="1.33333" stroke-miterlimit="8" fill="#FFFFFF"/><text font-family="Comic Sans MS,Comic Sans MS_MSFontService,sans-serif" font-weight="700" font-size="24" transform="translate(315.167 201)">ver<tspan font-size="24" x="261.667" y="6">length</tspan></text><path d="M313.5 220.5 727.5 221.5" stroke="#000000" stroke-width="1.33333" stroke-linejoin="round" stroke-miterlimit="10" fill="none" fill-rule="evenodd"/><path d="M0 0 0.000104987 53" stroke="#000000" stroke-width="1.33333" stroke-linejoin="round" stroke-miterlimit="10" fill="none" fill-rule="evenodd" transform="matrix(1 0 0 -1 517.5 220.5)"/><text font-family="Comic Sans MS,Comic Sans MS_MSFontService,sans-serif" font-weight="700" font-size="24" transform="translate(471.833 140)">32 bits</text><path d="M574.505 136.833 718.171 137.798 718.162 139.131 574.496 138.167ZM718.167 138.464 715.527 134.446 723.5 138.5 715.473 142.446Z"/><path d="M4.96392e-07-0.666667 135.667-0.666566 135.667 0.666768-4.96392e-07 0.666667ZM135.667 0.000101016 133-3.9999 141 0.000104987 133 4.0001Z" transform="matrix(-1 0 0 1 451.5 138.5)"/><text font-family="Comic Sans MS,Comic Sans MS_MSFontService,sans-serif" font-weight="700" font-size="27" transform="translate(493.913 506)">data <tspan font-size="27" x="-2.83331" y="33">(</tspan><tspan font-family="SimSun,SimSun_MSFontService,sans-serif" font-size="27" x="7" y="33">变长</tspan><tspan font-size="27" x="60.6667" y="33">,</tspan><tspan font-family="SimSun,SimSun_MSFontService,sans-serif" font-size="27" x="-81.9133" y="65">典型地是一个</tspan><tspan font-size="27" x="90.5867" y="65">TCP </tspan><tspan font-family="SimSun,SimSun_MSFontService,sans-serif" font-size="27" x="-75.3333" y="97">或者</tspan><tspan font-size="27" x="-10.1667" y="97">UDP </tspan><tspan font-family="SimSun,SimSun_MSFontService,sans-serif" font-size="27" x="54.3333" y="97">数据段</tspan>)<tspan font-size="24" x="-175.497" y="-248">16</tspan><tspan font-size="24" x="-146.163" y="-248">-</tspan><tspan font-size="24" x="-131.497" y="-248">bit identifier</tspan></text><path d="M312.5 378.5 727.5 378.5" stroke="#000000" stroke-width="1.33333" stroke-linejoin="round" stroke-miterlimit="10" fill="none" fill-rule="evenodd"/><path d="M312.5 428.5 727.5 428.5" stroke="#000000" stroke-width="1.33333" stroke-linejoin="round" stroke-miterlimit="10" fill="none" fill-rule="evenodd"/><text font-family="Comic Sans MS,Comic Sans MS_MSFontService,sans-serif" font-weight="700" font-size="24" transform="translate(576.247 297)">Internet<tspan font-size="24" x="0.920044" y="29">checksum</tspan><tspan font-size="24" x="-256.58" y="-3">time to</tspan><tspan font-size="24" x="-233.5" y="26">live</tspan><tspan font-size="24" x="-156.413" y="68">32 bit </tspan><tspan font-family="SimSun,SimSun_MSFontService,sans-serif" font-size="24" x="-74.2466" y="68">源</tspan><tspan font-size="24" x="-50.08" y="68">IP </tspan><tspan font-family="SimSun,SimSun_MSFontService,sans-serif" font-size="24" x="-13.7466" y="68">地址</tspan><tspan font-size="24" x="-462.913" y="-168">IP </tspan><tspan font-family="SimSun,SimSun_MSFontService,sans-serif" font-size="24" x="-426.58" y="-168">协议版本号</tspan><tspan font-family="SimSun,SimSun_MSFontService,sans-serif" font-size="24" x="-402.913" y="-113">首部长度</tspan><tspan font-size="24" x="-387.913" y="-84">(bytes)</tspan><tspan font-family="SimSun,SimSun_MSFontService,sans-serif" font-size="24" x="-514.247" y="-8">余留跳数的最大数量</tspan><tspan font-size="24" x="-531.913" y="21">(</tspan><tspan font-family="SimSun,SimSun_MSFontService,sans-serif" font-size="24" x="-523.08" y="21">在每个路由器上减一</tspan><tspan font-size="24" x="-305.58" y="21">)</tspan></text><path d="M269.5 135.5 325.5 183.5" stroke="#FF0000" stroke-width="1.33333" stroke-linejoin="round" stroke-miterlimit="10" fill="none" fill-rule="evenodd"/><path d="M272.5 193.5 367.5 209.5" stroke="#FF0000" stroke-width="1.33333" stroke-linejoin="round" stroke-miterlimit="10" fill="none" fill-rule="evenodd"/><text font-family="SimSun,SimSun_MSFontService,sans-serif" font-weight="700" font-size="24" transform="translate(769 226)">用于分片<tspan font-family="Comic Sans MS,Comic Sans MS_MSFontService,sans-serif" font-size="24" x="96.6667" y="0">/</tspan><tspan font-size="24" x="109" y="0">重组</tspan><tspan font-size="24" x="-3.16663" y="-77">总长度</tspan><tspan font-family="Comic Sans MS,Comic Sans MS_MSFontService,sans-serif" font-size="24" x="79.6667" y="-77">(bytes)</tspan><tspan font-size="24" x="-704.333" y="197">传输负载的上层协议</tspan></text><path d="M0 0 154 118" stroke="#FF0000" stroke-width="1.33333" stroke-linejoin="round" stroke-miterlimit="10" fill="none" fill-rule="evenodd" transform="matrix(1 0 0 -1 284.5 415.5)"/><path d="M0 0 214 20" stroke="#FF0000" stroke-width="1.33333" stroke-linejoin="round" stroke-miterlimit="10" fill="none" fill-rule="evenodd" transform="matrix(-1 0 0 1 769.5 246.5)"/><path d="M0 0 67 43" stroke="#FF0000" stroke-width="1.33333" stroke-linejoin="round" stroke-miterlimit="10" fill="none" fill-rule="evenodd" transform="matrix(-1 0 0 1 767.5 155.5)"/><text font-family="Comic Sans MS,Comic Sans MS_MSFontService,sans-serif" font-weight="700" font-size="24" transform="translate(358.833 190)">head.<tspan font-size="24" x="16.3333" y="29">len</tspan><tspan font-size="24" x="68.3333" y="-1">type of</tspan><tspan font-size="24" x="71" y="28">service</tspan></text><path d="M0 0 0.000104987 53" stroke="#000000" stroke-width="1.33333" stroke-linejoin="round" stroke-miterlimit="10" fill="none" fill-rule="evenodd" transform="matrix(1 0 0 -1 423.5 219.5)"/><path d="M0 0 0.000104987 53" stroke="#000000" stroke-width="1.33333" stroke-linejoin="round" stroke-miterlimit="10" fill="none" fill-rule="evenodd" transform="matrix(1 0 0 -1 358.5 220.5)"/><text font-family="SimSun,SimSun_MSFontService,sans-serif" font-weight="700" font-size="24" transform="translate(168 244)">服务类型</text><path d="M0 0 161 43" stroke="#FF0000" stroke-width="1.33333" stroke-linejoin="round" stroke-miterlimit="10" fill="none" fill-rule="evenodd" transform="matrix(1 0 0 -1 274.5 238.5)"/><path d="M0 0 0.000104987 53" stroke="#000000" stroke-width="1.33333" stroke-linejoin="round" stroke-miterlimit="10" fill="none" fill-rule="evenodd" transform="matrix(1 0 0 -1 517.5 274.5)"/><text font-family="Comic Sans MS,Comic Sans MS_MSFontService,sans-serif" font-weight="700" font-size="24" transform="translate(520 257)">flgs</text><path d="M0 0 0.000104987 53" stroke="#000000" stroke-width="1.33333" stroke-linejoin="round" stroke-miterlimit="10" fill="none" fill-rule="evenodd" transform="matrix(1 0 0 -1 566.5 273.5)"/><text font-family="Comic Sans MS,Comic Sans MS_MSFontService,sans-serif" font-weight="700" font-size="24" transform="translate(592.167 243)">fragment<tspan font-size="24" x="21.2466" y="29">offset</tspan></text><path d="M767.5 247.5 698.5 235.5" stroke="#FF0000" stroke-width="1.33333" stroke-linejoin="round" stroke-miterlimit="10" fill="none" fill-rule="evenodd"/><path d="M0 0 264 6" stroke="#FF0000" stroke-width="1.33333" stroke-linejoin="round" stroke-miterlimit="10" fill="none" fill-rule="evenodd" transform="matrix(-1 0 0 1 765.5 247.5)"/><path d="M312.5 274.5 727.5 274.5" stroke="#000000" stroke-width="1.33333" stroke-linejoin="round" stroke-miterlimit="10" fill="none" fill-rule="evenodd"/><path d="M0 0 0.000104987 53" stroke="#000000" stroke-width="1.33333" stroke-linejoin="round" stroke-miterlimit="10" fill="none" fill-rule="evenodd" transform="matrix(1 0 0 -1 517.5 327.5)"/><path d="M310.5 328.5 725.5 328.5" stroke="#000000" stroke-width="1.33333" stroke-linejoin="round" stroke-miterlimit="10" fill="none" fill-rule="evenodd"/><text font-family="Comic Sans MS,Comic Sans MS_MSFontService,sans-serif" font-weight="700" font-size="24" transform="translate(435 293)">upper<tspan font-size="24" x="7.66666" y="29">layer</tspan></text><path d="M0 0 0.000104987 53" stroke="#000000" stroke-width="1.33333" stroke-linejoin="round" stroke-miterlimit="10" fill="none" fill-rule="evenodd" transform="matrix(1 0 0 -1 417.5 328.5)"/><path d="M282.5 293.5 340.5 303.5" stroke="#FF0000" stroke-width="1.33333" stroke-linejoin="round" stroke-miterlimit="10" fill="none" fill-rule="evenodd"/><text font-family="Comic Sans MS,Comic Sans MS_MSFontService,sans-serif" font-weight="700" font-size="24" transform="translate(406.833 411)">32 bit <tspan font-family="SimSun,SimSun_MSFontService,sans-serif" font-size="24" x="82.1667" y="0">目的</tspan><tspan font-size="24" x="140.833" y="0">IP </tspan><tspan font-family="SimSun,SimSun_MSFontService,sans-serif" font-size="24" x="177.167" y="0">地址</tspan></text><path d="M312.5 475.5 727.5 475.5" stroke="#000000" stroke-width="1.33333" stroke-linejoin="round" stroke-miterlimit="10" fill="none" fill-rule="evenodd"/><text font-family="SimSun,SimSun_MSFontService,sans-serif" font-weight="700" font-size="24" transform="translate(404.667 460)">选项<tspan font-family="Comic Sans MS,Comic Sans MS_MSFontService,sans-serif" font-size="24" x="58.6667" y="0">(</tspan><tspan font-size="24" x="67.5" y="0">如果需要的话</tspan><tspan font-family="Comic Sans MS,Comic Sans MS_MSFontService,sans-serif" font-size="24" x="212.5" y="0">)</tspan><tspan font-size="24" x="352.333" y="-3">如时间戳</tspan><tspan font-family="Comic Sans MS,Comic Sans MS_MSFontService,sans-serif" font-size="24" x="449" y="-3">,</tspan><tspan font-size="24" x="352.333" y="26">规定路由器列表等</tspan></text><path d="M0 0 86 1" stroke="#FF0000" stroke-width="1.33333" stroke-linejoin="round" stroke-miterlimit="10" fill="none" fill-rule="evenodd" transform="matrix(-1 0 0 1 753.5 452.5)"/><rect x="16.5001" y="475.5" width="275" height="168" stroke="#CC0000" stroke-miterlimit="8" fill="none"/><text fill="#CC0000" font-family="Arial,Arial_MSFontService,sans-serif" font-style="italic" font-weight="400" font-size="27" transform="translate(25.7667 500)">how much overhead?<tspan fill="#000099" font-family="Wingdings,Wingdings_MSFontService,sans-serif" font-style="normal" font-size="17" x="0" y="34"></tspan><tspan fill="#000000" font-style="normal" font-size="27" x="36" y="34">20 bytes of TCP</tspan><tspan fill="#000099" font-family="Wingdings,Wingdings_MSFontService,sans-serif" font-style="normal" font-size="17" x="0" y="67"></tspan><tspan fill="#000000" font-style="normal" font-size="27" x="36" y="67">20 bytes of IP</tspan><tspan fill="#000099" font-family="Wingdings,Wingdings_MSFontService,sans-serif" font-style="normal" font-size="17" x="0" y="101"></tspan><tspan fill="#000000" font-style="normal" font-size="27" x="36" y="101">= 40 bytes + app </tspan><tspan fill="#000000" font-style="normal" font-size="27" x="36" y="128">layer overhead</tspan></text></g></svg>