<svg width="960" height="720" xmlns="http://www.w3.org/2000/svg" xmlns:xlink="http://www.w3.org/1999/xlink" overflow="hidden"><defs><clipPath id="clip0"><rect x="0" y="0" width="960" height="720"/></clipPath></defs><g clip-path="url(#clip0)"><rect x="0" y="0" width="960" height="720" fill="#FFFFFF"/><text fill="#919293" font-family="Times New Roman,Times New Roman_MSFontService,sans-serif" font-weight="400" font-size="12" transform="translate(869.836 562)">11</text><rect x="284.5" y="231.5" width="169" height="246" stroke="#FF0000" stroke-width="3" stroke-miterlimit="8" fill="#FFFFFF"/><text font-family="Arial,Arial_MSFontService,sans-serif" font-weight="400" font-size="24" transform="translate(305.298 344)">high<tspan font-size="24" x="45.3333" y="0">-</tspan>speed <tspan font-size="24" x="13.3267" y="24">switching</tspan><tspan font-size="24" x="33.3267" y="49">fabric</tspan></text><rect x="286.5" y="130.5" width="167" height="68" stroke="#FF0000" stroke-width="3" stroke-miterlimit="8" fill="#FFFFFF"/><text font-family="Arial,Arial_MSFontService,sans-serif" font-weight="400" font-size="24" transform="translate(326.748 158)">routing <tspan font-size="24" x="-12.6667" y="24">processor</tspan></text><path d="M364.332 193.928 365.666 233.939 361.668 234.072 360.334 194.061ZM356.403 196.193 362 184 368.396 195.793ZM369.597 231.807 364 244 357.604 232.207Z" fill="#FF0000"/><rect x="101" y="232" width="157" height="60" stroke="#5F5F5F" stroke-width="2" stroke-miterlimit="8" fill="#FFFFFF"/><rect x="108.5" y="249.5" width="48" height="27" stroke="#006600" stroke-width="3" stroke-miterlimit="8" fill="#FFFFFF"/><rect x="163.5" y="238.5" width="40" height="46" stroke="#ED7D31" stroke-width="3" stroke-miterlimit="8" fill="#FFFFFF"/><rect x="210.5" y="238.5" width="39" height="46" stroke="#FF0000" stroke-width="3" stroke-miterlimit="8" fill="#FFFFFF"/><path d="M69.5001 261 276 261 276 264 69.5001 264ZM274.5 258 283.5 262.5 274.5 267Z"/><rect x="101" y="415" width="158" height="59" stroke="#5F5F5F" stroke-width="2" stroke-miterlimit="8" fill="#FFFFFF"/><rect x="107.5" y="431.5" width="49" height="27" stroke="#006600" stroke-width="3" stroke-miterlimit="8" fill="#FFFFFF"/><rect x="163.5" y="421.5" width="40" height="45" stroke="#ED7D31" stroke-width="3" stroke-miterlimit="8" fill="#FFFFFF"/><rect x="210.5" y="420.5" width="40" height="46" stroke="#FF0000" stroke-width="3" stroke-miterlimit="8" fill="#FFFFFF"/><path d="M68.5001 444 277 444 277 447 68.5001 447ZM275.5 441 284.5 445.5 275.5 450Z"/><path d="M159.11 316.874C160.91 315.028 163.866 314.993 165.714 316.794 167.561 318.595 167.601 321.552 165.801 323.397 164.002 325.242 161.046 325.278 159.198 323.477 157.351 321.675 157.311 318.719 159.11 316.874Z" stroke="#000000" stroke-linejoin="round" stroke-miterlimit="10" fill="#44546A" fill-rule="evenodd"/><path d="M159.65 339.746C161.449 337.9 164.406 337.865 166.253 339.666 168.101 341.467 168.14 344.424 166.341 346.269 164.542 348.114 161.585 348.15 159.738 346.349 157.89 344.547 157.851 341.591 159.65 339.746Z" stroke="#000000" stroke-linejoin="round" stroke-miterlimit="10" fill="#44546A" fill-rule="evenodd"/><path d="M159.831 362.268C161.631 360.423 164.587 360.387 166.435 362.188 168.282 363.99 168.321 366.946 166.522 368.792 164.723 370.637 161.767 370.673 159.919 368.871 158.072 367.07 158.032 364.114 159.831 362.268Z" stroke="#000000" stroke-linejoin="round" stroke-miterlimit="10" fill="#44546A" fill-rule="evenodd"/><path d="M160.013 384.791C161.812 382.945 164.768 382.91 166.616 384.711 168.464 386.512 168.503 389.469 166.704 391.314 164.904 393.159 161.948 393.195 160.1 391.394 158.253 389.592 158.214 386.636 160.013 384.791Z" stroke="#000000" stroke-linejoin="round" stroke-miterlimit="10" fill="#44546A" fill-rule="evenodd"/><text font-family="Arial,Arial_MSFontService,sans-serif" font-weight="400" font-size="24" transform="translate(68.0029 510)">router input ports</text><rect x="0" y="0" width="151" height="59" stroke="#5F5F5F" stroke-width="2" stroke-miterlimit="8" fill="#FFFFFF" transform="matrix(-1 0 0 1 629 233)"/><rect x="0" y="0" width="46" height="27" stroke="#006600" stroke-width="3" stroke-miterlimit="8" fill="#FFFFFF" transform="matrix(-1 0 0 1 622.5 249.5)"/><rect x="0" y="0" width="38" height="45" stroke="#ED7D31" stroke-width="3" stroke-miterlimit="8" fill="#FFFFFF" transform="matrix(-1 0 0 1 569.5 239.5)"/><rect x="0" y="0" width="38" height="46" stroke="#FF0000" stroke-width="3" stroke-miterlimit="8" fill="#FFFFFF" transform="matrix(-1 0 0 1 525.5 238.5)"/><path d="M447.5 262 646 262 646 265 447.5 265ZM644.5 259 653.5 263.5 644.5 268Z"/><rect x="0" y="0" width="155" height="59" stroke="#5F5F5F" stroke-width="2" stroke-miterlimit="8" fill="#FFFFFF" transform="matrix(-1 0 0 1 636 415)"/><rect x="0" y="0" width="48" height="27" stroke="#006600" stroke-width="3" stroke-miterlimit="8" fill="#FFFFFF" transform="matrix(-1 0 0 1 629.5 431.5)"/><rect x="0" y="0" width="39" height="45" stroke="#ED7D31" stroke-width="3" stroke-miterlimit="8" fill="#FFFFFF" transform="matrix(-1 0 0 1 574.5 421.5)"/><rect x="0" y="0" width="39" height="46" stroke="#FF0000" stroke-width="3" stroke-miterlimit="8" fill="#FFFFFF" transform="matrix(-1 0 0 1 529.5 420.5)"/><path d="M449.5 444 654 444 654 447 449.5 447ZM652.5 441 661.5 445.5 652.5 450Z"/><path d="M565.126 315.874C566.925 314.028 569.882 313.993 571.729 315.794 573.577 317.595 573.616 320.552 571.817 322.397 570.018 324.242 567.062 324.278 565.214 322.477 563.366 320.675 563.327 317.719 565.126 315.874Z" stroke="#000000" stroke-linejoin="round" stroke-miterlimit="10" fill="#44546A" fill-rule="evenodd"/><path d="M565.666 338.746C567.465 336.9 570.421 336.865 572.269 338.666 574.117 340.467 574.156 343.424 572.357 345.269 570.558 347.114 567.601 347.15 565.754 345.349 563.906 343.547 563.867 340.591 565.666 338.746Z" stroke="#000000" stroke-linejoin="round" stroke-miterlimit="10" fill="#44546A" fill-rule="evenodd"/><path d="M565.847 361.268C567.646 359.423 570.603 359.387 572.45 361.188 574.298 362.99 574.337 365.946 572.538 367.792 570.739 369.637 567.783 369.673 565.935 367.871 564.087 366.07 564.048 363.114 565.847 361.268Z" stroke="#000000" stroke-linejoin="round" stroke-miterlimit="10" fill="#44546A" fill-rule="evenodd"/><path d="M566.029 383.791C567.828 381.945 570.784 381.91 572.632 383.711 574.479 385.512 574.519 388.469 572.719 390.314 570.92 392.159 567.964 392.195 566.116 390.394 564.269 388.592 564.229 385.636 566.029 383.791Z" stroke="#000000" stroke-linejoin="round" stroke-miterlimit="10" fill="#44546A" fill-rule="evenodd"/><text font-family="Arial,Arial_MSFontService,sans-serif" font-weight="400" font-size="24" transform="translate(490.486 515)">router output ports</text><path d="M68.5001 211.5 887.732 212.833" stroke="#000000" stroke-linejoin="round" stroke-miterlimit="10" stroke-dasharray="4 3" fill="none" fill-rule="evenodd"/><text font-family="Arial,Arial_MSFontService,sans-serif" font-weight="400" font-size="21" transform="translate(761.195 240)">forwarding data <tspan font-size="21" x="-20.1667" y="25">plane (hardware)</tspan><tspan font-size="21" x="-56.0354" y="-70">routing, management</tspan><tspan font-size="21" x="-77.3688" y="-45">control plane (software)</tspan></text><path d="M265.535 160 265.535 159.844 266.535 160.844 230 160.844 231 159.844 231 417.687 229 417.687 229 159.844C229 159.292 229.448 158.844 230 158.844L266.535 158.844C267.087 158.844 267.535 159.292 267.535 159.844L267.535 160ZM235.53 410.191 230 419.671 224.47 410.191C224.191 409.714 224.352 409.101 224.829 408.823 225.307 408.545 225.919 408.706 226.197 409.183L230.864 417.183 229.136 417.183 233.803 409.183C234.081 408.706 234.693 408.545 235.171 408.823 235.648 409.101 235.809 409.714 235.53 410.191Z"/><text font-family="Arial,Arial_MSFontService,sans-serif" font-style="italic" font-weight="400" font-size="16" transform="translate(74.4698 152)">forwarding tables computed,<tspan font-size="16" x="0" y="19">pushed to input ports</tspan></text></g></svg>