<svg width="960" height="720" xmlns="http://www.w3.org/2000/svg" xmlns:xlink="http://www.w3.org/1999/xlink" overflow="hidden"><defs><clipPath id="clip0"><rect x="0" y="0" width="960" height="720"/></clipPath></defs><g clip-path="url(#clip0)"><rect x="0" y="0" width="960" height="720" fill="#FFFFFF"/><text font-family="SimSun,SimSun_MSFontService,sans-serif" font-weight="700" font-size="43" transform="translate(69.9386 85)">交换结构<tspan fill="#919293" font-family="Times New Roman,Times New Roman_MSFontService,sans-serif" font-weight="400" font-size="12" x="802.328" y="606">16</tspan><tspan fill="#000099" font-family="Wingdings,Wingdings_MSFontService,sans-serif" font-weight="400" font-size="21" x="11.6614" y="63"></tspan><tspan font-size="32" x="47.6614" y="63">将分组从输入缓冲区交换到适当的输出缓冲区</tspan><tspan fill="#000099" font-family="Wingdings,Wingdings_MSFontService,sans-serif" font-weight="400" font-size="21" x="11.6614" y="104"></tspan><tspan font-size="32" x="47.6614" y="104">交换速度：分组从输入端到输出端的速度</tspan><tspan fill="#000099" font-family="Wingdings,Wingdings_MSFontService,sans-serif" font-weight="400" font-size="21" x="11.6614" y="144"></tspan><tspan font-size="32" x="47.6614" y="144">三种交换结构</tspan></text><rect x="78" y="278" width="75" height="36" stroke="#5F5F5F" stroke-width="2" stroke-miterlimit="8" fill="#FFFFFF"/><rect x="81" y="288" width="24" height="16" stroke="#006600" stroke-width="2" stroke-miterlimit="8" fill="#FFFFFF"/><rect x="108" y="282" width="19" height="27" stroke="#ED7D31" stroke-width="2" stroke-miterlimit="8" fill="#FFFFFF"/><rect x="130" y="282" width="20" height="27" stroke="#FF0000" stroke-width="2" stroke-miterlimit="8" fill="#FFFFFF"/><path d="M0.0101005-0.999949 92.3437-0.0672858 92.3235 1.93261-0.0101005 0.999949ZM91.0408-3.0806 99 1 90.96 4.91899Z" transform="matrix(1 0 0 -1 71 296)"/><rect x="76" y="343" width="74" height="35" stroke="#5F5F5F" stroke-width="2" stroke-miterlimit="8" fill="#FFFFFF"/><rect x="79" y="353" width="23" height="16" stroke="#006600" stroke-width="2" stroke-miterlimit="8" fill="#FFFFFF"/><rect x="105" y="347" width="19" height="27" stroke="#ED7D31" stroke-width="2" stroke-miterlimit="8" fill="#FFFFFF"/><rect x="128" y="346" width="19" height="27" stroke="#FF0000" stroke-width="2" stroke-miterlimit="8" fill="#FFFFFF"/><path d="M0.0101005-0.999949 92.3437-0.0672858 92.3235 1.93261-0.0101005 0.999949ZM91.0408-3.0806 99 1 90.96 4.91899Z" transform="matrix(1 0 0 -1 68 361)"/><rect x="75" y="413" width="75" height="35" stroke="#5F5F5F" stroke-width="2" stroke-miterlimit="8" fill="#FFFFFF"/><rect x="78" y="423" width="24" height="16" stroke="#006600" stroke-width="2" stroke-miterlimit="8" fill="#FFFFFF"/><rect x="105" y="417" width="19" height="27" stroke="#ED7D31" stroke-width="2" stroke-miterlimit="8" fill="#FFFFFF"/><rect x="127" y="416" width="20" height="27" stroke="#FF0000" stroke-width="2" stroke-miterlimit="8" fill="#FFFFFF"/><path d="M0.0101005-0.999949 92.3437-0.0672858 92.3235 1.93261-0.0101005 0.999949ZM91.0408-3.0806 99 1 90.96 4.91899Z" transform="matrix(1 0 0 -1 68 430)"/><rect x="166.5" y="265.5" width="79" height="192" stroke="#FF0000" stroke-width="3" stroke-miterlimit="8" fill="none"/><rect x="253" y="278" width="75" height="36" stroke="#5F5F5F" stroke-width="2" stroke-miterlimit="8" fill="#FFFFFF"/><rect x="301" y="288" width="23" height="16" stroke="#006600" stroke-width="2" stroke-miterlimit="8" fill="#FFFFFF"/><rect x="279" y="282" width="19" height="27" stroke="#ED7D31" stroke-width="2" stroke-miterlimit="8" fill="#FFFFFF"/><rect x="256" y="283" width="19" height="27" stroke="#FF0000" stroke-width="2" stroke-miterlimit="8" fill="#FFFFFF"/><path d="M0.0101005-0.999949 92.3437-0.0672858 92.3235 1.93261-0.0101005 0.999949ZM91.0408-3.0806 99 1 90.96 4.91899Z" transform="matrix(1 0 0 -1 245 296)"/><rect x="253" y="342" width="75" height="36" stroke="#5F5F5F" stroke-width="2" stroke-miterlimit="8" fill="#FFFFFF"/><rect x="302" y="352" width="23" height="16" stroke="#006600" stroke-width="2" stroke-miterlimit="8" fill="#FFFFFF"/><rect x="279" y="346" width="19" height="27" stroke="#ED7D31" stroke-width="2" stroke-miterlimit="8" fill="#FFFFFF"/><rect x="257" y="347" width="19" height="27" stroke="#FF0000" stroke-width="2" stroke-miterlimit="8" fill="#FFFFFF"/><path d="M0.0101005-0.999949 92.3437-0.0672858 92.3235 1.93261-0.0101005 0.999949ZM91.0408-3.0806 99 1 90.96 4.91899Z" transform="matrix(1 0 0 -1 246 360)"/><rect x="253" y="412" width="75" height="35" stroke="#5F5F5F" stroke-width="2" stroke-miterlimit="8" fill="#FFFFFF"/><rect x="301" y="422" width="23" height="16" stroke="#006600" stroke-width="2" stroke-miterlimit="8" fill="#FFFFFF"/><rect x="279" y="416" width="19" height="27" stroke="#ED7D31" stroke-width="2" stroke-miterlimit="8" fill="#FFFFFF"/><rect x="256" y="417" width="19" height="27" stroke="#FF0000" stroke-width="2" stroke-miterlimit="8" fill="#FFFFFF"/><path d="M0.0101005-0.999949 92.3437-0.0672858 92.3235 1.93261-0.0101005 0.999949ZM91.0408-3.0806 99 1 90.96 4.91899Z" transform="matrix(1 0 0 -1 245 430)"/><text font-family="Arial,Arial_MSFontService,sans-serif" font-weight="400" font-size="24" transform="translate(157.334 519)">memory<tspan font-size="19" x="10.9433" y="-179">memory</tspan></text><rect x="401" y="276" width="75" height="35" stroke="#5F5F5F" stroke-width="2" stroke-miterlimit="8" fill="#FFFFFF"/><rect x="404" y="286" width="24" height="16" stroke="#006600" stroke-width="2" stroke-miterlimit="8" fill="#FFFFFF"/><rect x="431" y="280" width="19" height="27" stroke="#ED7D31" stroke-width="2" stroke-miterlimit="8" fill="#FFFFFF"/><rect x="453" y="279" width="20" height="27" stroke="#FF0000" stroke-width="2" stroke-miterlimit="8" fill="#FFFFFF"/><path d="M0.0101005-0.999949 92.3437-0.0672858 92.3235 1.93261-0.0101005 0.999949ZM91.0408-3.0806 99 1 90.96 4.91899Z" transform="matrix(1 0 0 -1 394 293)"/><rect x="401" y="341" width="75" height="35" stroke="#5F5F5F" stroke-width="2" stroke-miterlimit="8" fill="#FFFFFF"/><rect x="404" y="350" width="24" height="16" stroke="#006600" stroke-width="2" stroke-miterlimit="8" fill="#FFFFFF"/><rect x="431" y="344" width="19" height="27" stroke="#ED7D31" stroke-width="2" stroke-miterlimit="8" fill="#FFFFFF"/><rect x="453" y="344" width="20" height="27" stroke="#FF0000" stroke-width="2" stroke-miterlimit="8" fill="#FFFFFF"/><path d="M0.0101005-0.999949 92.3437-0.0672858 92.3235 1.93261-0.0101005 0.999949ZM91.0408-3.0806 99 1 90.96 4.91899Z" transform="matrix(1 0 0 -1 394 358)"/><rect x="401" y="410" width="74" height="36" stroke="#5F5F5F" stroke-width="2" stroke-miterlimit="8" fill="#FFFFFF"/><rect x="404" y="420" width="23" height="16" stroke="#006600" stroke-width="2" stroke-miterlimit="8" fill="#FFFFFF"/><rect x="430" y="414" width="19" height="27" stroke="#ED7D31" stroke-width="2" stroke-miterlimit="8" fill="#FFFFFF"/><rect x="453" y="413" width="19" height="28" stroke="#FF0000" stroke-width="2" stroke-miterlimit="8" fill="#FFFFFF"/><path d="M0.0101005-0.999949 92.3437-0.0672858 92.3235 1.93261-0.0101005 0.999949ZM91.0408-3.0806 99 1 90.96 4.91899Z" transform="matrix(1 0 0 -1 393 428)"/><path d="M494 276 494 440" stroke="#FF0000" stroke-width="8" stroke-linejoin="round" stroke-miterlimit="10" fill="none" fill-rule="evenodd"/><rect x="508" y="274" width="74" height="35" stroke="#5F5F5F" stroke-width="2" stroke-miterlimit="8" fill="#FFFFFF"/><rect x="556" y="283" width="23" height="16" stroke="#006600" stroke-width="2" stroke-miterlimit="8" fill="#FFFFFF"/><rect x="533" y="277" width="19" height="27" stroke="#ED7D31" stroke-width="2" stroke-miterlimit="8" fill="#FFFFFF"/><rect x="511" y="278" width="19" height="27" stroke="#FF0000" stroke-width="2" stroke-miterlimit="8" fill="#FFFFFF"/><path d="M0.0101005-0.999949 92.3437-0.0672858 92.3235 1.93261-0.0101005 0.999949ZM91.0408-3.0806 99 1 90.96 4.91899Z" transform="matrix(1 0 0 -1 500 291)"/><rect x="508" y="338" width="75" height="35" stroke="#5F5F5F" stroke-width="2" stroke-miterlimit="8" fill="#FFFFFF"/><rect x="556" y="348" width="24" height="15" stroke="#006600" stroke-width="2" stroke-miterlimit="8" fill="#FFFFFF"/><rect x="534" y="342" width="19" height="27" stroke="#ED7D31" stroke-width="2" stroke-miterlimit="8" fill="#FFFFFF"/><rect x="512" y="342" width="19" height="28" stroke="#FF0000" stroke-width="2" stroke-miterlimit="8" fill="#FFFFFF"/><path d="M0.0101005-0.999949 92.3437-0.0672858 92.3235 1.93261-0.0101005 0.999949ZM91.0408-3.0806 99 1 90.96 4.91899Z" transform="matrix(1 0 0 -1 501 356)"/><rect x="508" y="408" width="74" height="35" stroke="#5F5F5F" stroke-width="2" stroke-miterlimit="8" fill="#FFFFFF"/><rect x="556" y="417" width="23" height="16" stroke="#006600" stroke-width="2" stroke-miterlimit="8" fill="#FFFFFF"/><rect x="533" y="411" width="19" height="27" stroke="#ED7D31" stroke-width="2" stroke-miterlimit="8" fill="#FFFFFF"/><rect x="511" y="412" width="19" height="27" stroke="#FF0000" stroke-width="2" stroke-miterlimit="8" fill="#FFFFFF"/><path d="M0.0101005-0.999949 92.3437-0.0672858 92.3235 1.93261-0.0101005 0.999949ZM91.0408-3.0806 99 1 90.96 4.91899Z" transform="matrix(1 0 0 -1 500 425)"/><text font-family="Arial,Arial_MSFontService,sans-serif" font-weight="400" font-size="24" transform="translate(474.338 519)">bus</text><rect x="673" y="271" width="75" height="35" stroke="#5F5F5F" stroke-width="2" stroke-miterlimit="8" fill="#FFFFFF"/><rect x="676" y="280" width="23" height="16" stroke="#006600" stroke-width="2" stroke-miterlimit="8" fill="#FFFFFF"/><rect x="703" y="274" width="19" height="27" stroke="#ED7D31" stroke-width="2" stroke-miterlimit="8" fill="#FFFFFF"/><rect x="725" y="274" width="19" height="27" stroke="#FF0000" stroke-width="2" stroke-miterlimit="8" fill="#FFFFFF"/><path d="M0.0101005-0.999949 92.3437-0.0672858 92.3235 1.93261-0.0101005 0.999949ZM91.0408-3.0806 99 1 90.96 4.91899Z" transform="matrix(1 0 0 -1 665 288)"/><rect x="670" y="335" width="75" height="35" stroke="#5F5F5F" stroke-width="2" stroke-miterlimit="8" fill="#FFFFFF"/><rect x="673" y="345" width="24" height="16" stroke="#006600" stroke-width="2" stroke-miterlimit="8" fill="#FFFFFF"/><rect x="700" y="339" width="19" height="27" stroke="#ED7D31" stroke-width="2" stroke-miterlimit="8" fill="#FFFFFF"/><rect x="722" y="338" width="20" height="27" stroke="#FF0000" stroke-width="2" stroke-miterlimit="8" fill="#FFFFFF"/><path d="M0.0101005-0.999949 92.3437-0.0672858 92.3235 1.93261-0.0101005 0.999949ZM91.0408-3.0806 99 1 90.96 4.91899Z" transform="matrix(1 0 0 -1 663 353)"/><rect x="670" y="405" width="75" height="35" stroke="#5F5F5F" stroke-width="2" stroke-miterlimit="8" fill="#FFFFFF"/><rect x="673" y="415" width="23" height="16" stroke="#006600" stroke-width="2" stroke-miterlimit="8" fill="#FFFFFF"/><rect x="699" y="409" width="20" height="27" stroke="#ED7D31" stroke-width="2" stroke-miterlimit="8" fill="#FFFFFF"/><rect x="722" y="408" width="19" height="27" stroke="#FF0000" stroke-width="2" stroke-miterlimit="8" fill="#FFFFFF"/><path d="M0.0101005-0.999949 92.3437-0.0672858 92.3235 1.93261-0.0101005 0.999949ZM91.0408-3.0806 99 1 90.96 4.91899Z" transform="matrix(1 0 0 -1 662 422)"/><rect x="870" y="460" width="24" height="110" stroke="#5F5F5F" stroke-width="2" stroke-miterlimit="8" fill="#FFFFFF"/><rect x="876" y="531" width="11" height="34" stroke="#006600" stroke-width="2" stroke-miterlimit="8" fill="#FFFFFF"/><rect x="873" y="498" width="19" height="28" stroke="#ED7D31" stroke-width="2" stroke-miterlimit="8" fill="#FFFFFF"/><rect x="872" y="465" width="19" height="28" stroke="#FF0000" stroke-width="2" stroke-miterlimit="8" fill="#FFFFFF"/><path d="M0.00689639-0.999976 138.34-0.0459529 138.326 1.954-0.00689639 0.999976ZM137.028-3.05508 145 1 136.973 4.94473Z" transform="matrix(6.12323e-17 1 1 -6.12323e-17 882 449)"/><rect x="826" y="461" width="24" height="110" stroke="#5F5F5F" stroke-width="2" stroke-miterlimit="8" fill="#FFFFFF"/><rect x="833" y="531" width="10" height="35" stroke="#006600" stroke-width="2" stroke-miterlimit="8" fill="#FFFFFF"/><rect x="830" y="498" width="18" height="28" stroke="#ED7D31" stroke-width="2" stroke-miterlimit="8" fill="#FFFFFF"/><rect x="828" y="465" width="19" height="29" stroke="#FF0000" stroke-width="2" stroke-miterlimit="8" fill="#FFFFFF"/><path d="M0.00684915-0.999977 139.34-0.0456378 139.327 1.95432-0.00684915 0.999977ZM138.028-3.0547 146 1 137.973 4.94511Z" transform="matrix(6.12323e-17 1 1 -6.12323e-17 838 449)"/><rect x="779" y="460" width="24" height="110" stroke="#5F5F5F" stroke-width="2" stroke-miterlimit="8" fill="#FFFFFF"/><rect x="785" y="531" width="11" height="34" stroke="#006600" stroke-width="2" stroke-miterlimit="8" fill="#FFFFFF"/><rect x="782" y="498" width="18" height="28" stroke="#ED7D31" stroke-width="2" stroke-miterlimit="8" fill="#FFFFFF"/><rect x="781" y="465" width="19" height="28" stroke="#FF0000" stroke-width="2" stroke-miterlimit="8" fill="#FFFFFF"/><path d="M0.00689639-0.999976 138.34-0.0459529 138.326 1.954-0.00689639 0.999976ZM137.028-3.05508 145 1 136.973 4.94473Z" transform="matrix(6.12323e-17 1 1 -6.12323e-17 791 449)"/><path d="M764.5 288.5 883.5 288.5" stroke="#FF0000" stroke-width="3" stroke-linejoin="round" stroke-miterlimit="10" fill="none" fill-rule="evenodd"/><path d="M0 0 124 1" stroke="#FF0000" stroke-width="3" stroke-linejoin="round" stroke-miterlimit="10" fill="none" fill-rule="evenodd" transform="matrix(1 0 0 -1 760.5 352.5)"/><path d="M760.5 422.5 883.5 422.5" stroke="#FF0000" stroke-width="3" stroke-linejoin="round" stroke-miterlimit="10" fill="none" fill-rule="evenodd"/><path d="M0 0 0.000104987 160" stroke="#FF0000" stroke-width="3" stroke-linejoin="round" stroke-miterlimit="10" fill="none" fill-rule="evenodd" transform="matrix(1 0 0 -1 792.5 448.5)"/><path d="M0 0 0.000104987 160" stroke="#FF0000" stroke-width="3" stroke-linejoin="round" stroke-miterlimit="10" fill="none" fill-rule="evenodd" transform="matrix(1 0 0 -1 839.5 448.5)"/><path d="M0 0 0.000104987 160" stroke="#FF0000" stroke-width="3" stroke-linejoin="round" stroke-miterlimit="10" fill="none" fill-rule="evenodd" transform="matrix(1 0 0 -1 883.5 446.5)"/><path d="M787 289C787 285.134 789.239 282 792 282 794.761 282 797 285.134 797 289 797 292.866 794.761 296 792 296 789.239 296 787 292.866 787 289Z" fill="#FF0000" fill-rule="evenodd"/><path d="M787 351.5C787 347.358 789.239 344 792 344 794.761 344 797 347.358 797 351.5 797 355.642 794.761 359 792 359 789.239 359 787 355.642 787 351.5Z" fill="#FF0000" fill-rule="evenodd"/><path d="M786 421C786 417.134 788.239 414 791 414 793.761 414 796 417.134 796 421 796 424.866 793.761 428 791 428 788.239 428 786 424.866 786 421Z" fill="#FF0000" fill-rule="evenodd"/><path d="M834 289C834 285.134 836.239 282 839 282 841.761 282 844 285.134 844 289 844 292.866 841.761 296 839 296 836.239 296 834 292.866 834 289Z" fill="#FF0000" fill-rule="evenodd"/><path d="M834 351.5C834 347.358 836.239 344 839 344 841.761 344 844 347.358 844 351.5 844 355.642 841.761 359 839 359 836.239 359 834 355.642 834 351.5Z" fill="#FF0000" fill-rule="evenodd"/><path d="M834 421C834 417.134 836.239 414 839 414 841.761 414 844 417.134 844 421 844 424.866 841.761 428 839 428 836.239 428 834 424.866 834 421Z" fill="#FF0000" fill-rule="evenodd"/><path d="M878 289C878 285.134 880.239 282 883 282 885.761 282 888 285.134 888 289 888 292.866 885.761 296 883 296 880.239 296 878 292.866 878 289Z" fill="#FF0000" fill-rule="evenodd"/><path d="M878 351.5C878 347.358 880.239 344 883 344 885.761 344 888 347.358 888 351.5 888 355.642 885.761 359 883 359 880.239 359 878 355.642 878 351.5Z" fill="#FF0000" fill-rule="evenodd"/><path d="M877 421C877 417.134 879.239 414 882 414 884.761 414 887 417.134 887 421 887 424.866 884.761 428 882 428 879.239 428 877 424.866 877 421Z" fill="#FF0000" fill-rule="evenodd"/><text font-family="Arial,Arial_MSFontService,sans-serif" font-weight="400" font-size="24" transform="translate(653.668 520)">crossbar</text><path d="M54 284 175.542 284C176.086 284 176.607 284.222 176.984 284.614L241.372 351.614 239.93 351 355 351 355 355 239.93 355C239.385 355 238.865 354.778 238.488 354.386L174.1 287.386 175.542 288 54 288ZM353 347 365 353 353 359Z"/><path d="M392.991 279.516 502.726 279C503.264 278.997 503.78 279.212 504.158 279.594 504.536 279.977 504.744 280.496 504.735 281.033L503.677 344.486 501.704 342.453 606.028 343.865 605.974 347.864 501.65 346.452C501.119 346.445 500.612 346.227 500.242 345.845 499.872 345.464 499.669 344.95 499.677 344.419L500.736 280.967 502.745 283 393.009 283.516ZM604.082 339.838 616 346 603.92 351.837Z"/><path d="M659.991 277.78 830.463 277C830.995 276.998 831.505 277.207 831.882 277.581 832.259 277.956 832.471 278.465 832.472 278.997L832.984 597.997 828.984 598.003 828.472 279.003 830.481 281 660.009 281.78ZM836.981 595.99 831 608 824.981 596.01Z"/></g></svg>