<svg width="960" height="720" xmlns="http://www.w3.org/2000/svg" xmlns:xlink="http://www.w3.org/1999/xlink" overflow="hidden"><defs><clipPath id="clip0"><rect x="0" y="0" width="960" height="720"/></clipPath></defs><g clip-path="url(#clip0)"><rect x="0" y="0" width="960" height="720" fill="#FFFFFF"/><text font-family="SimSun,SimSun_MSFontService,sans-serif" font-weight="700" font-size="27" transform="translate(303.169 560)">附加信息（资源记录的变量数）<tspan font-size="27" x="26.8334" y="-61">权威（资源记录的变量数）</tspan><tspan font-size="27" x="26.8334" y="-122">回答（资源记录的变量数）</tspan><tspan font-size="27" x="53.6667" y="-183">问题（问题的变量数）</tspan><tspan font-size="27" x="230.583" y="-244">附加</tspan><tspan font-family="Comic Sans MS,Comic Sans MS_MSFontService,sans-serif" font-size="27" x="284.25" y="-244">RR</tspan>数<tspan font-size="27" x="30.5833" y="-244">权威</tspan><tspan font-family="Comic Sans MS,Comic Sans MS_MSFontService,sans-serif" font-size="27" x="84.25" y="-244">RR</tspan>数<tspan font-size="27" x="230.583" y="-305">回答</tspan><tspan font-family="Comic Sans MS,Comic Sans MS_MSFontService,sans-serif" font-size="27" x="284.25" y="-305">RR</tspan>数<tspan font-size="27" x="47.5833" y="-305">问题数</tspan><tspan font-size="27" x="261" y="-366">标志</tspan><tspan font-size="27" x="47.5833" y="-366">标识符</tspan></text><path d="M291.5 163.5 691.5 163.5" stroke="#000000" stroke-width="2.66667" stroke-linejoin="round" stroke-miterlimit="10" fill="none" fill-rule="evenodd"/><path d="M291.5 224.5 691.5 224.5" stroke="#000000" stroke-width="1.33333" stroke-linejoin="round" stroke-miterlimit="10" fill="none" fill-rule="evenodd"/><path d="M291.5 285.5 691.5 285.5" stroke="#000000" stroke-width="1.33333" stroke-linejoin="round" stroke-miterlimit="10" fill="none" fill-rule="evenodd"/><path d="M291.5 346.5 691.5 346.5" stroke="#000000" stroke-width="1.33333" stroke-linejoin="round" stroke-miterlimit="10" fill="none" fill-rule="evenodd"/><path d="M291.5 407.5 691.5 407.5" stroke="#000000" stroke-width="1.33333" stroke-linejoin="round" stroke-miterlimit="10" fill="none" fill-rule="evenodd"/><path d="M291.5 468.5 691.5 468.5" stroke="#000000" stroke-width="1.33333" stroke-linejoin="round" stroke-miterlimit="10" fill="none" fill-rule="evenodd"/><path d="M291.5 529.5 691.5 529.5" stroke="#000000" stroke-width="1.33333" stroke-linejoin="round" stroke-miterlimit="10" fill="none" fill-rule="evenodd"/><path d="M291.5 590.5 691.5 590.5" stroke="#000000" stroke-width="2.66667" stroke-linejoin="round" stroke-miterlimit="10" fill="none" fill-rule="evenodd"/><path d="M291.5 163.5 291.5 590.5" stroke="#000000" stroke-width="2.66667" stroke-linejoin="round" stroke-miterlimit="10" fill="none" fill-rule="evenodd"/><path d="M491.5 163.5 491.5 346.5" stroke="#000000" stroke-width="1.33333" stroke-linejoin="round" stroke-miterlimit="10" fill="none" fill-rule="evenodd"/><path d="M691.5 163.5 691.5 590.5" stroke="#000000" stroke-width="2.66667" stroke-linejoin="round" stroke-miterlimit="10" fill="none" fill-rule="evenodd"/><path d="M699.5 163.5 739.5 163.5" stroke="#000000" stroke-width="1.33333" stroke-linejoin="round" stroke-miterlimit="10" fill="none" fill-rule="evenodd"/><path d="M699.5 347.5 739.5 347.5" stroke="#000000" stroke-width="1.33333" stroke-linejoin="round" stroke-miterlimit="10" fill="none" fill-rule="evenodd"/><path d="M0.666667-2.18723e-06 0.666754 26.6667-0.666579 26.6667-0.666667 2.18723e-06ZM8.74891e-05 26.6667 4.00008 24 0.000104987 32-3.99992 24Z" transform="matrix(1 0 0 -1 715.5 195.5)"/><path d="M716.167 315.5 716.167 342.167 714.833 342.167 714.833 315.5ZM715.5 342.167 719.5 339.5 715.5 347.5 711.5 339.5Z"/><text font-family="Comic Sans MS,Comic Sans MS_MSFontService,sans-serif" font-weight="700" font-size="21" transform="translate(708.669 228)">12<tspan font-family="SimSun,SimSun_MSFontService,sans-serif" font-size="21" x="0" y="39">字</tspan><tspan font-family="SimSun,SimSun_MSFontService,sans-serif" font-size="21" x="0" y="77">节</tspan></text></g></svg>