<svg width="960" height="720" xmlns="http://www.w3.org/2000/svg" xmlns:xlink="http://www.w3.org/1999/xlink" overflow="hidden"><defs><clipPath id="clip0"><rect x="0" y="0" width="960" height="720"/></clipPath></defs><g clip-path="url(#clip0)"><rect x="0" y="0" width="960" height="720" fill="#FFFFFF"/><text fill="#3333CC" font-family="SimSun,SimSun_MSFontService,sans-serif" font-weight="700" font-size="48" transform="translate(240.417 77)">分布式、层次数据库</text><path d="M240.837 81.2 385.17 81.2 529.503 81.2 673.837 81.2 673.837 83.2 529.503 83.2 385.17 83.2 240.837 83.2Z" fill="#3333CC" fill-rule="evenodd"/><text font-family="SimSun,SimSun_MSFontService,sans-serif" font-weight="700" font-size="24" transform="translate(375.167 144)">根<tspan font-family="Arial,Arial_MSFontService,sans-serif" font-size="24" x="30.8333" y="0">DNS </tspan><tspan font-size="24" x="88.1667" y="0">服务器</tspan><tspan font-family="Arial,Arial_MSFontService,sans-serif" font-size="24" x="-270.333" y="112">com DNS </tspan><tspan font-size="24" x="-157" y="112">服务器</tspan><tspan font-family="Arial,Arial_MSFontService,sans-serif" font-size="24" x="7.66666" y="105">org DNS </tspan><tspan font-size="24" x="110.333" y="105">服务器</tspan><tspan font-family="Arial,Arial_MSFontService,sans-serif" font-size="24" x="278" y="105">edu DNS </tspan><tspan font-size="24" x="384.667" y="105">服务器</tspan></text><path d="M0 0 218 63" stroke="#000000" stroke-width="2.66667" stroke-linejoin="round" stroke-miterlimit="10" fill="none" fill-rule="evenodd" transform="matrix(-1 0 0 1 441.5 157.5)"/><path d="M471.5 150.5 471.5 220.5" stroke="#000000" stroke-width="2.66667" stroke-linejoin="round" stroke-miterlimit="10" fill="none" fill-rule="evenodd"/><path d="M508.5 157.5 734.5 220.5" stroke="#000000" stroke-width="2.66667" stroke-linejoin="round" stroke-miterlimit="10" fill="none" fill-rule="evenodd"/><text font-family="Arial,Arial_MSFontService,sans-serif" font-weight="700" font-size="24" transform="translate(629.167 315)">poly.edu<tspan font-size="24" x="0" y="29">DNS </tspan><tspan font-family="SimSun,SimSun_MSFontService,sans-serif" font-size="24" x="57.3333" y="29">服务器</tspan><tspan font-size="24" x="135.167" y="0">umass.edu</tspan><tspan font-size="24" x="135.167" y="29">DNS </tspan><tspan font-family="SimSun,SimSun_MSFontService,sans-serif" font-size="24" x="192.5" y="29">服务器</tspan></text><path d="M0 0 52 35" stroke="#000000" stroke-width="2.66667" stroke-linejoin="round" stroke-miterlimit="10" fill="none" fill-rule="evenodd" transform="matrix(-1 0 0 1 726.5 255.5)"/><path d="M771.5 255.5 816.5 290.5" stroke="#000000" stroke-width="2.66667" stroke-linejoin="round" stroke-miterlimit="10" fill="none" fill-rule="evenodd"/><text font-family="Arial,Arial_MSFontService,sans-serif" font-weight="700" font-size="24" transform="translate(58.1667 329)">yahoo.com<tspan font-size="24" x="0" y="29">DNS </tspan><tspan font-family="SimSun,SimSun_MSFontService,sans-serif" font-size="24" x="57.3333" y="29">服务器</tspan><tspan font-size="24" x="159.333" y="3">amazon.com</tspan><tspan font-size="24" x="159.333" y="32">DNS </tspan><tspan font-family="SimSun,SimSun_MSFontService,sans-serif" font-size="24" x="216.667" y="32">服务器</tspan></text><path d="M0 0 30 42" stroke="#000000" stroke-width="2.66667" stroke-linejoin="round" stroke-miterlimit="10" fill="none" fill-rule="evenodd" transform="matrix(-1 0 0 1 163.5 262.5)"/><path d="M230.5 262.5 268.5 304.5" stroke="#000000" stroke-width="2.66667" stroke-linejoin="round" stroke-miterlimit="10" fill="none" fill-rule="evenodd"/><text font-family="Arial,Arial_MSFontService,sans-serif" font-weight="700" font-size="24" transform="translate(418.833 321)">pbs.org<tspan font-size="24" x="0" y="29">DNS </tspan><tspan font-family="SimSun,SimSun_MSFontService,sans-serif" font-size="24" x="57.3333" y="29">服务器</tspan></text><path d="M471.5 255.5 471.5 297.5" stroke="#000000" stroke-width="2.66667" stroke-linejoin="round" stroke-miterlimit="10" fill="none" fill-rule="evenodd"/><text fill="#FF0000" font-family="SimSun,SimSun_MSFontService,sans-serif" font-weight="700" font-size="32" transform="translate(63 429)">客户机怎样决定主机名<tspan font-family="Comic Sans MS,Comic Sans MS_MSFontService,sans-serif" font-size="32" x="321.667" y="0">www.amazon.com</tspan>的<tspan font-family="Comic Sans MS,Comic Sans MS_MSFontService,sans-serif" font-size="32" x="616.5" y="0">IP</tspan>地址？</text><path d="M63 432.167 250 432.167 437 432.167 624 432.167 811 432.167 811 434.167 624 434.167 437 434.167 250 434.167 63 434.167Z" fill="#FF0000" fill-rule="evenodd"/><text fill="#3333CC" font-family="Wingdings,Wingdings_MSFontService,sans-serif" font-weight="400" font-size="27" transform="translate(63 471)"><tspan fill="#000000" font-family="SimSun,SimSun_MSFontService,sans-serif" font-weight="700" font-size="32" x="36" y="0">客户机查询根服务器得到</tspan><tspan fill="#000000" font-family="Comic Sans MS,Comic Sans MS_MSFontService,sans-serif" font-weight="700" font-size="32" x="389.833" y="0">com DNS</tspan><tspan fill="#000000" font-family="SimSun,SimSun_MSFontService,sans-serif" font-weight="700" font-size="32" x="533.167" y="0">服务器</tspan><tspan font-size="27" x="0" y="43"></tspan><tspan fill="#000000" font-family="SimSun,SimSun_MSFontService,sans-serif" font-weight="700" font-size="32" x="36" y="43">客户机查询</tspan><tspan fill="#000000" font-family="Comic Sans MS,Comic Sans MS_MSFontService,sans-serif" font-weight="700" font-size="32" x="196.833" y="43">com DNS</tspan><tspan fill="#000000" font-family="SimSun,SimSun_MSFontService,sans-serif" font-weight="700" font-size="32" x="340.167" y="43">服务器得到</tspan><tspan fill="#000000" font-family="Comic Sans MS,Comic Sans MS_MSFontService,sans-serif" font-weight="700" font-size="32" x="501" y="43">amazon.comDNS</tspan><tspan fill="#000000" font-family="SimSun,SimSun_MSFontService,sans-serif" font-weight="700" font-size="32" x="755.667" y="43">服</tspan><tspan fill="#000000" font-family="SimSun,SimSun_MSFontService,sans-serif" font-weight="700" font-size="32" x="36" y="77">务器</tspan><tspan font-size="27" x="0" y="119"></tspan><tspan fill="#000000" font-family="SimSun,SimSun_MSFontService,sans-serif" font-weight="700" font-size="32" x="36" y="119">客户机查询</tspan><tspan fill="#000000" font-family="Comic Sans MS,Comic Sans MS_MSFontService,sans-serif" font-weight="700" font-size="32" x="196.833" y="119">amazon.comDNS</tspan><tspan fill="#000000" font-family="SimSun,SimSun_MSFontService,sans-serif" font-weight="700" font-size="32" x="451.5" y="119">服务器得到</tspan><tspan fill="#000000" font-family="Comic Sans MS,Comic Sans MS_MSFontService,sans-serif" font-weight="700" font-size="32" x="36" y="154">www.amazon.com</tspan><tspan fill="#000000" font-family="SimSun,SimSun_MSFontService,sans-serif" font-weight="700" font-size="32" x="298.667" y="154">的</tspan><tspan fill="#000000" font-family="Comic Sans MS,Comic Sans MS_MSFontService,sans-serif" font-weight="700" font-size="32" x="330.833" y="154">IP</tspan><tspan fill="#000000" font-family="SimSun,SimSun_MSFontService,sans-serif" font-weight="700" font-size="32" x="365.333" y="154">地址</tspan></text><rect x="72.5001" y="226.5" width="782" height="34" stroke="#41719C" stroke-width="1.33333" stroke-miterlimit="8" fill="none"/><rect x="34.5001" y="294.5" width="899" height="82" stroke="#41719C" stroke-width="1.33333" stroke-miterlimit="8" fill="none"/><path d="M163.5 171 171 163.5 178.5 171 174.75 171 174.75 220.5 167.25 220.5 167.25 171Z" stroke="#41719C" stroke-width="1.33333" stroke-miterlimit="8" fill="#5B9BD5" fill-rule="evenodd"/><text font-family="DengXian,DengXian_MSFontService,sans-serif" font-weight="400" font-size="24" transform="translate(88.9256 147)">顶级域服务器</text><path d="M877.5 184.5 890.5 171.5 903.5 184.5 897 184.5 897 289.5 884 289.5 884 184.5Z" stroke="#41719C" stroke-width="1.33333" stroke-miterlimit="8" fill="#5B9BD5" fill-rule="evenodd"/><text font-family="DengXian,DengXian_MSFontService,sans-serif" font-weight="400" font-size="24" transform="translate(791.996 155)">权威DNS<tspan font-size="24" x="94.3334" y="0">服务器</tspan></text></g></svg>