<svg width="960" height="720" xmlns="http://www.w3.org/2000/svg" xmlns:xlink="http://www.w3.org/1999/xlink" overflow="hidden"><defs><clipPath id="clip0"><rect x="0" y="0" width="960" height="720"/></clipPath></defs><g clip-path="url(#clip0)"><rect x="0" y="0" width="960" height="720" fill="#FFFFFF"/><text font-family="DengXian Light,DengXian Light_MSFontService,sans-serif" font-weight="300" font-size="53" transform="translate(74.6667 99)">HTTP请求报文: 通用格式</text><rect x="440" y="152" width="104" height="45" fill="#00FF00"/><text font-family="Comic Sans MS,Comic Sans MS_MSFontService,sans-serif" font-weight="700" font-size="27" transform="translate(466.333 182)">URL</text><rect x="600" y="152" width="128" height="45" fill="#00FF00"/><text font-family="SimSun,SimSun_MSFontService,sans-serif" font-weight="700" font-size="27" transform="translate(637.167 183)">版本</text><rect x="544" y="152" width="56" height="45" fill="#FFFFFF"/><text font-family="Comic Sans MS,Comic Sans MS_MSFontService,sans-serif" font-weight="700" font-size="27" transform="translate(558.333 182)">sp</text><rect x="728" y="152" width="56" height="45" fill="#FFFFFF"/><text font-family="Comic Sans MS,Comic Sans MS_MSFontService,sans-serif" font-weight="700" font-size="27" transform="translate(742.75 182)">cr</text><rect x="784" y="152" width="56" height="45" fill="#FFFFFF"/><text font-family="Comic Sans MS,Comic Sans MS_MSFontService,sans-serif" font-weight="700" font-size="27" transform="translate(801.583 182)">lf</text><rect x="376" y="152" width="64" height="45" fill="#FFFFFF"/><text font-family="Comic Sans MS,Comic Sans MS_MSFontService,sans-serif" font-weight="700" font-size="27" transform="translate(394.333 182)">sp</text><rect x="248" y="152" width="128" height="45" fill="#00FF00"/><text font-family="SimSun,SimSun_MSFontService,sans-serif" font-weight="700" font-size="27" transform="translate(285.167 183)">方法</text><path d="M248.5 152.5 840.5 152.5" stroke="#000000" stroke-width="2.66667" stroke-linejoin="round" stroke-miterlimit="10" fill="none" fill-rule="evenodd"/><path d="M248.5 197.5 840.5 197.5" stroke="#000000" stroke-width="2.66667" stroke-linejoin="round" stroke-miterlimit="10" fill="none" fill-rule="evenodd"/><path d="M248.5 152.5 248.5 197.5" stroke="#000000" stroke-width="2.66667" stroke-linejoin="round" stroke-miterlimit="10" fill="none" fill-rule="evenodd"/><path d="M376.5 152.5 376.5 197.5" stroke="#000000" stroke-width="1.33333" stroke-linejoin="round" stroke-miterlimit="10" fill="none" fill-rule="evenodd"/><path d="M440.5 152.5 440.5 197.5" stroke="#000000" stroke-width="1.33333" stroke-linejoin="round" stroke-miterlimit="10" fill="none" fill-rule="evenodd"/><path d="M840.5 152.5 840.5 197.5" stroke="#000000" stroke-width="2.66667" stroke-linejoin="round" stroke-miterlimit="10" fill="none" fill-rule="evenodd"/><path d="M784.5 152.5 784.5 197.5" stroke="#000000" stroke-width="1.33333" stroke-linejoin="round" stroke-miterlimit="10" fill="none" fill-rule="evenodd"/><path d="M600.5 152.5 600.5 197.5" stroke="#000000" stroke-width="1.33333" stroke-linejoin="round" stroke-miterlimit="10" fill="none" fill-rule="evenodd"/><path d="M728.5 152.5 728.5 197.5" stroke="#000000" stroke-width="1.33333" stroke-linejoin="round" stroke-miterlimit="10" fill="none" fill-rule="evenodd"/><path d="M544.5 152.5 544.5 197.5" stroke="#000000" stroke-width="1.33333" stroke-linejoin="round" stroke-miterlimit="10" fill="none" fill-rule="evenodd"/><rect x="486" y="200" width="105" height="45" fill="#FF00FF"/><text fill="#FFFFFF" font-family="SimSun,SimSun_MSFontService,sans-serif" font-weight="700" font-size="27" transform="translate(524.917 231)">值</text><rect x="429" y="200" width="57" height="45" fill="#FFFFFF"/><text font-family="Comic Sans MS,Comic Sans MS_MSFontService,sans-serif" font-weight="700" font-size="27" transform="translate(443.75 230)">sp</text><rect x="591" y="200" width="62" height="45" fill="#FFFFFF"/><text font-family="Comic Sans MS,Comic Sans MS_MSFontService,sans-serif" font-weight="700" font-size="27" transform="translate(608.667 230)">cr</text><rect x="653" y="200" width="61" height="45" fill="#FFFFFF"/><text font-family="Comic Sans MS,Comic Sans MS_MSFontService,sans-serif" font-weight="700" font-size="27" transform="translate(673.083 230)">lf</text><rect x="248" y="200" width="181" height="45" fill="#FF00FF"/><text fill="#FFFFFF" font-family="SimSun,SimSun_MSFontService,sans-serif" font-weight="700" font-size="27" transform="translate(258.167 231)">首部字段名：</text><path d="M248.5 200.5 714.5 200.5" stroke="#000000" stroke-width="2.66667" stroke-linejoin="round" stroke-miterlimit="10" fill="none" fill-rule="evenodd"/><path d="M248.5 245.5 714.5 245.5" stroke="#000000" stroke-width="2.66667" stroke-linejoin="round" stroke-miterlimit="10" fill="none" fill-rule="evenodd"/><path d="M248.5 200.5 248.5 245.5" stroke="#000000" stroke-width="2.66667" stroke-linejoin="round" stroke-miterlimit="10" fill="none" fill-rule="evenodd"/><path d="M429.5 200.5 429.5 245.5" stroke="#000000" stroke-width="1.33333" stroke-linejoin="round" stroke-miterlimit="10" fill="none" fill-rule="evenodd"/><path d="M714.5 200.5 714.5 245.5" stroke="#000000" stroke-width="2.66667" stroke-linejoin="round" stroke-miterlimit="10" fill="none" fill-rule="evenodd"/><path d="M653.5 200.5 653.5 245.5" stroke="#000000" stroke-width="1.33333" stroke-linejoin="round" stroke-miterlimit="10" fill="none" fill-rule="evenodd"/><path d="M486.5 200.5 486.5 245.5" stroke="#000000" stroke-width="1.33333" stroke-linejoin="round" stroke-miterlimit="10" fill="none" fill-rule="evenodd"/><path d="M591.5 200.5 591.5 245.5" stroke="#000000" stroke-width="1.33333" stroke-linejoin="round" stroke-miterlimit="10" fill="none" fill-rule="evenodd"/><rect x="486" y="312" width="105" height="45" fill="#FF00FF"/><text fill="#FFFFFF" font-family="SimSun,SimSun_MSFontService,sans-serif" font-weight="700" font-size="27" transform="translate(524.917 343)">值</text><rect x="430" y="312" width="56" height="45" fill="#FFFFFF"/><text font-family="Comic Sans MS,Comic Sans MS_MSFontService,sans-serif" font-weight="700" font-size="27" transform="translate(443.833 342)">sp</text><rect x="591" y="312" width="62" height="45" fill="#FFFFFF"/><text font-family="Comic Sans MS,Comic Sans MS_MSFontService,sans-serif" font-weight="700" font-size="27" transform="translate(608.667 342)">cr</text><rect x="653" y="312" width="61" height="45" fill="#FFFFFF"/><text font-family="Comic Sans MS,Comic Sans MS_MSFontService,sans-serif" font-weight="700" font-size="27" transform="translate(673.083 342)">lf</text><rect x="248" y="312" width="182" height="45" fill="#FF00FF"/><text fill="#FFFFFF" font-family="SimSun,SimSun_MSFontService,sans-serif" font-weight="700" font-size="27" transform="translate(258.25 343)">首部字段名：</text><path d="M248.5 312.5 714.5 312.5" stroke="#000000" stroke-width="2.66667" stroke-linejoin="round" stroke-miterlimit="10" fill="none" fill-rule="evenodd"/><path d="M248.5 357.5 714.5 357.5" stroke="#000000" stroke-width="2.66667" stroke-linejoin="round" stroke-miterlimit="10" fill="none" fill-rule="evenodd"/><path d="M248.5 312.5 248.5 357.5" stroke="#000000" stroke-width="2.66667" stroke-linejoin="round" stroke-miterlimit="10" fill="none" fill-rule="evenodd"/><path d="M430.5 312.5 430.5 357.5" stroke="#000000" stroke-width="1.33333" stroke-linejoin="round" stroke-miterlimit="10" fill="none" fill-rule="evenodd"/><path d="M714.5 312.5 714.5 357.5" stroke="#000000" stroke-width="2.66667" stroke-linejoin="round" stroke-miterlimit="10" fill="none" fill-rule="evenodd"/><path d="M653.5 312.5 653.5 357.5" stroke="#000000" stroke-width="1.33333" stroke-linejoin="round" stroke-miterlimit="10" fill="none" fill-rule="evenodd"/><path d="M486.5 312.5 486.5 357.5" stroke="#000000" stroke-width="1.33333" stroke-linejoin="round" stroke-miterlimit="10" fill="none" fill-rule="evenodd"/><path d="M591.5 312.5 591.5 357.5" stroke="#000000" stroke-width="1.33333" stroke-linejoin="round" stroke-miterlimit="10" fill="none" fill-rule="evenodd"/><path d="M432 258.343 434.343 256 437.657 256 440 258.343 440 261.657 437.657 264 434.343 264 432 261.657Z" fill="#44546A" fill-rule="evenodd"/><path d="M432 274.343 434.343 272 437.657 272 440 274.343 440 277.657 437.657 280 434.343 280 432 277.657Z" fill="#44546A" fill-rule="evenodd"/><path d="M432 290.343 434.343 288 437.657 288 440 290.343 440 293.657 437.657 296 434.343 296 432 293.657Z" fill="#44546A" fill-rule="evenodd"/><rect x="248" y="360" width="56" height="45" fill="#FFFFFF"/><text font-family="Comic Sans MS,Comic Sans MS_MSFontService,sans-serif" font-weight="700" font-size="27" transform="translate(262.75 390)">cr</text><rect x="304" y="360" width="56" height="45" fill="#FFFFFF"/><text font-family="Comic Sans MS,Comic Sans MS_MSFontService,sans-serif" font-weight="700" font-size="27" transform="translate(321.583 390)">lf</text><path d="M248.5 360.5 360.5 360.5" stroke="#000000" stroke-width="2.66667" stroke-linejoin="round" stroke-miterlimit="10" fill="none" fill-rule="evenodd"/><path d="M248.5 405.5 360.5 405.5" stroke="#000000" stroke-width="2.66667" stroke-linejoin="round" stroke-miterlimit="10" fill="none" fill-rule="evenodd"/><path d="M248.5 360.5 248.5 405.5" stroke="#000000" stroke-width="2.66667" stroke-linejoin="round" stroke-miterlimit="10" fill="none" fill-rule="evenodd"/><path d="M360.5 360.5 360.5 405.5" stroke="#000000" stroke-width="2.66667" stroke-linejoin="round" stroke-miterlimit="10" fill="none" fill-rule="evenodd"/><path d="M304.5 360.5 304.5 405.5" stroke="#000000" stroke-width="1.33333" stroke-linejoin="round" stroke-miterlimit="10" fill="none" fill-rule="evenodd"/><rect x="248" y="408" width="608" height="104" fill="#FF9900"/><path d="M248.5 408.5 856.5 408.5" stroke="#000000" stroke-width="2.66667" stroke-linejoin="round" stroke-miterlimit="10" fill="none" fill-rule="evenodd"/><path d="M248.5 512.5 856.5 512.5" stroke="#000000" stroke-width="2.66667" stroke-linejoin="round" stroke-miterlimit="10" fill="none" fill-rule="evenodd"/><path d="M248.5 408.5 248.5 512.5" stroke="#000000" stroke-width="2.66667" stroke-linejoin="round" stroke-miterlimit="10" fill="none" fill-rule="evenodd"/><path d="M856.5 408.5 856.5 512.5" stroke="#000000" stroke-width="2.66667" stroke-linejoin="round" stroke-miterlimit="10" fill="none" fill-rule="evenodd"/><path d="M248.5 248.5 714.5 248.5" stroke="#000000" stroke-width="2.66667" stroke-linejoin="round" stroke-miterlimit="10" fill="none" fill-rule="evenodd"/><path d="M248.5 312.5 714.5 312.5" stroke="#000000" stroke-width="2.66667" stroke-linejoin="round" stroke-miterlimit="10" fill="none" fill-rule="evenodd"/><path d="M248.5 248.5 248.5 312.5" stroke="#000000" stroke-width="2.66667" stroke-linejoin="round" stroke-miterlimit="10" fill="none" fill-rule="evenodd"/><path d="M714.5 248.5 714.5 312.5" stroke="#000000" stroke-width="2.66667" stroke-linejoin="round" stroke-miterlimit="10" fill="none" fill-rule="evenodd"/><text font-family="SimSun,SimSun_MSFontService,sans-serif" font-weight="700" font-size="24" transform="translate(113.667 180)">请求行</text><path d="M192.5 167.833 235.167 167.833 235.167 169.167 192.5 169.167ZM235.167 168.5 232.5 164.5 240.5 168.5 232.5 172.5Z"/><path d="M248.334 200.5 244.351 200.833 240.699 201.499 237.214 202.831 234.392 204.329 231.903 206.327 230.077 208.658 228.749 211.156 228.417 213.82 228.417 267.097 228.085 269.761 226.923 272.259 225.098 274.59 222.608 276.587 219.62 278.252 216.301 279.418 212.483 280.084 208.5 280.417 212.483 280.75 216.301 281.416 219.62 282.748 222.608 284.246 225.098 286.244 226.923 288.575 228.085 291.072 228.417 293.736 228.417 347.014 228.749 349.678 230.077 352.175 231.903 354.506 234.392 356.504 237.214 358.169 240.699 359.335 244.351 360.001 248.334 360.334" stroke="#000000" stroke-width="1.33333" stroke-linecap="round" stroke-linejoin="round" stroke-miterlimit="10" fill="none" fill-rule="evenodd"/><text font-family="SimSun,SimSun_MSFontService,sans-serif" font-weight="700" font-size="24" transform="translate(113.667 285)">首部行<tspan font-size="24" x="0" y="111">空</tspan><tspan font-size="24" x="44.8333" y="111">行</tspan></text><path d="M192.5 383.833 235.167 383.833 235.167 385.167 192.5 385.167ZM235.167 384.5 232.5 380.5 240.5 384.5 232.5 388.5Z"/><text font-family="SimSun,SimSun_MSFontService,sans-serif" font-weight="700" font-size="24" transform="translate(89.6667 469)">实体主体</text><path d="M192.5 457.833 235.167 457.833 235.167 459.167 192.5 459.167ZM235.167 458.5 232.5 454.5 240.5 458.5 232.5 462.5Z"/></g></svg>