<svg width="960" height="720" xmlns="http://www.w3.org/2000/svg" xmlns:xlink="http://www.w3.org/1999/xlink" overflow="hidden"><defs><clipPath id="clip0"><rect x="0" y="0" width="960" height="720"/></clipPath></defs><g clip-path="url(#clip0)"><rect x="0" y="0" width="960" height="720" fill="#FFFFFF"/><path d="M33.5001 71.5001 921.5 71.5002" stroke="#FFCC66" stroke-width="1.33333" stroke-linejoin="round" stroke-miterlimit="10" fill="none" fill-rule="evenodd"/><text font-family="Times New Roman,Times New Roman_MSFontService,sans-serif" font-weight="700" font-size="19" transform="translate(931.6 706)">34<tspan fill="#CC0000" font-family="SimSun,SimSun_MSFontService,sans-serif" font-size="43" x="-771.653" y="-665">补码加</tspan><tspan fill="#CC0000" font-family="Arial,Arial_MSFontService,sans-serif" font-size="43" x="-643.153" y="-665">/</tspan><tspan fill="#CC0000" font-family="SimSun,SimSun_MSFontService,sans-serif" font-size="43" x="-631.32" y="-665">减运算</tspan><tspan fill="#CC0000" font-family="Arial,Arial_MSFontService,sans-serif" font-size="43" x="-502.82" y="-665">-</tspan><tspan fill="#0000FF" font-family="SimSun,SimSun_MSFontService,sans-serif" font-size="32" x="-488.653" y="-665">直接用整数加减部件实现</tspan><tspan font-family="Microsoft YaHei,Microsoft YaHei_MSFontService,sans-serif" font-size="29" x="-876.325" y="-568">7+ 6 =</tspan><tspan fill="#FF0000" font-family="Arial,Arial_MSFontService,sans-serif" font-size="24" x="-788.612" y="-524">1</tspan><tspan fill="#FF0000" font-family="Arial,Arial_MSFontService,sans-serif" font-size="24" x="-849.612" y="-524">0</tspan><tspan font-family="Arial,Arial_MSFontService,sans-serif" font-size="24" x="-788.612" y="-484">0</tspan><tspan font-family="Arial,Arial_MSFontService,sans-serif" font-size="24" x="-788.612" y="-444">0</tspan><tspan font-family="Arial,Arial_MSFontService,sans-serif" font-size="27" x="-868.612" y="-441">+</tspan></text><path d="M56.5001 266.5 350.5 266.5" stroke="#000000" stroke-width="3" stroke-linejoin="round" stroke-miterlimit="10" fill="none" fill-rule="evenodd"/><path d="M199.922 251.833 161.247 184.611 162.403 183.946 201.078 251.168ZM159.022 187.429 158.5 178.5 165.957 183.439Z"/><path d="M135.922 251.833 97.2468 184.611 98.4025 183.946 137.078 251.168ZM95.0225 187.429 94.5 178.5 101.957 183.439Z"/><text font-family="Arial,Arial_MSFontService,sans-serif" font-weight="700" font-size="24" transform="translate(205.154 224)">1<tspan font-size="24" x="62.1667" y="1">1</tspan><tspan font-size="24" x="61.6667" y="37">1</tspan><tspan font-size="24" x="127.667" y="0">1</tspan><tspan font-size="24" x="127.667" y="79">1</tspan><tspan font-size="24" x="-62" y="76">1</tspan><tspan font-size="24" x="-0.333328" y="78">1</tspan><tspan font-size="24" x="-0.166611" y="39">1</tspan><tspan font-size="24" x="62.8334" y="78">0</tspan><tspan font-size="24" x="127.5" y="36">0</tspan></text><rect x="74.5001" y="156.5" width="100" height="36" stroke="#0000FF" stroke-width="3" stroke-miterlimit="8" fill="none"/><text font-family="Arial,Arial_MSFontService,sans-serif" font-weight="700" font-size="27" transform="translate(486.988 265)">+</text><path d="M480.5 266.5 766.5 266.5" stroke="#000000" stroke-width="3" stroke-linejoin="round" stroke-miterlimit="10" fill="none" fill-rule="evenodd"/><text font-family="Arial,Arial_MSFontService,sans-serif" font-weight="700" font-size="24" transform="translate(562.321 302)">0<tspan font-size="24" x="61.6667" y="2">0</tspan><tspan font-size="24" x="121.833" y="3">1</tspan><tspan font-size="24" x="122" y="-45">0</tspan><tspan font-size="24" x="188.167" y="-41">1</tspan><tspan font-size="24" x="188.333" y="-77">1</tspan><tspan font-size="24" x="121" y="-77">0</tspan><tspan font-size="24" x="0.166626" y="-45">0</tspan></text><path d="M679.922 251.833 641.247 184.611 642.403 183.946 681.078 251.168ZM639.023 187.429 638.5 178.5 645.957 183.439Z"/><path d="M743.922 251.833 705.247 184.611 706.403 183.946 745.078 251.168ZM703.023 187.429 702.5 178.5 709.957 183.439Z"/><text fill="#FF0000" font-family="Arial,Arial_MSFontService,sans-serif" font-weight="700" font-size="24" transform="translate(684.821 190)">1<tspan font-size="24" x="-65.8333" y="0">0</tspan><tspan fill="#000000" font-size="24" x="65.1667" y="117">0</tspan><tspan fill="#000000" font-size="24" x="-60.6667" y="67">1</tspan><tspan fill="#000000" font-size="24" x="-60.5" y="34">1</tspan><tspan fill="#000000" font-size="24" x="-120.333" y="35">1</tspan></text><path d="M551.917 250.823 514.148 182.655 515.314 182.008 553.083 250.177ZM511.878 185.436 511.5 176.5 518.876 181.559Z"/><path d="M615.917 250.823 578.148 182.655 579.314 182.008 617.083 250.177ZM575.878 185.436 575.5 176.5 582.876 181.559Z"/><text fill="#FF0000" font-family="Arial,Arial_MSFontService,sans-serif" font-weight="700" font-size="24" transform="translate(557.488 188)">1<tspan font-size="24" x="-65.8333" y="0">1</tspan></text><rect x="130.5" y="233.5" width="43" height="74" stroke="#0000FF" stroke-width="3" stroke-miterlimit="8" fill="none"/><text fill="#CC0000" font-family="Arial,Arial_MSFontService,sans-serif" font-weight="700" font-size="32" transform="translate(218.033 140)">X<tspan font-size="37" x="400.233" y="5">√</tspan><tspan fill="#FF0000" font-family="Microsoft YaHei,Microsoft YaHei_MSFontService,sans-serif" font-size="27" x="214.574" y="167">OF=0</tspan><tspan fill="#FF3300" font-family="Microsoft YaHei,Microsoft YaHei_MSFontService,sans-serif" font-size="27" x="-185.821" y="164">OF=1</tspan><tspan fill="#000000" font-family="Microsoft YaHei,Microsoft YaHei_MSFontService,sans-serif" font-size="29" x="241.871" y="-4">-</tspan><tspan fill="#000000" font-family="Microsoft YaHei,Microsoft YaHei_MSFontService,sans-serif" font-size="29" x="254.704" y="-4">3 + 5 =</tspan><tspan fill="#000000" font-family="Microsoft YaHei,Microsoft YaHei_MSFontService,sans-serif" font-size="29" x="367.899" y="-2">2</tspan><tspan font-family="SimSun,SimSun_MSFontService,sans-serif" font-size="32" x="-175.216" y="-49">补码整数加</tspan><tspan font-size="32" x="-14.3825" y="-49">/</tspan><tspan font-family="SimSun,SimSun_MSFontService,sans-serif" font-size="32" x="-5.54918" y="-49">减法举例</tspan>—<tspan fill="#0000FF" font-family="SimSun,SimSun_MSFontService,sans-serif" font-size="32" x="155.117" y="-49">位数</tspan><tspan fill="#0000FF" font-size="32" x="219.451" y="-49">n=4</tspan><tspan fill="#000000" font-family="Microsoft YaHei,Microsoft YaHei_MSFontService,sans-serif" font-size="27" x="-197.644" y="428">发生</tspan><tspan fill="#000000" font-family="Microsoft YaHei,Microsoft YaHei_MSFontService,sans-serif" font-size="27" x="-144.311" y="428">溢出时会出现以下两个现象</tspan><tspan fill="#000000" font-family="Microsoft YaHei,Microsoft YaHei_MSFontService,sans-serif" font-size="27" x="175.689" y="428">:</tspan><tspan fill="#3333FF" font-family="Microsoft YaHei,Microsoft YaHei_MSFontService,sans-serif" font-size="27" x="-154.978" y="473">(</tspan><tspan fill="#3333FF" font-family="Microsoft YaHei,Microsoft YaHei_MSFontService,sans-serif" font-size="27" x="-144.644" y="473">1) </tspan><tspan fill="#3333FF" font-family="Microsoft YaHei,Microsoft YaHei_MSFontService,sans-serif" font-size="27" x="-109.811" y="473">最高位和次高位的进位</tspan><tspan fill="#3333FF" font-family="Microsoft YaHei,Microsoft YaHei_MSFontService,sans-serif" font-size="27" x="156.856" y="473">不同</tspan><tspan fill="#000000" font-family="Microsoft YaHei,Microsoft YaHei_MSFontService,sans-serif" font-size="27" x="-195.694" y="517">则对应的溢出判断条件分别为：</tspan><tspan fill="#CC3300" font-family="Microsoft YaHei,Microsoft YaHei_MSFontService,sans-serif" font-size="32" x="-142.511" y="563">OF=C</tspan><tspan fill="#CC3300" font-family="Microsoft YaHei,Microsoft YaHei_MSFontService,sans-serif" font-size="21" x="-52.6773" y="570">n</tspan><tspan fill="#CC3300" font-family="Symbol,Symbol_MSFontService,sans-serif" font-size="32" x="-38.844" y="563"></tspan><tspan fill="#CC3300" font-family="Microsoft YaHei,Microsoft YaHei_MSFontService,sans-serif" font-size="32" x="-14.1773" y="563">C</tspan><tspan fill="#CC3300" font-family="Microsoft YaHei,Microsoft YaHei_MSFontService,sans-serif" font-size="21" x="7.32268" y="570">n</tspan><tspan fill="#CC3300" font-family="Microsoft YaHei,Microsoft YaHei_MSFontService,sans-serif" font-size="21" x="21.156" y="570">-</tspan><tspan fill="#CC3300" font-family="Microsoft YaHei,Microsoft YaHei_MSFontService,sans-serif" font-size="21" x="30.4893" y="570">1</tspan><tspan fill="#CC3300" font-family="Microsoft YaHei,Microsoft YaHei_MSFontService,sans-serif" font-size="32" x="172.434" y="565">OF=X</tspan><tspan fill="#CC3300" font-family="Microsoft YaHei,Microsoft YaHei_MSFontService,sans-serif" font-size="21" x="263.101" y="572">n</tspan><tspan fill="#CC3300" font-family="Microsoft YaHei,Microsoft YaHei_MSFontService,sans-serif" font-size="21" x="276.934" y="572">-</tspan><tspan fill="#CC3300" font-family="Microsoft YaHei,Microsoft YaHei_MSFontService,sans-serif" font-size="21" x="286.267" y="572">1</tspan><tspan fill="#CC3300" font-family="Microsoft YaHei,Microsoft YaHei_MSFontService,sans-serif" font-size="32" x="299.434" y="565">Y</tspan><tspan fill="#CC3300" font-family="Microsoft YaHei,Microsoft YaHei_MSFontService,sans-serif" font-size="21" x="318.014" y="572">n</tspan><tspan fill="#CC3300" font-family="Microsoft YaHei,Microsoft YaHei_MSFontService,sans-serif" font-size="21" x="331.847" y="572">-</tspan><tspan fill="#CC3300" font-family="Microsoft YaHei,Microsoft YaHei_MSFontService,sans-serif" font-size="21" x="341.181" y="572">1</tspan><tspan fill="#CC3300" font-family="Microsoft YaHei,Microsoft YaHei_MSFontService,sans-serif" font-size="32" x="354.347" y="565">F</tspan><tspan fill="#CC3300" font-family="Microsoft YaHei,Microsoft YaHei_MSFontService,sans-serif" font-size="21" x="372.181" y="572">n</tspan><tspan fill="#CC3300" font-family="Microsoft YaHei,Microsoft YaHei_MSFontService,sans-serif" font-size="21" x="386.014" y="572">-</tspan><tspan fill="#CC3300" font-family="Microsoft YaHei,Microsoft YaHei_MSFontService,sans-serif" font-size="21" x="395.347" y="572">1</tspan><tspan fill="#CC3300" font-family="Microsoft YaHei,Microsoft YaHei_MSFontService,sans-serif" font-size="32" x="408.514" y="565">+</tspan><tspan fill="#CC3300" font-family="Microsoft YaHei,Microsoft YaHei_MSFontService,sans-serif" font-size="32" x="432.847" y="565">X</tspan><tspan fill="#CC3300" font-family="Microsoft YaHei,Microsoft YaHei_MSFontService,sans-serif" font-size="21" x="455.181" y="572">n</tspan><tspan fill="#CC3300" font-family="Microsoft YaHei,Microsoft YaHei_MSFontService,sans-serif" font-size="21" x="469.014" y="572">-</tspan><tspan fill="#CC3300" font-family="Microsoft YaHei,Microsoft YaHei_MSFontService,sans-serif" font-size="21" x="478.347" y="572">1</tspan><tspan fill="#CC3300" font-family="Microsoft YaHei,Microsoft YaHei_MSFontService,sans-serif" font-size="32" x="491.514" y="565">Y</tspan><tspan fill="#CC3300" font-family="Microsoft YaHei,Microsoft YaHei_MSFontService,sans-serif" font-size="21" x="510.094" y="572">n</tspan><tspan fill="#CC3300" font-family="Microsoft YaHei,Microsoft YaHei_MSFontService,sans-serif" font-size="21" x="523.927" y="572">-</tspan><tspan fill="#CC3300" font-family="Microsoft YaHei,Microsoft YaHei_MSFontService,sans-serif" font-size="21" x="533.261" y="572">1</tspan><tspan fill="#CC3300" font-family="Microsoft YaHei,Microsoft YaHei_MSFontService,sans-serif" font-size="32" x="546.427" y="565">F</tspan><tspan fill="#CC3300" font-family="Microsoft YaHei,Microsoft YaHei_MSFontService,sans-serif" font-size="21" x="564.261" y="572">n</tspan><tspan fill="#CC3300" font-family="Microsoft YaHei,Microsoft YaHei_MSFontService,sans-serif" font-size="21" x="578.094" y="572">-</tspan><tspan fill="#CC3300" font-family="Microsoft YaHei,Microsoft YaHei_MSFontService,sans-serif" font-size="21" x="587.427" y="572">1</tspan></text><path d="M569 675 593.533 675" stroke="#C00000" stroke-width="4" stroke-linejoin="round" stroke-miterlimit="10" fill="none" fill-rule="evenodd"/><path d="M650 674 674.533 674" stroke="#C00000" stroke-width="4" stroke-linejoin="round" stroke-miterlimit="10" fill="none" fill-rule="evenodd"/><path d="M706 674 730.533 674" stroke="#C00000" stroke-width="4" stroke-linejoin="round" stroke-miterlimit="10" fill="none" fill-rule="evenodd"/><text font-family="SimHei,SimHei_MSFontService,sans-serif" font-weight="700" font-size="32" transform="translate(314.218 705)">或<tspan fill="#3333FF" font-family="Microsoft YaHei,Microsoft YaHei_MSFontService,sans-serif" font-size="27" x="138.919" y="-92">(</tspan><tspan fill="#3333FF" font-family="Microsoft YaHei,Microsoft YaHei_MSFontService,sans-serif" font-size="27" x="149.252" y="-92">2) </tspan><tspan fill="#3333FF" font-family="Microsoft YaHei,Microsoft YaHei_MSFontService,sans-serif" font-size="27" x="184.085" y="-92">和的符号位和加数的符号位不同</tspan><tspan font-family="Microsoft YaHei,Microsoft YaHei_MSFontService,sans-serif" font-size="29" x="-258.942" y="-347">-</tspan><tspan font-family="Microsoft YaHei,Microsoft YaHei_MSFontService,sans-serif" font-size="29" x="-246.109" y="-347">7</tspan><tspan font-family="Microsoft YaHei,Microsoft YaHei_MSFontService,sans-serif" font-size="29" x="-227.942" y="-347">-</tspan><tspan font-family="Microsoft YaHei,Microsoft YaHei_MSFontService,sans-serif" font-size="29" x="-206.442" y="-347">6 =</tspan><tspan font-family="Microsoft YaHei,Microsoft YaHei_MSFontService,sans-serif" font-size="29" x="-157.276" y="-347">-</tspan><tspan font-family="Microsoft YaHei,Microsoft YaHei_MSFontService,sans-serif" font-size="29" x="-144.442" y="-347">7+(</tspan><tspan font-family="Microsoft YaHei,Microsoft YaHei_MSFontService,sans-serif" font-size="29" x="-92.4424" y="-347">-</tspan><tspan font-family="Microsoft YaHei,Microsoft YaHei_MSFontService,sans-serif" font-size="29" x="-79.609" y="-347">6)= </tspan><tspan fill="#FF0000" font-family="Arial,Arial_MSFontService,sans-serif" font-size="24" x="-171.23" y="-302">0</tspan><tspan fill="#FF0000" font-family="Arial,Arial_MSFontService,sans-serif" font-size="24" x="-232.23" y="-303">1</tspan><tspan font-family="Arial,Arial_MSFontService,sans-serif" font-size="24" x="-171.23" y="-262">1</tspan><tspan font-family="Arial,Arial_MSFontService,sans-serif" font-size="24" x="-171.23" y="-222">1</tspan><tspan font-family="Arial,Arial_MSFontService,sans-serif" font-size="27" x="-251.23" y="-219">+</tspan></text><path d="M56.5001 487.5 350.5 487.5" stroke="#000000" stroke-width="3" stroke-linejoin="round" stroke-miterlimit="10" fill="none" fill-rule="evenodd"/><path d="M199.92 472.829 161.211 404.627 162.371 403.969 201.08 472.171ZM158.97 407.432 158.5 398.5 165.928 403.483Z"/><path d="M135.92 472.829 97.211 404.627 98.3705 403.969 137.08 472.171ZM94.9701 407.432 94.5 398.5 101.928 403.483Z"/><text font-family="Arial,Arial_MSFontService,sans-serif" font-weight="700" font-size="24" transform="translate(205.154 444)">0<tspan font-size="24" x="62.1667" y="1">0</tspan><tspan font-size="24" x="61.6667" y="38">1</tspan><tspan font-size="24" x="127.667" y="0">1</tspan><tspan font-size="24" x="127.667" y="80">1</tspan><tspan font-size="24" x="-62" y="77">0</tspan><tspan font-size="24" x="-0.333328" y="78">0</tspan><tspan font-size="24" x="-0.166611" y="40">0</tspan><tspan font-size="24" x="62.8334" y="79">1</tspan><tspan font-size="24" x="127.5" y="37">0</tspan></text><rect x="74.5001" y="375.5" width="100" height="35" stroke="#0000FF" stroke-width="3" stroke-miterlimit="8" fill="none"/><text font-family="Arial,Arial_MSFontService,sans-serif" font-weight="700" font-size="27" transform="translate(486.988 486)">+</text><path d="M480.5 487.5 766.5 487.5" stroke="#000000" stroke-width="3" stroke-linejoin="round" stroke-miterlimit="10" fill="none" fill-rule="evenodd"/><text font-family="Arial,Arial_MSFontService,sans-serif" font-weight="700" font-size="24" transform="translate(562.321 522)">1<tspan font-size="24" x="61.6667" y="2">0</tspan><tspan font-size="24" x="121.833" y="4">0</tspan><tspan font-size="24" x="122" y="-44">1</tspan><tspan font-size="24" x="188.167" y="-41">1</tspan><tspan font-size="24" x="188.333" y="-77">1</tspan><tspan font-size="24" x="121" y="-77">0</tspan><tspan font-size="24" x="0.166626" y="-44">1</tspan></text><path d="M679.92 472.829 641.211 404.627 642.371 403.969 681.08 472.171ZM638.97 407.432 638.5 398.5 645.928 403.483Z"/><path d="M743.92 472.829 705.211 404.627 706.371 403.969 745.08 472.171ZM702.97 407.432 702.5 398.5 709.928 403.483Z"/><text fill="#FF0000" font-family="Arial,Arial_MSFontService,sans-serif" font-weight="700" font-size="24" transform="translate(684.821 410)">1<tspan font-size="24" x="-65.8333" y="0">1</tspan><tspan fill="#000000" font-size="24" x="65.1667" y="117">0</tspan><tspan fill="#000000" font-size="24" x="-60.6667" y="68">0</tspan><tspan fill="#000000" font-size="24" x="-60.5" y="35">1</tspan><tspan fill="#000000" font-size="24" x="-120.333" y="35">1</tspan></text><path d="M551.919 470.827 514.183 403.639 515.346 402.986 553.081 470.174ZM511.93 406.434 511.5 397.5 518.905 402.516Z"/><path d="M615.919 470.827 578.183 403.639 579.346 402.986 617.081 470.174ZM575.93 406.434 575.5 397.5 582.905 402.516Z"/><text fill="#FF0000" font-family="Arial,Arial_MSFontService,sans-serif" font-weight="700" font-size="24" transform="translate(557.488 409)">1<tspan font-size="24" x="-65.8333" y="0">1</tspan></text><rect x="124.5" y="456.5" width="49" height="71" stroke="#0000FF" stroke-width="3" stroke-miterlimit="8" fill="none"/><text fill="#CC0000" font-family="Arial,Arial_MSFontService,sans-serif" font-weight="700" font-size="32" transform="translate(307.817 363)">X<tspan font-size="37" x="512.771" y="1">√</tspan><tspan fill="#FF0000" font-family="Microsoft YaHei,Microsoft YaHei_MSFontService,sans-serif" font-size="27" x="124.79" y="165">OF=0</tspan><tspan fill="#FF3300" font-family="Microsoft YaHei,Microsoft YaHei_MSFontService,sans-serif" font-size="27" x="-275.604" y="161">OF=1</tspan><tspan fill="#000000" font-family="Microsoft YaHei,Microsoft YaHei_MSFontService,sans-serif" font-size="29" x="152.087" y="-6">-</tspan><tspan fill="#000000" font-family="Microsoft YaHei,Microsoft YaHei_MSFontService,sans-serif" font-size="29" x="164.921" y="-6">3 </tspan><tspan fill="#000000" font-family="Microsoft YaHei,Microsoft YaHei_MSFontService,sans-serif" font-size="29" x="191.754" y="-6">-</tspan><tspan fill="#000000" font-family="Microsoft YaHei,Microsoft YaHei_MSFontService,sans-serif" font-size="29" x="213.254" y="-6">5 = </tspan><tspan fill="#000000" font-family="Microsoft YaHei,Microsoft YaHei_MSFontService,sans-serif" font-size="29" x="271.087" y="-6">-</tspan><tspan fill="#000000" font-family="Microsoft YaHei,Microsoft YaHei_MSFontService,sans-serif" font-size="29" x="292.587" y="-6">3 + (</tspan><tspan fill="#000000" font-family="Microsoft YaHei,Microsoft YaHei_MSFontService,sans-serif" font-size="29" x="379.254" y="-6">-</tspan><tspan fill="#000000" font-family="Microsoft YaHei,Microsoft YaHei_MSFontService,sans-serif" font-size="29" x="400.754" y="-6">5) =</tspan><tspan fill="#000000" font-family="Microsoft YaHei,Microsoft YaHei_MSFontService,sans-serif" font-size="29" x="-25.5417" y="-2">3</tspan><tspan fill="#000000" font-family="Microsoft YaHei,Microsoft YaHei_MSFontService,sans-serif" font-size="29" x="468.896" y="-6">-</tspan><tspan fill="#000000" font-family="Microsoft YaHei,Microsoft YaHei_MSFontService,sans-serif" font-size="29" x="481.729" y="-6">8</tspan><tspan fill="#000000" font-family="Microsoft YaHei,Microsoft YaHei_MSFontService,sans-serif" font-size="29" x="-146.791" y="-226">-</tspan><tspan fill="#000000" font-family="Microsoft YaHei,Microsoft YaHei_MSFontService,sans-serif" font-size="29" x="-133.958" y="-226">3</tspan></text></g></svg>