<svg width="960" height="720" xmlns="http://www.w3.org/2000/svg" xmlns:xlink="http://www.w3.org/1999/xlink" overflow="hidden"><defs><clipPath id="clip0"><rect x="0" y="0" width="960" height="720"/></clipPath></defs><g clip-path="url(#clip0)"><rect x="0" y="0" width="960" height="720" fill="#FFFFFF"/><path d="M33.5001 71.5001 921.5 71.5002" stroke="#FFCC66" stroke-width="1.33333" stroke-linejoin="round" stroke-miterlimit="10" fill="none" fill-rule="evenodd"/><text fill="#CC0000" font-family="SimSun,SimSun_MSFontService,sans-serif" font-weight="700" font-size="37" transform="translate(117.421 35)">回顾：<tspan font-size="37" x="122.833" y="0">（</tspan><tspan font-family="Arial,Arial_MSFontService,sans-serif" font-size="37" x="160.333" y="0">1</tspan><tspan font-size="37" x="181.167" y="0">）全先行进位加法器</tspan></text><rect x="175.5" y="164.5" width="550" height="51" stroke="#000000" stroke-width="3" stroke-miterlimit="8" fill="none"/><text fill="#0033CC" font-family="SimHei,SimHei_MSFontService,sans-serif" font-weight="700" font-size="32" transform="translate(313.25 202)">进位生成<tspan font-size="32" x="128.667" y="0">/</tspan><tspan font-size="32" x="144.833" y="0">传递部件</tspan></text><path d="M226 128.5 226 157.833 225 157.833 225 128.5ZM229.5 156.5 225.5 164.5 221.5 156.5Z"/><path d="M0 0 80 0.000104987" stroke="#000000" stroke-width="4" stroke-linejoin="round" stroke-miterlimit="10" stroke-dasharray="4 4" fill="none" fill-rule="evenodd" transform="matrix(1 0 0 -1 249 139)"/><path d="M358 128.5 358 157.833 357 157.833 357 128.5ZM361.5 156.5 357.5 164.5 353.5 156.5Z"/><text font-family="Times New Roman,Times New Roman_MSFontService,sans-serif" font-weight="700" font-size="32" transform="translate(206.417 120)">A<tspan font-size="21" x="23.1667" y="0">7</tspan><tspan font-size="32" x="134.667" y="-2">A</tspan><tspan font-size="21" x="157.833" y="-2">0</tspan></text><path d="M521 128.5 521 157.833 520 157.833 520 128.5ZM524.5 156.5 520.5 164.5 516.5 156.5Z"/><path d="M0 0 80 0.000104987" stroke="#000000" stroke-width="4" stroke-linejoin="round" stroke-miterlimit="10" stroke-dasharray="4 4" fill="none" fill-rule="evenodd" transform="matrix(1 0 0 -1 545 140)"/><path d="M653 128.5 653 157.833 652 157.833 652 128.5ZM656.5 156.5 652.5 164.5 648.5 156.5Z"/><text font-family="Times New Roman,Times New Roman_MSFontService,sans-serif" font-weight="700" font-size="32" transform="translate(502 120)">B<tspan font-size="21" x="21.3333" y="0">7</tspan><tspan font-size="32" x="134.667" y="-2">B</tspan><tspan font-size="21" x="156" y="-2">0</tspan></text><path d="M0.5-3.59544e-07 0.5001 139.333-0.4999 139.333-0.5 3.59544e-07ZM4.0001 138 0.000104987 146-3.9999 138Z" transform="matrix(-1 0 0 1 201.5 213.5)"/><path d="M0 0 80 0.000104987" stroke="#000000" stroke-width="4" stroke-linejoin="round" stroke-miterlimit="10" stroke-dasharray="4 4" fill="none" fill-rule="evenodd" transform="matrix(1 0 0 -1 227 280)"/><path d="M326 213.5 326 352.833 325 352.833 325 213.5ZM329.5 351.5 325.5 359.5 321.5 351.5Z"/><text font-family="Times New Roman,Times New Roman_MSFontService,sans-serif" font-weight="700" font-size="32" transform="translate(210.917 256)">P<tspan font-size="21" x="19.5" y="0">7</tspan><tspan font-size="32" x="124" y="-2">P</tspan><tspan font-size="21" x="143.5" y="-2">1</tspan></text><path d="M0.5-3.57098e-07 0.5001 140.333-0.4999 140.333-0.5 3.57098e-07ZM4.0001 139 0.000104987 147-3.9999 139Z" transform="matrix(-1 0 0 1 375.5 213.5)"/><text font-family="Times New Roman,Times New Roman_MSFontService,sans-serif" font-weight="700" font-size="32" transform="translate(384.25 254)">P<tspan font-size="21" x="19.5" y="0">0</tspan></text><path d="M0.5-3.62024e-07 0.5001 138.333-0.4999 138.333-0.5 3.62024e-07ZM4.0001 137 0.000104987 145-3.9999 137Z" transform="matrix(-1 0 0 1 500.5 215.5)"/><path d="M0 0 80 0.000104987" stroke="#000000" stroke-width="4" stroke-linejoin="round" stroke-miterlimit="10" stroke-dasharray="4 4" fill="none" fill-rule="evenodd" transform="matrix(1 0 0 -1 528 282)"/><path d="M633 215.5 633 354.833 632 354.833 632 215.5ZM636.5 353.5 632.5 361.5 628.5 353.5Z"/><text font-family="Times New Roman,Times New Roman_MSFontService,sans-serif" font-weight="700" font-size="32" transform="translate(514.917 257)">G<tspan font-size="21" x="24.8334" y="0">7</tspan><tspan font-size="32" x="124" y="-1">G</tspan><tspan font-size="21" x="148.833" y="-1">1</tspan></text><path d="M682 215.5 682 354.833 681 354.833 681 215.5ZM685.5 353.5 681.5 361.5 677.5 353.5Z"/><text font-family="Times New Roman,Times New Roman_MSFontService,sans-serif" font-weight="700" font-size="32" transform="translate(688.25 256)">G<tspan font-size="21" x="24.8333" y="0">0</tspan></text><rect x="173.5" y="360.5" width="551" height="51" stroke="#000000" stroke-width="3" stroke-miterlimit="8" fill="none"/><text fill="#0033CC" font-family="Arial,Arial_MSFontService,sans-serif" font-weight="700" font-size="32" transform="translate(354.167 396)">8<tspan font-family="SimHei,SimHei_MSFontService,sans-serif" font-size="32" x="17.8333" y="0">位</tspan><tspan font-size="32" x="58.8333" y="0">CLA</tspan><tspan font-family="SimHei,SimHei_MSFontService,sans-serif" font-size="32" x="124.667" y="0">部件</tspan></text><path d="M5.76851e-07-0.5 84.3333-0.499903 84.3333 0.500097-5.76851e-07 0.5ZM83-3.9999 91 0.000104987 83 4.0001Z" transform="matrix(-1 0 0 1 815.5 383.5)"/><text fill="#0000FF" font-family="Times New Roman,Times New Roman_MSFontService,sans-serif" font-weight="700" font-size="32" transform="translate(783.75 413)">C<tspan font-size="21" x="23.1666" y="0">0</tspan></text><rect x="180.5" y="496.5" width="551" height="51" stroke="#000000" stroke-width="3" stroke-miterlimit="8" fill="none"/><text fill="#0033CC" font-family="SimHei,SimHei_MSFontService,sans-serif" font-weight="700" font-size="32" transform="translate(391 534)">求和部件</text><path d="M274 409.5 274 490.833 273 490.833 273 409.5ZM277.5 489.5 273.5 497.5 269.5 489.5Z"/><text font-family="Times New Roman,Times New Roman_MSFontService,sans-serif" font-weight="700" font-size="32" transform="translate(232.25 489)">P<tspan font-size="21" x="19.5" y="0">7</tspan><tspan font-size="32" x="332" y="0">P</tspan><tspan font-size="21" x="351.5" y="0">1</tspan><tspan font-size="32" x="421.333" y="-1">P</tspan><tspan font-size="21" x="440.833" y="-1">0</tspan><tspan font-size="32" x="464.833" y="0">C</tspan><tspan font-size="21" x="488" y="0">0</tspan><tspan font-size="32" x="375.5" y="0">C</tspan><tspan font-size="21" x="398.667" y="0">1</tspan></text><path d="M604 411.5 604 492.833 603 492.833 603 411.5ZM607.5 491.5 603.5 499.5 599.5 491.5Z"/><path d="M0 0 0.000104987 58" stroke="#000000" stroke-linejoin="round" stroke-miterlimit="10" fill="none" fill-rule="evenodd" transform="matrix(-1 0 0 1 763.5 383.5)"/><path d="M689.5 440.5 764.5 440.5" stroke="#000000" stroke-linejoin="round" stroke-miterlimit="10" fill="none" fill-rule="evenodd"/><path d="M690 441.5 690 489.833 689 489.833 689 441.5ZM693.5 488.5 689.5 496.5 685.5 488.5Z"/><path d="M0 0 222 0.000104987" stroke="#000000" stroke-linejoin="round" stroke-miterlimit="10" fill="none" fill-rule="evenodd" transform="matrix(-1 0 0 1 375.5 323.5)"/><path d="M155.5 323.5 155.5 443.5" stroke="#000000" stroke-linejoin="round" stroke-miterlimit="10" fill="none" fill-rule="evenodd"/><path d="M155.5 440.5 648.5 440.5" stroke="#000000" stroke-linejoin="round" stroke-miterlimit="10" fill="none" fill-rule="evenodd"/><path d="M649 440.5 649 489.833 648 489.833 648 440.5ZM652.5 488.5 648.5 496.5 644.5 488.5Z"/><path d="M371.5 322.5C371.5 320.843 372.843 319.5 374.5 319.5 376.157 319.5 377.5 320.843 377.5 322.5 377.5 324.157 376.157 325.5 374.5 325.5 372.843 325.5 371.5 324.157 371.5 322.5Z" stroke="#000000" stroke-linejoin="round" stroke-miterlimit="10" fill-rule="evenodd"/><path d="M760.5 382.5C760.5 380.843 762.067 379.5 764 379.5 765.933 379.5 767.5 380.843 767.5 382.5 767.5 384.157 765.933 385.5 764 385.5 762.067 385.5 760.5 384.157 760.5 382.5Z" stroke="#000000" stroke-linejoin="round" stroke-miterlimit="10" fill-rule="evenodd"/><path d="M325.5 305.5 128.5 305.5" stroke="#000000" stroke-linejoin="round" stroke-miterlimit="10" fill="none" fill-rule="evenodd"/><path d="M323.5 305C323.5 303.067 324.843 301.5 326.5 301.5 328.157 301.5 329.5 303.067 329.5 305 329.5 306.933 328.157 308.5 326.5 308.5 324.843 308.5 323.5 306.933 323.5 305Z" stroke="#000000" stroke-linejoin="round" stroke-miterlimit="10" fill-rule="evenodd"/><path d="M0 0 0.000104987 154" stroke="#000000" stroke-linejoin="round" stroke-miterlimit="10" fill="none" fill-rule="evenodd" transform="matrix(-1 0 0 1 129.5 305.5)"/><path d="M129.5 459.5 556.5 459.5" stroke="#000000" stroke-linejoin="round" stroke-miterlimit="10" fill="none" fill-rule="evenodd"/><path d="M556 459.5 556 489.833 555 489.833 555 459.5ZM559.5 488.5 555.5 496.5 551.5 488.5Z"/><path d="M0 0 94 0.000104987" stroke="#000000" stroke-linejoin="round" stroke-miterlimit="10" fill="none" fill-rule="evenodd" transform="matrix(-1 0 0 1 201.5 280.5)"/><path d="M108.5 280.5 108.5 475.5" stroke="#000000" stroke-linejoin="round" stroke-miterlimit="10" fill="none" fill-rule="evenodd"/><path d="M108.5 475.5 223.5 475.5" stroke="#000000" stroke-linejoin="round" stroke-miterlimit="10" fill="none" fill-rule="evenodd"/><path d="M222 475.5 222 490.833 221 490.833 221 475.5ZM225.5 489.5 221.5 497.5 217.5 489.5Z"/><path d="M199.5 281C199.5 279.067 200.843 277.5 202.5 277.5 204.157 277.5 205.5 279.067 205.5 281 205.5 282.933 204.157 284.5 202.5 284.5 200.843 284.5 199.5 282.933 199.5 281Z" stroke="#000000" stroke-linejoin="round" stroke-miterlimit="10" fill-rule="evenodd"/><text font-family="Times New Roman,Times New Roman_MSFontService,sans-serif" font-weight="700" font-size="32" transform="translate(281.083 489)">C<tspan font-size="21" x="23.1667" y="0">7</tspan></text><path d="M200.5 409.5 200.5 427.5" stroke="#000000" stroke-linejoin="round" stroke-miterlimit="10" fill="none" fill-rule="evenodd"/><path d="M4.3383e-07-0.5 114.333-0.499901 114.333 0.500099-4.3383e-07 0.5ZM113-3.9999 121 0.000104987 113 4.0001Z" transform="matrix(-1 0 0 1 200.5 425.5)"/><text fill="#0000FF" font-family="Times New Roman,Times New Roman_MSFontService,sans-serif" font-weight="700" font-size="32" transform="translate(47.75 454)">C<tspan font-size="21" x="23.1667" y="0">8</tspan></text><path d="M676 545.5 676 581.833 675 581.833 675 545.5ZM679.5 580.5 675.5 588.5 671.5 580.5Z"/><path d="M581 545.5 581 581.833 580 581.833 580 545.5ZM584.5 580.5 580.5 588.5 576.5 580.5Z"/><path d="M253 545.5 253 581.833 252 581.833 252 545.5ZM256.5 580.5 252.5 588.5 248.5 580.5Z"/><text font-family="Times New Roman,Times New Roman_MSFontService,sans-serif" font-weight="700" font-size="32" transform="translate(241.083 617)">S<tspan font-size="21" x="17.8333" y="0">7</tspan><tspan font-size="32" x="424" y="0">S</tspan><tspan font-size="21" x="441.833" y="0">0</tspan><tspan font-size="32" x="326.667" y="0">S</tspan><tspan font-size="21" x="344.5" y="0">1</tspan></text><path d="M0 0 80 0.000104987" stroke="#000000" stroke-width="3" stroke-linejoin="round" stroke-miterlimit="10" stroke-dasharray="3 3" fill="none" fill-rule="evenodd" transform="matrix(1 0 0 -1 380.5 573.5)"/><text fill="#CC3300" font-family="Times New Roman,Times New Roman_MSFontService,sans-serif" font-weight="700" font-size="32" transform="translate(770.917 209)">1ty (<tspan font-family="SimSun,SimSun_MSFontService,sans-serif" font-size="32" x="61.3334" y="0">或</tspan><tspan font-size="32" x="93.5" y="0">3ty)</tspan><tspan font-size="32" x="106.083" y="205">2ty</tspan></text><path d="M760.5 383.5 895.5 383.5" stroke="#000000" stroke-linejoin="round" stroke-miterlimit="10" stroke-dasharray="1 1" fill="none" fill-rule="evenodd"/><text fill="#CC3300" font-family="Times New Roman,Times New Roman_MSFontService,sans-serif" font-weight="700" font-size="32" transform="translate(875.333 530)">3ty<tspan fill="#0000FF" font-family="SimHei,SimHei_MSFontService,sans-serif" font-size="32" x="-777.4" y="127">和的总延迟多少？进位</tspan><tspan fill="#0000FF" font-family="Arial,Arial_MSFontService,sans-serif" font-size="32" x="-455.733" y="127">C</tspan><tspan fill="#0000FF" font-family="Arial,Arial_MSFontService,sans-serif" font-size="21" x="-432.567" y="134">8</tspan><tspan fill="#0000FF" font-family="SimHei,SimHei_MSFontService,sans-serif" font-size="32" x="-420.733" y="127">的延迟多少？</tspan><tspan fill="#009900" font-family="SimHei,SimHei_MSFontService,sans-serif" font-size="32" x="-863.733" y="168">和的总延迟</tspan><tspan fill="#009900" font-family="SimHei,SimHei_MSFontService,sans-serif" font-size="32" x="-702.9" y="168">：</tspan><tspan fill="#009900" font-family="Arial,Arial_MSFontService,sans-serif" font-size="32" x="-670.733" y="168">3+2+3=8ty</tspan><tspan fill="#009900" font-family="SimHei,SimHei_MSFontService,sans-serif" font-size="32" x="-514.9" y="168">；</tspan><tspan fill="#009900" font-family="SimHei,SimHei_MSFontService,sans-serif" font-size="32" x="-482.733" y="168">进位</tspan><tspan fill="#009900" font-family="Arial,Arial_MSFontService,sans-serif" font-size="32" x="-418.4" y="168">C</tspan><tspan fill="#009900" font-family="Arial,Arial_MSFontService,sans-serif" font-size="21" x="-395.233" y="175">8</tspan><tspan fill="#009900" font-family="SimHei,SimHei_MSFontService,sans-serif" font-size="32" x="-383.4" y="168">的延迟：</tspan><tspan fill="#009900" font-family="Arial,Arial_MSFontService,sans-serif" font-size="32" x="-254.733" y="168">1+2=3ty</tspan><tspan fill="#009900" font-family="SimHei,SimHei_MSFontService,sans-serif" font-size="32" x="-135.4" y="168">或</tspan><tspan fill="#009900" font-family="Arial,Arial_MSFontService,sans-serif" font-size="32" x="-103.233" y="168">3+2=5ty</tspan><tspan font-size="27" x="-141.233" y="-425">P</tspan><tspan font-size="18" x="-124.9" y="-419">i</tspan><tspan font-size="27" x="-119.9" y="-425">=</tspan><tspan font-size="27" x="-104.733" y="-425">A</tspan><tspan font-size="18" x="-85.3999" y="-419">i</tspan><tspan font-size="27" x="-80.3999" y="-425">+B</tspan><tspan font-size="18" x="-47.3999" y="-419">i</tspan><tspan font-size="27" x="-42.3999" y="-425">------</tspan><tspan font-size="27" x="10.6001" y="-425">1ty</tspan><tspan font-size="27" x="-141.233" y="-390">P</tspan><tspan font-size="18" x="-124.9" y="-384">i</tspan><tspan font-size="27" x="-119.9" y="-390">=</tspan><tspan font-size="27" x="-104.733" y="-390">A</tspan><tspan font-size="18" x="-85.3999" y="-384">i</tspan><tspan font-family="Cambria Math,Cambria Math_MSFontService,sans-serif" font-size="27" x="-80.3999" y="-390">⊕</tspan><tspan font-size="27" x="-54.3999" y="-390">B</tspan><tspan font-size="18" x="-36.5666" y="-384">i</tspan><tspan font-size="27" x="-24.8999" y="-390">----</tspan><tspan font-size="27" x="10.4334" y="-390">3ty</tspan><tspan fill="#000000" font-size="19" x="56.2667" y="176">19</tspan><tspan fill="#000000" font-size="24" x="-574.225" y="-449">8</tspan><tspan fill="#000000" font-family="SimSun,SimSun_MSFontService,sans-serif" font-size="24" x="-562.225" y="-449">位全先行进位加法器</tspan></text></g></svg>