<svg width="960" height="720" xmlns="http://www.w3.org/2000/svg" xmlns:xlink="http://www.w3.org/1999/xlink" overflow="hidden"><defs><filter id="fx0" x="-10%" y="-10%" width="120%" height="120%" filterUnits="userSpaceOnUse" primitiveUnits="userSpaceOnUse"><feComponentTransfer color-interpolation-filters="sRGB"><feFuncR type="discrete" tableValues="0.752941 0.752941"/><feFuncG type="discrete" tableValues="0.752941 0.752941"/><feFuncB type="discrete" tableValues="0.752941 0.752941"/><feFuncA type="linear" slope="1" intercept="0"/></feComponentTransfer><feGaussianBlur stdDeviation="0.614253 0.614253"/></filter><filter id="fx1" x="-10%" y="-10%" width="120%" height="120%" filterUnits="userSpaceOnUse" primitiveUnits="userSpaceOnUse"><feComponentTransfer color-interpolation-filters="sRGB"><feFuncR type="discrete" tableValues="0.752941 0.752941"/><feFuncG type="discrete" tableValues="0.752941 0.752941"/><feFuncB type="discrete" tableValues="0.752941 0.752941"/><feFuncA type="linear" slope="1" intercept="0"/></feComponentTransfer><feGaussianBlur stdDeviation="0.614253 0.614253"/></filter><clipPath id="clip2"><rect x="0" y="0" width="960" height="720"/></clipPath><clipPath id="clip3"><rect x="18" y="16" width="27" height="27"/></clipPath><clipPath id="clip4"><rect x="0" y="0" width="65" height="62"/></clipPath><clipPath id="clip5"><rect x="19" y="16" width="80" height="27"/></clipPath><clipPath id="clip6"><rect x="0" y="0" width="118" height="62"/></clipPath></defs><g clip-path="url(#clip2)"><rect x="0" y="0" width="960" height="720" fill="#FFFFFF"/><path d="M33.5001 71.5001 921.5 71.5002" stroke="#FFCC66" stroke-width="1.33333" stroke-linejoin="round" stroke-miterlimit="10" fill="none" fill-rule="evenodd"/><text fill="#0033CC" font-family="SimHei,SimHei_MSFontService,sans-serif" font-weight="700" font-size="27" transform="translate(75.8696 101)">多级先行进位加法器<tspan fill="#008000" font-family="Arial,Arial_MSFontService,sans-serif" font-weight="400" font-size="27" x="8" y="46">•</tspan><tspan fill="#008000" font-size="27" x="28" y="46">单级</tspan><tspan fill="#008000" font-family="Arial,Arial_MSFontService,sans-serif" font-size="27" x="81.6667" y="46">(</tspan><tspan fill="#008000" font-size="27" x="90.5" y="46">局部</tspan><tspan fill="#008000" font-family="Arial,Arial_MSFontService,sans-serif" font-size="27" x="144.167" y="46">)</tspan><tspan fill="#008000" font-size="27" x="153" y="46">先行进位加法器的进位生成方式：</tspan><tspan fill="#CC0000" font-size="27" x="44.6667" y="92">“组内并行、组间串行”</tspan><tspan fill="#008000" font-family="Arial,Arial_MSFontService,sans-serif" font-weight="400" font-size="27" x="8" y="139">•</tspan><tspan fill="#008000" font-size="27" x="28" y="139">单级先行进位加法器虽然比行波加法器延迟时间短，但高位组进位依</tspan><tspan fill="#008000" font-size="27" x="28" y="176">赖低位组进位，故仍有较长的时间延迟</tspan><tspan fill="#008000" font-family="Arial,Arial_MSFontService,sans-serif" font-weight="400" font-size="27" x="8" y="222">•</tspan><tspan fill="#008000" font-size="27" x="28" y="222">通过引入组进位生成</tspan><tspan fill="#008000" font-family="Arial,Arial_MSFontService,sans-serif" font-size="27" x="269.5" y="222">/</tspan><tspan fill="#008000" font-size="27" x="276.833" y="222">传递函数实现</tspan><tspan fill="#CC0000" font-size="27" x="437.833" y="222">“组内并行、组间并行”</tspan><tspan fill="#008000" font-size="27" x="733" y="222">进位方式</tspan><tspan fill="#0000FF" font-size="27" x="22.6667" y="268">设</tspan><tspan fill="#0000FF" font-family="Arial,Arial_MSFontService,sans-serif" font-size="27" x="49.5" y="268">n=4,</tspan><tspan fill="#0000FF" font-size="27" x="103.5" y="268">则：</tspan><tspan fill="#000000" font-family="Arial,Arial_MSFontService,sans-serif" font-size="27" x="157.167" y="268">C</tspan><tspan fill="#000000" font-family="Arial,Arial_MSFontService,sans-serif" font-size="18" x="176.5" y="268">1</tspan><tspan fill="#000000" font-family="Arial,Arial_MSFontService,sans-serif" font-size="27" x="186.333" y="268">=G</tspan><tspan fill="#000000" font-family="Arial,Arial_MSFontService,sans-serif" font-size="18" x="222.5" y="268">0</tspan><tspan fill="#000000" font-family="Arial,Arial_MSFontService,sans-serif" font-size="27" x="232.333" y="268">+P</tspan><tspan fill="#000000" font-family="Arial,Arial_MSFontService,sans-serif" font-size="18" x="265.667" y="268">0</tspan><tspan fill="#000000" font-family="Arial,Arial_MSFontService,sans-serif" font-size="27" x="275.5" y="268">C</tspan><tspan fill="#000000" font-family="Arial,Arial_MSFontService,sans-serif" font-size="18" x="294.833" y="268">0 </tspan><tspan fill="#000000" font-family="Arial,Arial_MSFontService,sans-serif" font-size="27" x="163.5" y="315">C</tspan><tspan fill="#000000" font-family="Arial,Arial_MSFontService,sans-serif" font-size="18" x="182.833" y="315">2</tspan><tspan fill="#000000" font-family="Arial,Arial_MSFontService,sans-serif" font-size="27" x="192.667" y="315">=G</tspan><tspan fill="#000000" font-family="Arial,Arial_MSFontService,sans-serif" font-size="18" x="228.833" y="315">1</tspan><tspan fill="#000000" font-family="Arial,Arial_MSFontService,sans-serif" font-size="27" x="238.667" y="315">+P</tspan><tspan fill="#000000" font-family="Arial,Arial_MSFontService,sans-serif" font-size="18" x="272" y="315">1</tspan><tspan fill="#000000" font-family="Arial,Arial_MSFontService,sans-serif" font-size="27" x="281.833" y="315">C</tspan><tspan fill="#000000" font-family="Arial,Arial_MSFontService,sans-serif" font-size="18" x="301.167" y="315">1</tspan><tspan fill="#000000" font-family="Arial,Arial_MSFontService,sans-serif" font-size="27" x="311" y="315">=G</tspan><tspan fill="#000000" font-family="Arial,Arial_MSFontService,sans-serif" font-size="18" x="347.167" y="315">1</tspan><tspan fill="#000000" font-family="Arial,Arial_MSFontService,sans-serif" font-size="27" x="357" y="315">+P</tspan><tspan fill="#000000" font-family="Arial,Arial_MSFontService,sans-serif" font-size="18" x="390.333" y="315">1</tspan><tspan fill="#000000" font-family="Arial,Arial_MSFontService,sans-serif" font-size="27" x="400.167" y="315">G</tspan><tspan fill="#000000" font-family="Arial,Arial_MSFontService,sans-serif" font-size="18" x="420.833" y="315">0</tspan><tspan fill="#000000" font-family="Arial,Arial_MSFontService,sans-serif" font-size="27" x="430.667" y="315">+P</tspan><tspan fill="#000000" font-family="Arial,Arial_MSFontService,sans-serif" font-size="18" x="464" y="315">1</tspan><tspan fill="#000000" font-family="Arial,Arial_MSFontService,sans-serif" font-size="27" x="473.833" y="315">P</tspan><tspan fill="#000000" font-family="Arial,Arial_MSFontService,sans-serif" font-size="18" x="491.667" y="315">0</tspan><tspan fill="#000000" font-family="Arial,Arial_MSFontService,sans-serif" font-size="27" x="501.5" y="315">C</tspan><tspan fill="#000000" font-family="Arial,Arial_MSFontService,sans-serif" font-size="18" x="520.833" y="315">0</tspan><tspan fill="#000000" font-family="Arial,Arial_MSFontService,sans-serif" font-size="27" x="166" y="361">C</tspan><tspan fill="#000000" font-family="Arial,Arial_MSFontService,sans-serif" font-size="18" x="185.333" y="361">3</tspan><tspan fill="#000000" font-family="Arial,Arial_MSFontService,sans-serif" font-size="27" x="195.167" y="361">=G</tspan><tspan fill="#000000" font-family="Arial,Arial_MSFontService,sans-serif" font-size="18" x="231.333" y="361">2</tspan><tspan fill="#000000" font-family="Arial,Arial_MSFontService,sans-serif" font-size="27" x="241.167" y="361">+P</tspan><tspan fill="#000000" font-family="Arial,Arial_MSFontService,sans-serif" font-size="18" x="274.5" y="361">2</tspan><tspan fill="#000000" font-family="Arial,Arial_MSFontService,sans-serif" font-size="27" x="284.333" y="361">C</tspan><tspan fill="#000000" font-family="Arial,Arial_MSFontService,sans-serif" font-size="18" x="303.667" y="361">2</tspan><tspan fill="#000000" font-family="Arial,Arial_MSFontService,sans-serif" font-size="27" x="313.5" y="361">=G</tspan><tspan fill="#000000" font-family="Arial,Arial_MSFontService,sans-serif" font-size="18" x="349.667" y="361">2</tspan><tspan fill="#000000" font-family="Arial,Arial_MSFontService,sans-serif" font-size="27" x="359.5" y="361">+P</tspan><tspan fill="#000000" font-family="Arial,Arial_MSFontService,sans-serif" font-size="18" x="392.833" y="361">2</tspan><tspan fill="#000000" font-family="Arial,Arial_MSFontService,sans-serif" font-size="27" x="402.667" y="361">G</tspan><tspan fill="#000000" font-family="Arial,Arial_MSFontService,sans-serif" font-size="18" x="423.333" y="361">1</tspan><tspan fill="#000000" font-family="Arial,Arial_MSFontService,sans-serif" font-size="27" x="433.167" y="361">+P</tspan><tspan fill="#000000" font-family="Arial,Arial_MSFontService,sans-serif" font-size="18" x="466.5" y="361">2</tspan><tspan fill="#000000" font-family="Arial,Arial_MSFontService,sans-serif" font-size="27" x="476.333" y="361">P</tspan><tspan fill="#000000" font-family="Arial,Arial_MSFontService,sans-serif" font-size="18" x="494.167" y="361">1</tspan><tspan fill="#000000" font-family="Arial,Arial_MSFontService,sans-serif" font-size="27" x="504" y="361">G</tspan><tspan fill="#000000" font-family="Arial,Arial_MSFontService,sans-serif" font-size="18" x="524.667" y="361">0</tspan><tspan fill="#000000" font-family="Arial,Arial_MSFontService,sans-serif" font-size="27" x="534.5" y="361">+P</tspan><tspan fill="#000000" font-family="Arial,Arial_MSFontService,sans-serif" font-size="18" x="567.833" y="361">2</tspan><tspan fill="#000000" font-family="Arial,Arial_MSFontService,sans-serif" font-size="27" x="577.667" y="361">P</tspan><tspan fill="#000000" font-family="Arial,Arial_MSFontService,sans-serif" font-size="18" x="595.5" y="361">1</tspan><tspan fill="#000000" font-family="Arial,Arial_MSFontService,sans-serif" font-size="27" x="605.333" y="361">P</tspan><tspan fill="#000000" font-family="Arial,Arial_MSFontService,sans-serif" font-size="18" x="623.167" y="361">0</tspan><tspan fill="#000000" font-family="Arial,Arial_MSFontService,sans-serif" font-size="27" x="633" y="361">C</tspan><tspan fill="#000000" font-family="Arial,Arial_MSFontService,sans-serif" font-size="18" x="652.333" y="361">0</tspan><tspan fill="#000000" font-family="Arial,Arial_MSFontService,sans-serif" font-size="27" x="168.667" y="408">C</tspan><tspan fill="#000000" font-family="Arial,Arial_MSFontService,sans-serif" font-size="18" x="188" y="408">4</tspan><tspan fill="#000000" font-family="Arial,Arial_MSFontService,sans-serif" font-size="27" x="197.833" y="408">=G</tspan><tspan fill="#000000" font-family="Arial,Arial_MSFontService,sans-serif" font-size="18" x="234" y="408">3</tspan><tspan fill="#000000" font-family="Arial,Arial_MSFontService,sans-serif" font-size="27" x="243.833" y="408">+P</tspan><tspan fill="#000000" font-family="Arial,Arial_MSFontService,sans-serif" font-size="18" x="277.167" y="408">3</tspan><tspan fill="#000000" font-family="Arial,Arial_MSFontService,sans-serif" font-size="27" x="287" y="408">C</tspan><tspan fill="#000000" font-family="Arial,Arial_MSFontService,sans-serif" font-size="18" x="306.333" y="408">3</tspan><tspan fill="#000000" font-family="Arial,Arial_MSFontService,sans-serif" font-size="27" x="316.167" y="408">=G</tspan><tspan fill="#000000" font-family="Arial,Arial_MSFontService,sans-serif" font-size="18" x="352.333" y="408">3</tspan><tspan fill="#000000" font-family="Arial,Arial_MSFontService,sans-serif" font-size="27" x="362.167" y="408">+P</tspan><tspan fill="#000000" font-family="Arial,Arial_MSFontService,sans-serif" font-size="18" x="395.5" y="408">3</tspan><tspan fill="#000000" font-family="Arial,Arial_MSFontService,sans-serif" font-size="27" x="405.333" y="408">G</tspan><tspan fill="#000000" font-family="Arial,Arial_MSFontService,sans-serif" font-size="18" x="426" y="408">2</tspan><tspan fill="#000000" font-family="Arial,Arial_MSFontService,sans-serif" font-size="27" x="435.833" y="408">+P</tspan><tspan fill="#000000" font-family="Arial,Arial_MSFontService,sans-serif" font-size="18" x="469.167" y="408">3</tspan><tspan fill="#000000" font-family="Arial,Arial_MSFontService,sans-serif" font-size="27" x="479" y="408">P</tspan><tspan fill="#000000" font-family="Arial,Arial_MSFontService,sans-serif" font-size="18" x="496.833" y="408">2</tspan><tspan fill="#000000" font-family="Arial,Arial_MSFontService,sans-serif" font-size="27" x="506.667" y="408">G</tspan><tspan fill="#000000" font-family="Arial,Arial_MSFontService,sans-serif" font-size="18" x="527.333" y="408">1</tspan><tspan fill="#000000" font-family="Arial,Arial_MSFontService,sans-serif" font-size="27" x="537.167" y="408">+P</tspan><tspan fill="#000000" font-family="Arial,Arial_MSFontService,sans-serif" font-size="18" x="570.5" y="408">3</tspan><tspan fill="#000000" font-family="Arial,Arial_MSFontService,sans-serif" font-size="27" x="580.333" y="408">P</tspan><tspan fill="#000000" font-family="Arial,Arial_MSFontService,sans-serif" font-size="18" x="598.167" y="408">2</tspan><tspan fill="#000000" font-family="Arial,Arial_MSFontService,sans-serif" font-size="27" x="608" y="408">P</tspan><tspan fill="#000000" font-family="Arial,Arial_MSFontService,sans-serif" font-size="18" x="625.833" y="408">1</tspan><tspan fill="#000000" font-family="Arial,Arial_MSFontService,sans-serif" font-size="27" x="635.667" y="408">G</tspan><tspan fill="#000000" font-family="Arial,Arial_MSFontService,sans-serif" font-size="18" x="656.333" y="408">0</tspan><tspan fill="#000000" font-family="Arial,Arial_MSFontService,sans-serif" font-size="27" x="666.167" y="408">+P</tspan><tspan fill="#000000" font-family="Arial,Arial_MSFontService,sans-serif" font-size="18" x="699.5" y="408">3</tspan><tspan fill="#000000" font-family="Arial,Arial_MSFontService,sans-serif" font-size="27" x="709.333" y="408">P</tspan><tspan fill="#000000" font-family="Arial,Arial_MSFontService,sans-serif" font-size="18" x="727.167" y="408">2</tspan><tspan fill="#000000" font-family="Arial,Arial_MSFontService,sans-serif" font-size="27" x="737" y="408">P</tspan><tspan fill="#000000" font-family="Arial,Arial_MSFontService,sans-serif" font-size="18" x="754.833" y="408">1</tspan><tspan fill="#000000" font-family="Arial,Arial_MSFontService,sans-serif" font-size="27" x="764.667" y="408">P</tspan><tspan fill="#000000" font-family="Arial,Arial_MSFontService,sans-serif" font-size="18" x="782.5" y="408">0</tspan><tspan fill="#000000" font-family="Arial,Arial_MSFontService,sans-serif" font-size="27" x="792.333" y="408">C</tspan><tspan fill="#000000" font-family="Arial,Arial_MSFontService,sans-serif" font-size="18" x="811.667" y="408">0</tspan><tspan fill="#000000" font-size="27" x="117.333" y="454">设</tspan><tspan fill="#000000" font-family="Arial,Arial_MSFontService,sans-serif" font-size="27" x="166.167" y="454">G</tspan><tspan fill="#000000" font-family="Arial,Arial_MSFontService,sans-serif" font-size="18" x="186.833" y="454">3</tspan><tspan fill="#000000" font-family="Arial,Arial_MSFontService,sans-serif" font-size="18" x="196.667" y="446">*</tspan><tspan fill="#000000" font-family="Arial,Arial_MSFontService,sans-serif" font-size="27" x="203.667" y="454">=G</tspan><tspan fill="#000000" font-family="Arial,Arial_MSFontService,sans-serif" font-size="18" x="239.833" y="454">3</tspan><tspan fill="#000000" font-family="Arial,Arial_MSFontService,sans-serif" font-size="27" x="249.667" y="454">+P</tspan><tspan fill="#000000" font-family="Arial,Arial_MSFontService,sans-serif" font-size="18" x="283" y="454">3</tspan><tspan fill="#000000" font-family="Arial,Arial_MSFontService,sans-serif" font-size="27" x="292.833" y="454">C</tspan><tspan fill="#000000" font-family="Arial,Arial_MSFontService,sans-serif" font-size="18" x="312.167" y="454">3</tspan><tspan fill="#000000" font-family="Arial,Arial_MSFontService,sans-serif" font-size="27" x="322" y="454">=G</tspan><tspan fill="#000000" font-family="Arial,Arial_MSFontService,sans-serif" font-size="18" x="358.167" y="454">3</tspan><tspan fill="#000000" font-family="Arial,Arial_MSFontService,sans-serif" font-size="27" x="368" y="454">+P</tspan><tspan fill="#000000" font-family="Arial,Arial_MSFontService,sans-serif" font-size="18" x="401.333" y="454">3</tspan><tspan fill="#000000" font-family="Arial,Arial_MSFontService,sans-serif" font-size="27" x="411.167" y="454">G</tspan><tspan fill="#000000" font-family="Arial,Arial_MSFontService,sans-serif" font-size="18" x="431.833" y="454">2</tspan><tspan fill="#000000" font-family="Arial,Arial_MSFontService,sans-serif" font-size="27" x="441.667" y="454">+P</tspan><tspan fill="#000000" font-family="Arial,Arial_MSFontService,sans-serif" font-size="18" x="475" y="454">3</tspan><tspan fill="#000000" font-family="Arial,Arial_MSFontService,sans-serif" font-size="27" x="484.833" y="454">P</tspan><tspan fill="#000000" font-family="Arial,Arial_MSFontService,sans-serif" font-size="18" x="502.667" y="454">2</tspan><tspan fill="#000000" font-family="Arial,Arial_MSFontService,sans-serif" font-size="27" x="512.5" y="454">G</tspan><tspan fill="#000000" font-family="Arial,Arial_MSFontService,sans-serif" font-size="18" x="533.167" y="454">1</tspan><tspan fill="#000000" font-family="Arial,Arial_MSFontService,sans-serif" font-size="27" x="543" y="454">+P</tspan><tspan fill="#000000" font-family="Arial,Arial_MSFontService,sans-serif" font-size="18" x="576.333" y="454">3</tspan><tspan fill="#000000" font-family="Arial,Arial_MSFontService,sans-serif" font-size="27" x="586.167" y="454">P</tspan><tspan fill="#000000" font-family="Arial,Arial_MSFontService,sans-serif" font-size="18" x="604" y="454">2</tspan><tspan fill="#000000" font-family="Arial,Arial_MSFontService,sans-serif" font-size="27" x="613.833" y="454">P</tspan><tspan fill="#000000" font-family="Arial,Arial_MSFontService,sans-serif" font-size="18" x="631.667" y="454">1</tspan><tspan fill="#000000" font-family="Arial,Arial_MSFontService,sans-serif" font-size="27" x="641.5" y="454">G</tspan><tspan fill="#000000" font-family="Arial,Arial_MSFontService,sans-serif" font-size="18" x="662.167" y="454">0</tspan><tspan fill="#000000" font-family="Arial,Arial_MSFontService,sans-serif" font-size="27" x="171" y="500">P</tspan><tspan fill="#000000" font-family="Arial,Arial_MSFontService,sans-serif" font-size="18" x="188.833" y="500">3</tspan><tspan fill="#000000" font-family="Arial,Arial_MSFontService,sans-serif" font-size="18" x="198.667" y="492">*</tspan><tspan fill="#000000" font-family="Arial,Arial_MSFontService,sans-serif" font-size="27" x="205.667" y="500">=P</tspan><tspan fill="#000000" font-family="Arial,Arial_MSFontService,sans-serif" font-size="18" x="239" y="500">3</tspan><tspan fill="#000000" font-family="Arial,Arial_MSFontService,sans-serif" font-size="27" x="248.833" y="500">P</tspan><tspan fill="#000000" font-family="Arial,Arial_MSFontService,sans-serif" font-size="18" x="266.667" y="500">2</tspan><tspan fill="#000000" font-family="Arial,Arial_MSFontService,sans-serif" font-size="27" x="276.5" y="500">P</tspan><tspan fill="#000000" font-family="Arial,Arial_MSFontService,sans-serif" font-size="18" x="294.333" y="500">1</tspan><tspan fill="#000000" font-family="Arial,Arial_MSFontService,sans-serif" font-size="27" x="304.167" y="500">P</tspan><tspan fill="#000000" font-family="Arial,Arial_MSFontService,sans-serif" font-size="18" x="322" y="500">0</tspan></text><g clip-path="url(#clip3)" filter="url(#fx0)" transform="translate(139 610)"><g clip-path="url(#clip4)"><path d="M14.7656-21.0938C14.6953-19.8633 14.6602-18.5977 14.6602-17.2969L14.6602-9.91406C14.6602-8.38806 14.6953-6.94665 14.7656-5.58984L11.918-5.58984 11.918-18.7734 5.48438-18.7734 5.48438-5.48438 2.53125-5.48438C2.60156-6.89062 2.63672-8.22656 2.63672-9.49219L2.63672-17.1914C2.63672-18.6515 2.60156-19.9523 2.53125-21.0938ZM24.9961-22.5703C24.9258-21.4761 24.8906-20.3511 24.8906-19.1953L24.8906-0.210938C24.8906 1.05798 24.5536 1.83115 23.8796 2.10855 23.2056 2.38596 21.9853 2.63232 20.2187 2.84766 19.966 1.86218 19.66 0.842651 19.3008-0.210938 20.751-0.210937 21.5881-0.235931 21.8123-0.285919 22.0364-0.335907 22.1484-0.767944 22.1484-1.58203L22.1484-19.1953C22.1484-20.3038 22.1133-21.4288 22.043-22.5703ZM10.3359-16.6641C10.1206-15.6335 9.99564-14.6536 9.96103-13.7241 9.92642-12.7947 9.89127-11.4587 9.85556-9.71631 9.81985-7.97388 9.55179-6.40475 9.05136-5.00894 8.55093-3.61313 7.97525-2.44528 7.32431-1.5054 6.67337-0.565521 5.34814 0.674561 3.34863 2.21484 2.58398 1.5249 1.78418 0.820679 0.949219 0.102173 2.68616-0.76355 3.98254-1.74408 4.83838-2.83942 5.69421-3.93475 6.29709-5.19873 6.647-6.63135 6.99692-8.06396 7.17187-9.58008 7.17188-11.1797 7.17187-12.787 7.13672-14.7206 7.06641-16.9805 8.06287-16.7695 9.15271-16.6641 10.3359-16.6641ZM20.0391-19.3008C19.9688-18.3988 19.9336-17.4496 19.9336-16.4531L19.9336-7.38281C19.9336-5.93042 19.9688-4.55933 20.0391-3.26953L17.0859-3.26953C17.1562-4.67578 17.1914-6.04688 17.1914-7.38281L17.1914-16.4531C17.1914-17.2804 17.1562-18.2296 17.0859-19.3008ZM10.5782-4.95703C11.6735-4.15063 12.6315-3.40851 13.4522-2.73065 14.2729-2.0528 15.0271-1.3667 15.7148-0.672363 15.1545-0.205444 14.5333 0.440552 13.851 1.26562 12.8095 0.339478 11.9479-0.430389 11.2662-1.04398 10.5845-1.65756 9.81738-2.30548 8.96484-2.98773 9.4834-3.59308 10.0212-4.24951 10.5782-4.95703Z" transform="translate(18.8393 39)"/></g></g><text font-family="SimHei,SimHei_MSFontService,sans-serif" font-weight="700" font-size="27" transform="translate(156.536 648)">则</text><g clip-path="url(#clip5)" filter="url(#fx1)" transform="translate(173 610)"><g clip-path="url(#clip6)"><path d="M25.8398 1.79297C24.7852 1.72266 23.5195 1.6875 22.043 1.6875L13.8164 1.6875C12.4102 1.6875 11.1797 1.72266 10.125 1.79297L10.125-0.210938C11.0391-0.140625 11.8125-0.105469 12.4453-0.105469L12.4453-15.9258C12.4453-17.6133 12.375-18.8086 12.2344-19.5117L23.3086-19.5117C23.2383-18.8789 23.2031-17.6836 23.2031-15.9258L23.2031-0.105469C24.1172-0.105469 24.9961-0.140625 25.8398-0.210938ZM7.27734-20.3555C6.64453-19.582 6.0293-18.6152 5.43164-17.4551 4.83398-16.2949 4.04297-14.7656 3.05859-12.8672 3.69141-12.8672 4.85156-12.9023 6.53906-12.9727 7.24219-14.3086 7.73437-15.5742 8.01562-16.7695 8.50781-16.3477 9.28125-15.9258 10.3359-15.5039 9.70312-14.5898 8.98242-13.4648 8.17383-12.1289 7.36523-10.793 6.25781-9.03516 4.85156-6.85547 7.10156-7.13672 8.89453-7.34766 10.2305-7.48828L10.2305-5.69531C9.31641-5.625 8.12109-5.48438 6.64453-5.27344 5.16797-5.0625 3.76172-4.78125 2.42578-4.42969 2.35547-5.13281 2.10938-5.87109 1.6875-6.64453 2.46094-6.92578 3.18164-7.48828 3.84961-8.33203 4.51758-9.17578 5.16797-10.2305 5.80078-11.4961 5.37891-11.4961 4.78125-11.4434 4.00781-11.3379 3.23438-11.2324 2.49609-11.0039 1.79297-10.6523 1.51172-11.4961 1.23047-12.2344 0.949219-12.8672 1.58203-13.5703 2.26758-14.7129 3.00586-16.2949 3.74414-17.877 4.35938-19.582 4.85156-21.4102 5.625-20.9883 6.43359-20.6367 7.27734-20.3555ZM21.1992-0.105469 21.1992-5.37891 14.4492-5.37891 14.4492-0.105469ZM21.1992-13.1836 21.1992-17.8242 14.4492-17.8242 14.4492-13.1836ZM21.1992-7.17188 21.1992-11.4961 14.4492-11.4961 14.4492-7.17188ZM10.0195-0.738281C8.61328-0.527344 7.20703-0.263672 5.80078 0.0527344 4.39453 0.369141 3.09375 0.773438 1.89844 1.26562 1.6875 0.632812 1.40625-0.140625 1.05469-1.05469 2.95312-1.26562 4.23633-1.44141 4.9043-1.58203 5.57227-1.72266 7.27734-2.03906 10.0195-2.53125ZM45.2292-17.2969C45.2292-18.7031 45.194-20.25 45.1237-21.9375L47.3385-21.9375C47.2682-21.0938 47.2331-19.5469 47.2331-17.2969 48.7096-17.2969 50.151-17.332 51.5573-17.4023L51.5573-15.3984C50.151-15.4687 48.7096-15.5039 47.2331-15.5039L47.2331-10.8633C48.9206-10.8633 50.5378-10.8984 52.0846-10.9688L52.0846-8.96484C50.5378-9.03516 48.9206-9.07031 47.2331-9.07031L47.2331-4.74609C47.2331-3.55078 47.2682-2.32031 47.3385-1.05469L45.1237-1.05469C45.1237-2.32031 45.1589-3.55078 45.2292-4.74609L45.2292-9.07031 41.2214-9.07031C40.9401-7.17187 40.5358-5.625 40.0085-4.42969 39.4811-3.23438 38.6901-2.03906 37.6354-0.84375 36.9323-1.40625 36.2643-1.86328 35.6315-2.21484 36.9674-3.41016 37.8464-4.51758 38.2682-5.53711 38.6901-6.55664 39.0065-7.73437 39.2174-9.07031 37.6003-9.07031 36.194-9.03516 34.9987-8.96484L34.9987-10.9688C36.2643-10.8984 37.7409-10.8633 39.4284-10.8633 39.569-12.4805 39.6393-14.0273 39.6393-15.5039 38.2331-15.5039 36.862-15.4336 35.526-15.293L35.526-17.4023C36.862-17.332 38.2682-17.2969 39.7448-17.2969 39.7448-18.9141 39.7096-20.4609 39.6393-21.9375 40.3424-21.8672 41.0807-21.7969 41.8542-21.7266 41.7839-20.8125 41.7135-19.3359 41.6432-17.2969ZM33.4167-13.1836C33.276-11.6367 33.2057-10.3359 33.2057-9.28125L33.2057-2.63672C35.2448-1.23047 37.4245-0.404297 39.7448-0.158203 42.0651 0.0878906 44.3327 0.175781 46.5475 0.105469 48.7624 0.0351562 50.7487-0.140625 52.5065-0.421875 52.1549 0.421875 51.944 1.30078 51.8737 2.21484 48.4987 2.21484 45.7389 2.17969 43.5944 2.10938 41.4499 2.03906 39.4811 1.77539 37.6882 1.31836 35.8952 0.861328 34.5417 0.369141 33.6276-0.158203 32.7135-0.685547 31.9225-0.685547 31.2546-0.158203 30.5866 0.369141 29.8659 1.05469 29.0924 1.89844 28.6706 1.26562 28.1432 0.703125 27.5104 0.210938 29.1979-1.05469 30.4284-1.93359 31.2018-2.42578L31.2018-11.3906C30.4284-11.3906 29.444-11.3203 28.2487-11.1797L28.2487-13.2891C29.6549-13.2187 30.7096-13.1836 31.4128-13.1836ZM45.2292-10.8633 45.2292-15.5039 41.6432-15.5039C41.5729-14.0273 41.4674-12.4805 41.3268-10.8633ZM31.7292-21.3047C32.8542-19.0547 33.5573-17.4727 33.8385-16.5586 33.0651-16.418 32.362-16.1367 31.7292-15.7148 31.5182-16.9805 30.8151-18.5625 29.6198-20.4609ZM62.2982-20.7773C61.806-20.2852 61.1029-18.6328 60.1888-15.8203L60.1888-2.42578C60.1888-0.175781 60.224 1.54688 60.2943 2.74219L57.974 2.74219C58.1146 1.47656 58.1849-0.210938 58.1849-2.32031L58.1849-12.4453C57.1302-10.5469 56.2865-9.14062 55.6536-8.22656 55.1615-9.14062 54.6693-9.80859 54.1771-10.2305 55.0911-11.2148 56.0931-12.832 57.1829-15.082 58.2728-17.332 59.099-19.6172 59.6615-21.9375 60.5755-21.375 61.4544-20.9883 62.2982-20.7773ZM76.0091-12.7617C75.7279-12.3398 75.3411-11.25 74.849-9.49219 74.3568-7.73437 73.6536-4.99219 72.7396-1.26562L76.3255-1.26562C77.6615-1.26562 78.5755-1.30078 79.0677-1.37109L79.0677 0.738281C78.4349 0.667969 77.5208 0.632812 76.3255 0.632812L65.5677 0.632812C63.8099 0.632812 62.6146 0.667969 61.9818 0.738281L61.9818-1.37109C62.6146-1.30078 63.7396-1.26562 65.3568-1.26562L70.5247-1.26562C71.4388-4.35938 72.3177-8.40234 73.1615-13.3945 74.2865-13.1133 75.2357-12.9023 76.0091-12.7617ZM75.4818-16.9805C76.7474-16.9805 77.6966-17.0156 78.3294-17.0859L78.3294-15.082C77.6966-15.1523 76.7122-15.1875 75.3763-15.1875L65.9896-15.1875C65.0052-15.1875 63.9857-15.1523 62.931-15.082L62.931-17.0859C64.056-17.0156 65.0755-16.9805 65.9896-16.9805ZM66.2005-12.8672C67.4661-9.28125 68.4505-6.01172 69.1536-3.05859 68.3099-2.77734 67.6068-2.53125 67.0443-2.32031 66.6927-3.9375 66.2884-5.51953 65.8314-7.06641 65.3743-8.61328 64.7943-10.3008 64.0911-12.1289 64.7943-12.2695 65.4974-12.5156 66.2005-12.8672ZM69.681-21.9375C70.5247-20.4609 71.263-19.1953 71.8958-18.1406 71.3333-18 70.595-17.6836 69.681-17.1914 69.1888-18.457 68.5208-19.6875 67.6771-20.8828 68.3802-21.1641 69.0482-21.5156 69.681-21.9375Z" transform="translate(19.006 39)"/></g></g><text font-family="SimHei,SimHei_MSFontService,sans-serif" font-weight="400" font-size="27" transform="translate(190.703 648)">组进位<tspan font-family="Arial,Arial_MSFontService,sans-serif" font-weight="700" font-size="27" x="80" y="0">C</tspan><tspan font-family="Arial,Arial_MSFontService,sans-serif" font-weight="700" font-size="18" x="99.3333" y="0">4 </tspan><tspan font-family="Arial,Arial_MSFontService,sans-serif" font-weight="700" font-size="27" x="114.167" y="0">=G</tspan><tspan font-family="Arial,Arial_MSFontService,sans-serif" font-weight="700" font-size="18" x="150.333" y="0">3</tspan><tspan font-family="Arial,Arial_MSFontService,sans-serif" font-weight="700" font-size="18" x="160.167" y="-8">*</tspan><tspan font-family="Arial,Arial_MSFontService,sans-serif" font-weight="700" font-size="27" x="167.167" y="0">+P</tspan><tspan font-family="Arial,Arial_MSFontService,sans-serif" font-weight="700" font-size="18" x="200.5" y="0">3</tspan><tspan font-family="Arial,Arial_MSFontService,sans-serif" font-weight="700" font-size="18" x="210.333" y="-8">*</tspan><tspan font-family="Arial,Arial_MSFontService,sans-serif" font-weight="700" font-size="27" x="217.333" y="0">C</tspan><tspan font-family="Arial,Arial_MSFontService,sans-serif" font-weight="700" font-size="18" x="236.667" y="0">0</tspan><tspan font-weight="700" font-size="18" x="246.5" y="0">。</tspan><tspan fill="#0033CC" font-weight="700" font-size="27" x="-158.833" y="46">把实现上述逻辑的电路称为</tspan><tspan fill="#CC0000" font-family="Arial,Arial_MSFontService,sans-serif" font-weight="700" font-size="27" x="163.167" y="46">4</tspan><tspan fill="#CC0000" font-weight="700" font-size="27" x="178" y="46">位</tspan><tspan fill="#CC0000" font-family="Arial,Arial_MSFontService,sans-serif" font-weight="700" font-size="27" x="204.833" y="46">BCLA</tspan><tspan fill="#CC0000" font-weight="700" font-size="27" x="279.167" y="46">部件。</tspan><tspan fill="#CC0000" font-family="SimSun,SimSun_MSFontService,sans-serif" font-weight="700" font-size="43" x="-61.0073" y="-591">回顾</tspan><tspan fill="#CC0000" font-family="SimSun,SimSun_MSFontService,sans-serif" font-weight="700" font-size="43" x="24.6594" y="-591">（</tspan><tspan fill="#CC0000" font-family="Arial,Arial_MSFontService,sans-serif" font-weight="700" font-size="43" x="67.4927" y="-591">3</tspan><tspan fill="#CC0000" font-family="SimSun,SimSun_MSFontService,sans-serif" font-weight="700" font-size="43" x="91.1594" y="-591">）</tspan><tspan fill="#CC0000" font-family="SimSun,SimSun_MSFontService,sans-serif" font-weight="700" font-size="43" x="133.993" y="-591">多级先行进位</tspan><tspan fill="#CC0000" font-family="SimSun,SimSun_MSFontService,sans-serif" font-weight="700" font-size="43" x="390.993" y="-591">加法器</tspan><tspan font-family="Times New Roman,Times New Roman_MSFontService,sans-serif" font-weight="700" font-size="19" x="740.897" y="58">21</tspan></text><path d="M403.5 514.5 744.667 514.5" stroke="#FF0000" stroke-width="3" stroke-linejoin="round" stroke-miterlimit="10" fill="none" fill-rule="evenodd"/><path d="M761.5 514.5 867.969 514.5" stroke="#FF0000" stroke-width="3" stroke-linejoin="round" stroke-miterlimit="10" fill="none" fill-rule="evenodd"/></g></svg>