<svg width="960" height="720" xmlns="http://www.w3.org/2000/svg" xmlns:xlink="http://www.w3.org/1999/xlink" overflow="hidden"><defs><clipPath id="clip0"><rect x="0" y="0" width="960" height="720"/></clipPath></defs><g clip-path="url(#clip0)"><rect x="0" y="0" width="960" height="720" fill="#FFFFFF"/><path d="M0 0 894 0.000104987" stroke="#B3110D" stroke-width="1.33333" stroke-linejoin="round" stroke-miterlimit="10" fill="none" fill-rule="evenodd" transform="matrix(1 0 0 -1 25.5001 93.5001)"/><text fill="#FF0000" font-family="SimHei,SimHei_MSFontService,sans-serif" font-weight="700" font-size="29" transform="translate(10.901 40)">例2 <tspan fill="#000000" font-size="29" x="74" y="0">某程序编译后目标代码包含</tspan><tspan fill="#000000" font-size="29" x="428" y="0">4</tspan><tspan fill="#000000" font-size="29" x="442.833" y="0">类指令</tspan><tspan fill="#000000" font-size="29" x="531.333" y="0">，</tspan><tspan fill="#000000" font-size="29" x="560.833" y="0">优化前各类指令占比如下</tspan><tspan fill="#000000" font-size="29" x="885.333" y="0">，</tspan><tspan fill="#000000" font-family="SimSun,SimSun_MSFontService,sans-serif" font-size="27" x="71.8755" y="93">指令</tspan><tspan fill="#000000" font-family="SimSun,SimSun_MSFontService,sans-serif" font-size="27" x="162.209" y="93">占比</tspan><tspan fill="#000000" font-family="SimSun,SimSun_MSFontService,sans-serif" font-size="27" x="245.209" y="93">时钟周期</tspan></text><path d="M82.7765 134.723 153.026 134.723 223.276 134.723 293.526 134.723 363.776 134.723 363.776 135.723 293.526 135.723 223.276 135.723 153.026 135.723 82.7765 135.723Z" fill-rule="evenodd"/><text font-family="Arial,Arial_MSFontService,sans-serif" font-weight="700" font-size="27" transform="translate(82.7765 175)">A <tspan font-size="27" x="103.333" y="0">43%</tspan><tspan font-size="27" x="192" y="0">1 </tspan><tspan font-size="27" x="0" y="41">B</tspan><tspan font-size="27" x="103.333" y="41">21%</tspan><tspan font-size="27" x="192" y="41">2 </tspan><tspan font-size="27" x="0" y="83">C</tspan><tspan font-size="27" x="103.333" y="83">12%</tspan><tspan font-size="27" x="192" y="83">2 </tspan><tspan font-size="27" x="0" y="124">D</tspan><tspan font-size="27" x="103.333" y="124">24%</tspan><tspan font-size="27" x="192" y="124">2</tspan><tspan font-family="SimSun,SimSun_MSFontService,sans-serif" font-size="27" x="551.349" y="-52">优化编译后</tspan><tspan font-family="SimSun,SimSun_MSFontService,sans-serif" font-size="27" x="685.515" y="-52">占比</tspan></text><path d="M634.125 124.771 681.125 124.771 728.125 124.771 775.125 124.771 822.125 124.771 822.125 125.771 775.125 125.771 728.125 125.771 681.125 125.771 634.125 125.771Z" fill-rule="evenodd"/><text font-family="Arial,Arial_MSFontService,sans-serif" font-weight="700" font-size="27" transform="translate(729.458 168)">27<tspan font-size="27" x="29.6666" y="0">% </tspan><tspan font-size="27" x="0" y="44">27</tspan><tspan font-size="27" x="29.6666" y="44">% </tspan><tspan font-size="27" x="0" y="89">15</tspan><tspan font-size="27" x="29.6666" y="89">% </tspan><tspan font-size="27" x="0" y="134">31</tspan><tspan font-size="27" x="29.6666" y="134">%</tspan><tspan fill="#063DE8" font-size="27" x="-702.155" y="249">CPI=</tspan><tspan fill="#00B050" font-size="27" x="-642.155" y="249">43</tspan><tspan fill="#00B050" font-size="27" x="-612.489" y="249">%</tspan><tspan fill="#00B050" font-size="27" x="-588.822" y="249">*</tspan><tspan fill="#00B050" font-size="27" x="-578.489" y="249">1</tspan><tspan fill="#00B050" font-size="27" x="-563.655" y="249">+(</tspan><tspan fill="#00B050" font-size="27" x="-539.322" y="249">21</tspan><tspan fill="#00B050" font-size="27" x="-509.655" y="249">%+</tspan><tspan fill="#00B050" font-size="27" x="-470.489" y="249">12</tspan><tspan fill="#00B050" font-size="27" x="-440.822" y="249">%+</tspan><tspan fill="#00B050" font-size="27" x="-401.655" y="249">24</tspan><tspan fill="#00B050" font-size="27" x="-371.989" y="249">%)*</tspan><tspan fill="#00B050" font-size="27" x="-329.155" y="249">2</tspan><tspan fill="#063DE8" font-size="27" x="-314.322" y="249">=</tspan><tspan fill="#063DE8" font-size="27" x="-298.822" y="249">1.57 </tspan><tspan fill="#063DE8" font-size="27" x="-702.155" y="281">MIPS=</tspan><tspan fill="#008000" font-size="27" x="-621.489" y="281">50</tspan><tspan fill="#008000" font-size="27" x="-591.822" y="281">M/</tspan><tspan fill="#008000" font-size="27" x="-562.322" y="281">1.57</tspan><tspan fill="#008000" font-size="27" x="-510.489" y="281">= </tspan><tspan fill="#063DE8" font-size="27" x="-311.655" y="281">31.8 </tspan><tspan font-family="SimHei,SimHei_MSFontService,sans-serif" font-size="27" x="-702.155" y="327">优化后减少了</tspan>A<tspan font-family="SimHei,SimHei_MSFontService,sans-serif" font-size="27" x="-521.822" y="327">类指令（其他指令数没变），所以程序执行时间一定减少了，</tspan><tspan font-family="SimHei,SimHei_MSFontService,sans-serif" font-size="27" x="-702.155" y="359">但优化后的</tspan>MIPS<tspan font-family="SimHei,SimHei_MSFontService,sans-serif" font-size="27" x="-502.822" y="359">数反而降低了。</tspan><tspan fill="#063DE8" font-size="27" x="-301.776" y="-2">21.5/ (21.5+21+12+24)=</tspan><tspan fill="#063DE8" font-size="27" x="-301.776" y="46">21 / (21.5+21+12+24)=</tspan><tspan fill="#063DE8" font-size="27" x="-301.776" y="94">12 / (21.5+21+12+24)=</tspan><tspan fill="#063DE8" font-size="27" x="-301.776" y="142">24 / (21.5+21+12+24)= </tspan><tspan fill="#063DE8" font-size="27" x="-161.238" y="250">1.73</tspan><tspan fill="#063DE8" font-size="27" x="-161.238" y="285">28.9</tspan><tspan font-family="Times New Roman,Times New Roman_MSFontService,sans-serif" font-weight="400" font-size="16" x="204.808" y="538">51</tspan><tspan font-family="SimSun,SimSun_MSFontService,sans-serif" font-size="24" x="-305.651" y="214">优化前</tspan><tspan font-family="SimSun,SimSun_MSFontService,sans-serif" font-size="24" x="-171.251" y="214">优化后</tspan><tspan fill="#B3110D" font-family="SimHei,SimHei_MSFontService,sans-serif" font-size="27" x="-702.255" y="405">这个例子说明</tspan><tspan fill="#B3110D" font-family="SimHei,SimHei_MSFontService,sans-serif" font-size="27" x="-541.255" y="405">，</tspan><tspan fill="#B3110D" font-family="SimHei,SimHei_MSFontService,sans-serif" font-size="27" x="-514.422" y="405">有些场合</tspan><tspan fill="#B3110D" font-size="27" x="-407.089" y="405">CPI</tspan><tspan fill="#B3110D" font-family="SimHei,SimHei_MSFontService,sans-serif" font-size="27" x="-362.589" y="405">和</tspan><tspan fill="#B3110D" font-size="27" x="-335.755" y="405">MIPS</tspan><tspan fill="#B3110D" font-family="SimHei,SimHei_MSFontService,sans-serif" font-size="27" x="-270.589" y="405">数并不能说明性能的好坏</tspan><tspan fill="#B3110D" font-family="SimHei,SimHei_MSFontService,sans-serif" font-size="27" x="24.578" y="405">。</tspan></text><rect x="159" y="588" width="507" height="113" stroke="#FC0128" stroke-width="4" stroke-linejoin="round" stroke-miterlimit="10" fill="none"/><text font-family="SimSun,SimSun_MSFontService,sans-serif" font-weight="700" font-size="43" transform="translate(168.248 637)">对一个计算机的性能用什<tspan font-size="43" x="0" y="49">么方法来评价比较好呢？</tspan><tspan font-family="SimHei,SimHei_MSFontService,sans-serif" font-size="29" x="-140.944" y="-556">优化后</tspan><tspan font-family="SimHei,SimHei_MSFontService,sans-serif" font-size="29" x="-52.4445" y="-556">A</tspan><tspan font-family="SimHei,SimHei_MSFontService,sans-serif" font-size="29" x="-37.6111" y="-556">类指令减少了</tspan><tspan font-family="SimHei,SimHei_MSFontService,sans-serif" font-size="29" x="139.389" y="-556">50%</tspan><tspan font-family="SimHei,SimHei_MSFontService,sans-serif" font-size="29" x="183.889" y="-556">，其他指令不变，设某运行机器主频为</tspan><tspan font-family="SimHei,SimHei_MSFontService,sans-serif" font-size="29" x="685.389" y="-556">50MHz</tspan><tspan font-family="SimHei,SimHei_MSFontService,sans-serif" font-size="29" x="759.556" y="-556">。</tspan><tspan fill="#FF0000" font-family="SimHei,SimHei_MSFontService,sans-serif" font-size="29" x="-148.411" y="-288">问优化前后的</tspan><tspan fill="#FF0000" font-family="SimHei,SimHei_MSFontService,sans-serif" font-size="29" x="28.5889" y="-288">CPI</tspan><tspan fill="#FF0000" font-family="SimHei,SimHei_MSFontService,sans-serif" font-size="29" x="73.0889" y="-288">和</tspan><tspan fill="#FF0000" font-family="SimHei,SimHei_MSFontService,sans-serif" font-size="29" x="102.589" y="-288">MIPS</tspan><tspan fill="#FF0000" font-family="SimHei,SimHei_MSFontService,sans-serif" font-size="29" x="161.922" y="-288">分别是多少</tspan><tspan fill="#FF0000" font-family="SimHei,SimHei_MSFontService,sans-serif" font-size="29" x="309.422" y="-288">？</tspan></text></g></svg>