<svg width="1280" height="720" xmlns="http://www.w3.org/2000/svg" xmlns:xlink="http://www.w3.org/1999/xlink" overflow="hidden"><defs><clipPath id="clip0"><rect x="0" y="0" width="1280" height="720"/></clipPath><linearGradient x1="930.895" y1="511.785" x2="1043.3" y2="511.785" gradientUnits="userSpaceOnUse" spreadMethod="reflect" id="fill1"><stop offset="0" stop-color="#66CCFF"/><stop offset="0.00657895" stop-color="#67CCFF"/><stop offset="0.0131579" stop-color="#69CDFF"/><stop offset="0.0197368" stop-color="#6BCDFF"/><stop offset="0.0263158" stop-color="#6DCEFF"/><stop offset="0.0328947" stop-color="#6FCFFF"/><stop offset="0.0394737" stop-color="#71CFFF"/><stop offset="0.0460526" stop-color="#72D0FF"/><stop offset="0.0526316" stop-color="#74D0FF"/><stop offset="0.0592105" stop-color="#76D1FF"/><stop offset="0.0657895" stop-color="#78D2FF"/><stop offset="0.0723684" stop-color="#7AD2FF"/><stop offset="0.0789474" stop-color="#7BD3FF"/><stop offset="0.0855263" stop-color="#7DD3FF"/><stop offset="0.0921053" stop-color="#7FD4FF"/><stop offset="0.0986842" stop-color="#81D5FF"/><stop offset="0.105263" stop-color="#82D5FF"/><stop offset="0.111842" stop-color="#84D6FF"/><stop offset="0.118421" stop-color="#86D6FF"/><stop offset="0.125" stop-color="#87D7FF"/><stop offset="0.131579" stop-color="#89D7FF"/><stop offset="0.138158" stop-color="#8BD8FF"/><stop offset="0.144737" stop-color="#8CD8FF"/><stop offset="0.151316" stop-color="#8ED9FF"/><stop offset="0.157895" stop-color="#90DAFF"/><stop offset="0.164474" stop-color="#91DAFF"/><stop offset="0.171053" stop-color="#93DBFF"/><stop offset="0.177632" stop-color="#94DBFF"/><stop offset="0.184211" stop-color="#96DCFF"/><stop offset="0.190789" stop-color="#98DCFF"/><stop offset="0.197368" stop-color="#99DDFF"/><stop offset="0.203947" stop-color="#9BDDFF"/><stop offset="0.210526" stop-color="#9CDEFF"/><stop offset="0.217105" stop-color="#9EDEFF"/><stop offset="0.223684" stop-color="#9FDFFF"/><stop offset="0.230263" stop-color="#A1DFFF"/><stop offset="0.236842" stop-color="#A2E0FF"/><stop offset="0.243421" stop-color="#A4E0FF"/><stop offset="0.25" stop-color="#A5E1FF"/><stop offset="0.256579" stop-color="#A7E1FF"/><stop offset="0.263158" stop-color="#A8E2FF"/><stop offset="0.269737" stop-color="#AAE2FF"/><stop offset="0.276316" stop-color="#ABE3FF"/><stop offset="0.282895" stop-color="#ACE3FF"/><stop offset="0.289474" stop-color="#AEE4FF"/><stop offset="0.296053" stop-color="#AFE4FF"/><stop offset="0.302632" stop-color="#B1E5FF"/><stop offset="0.309211" stop-color="#B2E5FF"/><stop offset="0.315789" stop-color="#B3E5FF"/><stop offset="0.322368" stop-color="#B5E6FF"/><stop offset="0.328947" stop-color="#B6E6FF"/><stop offset="0.335526" stop-color="#B7E7FF"/><stop offset="0.342105" stop-color="#B9E7FF"/><stop offset="0.348684" stop-color="#BAE8FF"/><stop offset="0.355263" stop-color="#BBE8FF"/><stop offset="0.361842" stop-color="#BDE9FF"/><stop offset="0.368421" stop-color="#BEE9FF"/><stop offset="0.375" stop-color="#BFE9FF"/><stop offset="0.381579" stop-color="#C0EAFF"/><stop offset="0.388158" stop-color="#C2EAFF"/><stop offset="0.394737" stop-color="#C3EBFF"/><stop offset="0.401316" stop-color="#C4EBFF"/><stop offset="0.407895" stop-color="#C5EBFF"/><stop offset="0.414474" stop-color="#C6ECFF"/><stop offset="0.421053" stop-color="#C8ECFF"/><stop offset="0.427632" stop-color="#C9EDFF"/><stop offset="0.434211" stop-color="#CAEDFF"/><stop offset="0.440789" stop-color="#CBEDFF"/><stop offset="0.447368" stop-color="#CCEEFF"/><stop offset="0.453947" stop-color="#CDEEFF"/><stop offset="0.460526" stop-color="#CEEEFF"/><stop offset="0.467105" stop-color="#CFEFFF"/><stop offset="0.473684" stop-color="#D1EFFF"/><stop offset="0.480263" stop-color="#D2F0FF"/><stop offset="0.486842" stop-color="#D3F0FF"/><stop offset="0.493421" stop-color="#D4F0FF"/><stop offset="0.5" stop-color="#D5F1FF"/><stop offset="0.506579" stop-color="#D6F1FF"/><stop offset="0.513158" stop-color="#D7F1FF"/><stop offset="0.519737" stop-color="#D8F2FF"/><stop offset="0.526316" stop-color="#D9F2FF"/><stop offset="0.532895" stop-color="#DAF2FF"/><stop offset="0.539474" stop-color="#DBF3FF"/><stop offset="0.546053" stop-color="#DCF3FF"/><stop offset="0.552632" stop-color="#DDF3FF"/><stop offset="0.559211" stop-color="#DEF4FF"/><stop offset="0.565789" stop-color="#DEF4FF"/><stop offset="0.572368" stop-color="#DFF4FF"/><stop offset="0.578947" stop-color="#E0F4FF"/><stop offset="0.585526" stop-color="#E1F5FF"/><stop offset="0.592105" stop-color="#E2F5FF"/><stop offset="0.598684" stop-color="#E3F5FF"/><stop offset="0.605263" stop-color="#E4F6FF"/><stop offset="0.611842" stop-color="#E5F6FF"/><stop offset="0.618421" stop-color="#E5F6FF"/><stop offset="0.625" stop-color="#E6F6FF"/><stop offset="0.631579" stop-color="#E7F7FF"/><stop offset="0.638158" stop-color="#E8F7FF"/><stop offset="0.644737" stop-color="#E9F7FF"/><stop offset="0.651316" stop-color="#E9F7FF"/><stop offset="0.657895" stop-color="#EAF8FF"/><stop offset="0.664474" stop-color="#EBF8FF"/><stop offset="0.671053" stop-color="#EBF8FF"/><stop offset="0.677632" stop-color="#ECF8FF"/><stop offset="0.684211" stop-color="#EDF9FF"/><stop offset="0.690789" stop-color="#EEF9FF"/><stop offset="0.697368" stop-color="#EEF9FF"/><stop offset="0.703947" stop-color="#EFF9FF"/><stop offset="0.710526" stop-color="#F0FAFF"/><stop offset="0.717105" stop-color="#F0FAFF"/><stop offset="0.723684" stop-color="#F1FAFF"/><stop offset="0.730263" stop-color="#F1FAFF"/><stop offset="0.736842" stop-color="#F2FAFF"/><stop offset="0.743421" stop-color="#F3FBFF"/><stop offset="0.75" stop-color="#F3FBFF"/><stop offset="0.756579" stop-color="#F4FBFF"/><stop offset="0.763158" stop-color="#F4FBFF"/><stop offset="0.769737" stop-color="#F5FBFF"/><stop offset="0.776316" stop-color="#F5FBFF"/><stop offset="0.782895" stop-color="#F6FCFF"/><stop offset="0.789474" stop-color="#F6FCFF"/><stop offset="0.796053" stop-color="#F7FCFF"/><stop offset="0.802632" stop-color="#F7FCFF"/><stop offset="0.809211" stop-color="#F8FCFF"/><stop offset="0.815789" stop-color="#F8FCFF"/><stop offset="0.822368" stop-color="#F9FDFF"/><stop offset="0.828947" stop-color="#F9FDFF"/><stop offset="0.835526" stop-color="#F9FDFF"/><stop offset="0.842105" stop-color="#FAFDFF"/><stop offset="0.848684" stop-color="#FAFDFF"/><stop offset="0.855263" stop-color="#FAFDFF"/><stop offset="0.861842" stop-color="#FBFDFF"/><stop offset="0.868421" stop-color="#FBFDFF"/><stop offset="0.875" stop-color="#FBFDFF"/><stop offset="0.881579" stop-color="#FCFEFF"/><stop offset="0.888158" stop-color="#FCFEFF"/><stop offset="0.894737" stop-color="#FCFEFF"/><stop offset="0.901316" stop-color="#FDFEFF"/><stop offset="0.907895" stop-color="#FDFEFF"/><stop offset="0.914474" stop-color="#FDFEFF"/><stop offset="0.921053" stop-color="#FDFEFF"/><stop offset="0.927632" stop-color="#FDFEFF"/><stop offset="0.934211" stop-color="#FEFEFF"/><stop offset="0.940789" stop-color="#FEFEFF"/><stop offset="0.947368" stop-color="#FEFEFF"/><stop offset="0.953947" stop-color="#FEFEFF"/><stop offset="0.960526" stop-color="#FEFEFF"/><stop offset="0.967105" stop-color="#FEFEFF"/><stop offset="0.973684" stop-color="#FEFEFF"/><stop offset="0.980263" stop-color="#FEFEFF"/><stop offset="0.986842" stop-color="#FEFEFF"/><stop offset="0.993421" stop-color="#FEFEFF"/><stop offset="1" stop-color="#FFFFFF"/></linearGradient></defs><g clip-path="url(#clip0)"><rect x="0" y="0" width="1280" height="720" fill="#FFFFFF"/><text font-family="SimSun,SimSun_MSFontService,sans-serif" font-weight="700" font-size="43" transform="translate(232.1 78)">传播可达信息<tspan font-family="Arial,Arial_MSFontService,sans-serif" font-weight="400" font-size="27" x="-9.33333" y="93">•</tspan><tspan font-size="27" x="14.6667" y="93">在</tspan><tspan font-size="27" x="41.5" y="93">3A</tspan><tspan font-size="27" x="68.5" y="93">和</tspan><tspan font-size="27" x="95.3333" y="93">1C</tspan><tspan font-size="27" x="122.333" y="93">的</tspan><tspan font-size="27" x="149.167" y="93">eBGP</tspan><tspan font-size="27" x="203.167" y="93">会话中，</tspan><tspan font-size="27" x="310.5" y="93">AS3</tspan><tspan font-size="27" x="351" y="93">向</tspan><tspan font-size="27" x="377.833" y="93">AS1</tspan><tspan font-size="27" x="418.333" y="93">通告一个前缀可达信息。</tspan><tspan font-family="Arial,Arial_MSFontService,sans-serif" font-weight="400" font-size="27" x="-9.33333" y="138">•</tspan><tspan font-size="27" x="14.6667" y="138">1c</tspan><tspan font-size="27" x="41.6667" y="138">通过</tspan><tspan font-size="27" x="95.3333" y="138">iBGP</tspan><tspan font-size="27" x="149.333" y="138">会话向</tspan><tspan font-size="27" x="229.833" y="138">AS1</tspan><tspan font-size="27" x="270.333" y="138">中的所有路由器发布这个新的前缀可达信息。</tspan><tspan font-family="Arial,Arial_MSFontService,sans-serif" font-weight="400" font-size="27" x="-9.33333" y="183">•</tspan><tspan font-size="27" x="14.6667" y="183">1b </tspan><tspan font-size="27" x="55.1667" y="183">又将这个可达信息通过</tspan><tspan font-size="27" x="323.5" y="183">1b</tspan><tspan font-size="27" x="350.5" y="183">和</tspan><tspan font-size="27" x="377.333" y="183">2a</tspan><tspan font-size="27" x="404.333" y="183">之间的</tspan><tspan font-size="27" x="484.833" y="183">eBGP</tspan><tspan font-size="27" x="538.833" y="183">会话通告给</tspan><tspan font-size="27" x="673" y="183">AS2</tspan><tspan font-size="27" x="713.5" y="183">。</tspan><tspan font-family="Arial,Arial_MSFontService,sans-serif" font-weight="400" font-size="27" x="-9.33333" y="229">•</tspan><tspan font-size="27" x="14.6667" y="229">当路由器得知一个新的前缀时，就在它的转发表中为该前缀创建一</tspan><tspan font-size="27" x="14.6667" y="261">个项。</tspan><tspan fill="#919293" font-family="Times New Roman,Times New Roman_MSFontService,sans-serif" font-weight="400" font-size="16" x="934.167" y="614">47</tspan></text><path d="M932.333 485.785C938 470.257 945 458.069 962.5 448.718 980 439.368 1025 420 1037.5 429.35 1050 438.7 1036.83 477.771 1037.17 504.986 1037.5 532.202 1048.83 579.621 1039.83 592.31 1030.83 605 1000.67 586.801 983.333 580.623 966 574.445 944 570.939 935.5 555.077 927 539.382 933 500.311 932.333 485.785Z" fill="url(#fill1)" fill-rule="evenodd"/><path d="M722.831 493.575C733.189 478.046 751.799 460.013 777.606 456.506 803.413 453 855.379 463.519 878.026 472.786 900.673 482.053 910.68 497.331 913.84 512.86 917 528.389 913.313 553.435 896.986 565.958 880.659 578.481 843.967 589 815.878 588.499 787.788 587.998 743.898 578.731 728.449 562.952 713 547.173 724.06 508.101 722.831 493.575Z" fill="#66CCFF" fill-rule="evenodd"/><path d="M331.928 438.397C342.359 425.927 336.629 415.426 345.444 408.206 354.259 400.987 364.983 398.69 384.816 395.08 404.649 391.47 446.225 379 464.149 387.204 482.072 395.408 495 422.317 492.503 443.647 490.005 464.978 470.906 502.06 449.604 514.53 428.302 527 384.963 522.734 364.102 518.468 343.24 514.202 329.578 503.044 324.289 489.59 319 476.135 330.312 448.898 331.928 438.397Z" fill="#66CCFF" fill-rule="evenodd"/><path d="M385.5 476.5 427.5 457.5" stroke="#000000" stroke-width="1.33333" stroke-linejoin="round" stroke-miterlimit="10" stroke-dasharray="5.33333 4" fill="none" fill-rule="evenodd"/><text font-family="Arial,Arial_MSFontService,sans-serif" font-weight="400" font-size="27" transform="translate(388.481 511)">AS3<tspan font-size="24" x="400.498" y="67">AS2</tspan></text><path d="M0 0 45 20" stroke="#000000" stroke-width="1.33333" stroke-linejoin="round" stroke-miterlimit="10" stroke-dasharray="5.33333 4" fill="none" fill-rule="evenodd" transform="matrix(1 0 0 -1 767.5 516.5)"/><path d="M433.5 447.5 407.5 429.5" stroke="#000000" stroke-width="1.33333" stroke-linejoin="round" stroke-miterlimit="10" stroke-dasharray="5.33333 4" fill="none" fill-rule="evenodd"/><path d="M0 0 16 40" stroke="#000000" stroke-width="1.33333" stroke-linejoin="round" stroke-miterlimit="10" stroke-dasharray="5.33333 4" fill="none" fill-rule="evenodd" transform="matrix(-1 0 0 1 377.5 428.5)"/><path d="M334.5 483.5C334.5 479.634 346.141 476.5 360.5 476.5 374.859 476.5 386.5 479.634 386.5 483.5 386.5 487.366 374.859 490.5 360.5 490.5 346.141 490.5 334.5 487.366 334.5 483.5Z" stroke="#000000" stroke-width="1.33333" stroke-linejoin="round" stroke-miterlimit="10" fill="#0563C1" fill-rule="evenodd"/><path d="M334.5 475.5 334.5 483.5" stroke="#000000" stroke-width="1.33333" stroke-linejoin="round" stroke-miterlimit="10" fill="none" fill-rule="evenodd"/><path d="M386.5 475.5 386.5 483.5" stroke="#000000" stroke-width="1.33333" stroke-linejoin="round" stroke-miterlimit="10" fill="none" fill-rule="evenodd"/><rect x="334" y="475" width="52" height="8" fill="#0563C1"/><path d="M333.5 473.5C333.5 469.082 345.365 465.5 360 465.5 374.636 465.5 386.5 469.082 386.5 473.5 386.5 477.918 374.636 481.5 360 481.5 345.365 481.5 333.5 477.918 333.5 473.5Z" stroke="#000000" stroke-width="1.33333" stroke-linejoin="round" stroke-miterlimit="10" fill="#0563C1" fill-rule="evenodd"/><rect x="348" y="467" width="23" height="21" fill="#0563C1"/><text font-family="Arial,Arial_MSFontService,sans-serif" font-weight="400" font-size="27" transform="translate(345.346 487)">3b</text><path d="M423.5 463.5C423.5 459.634 435.141 456.5 449.5 456.5 463.859 456.5 475.5 459.634 475.5 463.5 475.5 467.366 463.859 470.5 449.5 470.5 435.141 470.5 423.5 467.366 423.5 463.5Z" stroke="#000000" stroke-width="1.33333" stroke-linejoin="round" stroke-miterlimit="10" fill="#0563C1" fill-rule="evenodd"/><path d="M423.5 455.5 423.5 463.5" stroke="#000000" stroke-width="1.33333" stroke-linejoin="round" stroke-miterlimit="10" fill="none" fill-rule="evenodd"/><path d="M475.5 455.5 475.5 463.5" stroke="#000000" stroke-width="1.33333" stroke-linejoin="round" stroke-miterlimit="10" fill="none" fill-rule="evenodd"/><rect x="423" y="455" width="52" height="8" fill="#0563C1"/><path d="M422.5 453.5C422.5 449.082 434.365 445.5 449 445.5 463.636 445.5 475.5 449.082 475.5 453.5 475.5 457.918 463.636 461.5 449 461.5 434.365 461.5 422.5 457.918 422.5 453.5Z" stroke="#000000" stroke-width="1.33333" stroke-linejoin="round" stroke-miterlimit="10" fill="#0563C1" fill-rule="evenodd"/><rect x="437" y="447" width="24" height="19" fill="#0563C1"/><text font-family="Arial,Arial_MSFontService,sans-serif" font-weight="400" font-size="27" transform="translate(434.353 466)">3a</text><path d="M452.416 528.757C461.791 513.704 478.418 508.686 496.99 502.804 515.562 496.921 541.74 490 563.85 493.46 585.96 496.921 606.655 511.801 629.649 523.566 652.644 535.331 698.279 551.076 701.639 564.053 705 577.029 675.638 594.85 649.991 601.425 624.343 608 581.892 604.886 547.047 603.501 512.202 602.117 456.485 605.578 440.742 593.12 425 580.663 443.042 543.809 452.416 528.757Z" fill="#66CCFF" fill-rule="evenodd"/><text font-family="Arial,Arial_MSFontService,sans-serif" font-weight="400" font-size="27" transform="translate(459.486 593)">AS1</text><path d="M0 0 16 17" stroke="#000000" stroke-width="1.33333" stroke-linejoin="round" stroke-miterlimit="10" stroke-dasharray="5.33333 4" fill="none" fill-rule="evenodd" transform="matrix(-1 0 0 1 535.5 520.5)"/><path d="M561.5 523.5 562.5 571.5" stroke="#000000" stroke-width="1.33333" stroke-linejoin="round" stroke-miterlimit="10" stroke-dasharray="5.33333 4" fill="none" fill-rule="evenodd"/><path d="M578.5 518.5 631.5 554.5" stroke="#000000" stroke-width="1.33333" stroke-linejoin="round" stroke-miterlimit="10" stroke-dasharray="5.33333 4" fill="none" fill-rule="evenodd"/><path d="M0 0 40 13" stroke="#000000" stroke-width="1.33333" stroke-linejoin="round" stroke-miterlimit="10" stroke-dasharray="5.33333 4" fill="none" fill-rule="evenodd" transform="matrix(-1 0 0 1 629.5 566.5)"/><path d="M625.5 556.5 530.5 548.5" stroke="#000000" stroke-width="1.33333" stroke-linejoin="round" stroke-miterlimit="10" stroke-dasharray="5.33333 4" fill="none" fill-rule="evenodd"/><path d="M521.5 556.5 542.5 571.5" stroke="#000000" stroke-width="1.33333" stroke-linejoin="round" stroke-miterlimit="10" stroke-dasharray="5.33333 4" fill="none" fill-rule="evenodd"/><path d="M531.5 518.5C531.5 514.634 543.141 511.5 557.5 511.5 571.859 511.5 583.5 514.634 583.5 518.5 583.5 522.366 571.859 525.5 557.5 525.5 543.141 525.5 531.5 522.366 531.5 518.5Z" stroke="#000000" stroke-width="1.33333" stroke-linejoin="round" stroke-miterlimit="10" fill="#0563C1" fill-rule="evenodd"/><path d="M531.5 510.5 531.5 518.5" stroke="#000000" stroke-width="1.33333" stroke-linejoin="round" stroke-miterlimit="10" fill="none" fill-rule="evenodd"/><path d="M583.5 510.5 583.5 518.5" stroke="#000000" stroke-width="1.33333" stroke-linejoin="round" stroke-miterlimit="10" fill="none" fill-rule="evenodd"/><rect x="531" y="510" width="52" height="8" fill="#0563C1"/><path d="M530.5 508.5C530.5 504.082 542.365 500.5 557 500.5 571.636 500.5 583.5 504.082 583.5 508.5 583.5 512.918 571.636 516.5 557 516.5 542.365 516.5 530.5 512.918 530.5 508.5Z" stroke="#000000" stroke-width="1.33333" stroke-linejoin="round" stroke-miterlimit="10" fill="#0563C1" fill-rule="evenodd"/><rect x="545" y="501" width="23" height="22" fill="#0563C1"/><text font-family="Arial,Arial_MSFontService,sans-serif" font-weight="400" font-size="27" transform="translate(542.861 521)">1c</text><path d="M480.5 553.5C480.5 549.634 492.141 546.5 506.5 546.5 520.859 546.5 532.5 549.634 532.5 553.5 532.5 557.366 520.859 560.5 506.5 560.5 492.141 560.5 480.5 557.366 480.5 553.5Z" stroke="#000000" stroke-width="1.33333" stroke-linejoin="round" stroke-miterlimit="10" fill="#0563C1" fill-rule="evenodd"/><path d="M480.5 545.5 480.5 553.5" stroke="#000000" stroke-width="1.33333" stroke-linejoin="round" stroke-miterlimit="10" fill="none" fill-rule="evenodd"/><path d="M532.5 545.5 532.5 553.5" stroke="#000000" stroke-width="1.33333" stroke-linejoin="round" stroke-miterlimit="10" fill="none" fill-rule="evenodd"/><rect x="480" y="545" width="52" height="8" fill="#0563C1"/><path d="M479.5 544.5C479.5 540.082 491.365 536.5 506 536.5 520.636 536.5 532.5 540.082 532.5 544.5 532.5 548.918 520.636 552.5 506 552.5 491.365 552.5 479.5 548.918 479.5 544.5Z" stroke="#000000" stroke-width="1.33333" stroke-linejoin="round" stroke-miterlimit="10" fill="#0563C1" fill-rule="evenodd"/><rect x="494" y="540" width="23" height="16" fill="#0563C1"/><text font-family="Arial,Arial_MSFontService,sans-serif" font-weight="400" font-size="27" transform="translate(491.69 557)">1a</text><path d="M537.5 584.5C537.5 580.634 549.141 577.5 563.5 577.5 577.859 577.5 589.5 580.634 589.5 584.5 589.5 588.366 577.859 591.5 563.5 591.5 549.141 591.5 537.5 588.366 537.5 584.5Z" stroke="#000000" stroke-width="1.33333" stroke-linejoin="round" stroke-miterlimit="10" fill="#0563C1" fill-rule="evenodd"/><path d="M537.5 576.5 537.5 584.5" stroke="#000000" stroke-width="1.33333" stroke-linejoin="round" stroke-miterlimit="10" fill="none" fill-rule="evenodd"/><path d="M589.5 576.5 589.5 584.5" stroke="#000000" stroke-width="1.33333" stroke-linejoin="round" stroke-miterlimit="10" fill="none" fill-rule="evenodd"/><rect x="537" y="576" width="52" height="8" fill="#0563C1"/><path d="M536.5 574.5C536.5 570.082 548.365 566.5 563 566.5 577.636 566.5 589.5 570.082 589.5 574.5 589.5 578.918 577.636 582.5 563 582.5 548.365 582.5 536.5 578.918 536.5 574.5Z" stroke="#000000" stroke-width="1.33333" stroke-linejoin="round" stroke-miterlimit="10" fill="#0563C1" fill-rule="evenodd"/><rect x="551" y="567" width="24" height="22" fill="#0563C1"/><text font-family="Arial,Arial_MSFontService,sans-serif" font-weight="400" font-size="27" transform="translate(548.528 587)">1d</text><path d="M627.5 565.5C627.5 561.634 639.141 558.5 653.5 558.5 667.859 558.5 679.5 561.634 679.5 565.5 679.5 569.366 667.859 572.5 653.5 572.5 639.141 572.5 627.5 569.366 627.5 565.5Z" stroke="#000000" stroke-width="1.33333" stroke-linejoin="round" stroke-miterlimit="10" fill="#0563C1" fill-rule="evenodd"/><path d="M627.5 557.5 627.5 565.5" stroke="#000000" stroke-width="1.33333" stroke-linejoin="round" stroke-miterlimit="10" fill="none" fill-rule="evenodd"/><path d="M679.5 557.5 679.5 565.5" stroke="#000000" stroke-width="1.33333" stroke-linejoin="round" stroke-miterlimit="10" fill="none" fill-rule="evenodd"/><rect x="627" y="557" width="52" height="8" fill="#0563C1"/><path d="M626.5 555.5C626.5 551.082 638.365 547.5 653 547.5 667.636 547.5 679.5 551.082 679.5 555.5 679.5 559.918 667.636 563.5 653 563.5 638.365 563.5 626.5 559.918 626.5 555.5Z" stroke="#000000" stroke-width="1.33333" stroke-linejoin="round" stroke-miterlimit="10" fill="#0563C1" fill-rule="evenodd"/><rect x="640" y="548" width="24" height="22" fill="#0563C1"/><text font-family="Arial,Arial_MSFontService,sans-serif" font-weight="400" font-size="27" transform="translate(638.202 568)">1b</text><path d="M732.5 528.5C732.5 524.634 744.365 521.5 759 521.5 773.636 521.5 785.5 524.634 785.5 528.5 785.5 532.366 773.636 535.5 759 535.5 744.365 535.5 732.5 532.366 732.5 528.5Z" stroke="#000000" stroke-width="1.33333" stroke-linejoin="round" stroke-miterlimit="10" fill="#0563C1" fill-rule="evenodd"/><path d="M732.5 520.5 732.5 529.5" stroke="#000000" stroke-width="1.33333" stroke-linejoin="round" stroke-miterlimit="10" fill="none" fill-rule="evenodd"/><path d="M785.5 520.5 785.5 529.5" stroke="#000000" stroke-width="1.33333" stroke-linejoin="round" stroke-miterlimit="10" fill="none" fill-rule="evenodd"/><rect x="732" y="520" width="52" height="8" fill="#0563C1"/><path d="M732.5 518.5C732.5 514.082 744.141 510.5 758.5 510.5 772.859 510.5 784.5 514.082 784.5 518.5 784.5 522.918 772.859 526.5 758.5 526.5 744.141 526.5 732.5 522.918 732.5 518.5Z" stroke="#000000" stroke-width="1.33333" stroke-linejoin="round" stroke-miterlimit="10" fill="#0563C1" fill-rule="evenodd"/><rect x="746" y="513" width="24" height="20" fill="#0563C1"/><text font-family="Arial,Arial_MSFontService,sans-serif" font-weight="400" font-size="27" transform="translate(743.91 531)">2a</text><path d="M860.5 492.5 950.5 492.5" stroke="#000000" stroke-linejoin="round" stroke-miterlimit="10" fill="none" fill-rule="evenodd"/><path d="M887.5 541.5 964.5 541.5" stroke="#000000" stroke-linejoin="round" stroke-miterlimit="10" fill="none" fill-rule="evenodd"/><path d="M785.5 525.5 836.5 541.5" stroke="#000000" stroke-width="1.33333" stroke-linejoin="round" stroke-miterlimit="10" stroke-dasharray="5.33333 4" fill="none" fill-rule="evenodd"/><path d="M849.5 503.5 856.5 527.5" stroke="#000000" stroke-width="1.33333" stroke-linejoin="round" stroke-miterlimit="10" stroke-dasharray="5.33333 4" fill="none" fill-rule="evenodd"/><path d="M809.5 498.5C809.5 494.634 821.141 491.5 835.5 491.5 849.859 491.5 861.5 494.634 861.5 498.5 861.5 502.366 849.859 505.5 835.5 505.5 821.141 505.5 809.5 502.366 809.5 498.5Z" stroke="#000000" stroke-width="1.33333" stroke-linejoin="round" stroke-miterlimit="10" fill="#0563C1" fill-rule="evenodd"/><path d="M809.5 490.5 809.5 498.5" stroke="#000000" stroke-width="1.33333" stroke-linejoin="round" stroke-miterlimit="10" fill="none" fill-rule="evenodd"/><path d="M861.5 490.5 861.5 498.5" stroke="#000000" stroke-width="1.33333" stroke-linejoin="round" stroke-miterlimit="10" fill="none" fill-rule="evenodd"/><rect x="809" y="490" width="51" height="8" fill="#0563C1"/><path d="M808.5 488.5C808.5 484.082 820.141 480.5 834.5 480.5 848.859 480.5 860.5 484.082 860.5 488.5 860.5 492.918 848.859 496.5 834.5 496.5 820.141 496.5 808.5 492.918 808.5 488.5Z" stroke="#000000" stroke-width="1.33333" stroke-linejoin="round" stroke-miterlimit="10" fill="#0563C1" fill-rule="evenodd"/><rect x="823" y="482" width="23" height="20" fill="#0563C1"/><text font-family="Arial,Arial_MSFontService,sans-serif" font-weight="400" font-size="27" transform="translate(820.916 502)">2c</text><path d="M836.5 546C836.5 542.41 848.365 539.5 863 539.5 877.636 539.5 889.5 542.41 889.5 546 889.5 549.59 877.636 552.5 863 552.5 848.365 552.5 836.5 549.59 836.5 546Z" stroke="#000000" stroke-width="1.33333" stroke-linejoin="round" stroke-miterlimit="10" fill="#0563C1" fill-rule="evenodd"/><path d="M836.5 538.5 836.5 546.5" stroke="#000000" stroke-width="1.33333" stroke-linejoin="round" stroke-miterlimit="10" fill="none" fill-rule="evenodd"/><path d="M889.5 538.5 889.5 546.5" stroke="#000000" stroke-width="1.33333" stroke-linejoin="round" stroke-miterlimit="10" fill="none" fill-rule="evenodd"/><rect x="836" y="538" width="52" height="8" fill="#0563C1"/><path d="M836.5 536.5C836.5 532.082 848.141 528.5 862.5 528.5 876.859 528.5 888.5 532.082 888.5 536.5 888.5 540.918 876.859 544.5 862.5 544.5 848.141 544.5 836.5 540.918 836.5 536.5Z" stroke="#000000" stroke-width="1.33333" stroke-linejoin="round" stroke-miterlimit="10" fill="#0563C1" fill-rule="evenodd"/><rect x="850" y="530" width="24" height="18" fill="#0563C1"/><text font-family="Arial,Arial_MSFontService,sans-serif" font-weight="400" font-size="27" transform="translate(847.918 550)">2b<tspan font-size="19" x="128.941" y="-44">other</tspan><tspan font-size="19" x="128.941" y="-21">networks</tspan><tspan font-size="19" x="-638.318" y="-2">other</tspan><tspan font-size="19" x="-638.318" y="21">networks</tspan></text><path d="M0 0 49 28" stroke="#000000" stroke-width="1.33333" stroke-linejoin="round" stroke-miterlimit="10" fill="none" fill-rule="evenodd" transform="matrix(-1 0 0 1 333.5 479.5)"/><path d="M679 558 734 530" stroke="#000000" stroke-width="2" stroke-linejoin="round" stroke-miterlimit="10" fill="none" fill-rule="evenodd"/><path d="M512.5 438.5 593.5 438.5" stroke="#000000" stroke-width="2.66667" stroke-linejoin="round" stroke-miterlimit="10" fill="none" fill-rule="evenodd"/><path d="M514.5 471.5 595.5 471.5" stroke="#000000" stroke-width="2.66667" stroke-linejoin="round" stroke-miterlimit="10" stroke-dasharray="10.6667 8" fill="none" fill-rule="evenodd"/><text font-family="Arial,Arial_MSFontService,sans-serif" font-weight="400" font-size="19" transform="translate(610.965 438)">eBGP session<tspan font-size="19" x="2.86688" y="36">iBGP session</tspan></text><path d="M457 468 531 511" stroke="#000000" stroke-width="2" stroke-linejoin="round" stroke-miterlimit="10" fill="none" fill-rule="evenodd"/></g></svg>