<svg width="1280" height="720" xmlns="http://www.w3.org/2000/svg" xmlns:xlink="http://www.w3.org/1999/xlink" overflow="hidden"><defs><clipPath id="clip0"><rect x="0" y="0" width="1280" height="720"/></clipPath></defs><g clip-path="url(#clip0)"><rect x="0" y="0" width="1280" height="720" fill="#FFFFFF"/><text font-family="Times New Roman,Times New Roman_MSFontService,sans-serif" font-weight="400" font-size="24" transform="translate(117.004 190)">Cost<tspan font-size="24" x="50" y="0">to</tspan><tspan font-size="24" x="96" y="29">u</tspan><tspan font-size="24" x="192" y="29">v</tspan><tspan font-size="24" x="288" y="29">x</tspan><tspan font-size="24" x="384" y="29">y</tspan><tspan font-size="24" x="480" y="29">z</tspan><tspan font-size="24" x="0" y="86">v</tspan><tspan font-size="24" x="96" y="86">∞</tspan><tspan font-size="24" x="192" y="86">∞</tspan><tspan font-size="24" x="288" y="86">∞</tspan><tspan font-size="24" x="384" y="86">∞</tspan><tspan font-size="24" x="480" y="86">∞</tspan><tspan font-size="24" x="-96" y="115">From</tspan><tspan font-size="24" x="0" y="115">x</tspan><tspan font-size="24" x="96" y="115">∞</tspan><tspan font-size="24" x="192" y="115">∞</tspan><tspan font-size="24" x="288" y="115">∞</tspan><tspan font-size="24" x="384" y="115">∞</tspan><tspan font-size="24" x="480" y="115">∞</tspan><tspan font-size="24" x="0" y="144">z</tspan><tspan font-size="24" x="96" y="144">∞</tspan><tspan font-size="24" x="192" y="144">6</tspan><tspan font-size="24" x="288" y="144">2</tspan><tspan font-size="24" x="384" y="144">∞</tspan><tspan font-size="24" x="480" y="144">0</tspan><tspan font-size="24" x="6" y="173">Cost</tspan><tspan font-size="24" x="56" y="173">to</tspan><tspan font-size="24" x="96" y="230">u</tspan><tspan font-size="24" x="192" y="230">v</tspan><tspan font-size="24" x="288" y="230">x</tspan><tspan font-size="24" x="384" y="230">y</tspan><tspan font-size="24" x="480" y="230">z</tspan><tspan font-size="24" x="0" y="288">v</tspan><tspan font-size="24" x="96" y="288">1</tspan><tspan font-size="24" x="192" y="288">0</tspan><tspan font-size="24" x="288" y="288">3</tspan><tspan font-size="24" x="384" y="288">∞</tspan><tspan font-size="24" x="480" y="288">6</tspan><tspan font-size="24" x="-96" y="317">From</tspan><tspan font-size="24" x="0" y="317">x</tspan><tspan font-size="24" x="96" y="317">∞</tspan><tspan font-size="24" x="192" y="317">3</tspan><tspan font-size="24" x="288" y="317">0</tspan><tspan font-size="24" x="384" y="317">3</tspan><tspan font-size="24" x="480" y="317">2</tspan><tspan font-size="24" x="0" y="346">z</tspan><tspan font-size="24" x="96" y="346">7</tspan><tspan font-size="24" x="192" y="346">5</tspan><tspan font-size="24" x="288" y="346">2</tspan><tspan font-size="24" x="384" y="346">5</tspan><tspan font-size="24" x="480" y="346">0</tspan><tspan font-size="24" x="538.914" y="-61">Cost</tspan><tspan font-size="24" x="588.914" y="-61">to</tspan><tspan font-size="24" x="730.914" y="-3">u</tspan><tspan font-size="24" x="826.914" y="-3">v</tspan><tspan font-size="24" x="922.914" y="-3">x</tspan><tspan font-size="24" x="1018.91" y="-3">y</tspan><tspan font-size="24" x="1114.91" y="-3">z</tspan><tspan font-size="24" x="634.914" y="54">v</tspan><tspan font-size="24" x="730.914" y="54">1</tspan><tspan font-size="24" x="826.914" y="54">0</tspan><tspan font-size="24" x="922.914" y="54">3</tspan><tspan font-size="24" x="1018.91" y="54">3</tspan><tspan font-size="24" x="1114.91" y="54">5</tspan><tspan font-size="24" x="538.914" y="83">From</tspan><tspan font-size="24" x="634.914" y="83">x</tspan><tspan font-size="24" x="730.914" y="83">4</tspan><tspan font-size="24" x="826.914" y="83">3</tspan><tspan font-size="24" x="922.914" y="83">0</tspan><tspan font-size="24" x="1018.91" y="83">3</tspan><tspan font-size="24" x="1114.91" y="83">2</tspan><tspan font-size="24" x="634.914" y="112">z</tspan><tspan font-size="24" x="730.914" y="112">6</tspan><tspan font-size="24" x="826.914" y="112">5</tspan><tspan font-size="24" x="922.914" y="112">2</tspan><tspan font-size="24" x="1018.91" y="112">5</tspan><tspan font-size="24" x="1114.91" y="112">0</tspan><tspan font-size="24" x="544.914" y="198">Cost</tspan><tspan font-size="24" x="594.914" y="198">to</tspan><tspan font-size="24" x="730.914" y="227">u</tspan><tspan font-size="24" x="826.914" y="227">v</tspan><tspan font-size="24" x="922.914" y="227">x</tspan><tspan font-size="24" x="1018.91" y="227">y</tspan><tspan font-size="24" x="1114.91" y="227">z</tspan><tspan font-size="24" x="634.914" y="285">v</tspan><tspan font-size="24" x="730.914" y="285">1</tspan><tspan font-size="24" x="826.914" y="285">0</tspan><tspan font-size="24" x="922.914" y="285">3</tspan><tspan font-size="24" x="1018.91" y="285">3</tspan><tspan font-size="24" x="1114.91" y="285">5</tspan><tspan font-size="24" x="538.914" y="314">From</tspan><tspan font-size="24" x="634.914" y="314">x</tspan><tspan font-size="24" x="730.914" y="314">4</tspan><tspan font-size="24" x="826.914" y="314">3</tspan><tspan font-size="24" x="922.914" y="314">0</tspan><tspan font-size="24" x="1018.91" y="314">3</tspan><tspan font-size="24" x="1114.91" y="314">2</tspan><tspan font-size="24" x="634.914" y="342">z</tspan><tspan font-size="24" x="730.914" y="342">6</tspan><tspan font-size="24" x="826.914" y="342">5</tspan><tspan font-size="24" x="922.914" y="342">2</tspan><tspan font-size="24" x="1018.91" y="342">5</tspan><tspan font-size="24" x="1114.91" y="342">0</tspan></text></g></svg>