<svg width="960" height="720" xmlns="http://www.w3.org/2000/svg" xmlns:xlink="http://www.w3.org/1999/xlink" overflow="hidden"><defs><clipPath id="clip0"><rect x="0" y="0" width="960" height="720"/></clipPath></defs><g clip-path="url(#clip0)"><rect x="0" y="0" width="960" height="720" fill="#FFFFFF"/><text font-family="SimSun,SimSun_MSFontService,sans-serif" font-weight="700" font-size="43" transform="translate(110.767 96)">双栈方法<tspan fill="#919293" font-family="Times New Roman,Times New Roman_MSFontService,sans-serif" font-weight="400" font-size="12" x="761.5" y="595">55</tspan></text><path d="M178.5 226.5C178.5 219.873 195.066 214.5 215.5 214.5 235.935 214.5 252.5 219.873 252.5 226.5 252.5 233.127 235.935 238.5 215.5 238.5 195.066 238.5 178.5 233.127 178.5 226.5Z" stroke="#000000" stroke-width="1.33333" stroke-linejoin="round" stroke-miterlimit="10" fill="#0563C1" fill-rule="evenodd"/><path d="M178.5 213.5 179.5 226.5" stroke="#000000" stroke-width="1.33333" stroke-linejoin="round" stroke-miterlimit="10" fill="none" fill-rule="evenodd"/><path d="M236.5 214.5 237.5 227.5" stroke="#000000" stroke-width="1.33333" stroke-linejoin="round" stroke-miterlimit="10" fill="none" fill-rule="evenodd"/><rect x="178" y="213" width="73" height="13" fill="#0563C1"/><path d="M178.5 216C178.5 209.096 194.842 203.5 215 203.5 235.158 203.5 251.5 209.096 251.5 216 251.5 222.904 235.158 228.5 215 228.5 194.842 228.5 178.5 222.904 178.5 216Z" stroke="#000000" stroke-width="1.33333" stroke-linejoin="round" stroke-miterlimit="10" fill="#0563C1" fill-rule="evenodd"/><path d="M0 0 13 1" stroke="#000000" stroke-width="2.66667" stroke-linejoin="round" stroke-miterlimit="10" fill="none" fill-rule="evenodd" transform="matrix(1 0 0 -1 196.5 209.5)"/><path d="M221.5 222.5 233.5 222.5" stroke="#000000" stroke-width="2.66667" stroke-linejoin="round" stroke-miterlimit="10" fill="none" fill-rule="evenodd"/><path d="M208.5 208.5 222.5 222.5" stroke="#000000" stroke-width="2.66667" stroke-linejoin="round" stroke-miterlimit="10" fill="none" fill-rule="evenodd"/><path d="M196.5 222.5 209.5 223.5" stroke="#000000" stroke-width="2.66667" stroke-linejoin="round" stroke-miterlimit="10" fill="none" fill-rule="evenodd"/><path d="M221.5 208.5 232.5 208.5" stroke="#000000" stroke-width="2.66667" stroke-linejoin="round" stroke-miterlimit="10" fill="none" fill-rule="evenodd"/><path d="M0 0 14 15" stroke="#000000" stroke-width="2.66667" stroke-linejoin="round" stroke-miterlimit="10" fill="none" fill-rule="evenodd" transform="matrix(1 0 0 -1 208.5 222.5)"/><text font-family="Comic Sans MS,Comic Sans MS_MSFontService,sans-serif" font-weight="700" font-size="24" transform="translate(205.833 199)">A</text><path d="M288.5 227.5C288.5 220.873 305.066 215.5 325.5 215.5 345.935 215.5 362.5 220.873 362.5 227.5 362.5 234.127 345.935 239.5 325.5 239.5 305.066 239.5 288.5 234.127 288.5 227.5Z" stroke="#000000" stroke-width="1.33333" stroke-linejoin="round" stroke-miterlimit="10" fill="#0563C1" fill-rule="evenodd"/><path d="M288.5 213.5 289.5 226.5" stroke="#000000" stroke-width="1.33333" stroke-linejoin="round" stroke-miterlimit="10" fill="none" fill-rule="evenodd"/><path d="M346.5 215.5 347.5 228.5" stroke="#000000" stroke-width="1.33333" stroke-linejoin="round" stroke-miterlimit="10" fill="none" fill-rule="evenodd"/><rect x="288" y="213" width="73" height="13" fill="#0563C1"/><path d="M287.5 216.5C287.5 209.873 304.066 204.5 324.5 204.5 344.935 204.5 361.5 209.873 361.5 216.5 361.5 223.127 344.935 228.5 324.5 228.5 304.066 228.5 287.5 223.127 287.5 216.5Z" stroke="#000000" stroke-width="1.33333" stroke-linejoin="round" stroke-miterlimit="10" fill="#0563C1" fill-rule="evenodd"/><path d="M0 0 14 1" stroke="#000000" stroke-width="2.66667" stroke-linejoin="round" stroke-miterlimit="10" fill="none" fill-rule="evenodd" transform="matrix(1 0 0 -1 305.5 209.5)"/><path d="M331.5 222.5 342.5 222.5" stroke="#000000" stroke-width="2.66667" stroke-linejoin="round" stroke-miterlimit="10" fill="none" fill-rule="evenodd"/><path d="M318.5 209.5 331.5 222.5" stroke="#000000" stroke-width="2.66667" stroke-linejoin="round" stroke-miterlimit="10" fill="none" fill-rule="evenodd"/><path d="M306.5 222.5 319.5 223.5" stroke="#000000" stroke-width="2.66667" stroke-linejoin="round" stroke-miterlimit="10" fill="none" fill-rule="evenodd"/><path d="M331.5 208.5 342.5 208.5" stroke="#000000" stroke-width="2.66667" stroke-linejoin="round" stroke-miterlimit="10" fill="none" fill-rule="evenodd"/><path d="M0 0 13 14" stroke="#000000" stroke-width="2.66667" stroke-linejoin="round" stroke-miterlimit="10" fill="none" fill-rule="evenodd" transform="matrix(1 0 0 -1 318.5 222.5)"/><text font-family="Comic Sans MS,Comic Sans MS_MSFontService,sans-serif" font-weight="700" font-size="24" transform="translate(315.667 200)">B</text><path d="M604.5 226.5C604.5 219.873 621.066 214.5 641.5 214.5 661.935 214.5 678.5 219.873 678.5 226.5 678.5 233.127 661.935 238.5 641.5 238.5 621.066 238.5 604.5 233.127 604.5 226.5Z" stroke="#000000" stroke-width="1.33333" stroke-linejoin="round" stroke-miterlimit="10" fill="#0563C1" fill-rule="evenodd"/><path d="M604.5 212.5 605.5 225.5" stroke="#000000" stroke-width="1.33333" stroke-linejoin="round" stroke-miterlimit="10" fill="none" fill-rule="evenodd"/><path d="M662.5 214.5 663.5 227.5" stroke="#000000" stroke-width="1.33333" stroke-linejoin="round" stroke-miterlimit="10" fill="none" fill-rule="evenodd"/><rect x="604" y="212" width="74" height="13" fill="#0563C1"/><path d="M604.5 215.5C604.5 208.873 621.066 203.5 641.5 203.5 661.935 203.5 678.5 208.873 678.5 215.5 678.5 222.127 661.935 227.5 641.5 227.5 621.066 227.5 604.5 222.127 604.5 215.5Z" stroke="#000000" stroke-width="1.33333" stroke-linejoin="round" stroke-miterlimit="10" fill="#0563C1" fill-rule="evenodd"/><path d="M0 0 13 1" stroke="#000000" stroke-width="2.66667" stroke-linejoin="round" stroke-miterlimit="10" fill="none" fill-rule="evenodd" transform="matrix(1 0 0 -1 622.5 208.5)"/><path d="M647.5 221.5 659.5 221.5" stroke="#000000" stroke-width="2.66667" stroke-linejoin="round" stroke-miterlimit="10" fill="none" fill-rule="evenodd"/><path d="M634.5 208.5 648.5 221.5" stroke="#000000" stroke-width="2.66667" stroke-linejoin="round" stroke-miterlimit="10" fill="none" fill-rule="evenodd"/><path d="M622.5 221.5 635.5 222.5" stroke="#000000" stroke-width="2.66667" stroke-linejoin="round" stroke-miterlimit="10" fill="none" fill-rule="evenodd"/><path d="M647.5 207.5 659.5 207.5" stroke="#000000" stroke-width="2.66667" stroke-linejoin="round" stroke-miterlimit="10" fill="none" fill-rule="evenodd"/><path d="M0 0 14 14" stroke="#000000" stroke-width="2.66667" stroke-linejoin="round" stroke-miterlimit="10" fill="none" fill-rule="evenodd" transform="matrix(1 0 0 -1 634.5 221.5)"/><text font-family="Comic Sans MS,Comic Sans MS_MSFontService,sans-serif" font-weight="700" font-size="24" transform="translate(632.167 199)">E</text><path d="M708.5 225C708.5 218.096 725.066 212.5 745.5 212.5 765.935 212.5 782.5 218.096 782.5 225 782.5 231.904 765.935 237.5 745.5 237.5 725.066 237.5 708.5 231.904 708.5 225Z" stroke="#000000" stroke-width="1.33333" stroke-linejoin="round" stroke-miterlimit="10" fill="#0563C1" fill-rule="evenodd"/><path d="M708.5 211.5 709.5 224.5" stroke="#000000" stroke-width="1.33333" stroke-linejoin="round" stroke-miterlimit="10" fill="none" fill-rule="evenodd"/><path d="M766.5 212.5 767.5 225.5" stroke="#000000" stroke-width="1.33333" stroke-linejoin="round" stroke-miterlimit="10" fill="none" fill-rule="evenodd"/><rect x="708" y="211" width="74" height="13" fill="#0563C1"/><path d="M708.5 214C708.5 207.096 725.066 201.5 745.5 201.5 765.935 201.5 782.5 207.096 782.5 214 782.5 220.904 765.935 226.5 745.5 226.5 725.066 226.5 708.5 220.904 708.5 214Z" stroke="#000000" stroke-width="1.33333" stroke-linejoin="round" stroke-miterlimit="10" fill="#0563C1" fill-rule="evenodd"/><path d="M0 0 13 1" stroke="#000000" stroke-width="2.66667" stroke-linejoin="round" stroke-miterlimit="10" fill="none" fill-rule="evenodd" transform="matrix(1 0 0 -1 726.5 207.5)"/><path d="M751.5 220.5 763.5 220.5" stroke="#000000" stroke-width="2.66667" stroke-linejoin="round" stroke-miterlimit="10" fill="none" fill-rule="evenodd"/><path d="M738.5 206.5 752.5 220.5" stroke="#000000" stroke-width="2.66667" stroke-linejoin="round" stroke-miterlimit="10" fill="none" fill-rule="evenodd"/><path d="M726.5 220.5 739.5 221.5" stroke="#000000" stroke-width="2.66667" stroke-linejoin="round" stroke-miterlimit="10" fill="none" fill-rule="evenodd"/><path d="M751.5 206.5 763.5 206.5" stroke="#000000" stroke-width="2.66667" stroke-linejoin="round" stroke-miterlimit="10" fill="none" fill-rule="evenodd"/><path d="M0 0 14 14" stroke="#000000" stroke-width="2.66667" stroke-linejoin="round" stroke-miterlimit="10" fill="none" fill-rule="evenodd" transform="matrix(1 0 0 -1 738.5 220.5)"/><text font-family="Comic Sans MS,Comic Sans MS_MSFontService,sans-serif" font-weight="700" font-size="24" transform="translate(736.167 198)">F</text><path d="M253.5 223.5 287.5 223.5" stroke="#000000" stroke-width="1.33333" stroke-linejoin="round" stroke-miterlimit="10" fill="none" fill-rule="evenodd"/><path d="M678.5 221.5 712.5 221.5" stroke="#000000" stroke-width="1.33333" stroke-linejoin="round" stroke-miterlimit="10" fill="none" fill-rule="evenodd"/><text font-family="Comic Sans MS,Comic Sans MS_MSFontService,sans-serif" font-weight="700" font-size="21" transform="translate(193.167 260)">IPv6<tspan font-size="21" x="109.833" y="0">IPv6</tspan><tspan font-size="21" x="427.5" y="-1">IPv6</tspan><tspan font-size="21" x="530.5" y="-1">IPv6</tspan></text><path d="M361.5 222.5 606.5 222.5" stroke="#000000" stroke-width="1.33333" stroke-linejoin="round" stroke-miterlimit="10" fill="none" fill-rule="evenodd"/><path d="M392.5 227.5C392.5 220.873 409.066 215.5 429.5 215.5 449.935 215.5 466.5 220.873 466.5 227.5 466.5 234.127 449.935 239.5 429.5 239.5 409.066 239.5 392.5 234.127 392.5 227.5Z" stroke="#000000" stroke-width="1.33333" stroke-linejoin="round" stroke-miterlimit="10" fill="#0563C1" fill-rule="evenodd"/><path d="M392.5 214.5 393.5 227.5" stroke="#000000" stroke-width="1.33333" stroke-linejoin="round" stroke-miterlimit="10" fill="none" fill-rule="evenodd"/><path d="M450.5 215.5 451.5 228.5" stroke="#000000" stroke-width="1.33333" stroke-linejoin="round" stroke-miterlimit="10" fill="none" fill-rule="evenodd"/><rect x="392" y="214" width="73" height="12" fill="#0563C1"/><path d="M392.5 216.5C392.5 209.873 409.066 204.5 429.5 204.5 449.935 204.5 466.5 209.873 466.5 216.5 466.5 223.127 449.935 228.5 429.5 228.5 409.066 228.5 392.5 223.127 392.5 216.5Z" stroke="#000000" stroke-width="1.33333" stroke-linejoin="round" stroke-miterlimit="10" fill="#0563C1" fill-rule="evenodd"/><path d="M0 0 13 1" stroke="#000000" stroke-width="2.66667" stroke-linejoin="round" stroke-miterlimit="10" fill="none" fill-rule="evenodd" transform="matrix(1 0 0 -1 410.5 210.5)"/><path d="M435.5 223.5 447.5 223.5" stroke="#000000" stroke-width="2.66667" stroke-linejoin="round" stroke-miterlimit="10" fill="none" fill-rule="evenodd"/><path d="M422.5 209.5 436.5 223.5" stroke="#000000" stroke-width="2.66667" stroke-linejoin="round" stroke-miterlimit="10" fill="none" fill-rule="evenodd"/><path d="M410.5 223.5 423.5 224.5" stroke="#000000" stroke-width="2.66667" stroke-linejoin="round" stroke-miterlimit="10" fill="none" fill-rule="evenodd"/><path d="M435.5 208.5 447.5 208.5" stroke="#000000" stroke-width="2.66667" stroke-linejoin="round" stroke-miterlimit="10" fill="none" fill-rule="evenodd"/><path d="M0 0 14 14" stroke="#000000" stroke-width="2.66667" stroke-linejoin="round" stroke-miterlimit="10" fill="none" fill-rule="evenodd" transform="matrix(1 0 0 -1 422.5 222.5)"/><text font-family="Comic Sans MS,Comic Sans MS_MSFontService,sans-serif" font-weight="700" font-size="24" transform="translate(420 200)">C</text><path d="M496.5 226.5C496.5 219.873 513.066 214.5 533.5 214.5 553.935 214.5 570.5 219.873 570.5 226.5 570.5 233.127 553.935 238.5 533.5 238.5 513.066 238.5 496.5 233.127 496.5 226.5Z" stroke="#000000" stroke-width="1.33333" stroke-linejoin="round" stroke-miterlimit="10" fill="#0563C1" fill-rule="evenodd"/><path d="M496.5 213.5 497.5 226.5" stroke="#000000" stroke-width="1.33333" stroke-linejoin="round" stroke-miterlimit="10" fill="none" fill-rule="evenodd"/><path d="M554.5 214.5 555.5 227.5" stroke="#000000" stroke-width="1.33333" stroke-linejoin="round" stroke-miterlimit="10" fill="none" fill-rule="evenodd"/><rect x="496" y="213" width="73" height="12" fill="#0563C1"/><path d="M496.5 215.5C496.5 208.873 512.842 203.5 533 203.5 553.158 203.5 569.5 208.873 569.5 215.5 569.5 222.127 553.158 227.5 533 227.5 512.842 227.5 496.5 222.127 496.5 215.5Z" stroke="#000000" stroke-width="1.33333" stroke-linejoin="round" stroke-miterlimit="10" fill="#0563C1" fill-rule="evenodd"/><path d="M0 0 13 1" stroke="#000000" stroke-width="2.66667" stroke-linejoin="round" stroke-miterlimit="10" fill="none" fill-rule="evenodd" transform="matrix(1 0 0 -1 514.5 209.5)"/><path d="M539.5 222.5 551.5 222.5" stroke="#000000" stroke-width="2.66667" stroke-linejoin="round" stroke-miterlimit="10" fill="none" fill-rule="evenodd"/><path d="M526.5 208.5 540.5 222.5" stroke="#000000" stroke-width="2.66667" stroke-linejoin="round" stroke-miterlimit="10" fill="none" fill-rule="evenodd"/><path d="M514.5 222.5 527.5 223.5" stroke="#000000" stroke-width="2.66667" stroke-linejoin="round" stroke-miterlimit="10" fill="none" fill-rule="evenodd"/><path d="M539.5 207.5 550.5 207.5" stroke="#000000" stroke-width="2.66667" stroke-linejoin="round" stroke-miterlimit="10" fill="none" fill-rule="evenodd"/><path d="M0 0 14 14" stroke="#000000" stroke-width="2.66667" stroke-linejoin="round" stroke-miterlimit="10" fill="none" fill-rule="evenodd" transform="matrix(1 0 0 -1 526.5 221.5)"/><text font-family="Comic Sans MS,Comic Sans MS_MSFontService,sans-serif" font-weight="700" font-size="24" transform="translate(523.833 199)">D<tspan fill="#44546A" font-size="21" x="-117.833" y="61">IPv4</tspan><tspan fill="#44546A" font-size="21" x="-13.5" y="61">IPv4</tspan></text><path d="M226.5 266.833 293.167 266.833 293.167 268.167 226.5 268.167ZM293.167 267.5 290.5 263.5 298.5 267.5 290.5 271.5Z"/><path d="M343.5 266.833 411.167 266.833 411.167 268.167 343.5 268.167ZM411.167 267.5 408.5 263.5 416.5 267.5 408.5 271.5Z"/><path d="M557.5 266.833 624.167 266.833 624.167 268.167 557.5 268.167ZM624.167 267.5 621.5 263.5 629.5 267.5 621.5 271.5Z"/><path d="M668.5 266.833 735.167 266.833 735.167 268.167 668.5 268.167ZM735.167 267.5 732.5 263.5 740.5 267.5 732.5 271.5Z"/><rect x="223.5" y="278.5" width="77" height="151" stroke="#000000" stroke-width="1.33333" stroke-miterlimit="8" fill="#FFFFFF"/><text font-family="Comic Sans MS,Comic Sans MS_MSFontService,sans-serif" font-weight="700" font-size="19" transform="translate(228.5 304)">Flow: X<tspan font-size="19" x="0" y="22">Src: A</tspan><tspan font-size="19" x="0" y="45">Dest: F</tspan><tspan font-size="19" x="0" y="112">data</tspan></text><rect x="659.5" y="280.5" width="77" height="151" stroke="#000000" stroke-width="1.33333" stroke-miterlimit="8" fill="#FFFFFF"/><text font-family="Comic Sans MS,Comic Sans MS_MSFontService,sans-serif" font-weight="700" font-size="19" transform="translate(664.5 306)">Flow: <tspan fill="#44546A" font-size="19" x="55.5" y="0">??</tspan><tspan font-size="19" x="0" y="22">Src: A</tspan><tspan font-size="19" x="0" y="45">Dest: F</tspan><tspan font-size="19" x="0" y="112">data</tspan></text><rect x="335.5" y="278.5" width="77" height="152" stroke="#000000" stroke-width="1.33333" stroke-miterlimit="8" fill="#44546A"/><rect x="330" y="283" width="89" height="143" fill="#44546A"/><text fill="#FFFFFF" font-family="Comic Sans MS,Comic Sans MS_MSFontService,sans-serif" font-weight="700" font-size="19" transform="translate(340 306)">Src:A<tspan font-size="19" x="0" y="22">Dest: F</tspan><tspan font-size="19" x="0" y="112">data</tspan><tspan fill="#000000" font-size="21" x="-123" y="158">A</tspan><tspan fill="#000000" font-size="21" x="-107.333" y="158">-</tspan><tspan fill="#000000" font-size="21" x="-94.3333" y="158">to</tspan><tspan fill="#000000" font-size="21" x="-73.1667" y="158">-</tspan><tspan fill="#000000" font-size="21" x="-60.1667" y="158">B:</tspan><tspan fill="#000000" font-size="21" x="-103.333" y="184">IPv6</tspan></text><rect x="556.5" y="283.5" width="78" height="152" stroke="#000000" stroke-width="1.33333" stroke-miterlimit="8" fill="#44546A"/><rect x="552" y="287" width="89" height="144" fill="#44546A"/><text fill="#FFFFFF" font-family="Comic Sans MS,Comic Sans MS_MSFontService,sans-serif" font-weight="700" font-size="19" transform="translate(561.5 310)">Src:A<tspan font-size="19" x="0" y="22">Dest: F</tspan><tspan font-size="19" x="0" y="112">data</tspan><tspan fill="#000000" font-size="21" x="-228" y="154">B</tspan><tspan fill="#000000" font-size="21" x="-214.5" y="154">-</tspan><tspan fill="#000000" font-size="21" x="-201.5" y="154">to</tspan><tspan fill="#000000" font-size="21" x="-180.333" y="154">-</tspan><tspan fill="#000000" font-size="21" x="-167.333" y="154">C:</tspan><tspan fill="#000000" font-size="21" x="-209.587" y="180">IPv</tspan><tspan fill="#44546A" font-size="21" x="-176.253" y="180">4</tspan><tspan fill="#000000" font-size="21" x="-5.50006" y="156">D</tspan><tspan fill="#000000" font-size="21" x="9.83325" y="156">-</tspan><tspan fill="#000000" font-size="21" x="22.8333" y="156">to</tspan><tspan fill="#000000" font-size="21" x="43.9999" y="156">-</tspan><tspan fill="#000000" font-size="21" x="56.9999" y="156">E:</tspan><tspan fill="#000000" font-size="21" x="13.9133" y="182">IPv</tspan><tspan fill="#44546A" font-size="21" x="47.2466" y="182">4</tspan><tspan fill="#000000" font-size="21" x="98.4999" y="155">E</tspan><tspan fill="#000000" font-size="21" x="111.833" y="155">-</tspan><tspan fill="#000000" font-size="21" x="124.833" y="155">to</tspan><tspan fill="#000000" font-size="21" x="146" y="155">-</tspan><tspan fill="#000000" font-size="21" x="159" y="155">F:</tspan><tspan fill="#000000" font-size="21" x="116.747" y="181">IPv6</tspan></text></g></svg>