<svg width="960" height="720" xmlns="http://www.w3.org/2000/svg" xmlns:xlink="http://www.w3.org/1999/xlink" overflow="hidden"><defs><clipPath id="clip0"><rect x="0" y="0" width="960" height="720"/></clipPath></defs><g clip-path="url(#clip0)"><rect x="0" y="0" width="960" height="720" fill="#FFFFFF"/><text font-family="SimSun,SimSun_MSFontService,sans-serif" font-weight="700" font-size="44" transform="translate(44.4334 104)">IP 数据报分片和重组<tspan fill="#919293" font-family="Times New Roman,Times New Roman_MSFontService,sans-serif" font-weight="400" font-size="12" x="827.833" y="587">27</tspan></text><rect x="386" y="158" width="439" height="57" fill="#ED7D31"/><rect x="378.5" y="163.5" width="440" height="57" stroke="#000000" stroke-width="1.33333" stroke-miterlimit="8" fill="#FFFFFF"/><text font-family="Comic Sans MS,Comic Sans MS_MSFontService,sans-serif" font-weight="700" font-size="24" transform="translate(509.667 185)">ID<tspan font-size="24" x="0" y="29">=x</tspan><tspan font-size="24" x="145" y="2">offset</tspan><tspan font-size="24" x="167.08" y="31">=0</tspan><tspan font-size="24" x="40" y="2">fragflag</tspan><tspan font-size="24" x="72.5" y="31">=0</tspan><tspan font-size="24" x="-84" y="0">length</tspan><tspan font-size="24" x="-84" y="29">=4000</tspan></text><path d="M419.5 163.5 419.5 220.5" stroke="#000000" stroke-width="1.33333" stroke-linejoin="round" stroke-miterlimit="10" fill="none" fill-rule="evenodd"/><path d="M503.5 163.5 503.5 220.5" stroke="#000000" stroke-width="1.33333" stroke-linejoin="round" stroke-miterlimit="10" fill="none" fill-rule="evenodd"/><path d="M548.5 165.5 548.5 222.5" stroke="#000000" stroke-width="1.33333" stroke-linejoin="round" stroke-miterlimit="10" fill="none" fill-rule="evenodd"/><path d="M651.5 163.5 651.5 220.5" stroke="#000000" stroke-width="1.33333" stroke-linejoin="round" stroke-miterlimit="10" fill="none" fill-rule="evenodd"/><path d="M730.5 163.5 730.5 220.5" stroke="#000000" stroke-width="1.33333" stroke-linejoin="round" stroke-miterlimit="10" fill="none" fill-rule="evenodd"/><rect x="750" y="158" width="23" height="63" fill="#FFFFFF"/><rect x="444" y="342" width="439" height="57" fill="#ED7D31"/><rect x="436.5" y="347.5" width="440" height="57" stroke="#000000" stroke-width="1.33333" stroke-miterlimit="8" fill="#FFFFFF"/><text font-family="Comic Sans MS,Comic Sans MS_MSFontService,sans-serif" font-weight="700" font-size="24" transform="translate(567.667 369)">ID<tspan font-size="24" x="0" y="29">=x</tspan><tspan font-size="24" x="145" y="2">offset</tspan><tspan font-size="24" x="167.08" y="31">=0</tspan><tspan font-size="24" x="40" y="2">fragflag</tspan><tspan font-size="24" x="72.5" y="31">=1</tspan><tspan font-size="24" x="-84" y="0">length</tspan><tspan font-size="24" x="-84" y="29">=1500</tspan></text><path d="M477.5 347.5 477.5 404.5" stroke="#000000" stroke-width="1.33333" stroke-linejoin="round" stroke-miterlimit="10" fill="none" fill-rule="evenodd"/><path d="M561.5 347.5 561.5 404.5" stroke="#000000" stroke-width="1.33333" stroke-linejoin="round" stroke-miterlimit="10" fill="none" fill-rule="evenodd"/><path d="M606.5 349.5 606.5 406.5" stroke="#000000" stroke-width="1.33333" stroke-linejoin="round" stroke-miterlimit="10" fill="none" fill-rule="evenodd"/><path d="M709.5 347.5 709.5 404.5" stroke="#000000" stroke-width="1.33333" stroke-linejoin="round" stroke-miterlimit="10" fill="none" fill-rule="evenodd"/><path d="M788.5 347.5 788.5 404.5" stroke="#000000" stroke-width="1.33333" stroke-linejoin="round" stroke-miterlimit="10" fill="none" fill-rule="evenodd"/><rect x="808" y="342" width="23" height="63" fill="#FFFFFF"/><rect x="444" y="426" width="439" height="57" fill="#ED7D31"/><rect x="436.5" y="431.5" width="440" height="57" stroke="#000000" stroke-width="1.33333" stroke-miterlimit="8" fill="#FFFFFF"/><text font-family="Comic Sans MS,Comic Sans MS_MSFontService,sans-serif" font-weight="700" font-size="24" transform="translate(567.667 453)">ID<tspan font-size="24" x="0" y="29">=x</tspan><tspan font-size="24" x="145" y="2">offset</tspan><tspan font-size="24" x="152.413" y="31">=185</tspan><tspan font-size="24" x="40" y="2">fragflag</tspan><tspan font-size="24" x="72.5" y="31">=1</tspan><tspan font-size="24" x="-84" y="0">length</tspan><tspan font-size="24" x="-84" y="29">=1500</tspan></text><path d="M477.5 431.5 477.5 488.5" stroke="#000000" stroke-width="1.33333" stroke-linejoin="round" stroke-miterlimit="10" fill="none" fill-rule="evenodd"/><path d="M561.5 431.5 561.5 488.5" stroke="#000000" stroke-width="1.33333" stroke-linejoin="round" stroke-miterlimit="10" fill="none" fill-rule="evenodd"/><path d="M606.5 433.5 606.5 490.5" stroke="#000000" stroke-width="1.33333" stroke-linejoin="round" stroke-miterlimit="10" fill="none" fill-rule="evenodd"/><path d="M709.5 431.5 709.5 488.5" stroke="#000000" stroke-width="1.33333" stroke-linejoin="round" stroke-miterlimit="10" fill="none" fill-rule="evenodd"/><path d="M788.5 431.5 788.5 488.5" stroke="#000000" stroke-width="1.33333" stroke-linejoin="round" stroke-miterlimit="10" fill="none" fill-rule="evenodd"/><rect x="808" y="426" width="23" height="63" fill="#FFFFFF"/><rect x="443" y="513" width="439" height="57" fill="#ED7D31"/><rect x="435.5" y="518.5" width="440" height="57" stroke="#000000" stroke-width="1.33333" stroke-miterlimit="8" fill="#FFFFFF"/><text font-family="Comic Sans MS,Comic Sans MS_MSFontService,sans-serif" font-weight="700" font-size="24" transform="translate(566.667 540)">ID<tspan font-size="24" x="0" y="29">=x</tspan><tspan font-size="24" x="145" y="2">offset</tspan><tspan font-size="24" x="152.413" y="31">=370</tspan><tspan font-size="24" x="40" y="2">fragflag</tspan><tspan font-size="24" x="72.5" y="31">=0</tspan><tspan font-size="24" x="-84" y="0">length</tspan><tspan font-size="24" x="-84" y="29">=1040</tspan></text><path d="M476.5 518.5 476.5 575.5" stroke="#000000" stroke-width="1.33333" stroke-linejoin="round" stroke-miterlimit="10" fill="none" fill-rule="evenodd"/><path d="M560.5 518.5 560.5 575.5" stroke="#000000" stroke-width="1.33333" stroke-linejoin="round" stroke-miterlimit="10" fill="none" fill-rule="evenodd"/><path d="M605.5 520.5 605.5 577.5" stroke="#000000" stroke-width="1.33333" stroke-linejoin="round" stroke-miterlimit="10" fill="none" fill-rule="evenodd"/><path d="M708.5 518.5 708.5 575.5" stroke="#000000" stroke-width="1.33333" stroke-linejoin="round" stroke-miterlimit="10" fill="none" fill-rule="evenodd"/><path d="M787.5 518.5 787.5 575.5" stroke="#000000" stroke-width="1.33333" stroke-linejoin="round" stroke-miterlimit="10" fill="none" fill-rule="evenodd"/><rect x="807" y="513" width="23" height="63" fill="#FFFFFF"/><path d="M392.167 237.5 392.167 464.333 390.884 464.078 423.674 385.065C423.815 384.725 424.205 384.564 424.545 384.705 424.886 384.846 425.047 385.236 424.906 385.577L392.116 464.589C391.994 464.883 391.682 465.049 391.37 464.987 391.058 464.925 390.833 464.651 390.833 464.333L390.833 237.5C390.833 237.132 391.132 236.833 391.5 236.833 391.868 236.833 392.167 237.132 392.167 237.5ZM424.29 385.321 419.573 386.251 426.334 380.395 426.962 389.317Z" fill="#FF0000"/><path d="M391.5 460.833 424.167 460.833 424.167 462.167 391.5 462.167ZM424.167 461.5 421.5 457.5 429.5 461.5 421.5 465.5Z" fill="#FF0000"/><path d="M393.114 462.241 426.042 540.327 424.813 540.845 391.886 462.759ZM425.428 540.586 428.077 536.574 427.5 545.5 420.706 539.683Z" fill="#FF0000"/><text fill="#44546A" font-family="SimSun,SimSun_MSFontService,sans-serif" font-weight="700" font-size="24" transform="translate(397.667 271)">一个大的数据报被分成三个小的数据报<tspan font-family="Times New Roman,Times New Roman_MSFontService,sans-serif" font-size="27" x="-353.167" y="-51">Example</tspan></text><path d="M44.5001 222 95.0001 222 145.5 222 145.5 223 95.0001 223 44.5001 223Z" fill="#44546A" fill-rule="evenodd"/><text font-family="Times New Roman,Times New Roman_MSFontService,sans-serif" font-weight="700" font-size="27" transform="translate(44.5001 252)">4000 byte <tspan font-family="SimSun,SimSun_MSFontService,sans-serif" font-size="27" x="115.5" y="0">数据报</tspan><tspan font-size="27" x="0" y="32">MTU = 1500 bytes</tspan><tspan font-family="SimSun,SimSun_MSFontService,sans-serif" font-size="24" x="13.8333" y="168">其中数据域长</tspan><tspan font-family="SimSun,SimSun_MSFontService,sans-serif" font-size="24" x="13.8333" y="197">度</tspan><tspan font-family="Comic Sans MS,Comic Sans MS_MSFontService,sans-serif" font-size="24" x="37.9999" y="197">1480 bytes</tspan></text><path d="M0.149014-0.649799 1.44861-0.351771 1.15058 0.947828-0.149014 0.649799ZM2.74821-0.0537428 4.04781 0.244285 3.74978 1.54388 2.45018 1.24586ZM5.34741 0.542314 6.64701 0.840342 6.34898 2.13994 5.04938 1.84191ZM7.94661 1.13837 9.24621 1.4364 8.94818 2.736 7.64858 2.43797ZM10.5458 1.73443 11.8454 2.03245 11.5474 3.33205 10.2478 3.03403ZM13.145 2.33048 14.4446 2.62851 14.1466 3.92811 12.847 3.63008ZM15.7442 2.92654 17.0438 3.22457 16.7458 4.52417 15.4462 4.22614ZM18.3434 3.5226 19.643 3.82062 19.345 5.12022 18.0454 4.82219ZM20.9426 4.11865 22.2422 4.41668 21.9442 5.71628 20.6446 5.41825ZM23.5418 4.71471 24.8414 5.01274 24.5434 6.31234 23.2438 6.01431ZM26.141 5.31077 27.4406 5.60879 27.1426 6.90839 25.843 6.61036ZM28.7402 5.90682 30.0398 6.20485 29.7418 7.50445 28.4422 7.20642ZM31.3394 6.50288 32.639 6.80091 32.341 8.1005 31.0414 7.80248ZM33.9386 7.09894 35.2382 7.39696 34.9402 8.69656 33.6406 8.39853ZM36.5378 7.69499 37.8374 7.99302 37.5394 9.29262 36.2398 8.99459ZM39.137 8.29105 40.4366 8.58908 40.1386 9.88867 38.839 9.59065ZM41.7362 8.8871 43.0358 9.18513 42.7378 10.4847 41.4382 10.1867ZM44.3354 9.48316 45.635 9.78119 45.337 11.0808 44.0374 10.7828ZM46.9346 10.0792 48.2342 10.3772 47.9362 11.6768 46.6366 11.3788ZM49.5338 10.6753 50.8334 10.9733 50.5354 12.2729 49.2358 11.9749ZM52.133 11.2713 53.4326 11.5694 53.1346 12.869 51.835 12.5709ZM54.7322 11.8674 56.0318 12.1654 55.7337 13.465 54.4341 13.167ZM57.3314 12.4634 58.631 12.7615 58.3329 14.0611 57.0333 13.763ZM59.9306 13.0595 61.2302 13.3575 60.9321 14.6571 59.6325 14.3591ZM62.5298 13.6556 63.8294 13.9536 63.5313 15.2532 62.2317 14.9552ZM65.129 14.2516 66.4286 14.5496 66.1305 15.8492 64.8309 15.5512ZM67.7282 14.8477 69.0278 15.1457 68.7297 16.4453 67.4301 16.1473ZM70.3274 15.4437 71.627 15.7418 71.3289 17.0414 70.0293 16.7433ZM72.9266 16.0398 74.2262 16.3378 73.9281 17.6374 72.6285 17.3394ZM75.5258 16.6358 76.8254 16.9339 76.5273 18.2335 75.2277 17.9354ZM78.125 17.2319 79.4246 17.5299 79.1265 18.8295 77.8269 18.5315ZM80.7242 17.828 82.0238 18.126 81.7257 19.4256 80.4261 19.1276ZM83.3234 18.424 84.623 18.722 84.3249 20.0216 83.0253 19.7236ZM85.9226 19.0201 87.2222 19.3181 86.9241 20.6177 85.6245 20.3197ZM88.5218 19.6161 89.8214 19.9141 89.5233 21.2137 88.2237 20.9157ZM91.121 20.2122 92.4206 20.5102 92.1225 21.8098 90.8229 21.5118ZM93.7202 20.8082 95.0198 21.1063 94.7217 22.4059 93.4221 22.1078ZM96.3194 21.4043 97.619 21.7023 97.3209 23.0019 96.0213 22.7039ZM98.9186 22.0003 100.218 22.2984 99.9201 23.598 98.6205 23.2999ZM101.518 22.5964 102.817 22.8944 102.519 24.194 101.22 23.896ZM104.117 23.1925 105.417 23.4905 105.119 24.7901 103.819 24.4921ZM106.716 23.7885 108.016 24.0865 107.718 25.3861 106.418 25.0881ZM109.315 24.3846 110.615 24.6826 110.317 25.9822 109.017 25.6842ZM111.915 24.9806 113.214 25.2787 112.916 26.5783 111.617 26.2802ZM114.514 25.5767 115.813 25.8747 115.515 27.1743 114.216 26.8763ZM117.113 26.1727 118.413 26.4708 118.114 27.7704 116.815 27.4723ZM119.712 26.7688 121.012 27.0668 120.714 28.3664 119.414 28.0684ZM122.311 27.3649 123.611 27.6629 123.313 28.9625 122.013 28.6645ZM124.91 27.9609 126.21 28.2589 125.912 29.5585 124.612 29.2605ZM127.51 28.557 128.809 28.855 128.511 30.1546 127.212 29.8566ZM130.109 29.153 131.408 29.4511 131.11 30.7507 129.811 30.4526ZM132.708 29.7491 134.008 30.0471 133.71 31.3467 132.41 31.0487ZM135.307 30.3451 136.607 30.6432 136.309 31.9428 135.009 31.6447ZM137.906 30.9412 139.206 31.2392 138.908 32.5388 137.608 32.2408ZM140.506 31.5373 141.805 31.8353 141.507 33.1349 140.208 32.8368ZM143.105 32.1333 144.404 32.4313 144.106 33.7309 142.807 33.4329ZM145.704 32.7294 147.004 33.0274 146.706 34.327 145.406 34.029ZM148.303 33.3254 149.603 33.6234 149.305 34.923 148.005 34.625ZM150.902 33.9215 152.202 34.2195 151.904 35.5191 150.604 35.2211ZM153.502 34.5175 154.801 34.8156 154.503 36.1152 153.204 35.8171ZM156.101 35.1136 157.4 35.4116 157.102 36.7112 155.803 36.4132ZM158.7 35.7096 160 36.0077 159.702 37.3073 158.402 37.0092ZM161.299 36.3057 162.599 36.6037 162.301 37.9033 161.001 37.6053ZM163.898 36.9018 165.198 37.1998 164.9 38.4994 163.6 38.2014ZM166.498 37.4978 167.797 37.7958 167.499 39.0954 166.2 38.7974ZM169.097 38.0939 170.396 38.3919 170.098 39.6915 168.799 39.3935ZM171.696 38.6899 172.996 38.988 172.698 40.2876 171.398 39.9895ZM174.295 39.286 175.595 39.584 175.297 40.8836 173.997 40.5856ZM176.894 39.882 178.194 40.1801 177.896 41.4797 176.596 41.1816ZM179.494 40.4781 180.793 40.7761 180.495 42.0757 179.196 41.7777ZM182.093 41.0742 183.392 41.3722 183.094 42.6718 181.795 42.3738ZM184.692 41.6702 185.992 41.9682 185.694 43.2678 184.394 42.9698ZM187.291 42.2663 188.591 42.5643 188.293 43.8639 186.993 43.5659ZM189.89 42.8623 191.19 43.1604 190.892 44.4599 189.592 44.1619ZM192.49 43.4584 193.789 43.7564 193.491 45.056 192.192 44.758ZM195.089 44.0544 196.388 44.3525 196.09 45.6521 194.791 45.354ZM197.688 44.6505 198.988 44.9485 198.69 46.2481 197.39 45.9501ZM200.287 45.2465 201.587 45.5446 201.289 46.8442 199.989 46.5461ZM202.886 45.8426 204.186 46.1406 203.888 47.4402 202.588 47.1422ZM205.486 46.4387 206.785 46.7367 206.487 48.0363 205.188 47.7383ZM208.085 47.0347 209.384 47.3327 209.086 48.6323 207.787 48.3343ZM210.684 47.6308 211.984 47.9288 211.686 49.2284 210.386 48.9304ZM213.283 48.2268 214.583 48.5249 214.285 49.8245 212.985 49.5264ZM215.882 48.8229 217.182 49.1209 216.884 50.4205 215.584 50.1225ZM218.482 49.4189 219.781 49.717 219.483 51.0166 218.184 50.7185ZM221.081 50.015 222.38 50.313 222.082 51.6126 220.783 51.3146ZM223.68 50.6111 224.98 50.9091 224.682 52.2087 223.382 51.9107ZM226.279 51.2071 227.579 51.5051 227.281 52.8047 225.981 52.5067ZM228.878 51.8032 230.178 52.1012 229.88 53.4008 228.58 53.1028ZM231.478 52.3992 232.777 52.6973 232.479 53.9969 231.18 53.6988ZM234.077 52.9953 235.376 53.2933 235.078 54.5929 233.779 54.2949ZM236.676 53.5913 237.976 53.8894 237.678 55.189 236.378 54.8909ZM239.275 54.1874 240.575 54.4854 240.277 55.785 238.977 55.487ZM241.874 54.7835 243.174 55.0815 242.876 56.3811 241.576 56.083ZM244.474 55.3795 245.773 55.6776 245.475 56.9771 244.176 56.6791ZM247.073 55.9756 248.372 56.2736 248.074 57.5732 246.775 57.2752ZM249.672 56.5716 250.972 56.8697 250.674 58.1693 249.374 57.8712ZM252.271 57.1677 253.571 57.4657 253.273 58.7653 251.973 58.4673ZM254.87 57.7637 256.17 58.0618 255.872 59.3614 254.572 59.0633ZM257.47 58.3598 258.769 58.6578 258.471 59.9574 257.172 59.6594ZM260.069 58.9559 260.95 59.158 260.652 60.4576 259.771 60.2555ZM260.802 59.8079 259.096 55.313 266 61 257.308 63.1106Z" fill="#44546A" transform="matrix(1 0 0 -1 219.5 438.5)"/><text font-family="SimSun,SimSun_MSFontService,sans-serif" font-weight="700" font-size="24" transform="translate(202.833 507)">偏移量<tspan font-family="Comic Sans MS,Comic Sans MS_MSFontService,sans-serif" font-size="24" x="82.8333" y="0">=</tspan><tspan font-family="Comic Sans MS,Comic Sans MS_MSFontService,sans-serif" font-size="24" x="0" y="29">1480/8</tspan></text><path d="M0.0688129-0.663106 1.39502-0.52548 1.2574 0.800731-0.0688129 0.663106ZM2.72124-0.387854 4.04745-0.250229 3.90982 1.07598 2.58361 0.938357ZM5.37366-0.112603 6.69987 0.0250228 6.56224 1.35123 5.23603 1.21361ZM8.02608 0.162648 9.35229 0.300274 9.21467 1.62649 7.88846 1.48886ZM10.6785 0.4379 12.0047 0.575526 11.8671 1.90174 10.5409 1.76411ZM13.3309 0.713151 14.6571 0.850777 14.5195 2.17699 13.1933 2.03936ZM15.9834 0.988403 17.3096 1.12603 17.1719 2.45224 15.8457 2.31461ZM18.6358 1.26365 19.962 1.40128 19.8244 2.72749 18.4981 2.58987ZM21.2882 1.53891 22.6144 1.67653 22.4768 3.00274 21.1506 2.86512ZM23.9406 1.81416 25.2668 1.95178 25.1292 3.27799 23.803 3.14037ZM26.593 2.08941 27.9193 2.22703 27.7816 3.55325 26.4554 3.41562ZM29.2455 2.36466 30.5717 2.50229 30.4341 3.8285 29.1078 3.69087ZM31.8979 2.63991 33.2241 2.77754 33.0865 4.10375 31.7603 3.96612ZM34.5503 2.91516 35.8765 3.05279 35.7389 4.379 34.4127 4.24137ZM37.2027 3.19041 38.5289 3.32804 38.3913 4.65425 37.0651 4.51663ZM39.8551 3.46567 41.1814 3.60329 41.0437 4.9295 39.7175 4.79188ZM42.5076 3.74092 43.8338 3.87854 43.6962 5.20476 42.3699 5.06713ZM45.16 4.01617 46.4862 4.1538 46.3486 5.48001 45.0224 5.34238ZM47.8124 4.29142 49.1386 4.42905 49.001 5.75526 47.6748 5.61763ZM50.4648 4.56667 51.791 4.7043 51.6534 6.03051 50.3272 5.89288ZM53.1173 4.84193 54.4435 4.97955 54.3058 6.30576 52.9796 6.16814ZM55.7697 5.11718 57.0959 5.2548 56.9583 6.58101 55.6321 6.44339ZM58.4221 5.39243 59.7483 5.53005 59.6107 6.85627 58.2845 6.71864ZM61.0745 5.66768 62.4007 5.80531 62.2631 7.13152 60.9369 6.99389ZM63.727 5.94293 65.0532 6.08056 64.9156 7.40677 63.5893 7.26914ZM66.3794 6.21818 67.7056 6.35581 67.568 7.68202 66.2418 7.5444ZM69.0318 6.49343 70.358 6.63106 70.2204 7.95727 68.8942 7.81965ZM71.6842 6.76869 73.0105 6.90631 72.8728 8.23252 71.5466 8.0949ZM74.3367 7.04394 75.6629 7.18156 75.5253 8.50777 74.199 8.37015ZM76.9891 7.31919 78.3153 7.45681 78.1777 8.78302 76.8515 8.6454ZM79.6415 7.59444 80.9677 7.73206 80.8301 9.05828 79.5039 8.92065ZM82.294 7.86969 83.6202 8.00731 83.4825 9.33353 82.1563 9.1959ZM84.9464 8.14494 86.2726 8.28257 86.135 9.60878 84.8088 9.47115ZM87.5988 8.42019 88.925 8.55782 88.7874 9.88403 87.4612 9.7464ZM90.2512 8.69544 91.5775 8.83307 91.4398 10.1593 90.1136 10.0217ZM92.9037 8.97069 94.2299 9.10832 94.0923 10.4345 92.766 10.2969ZM95.5561 9.24594 96.8823 9.38357 96.7447 10.7098 95.4185 10.5722ZM98.2085 9.52119 99.5347 9.65882 99.3971 10.985 98.0709 10.8474ZM100.861 9.79645 102.187 9.93407 102.05 11.2603 100.723 11.1227ZM103.513 10.0717 104.84 10.2093 104.702 11.5355 103.376 11.3979ZM106.166 10.3469 107.492 10.4846 107.354 11.8108 106.028 11.6732ZM108.818 10.6222 110.144 10.7598 110.007 12.086 108.681 11.9484ZM111.471 10.8974 112.797 11.0351 112.659 12.3613 111.333 12.2237ZM114.123 11.1727 115.449 11.3103 115.312 12.6365 113.985 12.4989ZM116.775 11.448 118.102 11.5856 117.964 12.9118 116.638 12.7742ZM119.428 11.7232 120.754 11.8608 120.616 13.187 119.29 13.0494ZM122.08 11.9985 123.407 12.1361 123.269 13.4623 121.943 13.3247ZM124.733 12.2737 126.059 12.4113 125.921 13.7375 124.595 13.5999ZM127.385 12.549 128.711 12.6866 128.574 14.0128 127.248 13.8752ZM130.038 12.8242 131.364 12.9618 131.226 14.288 129.9 14.1504ZM132.69 13.0995 134.016 13.2371 133.879 14.5633 132.552 14.4257ZM135.342 13.3747 136.669 13.5123 136.531 14.8385 135.205 14.7009ZM137.995 13.65 139.321 13.7876 139.183 15.1138 137.857 14.9762ZM140.647 13.9252 141.973 14.0628 141.836 15.3891 140.51 15.2514ZM143.3 14.2005 144.626 14.3381 144.488 15.6643 143.162 15.5267ZM145.952 14.4757 147.278 14.6133 147.141 15.9396 145.814 15.8019ZM148.604 14.751 149.931 14.8886 149.793 16.2148 148.467 16.0772ZM151.257 15.0262 152.583 15.1639 152.445 16.4901 151.119 16.3524ZM153.909 15.3015 155.236 15.4391 155.098 16.7653 153.772 16.6277ZM156.562 15.5767 157.888 15.7144 157.75 17.0406 156.424 16.9029ZM159.214 15.852 160.54 15.9896 160.403 17.3158 159.076 17.1782ZM161.867 16.1272 163.193 16.2649 163.055 17.5911 161.729 17.4534ZM164.519 16.4025 165.845 16.5401 165.708 17.8663 164.381 17.7287ZM167.171 16.6777 168.498 16.8154 168.36 18.1416 167.034 18.004ZM169.824 16.953 171.15 17.0906 171.012 18.4168 169.686 18.2792ZM172.476 17.2282 173.802 17.3659 173.665 18.6921 172.339 18.5545ZM175.129 17.5035 176.455 17.6411 176.317 18.9673 174.991 18.8297ZM177.781 17.7788 179.107 17.9164 178.97 19.2426 177.643 19.105ZM180.433 18.054 181.76 18.1916 181.622 19.5178 180.296 19.3802ZM183.086 18.3293 184.412 18.4669 184.274 19.7931 182.948 19.6555ZM185.738 18.6045 187.064 18.7421 186.927 20.0683 185.601 19.9307ZM188.391 18.8798 189.717 19.0174 189.579 20.3436 188.253 20.206ZM191.043 19.155 192.369 19.2926 192.232 20.6189 190.905 20.4812ZM193.696 19.4303 195.022 19.5679 194.884 20.8941 193.558 20.7565ZM196.348 19.7055 197.674 19.8431 197.536 21.1694 196.21 21.0317ZM199 19.9808 200.327 20.1184 200.189 21.4446 198.863 21.307ZM201.653 20.256 202.979 20.3937 202.841 21.7199 201.515 21.5822ZM204.305 20.5313 205.631 20.6689 205.494 21.9951 204.168 21.8575ZM206.958 20.8065 208.284 20.9442 208.146 22.2704 206.82 22.1327ZM209.61 21.0818 210.936 21.2194 210.799 22.5456 209.472 22.408ZM212.262 21.357 213.589 21.4947 213.451 22.8209 212.125 22.6832ZM214.915 21.6323 216.241 21.7699 216.103 23.0961 214.777 22.9585ZM217.567 21.9075 218.893 22.0452 218.756 23.3714 217.43 23.2338ZM220.22 22.1828 221.546 22.3204 221.408 23.6466 220.082 23.509ZM222.872 22.458 224.198 22.5957 224.061 23.9219 222.734 23.7843ZM225.525 22.7333 226.851 22.8709 226.713 24.1971 225.387 24.0595ZM228.177 23.0086 229.503 23.1462 229.366 24.4724 228.039 24.3348ZM230.829 23.2838 232.156 23.4214 232.018 24.7476 230.692 24.61ZM233.482 23.5591 234.808 23.6967 234.67 25.0229 233.344 24.8853ZM236.134 23.8343 237.461 23.9719 237.323 25.2981 235.997 25.1605ZM238.787 24.1096 240.113 24.2472 239.975 25.5734 238.649 25.4358ZM241.439 24.3848 242.765 24.5224 242.628 25.8486 241.302 25.711ZM244.092 24.6601 245.418 24.7977 245.28 26.1239 243.954 25.9863ZM246.744 24.9353 248.07 25.0729 247.933 26.3991 246.606 26.2615ZM249.396 25.2106 250.723 25.3482 250.585 26.6744 249.259 26.5368ZM252.049 25.4858 253.375 25.6234 253.238 26.9496 251.911 26.812ZM254.701 25.7611 256.028 25.8987 255.89 27.2249 254.564 27.0873ZM257.354 26.0363 258.68 26.1739 258.542 27.5001 257.216 27.3625ZM260.006 26.3116 261.332 26.4492 261.195 27.7754 259.869 27.6378ZM262.659 26.5868 263.985 26.7244 263.847 28.0507 262.521 27.913ZM265.311 26.8621 266.637 26.9997 266.5 28.3259 265.174 28.1883ZM267.964 27.1373 269.29 27.2749 269.152 28.6012 267.826 28.4635ZM270.616 27.4126 271.942 27.5502 271.805 28.8764 270.478 28.7388ZM273.268 27.6878 274.595 27.8254 274.457 29.1516 273.131 29.014ZM275.921 27.9631 277.247 28.1007 277.109 29.4269 275.783 29.2893ZM278.573 28.2383 279.9 28.3759 279.762 29.7021 278.436 29.5645ZM281.226 28.5136 282.552 28.6512 282.414 29.9774 281.088 29.8398ZM283.878 28.7888 285.204 28.9264 285.067 30.2526 283.741 30.115ZM286.531 29.0641 287.857 29.2017 287.719 30.5279 286.393 30.3903ZM289.183 29.3393 290.509 29.4769 290.372 30.8031 289.045 30.6655ZM291.836 29.6146 293.162 29.7522 293.024 31.0784 291.698 30.9408ZM294.488 29.8898 295.814 30.0274 295.677 31.3536 294.35 31.216ZM297.14 30.1651 298.467 30.3027 298.329 31.6289 297.003 31.4913ZM299.793 30.4403 301.119 30.5779 300.981 31.9041 299.655 31.7665ZM302.445 30.7156 303.772 30.8532 303.634 32.1794 302.308 32.0418ZM305.098 30.9908 306.424 31.1284 306.286 32.4546 304.96 32.317ZM307.75 31.2661 309.076 31.4037 308.939 32.7299 307.613 32.5923ZM310.403 31.5413 311.729 31.6789 311.591 33.0051 310.265 32.8675ZM313.055 31.8166 314.381 31.9542 314.244 33.2804 312.917 33.1428ZM315.707 32.0918 317.034 32.2294 316.896 33.5556 315.57 33.418ZM318.36 32.3671 319.686 32.5047 319.548 33.8309 318.222 33.6933ZM321.012 32.6423 322.339 32.7799 322.201 34.1061 320.875 33.9685ZM323.665 32.9175 324.991 33.0552 324.853 34.3814 323.527 34.2438ZM326.317 33.1928 327.643 33.3304 327.506 34.6566 326.18 34.519ZM328.97 33.468 330.296 33.6057 330.158 34.9319 328.832 34.7943ZM331.622 33.7433 332.948 33.8809 332.811 35.2071 331.484 35.0695ZM334.274 34.0185 335.601 34.1562 335.463 35.4824 334.137 35.3448ZM336.927 34.2938 338.253 34.4314 338.115 35.7576 336.789 35.62ZM339.579 34.569 340.905 34.7067 340.768 36.0329 339.442 35.8953ZM342.232 34.8443 343.558 34.9819 343.42 36.3081 342.094 36.1705ZM344.884 35.1195 346.21 35.2572 346.073 36.5834 344.746 36.4458ZM347.536 35.3948 348.863 35.5324 348.725 36.8586 347.399 36.721ZM350.189 35.6701 351.515 35.8077 351.377 37.1339 350.051 36.9963ZM352.841 35.9453 354.167 36.0829 354.03 37.4091 352.704 37.2715ZM355.494 36.2206 356.82 36.3582 356.682 37.6844 355.356 37.5468ZM358.146 36.4958 359.472 36.6334 359.335 37.9596 358.008 37.822ZM360.799 36.7711 362.125 36.9087 361.987 38.2349 360.661 38.0973ZM363.451 37.0463 364.777 37.1839 364.64 38.5102 363.313 38.3725ZM366.103 37.3216 367.43 37.4592 367.292 38.7854 365.966 38.6478ZM368.756 37.5968 370.082 37.7344 369.944 39.0607 368.618 38.923ZM371.408 37.8721 372.734 38.0097 372.597 39.3359 371.271 39.1983ZM374.061 38.1473 375.387 38.285 375.249 39.6112 373.923 39.4735ZM376.713 38.4226 378.039 38.5602 377.902 39.8864 376.575 39.7488ZM379.365 38.6978 380.692 38.8355 380.554 40.1617 379.228 40.024ZM382.018 38.9731 383.344 39.1107 383.206 40.4369 381.88 40.2993ZM384.67 39.2483 385.996 39.386 385.859 40.7122 384.533 40.5746ZM387.323 39.5236 388.649 39.6612 388.511 40.9874 387.185 40.8498ZM389.975 39.7988 391.301 39.9365 391.164 41.2627 389.837 41.1251ZM392.628 40.0741 393.954 40.2117 393.816 41.5379 392.49 41.4003ZM395.28 40.3493 396.606 40.487 396.469 41.8132 395.142 41.6756ZM397.932 40.6246 399.259 40.7622 399.121 42.0884 397.795 41.9508ZM400.585 40.8999 401.911 41.0375 401.773 42.3637 400.447 42.2261ZM403.237 41.1751 404.563 41.3127 404.426 42.6389 403.1 42.5013ZM405.89 41.4504 407.216 41.588 407.078 42.9142 405.752 42.7766ZM408.542 41.7256 409.868 41.8632 409.731 43.1894 408.404 43.0518ZM411.194 42.0009 412.521 42.1385 412.383 43.4647 411.057 43.3271ZM413.847 42.2761 415.173 42.4137 415.035 43.74 413.709 43.6023ZM416.499 42.5514 417.825 42.689 417.688 44.0152 416.362 43.8776ZM418.695 43.4495 416.456 39.1956 424 44 415.63 47.1529Z" fill="#44546A" transform="matrix(1 0 0 -1 301.5 510.5)"/></g></svg>