<svg width="1280" height="720" xmlns="http://www.w3.org/2000/svg" xmlns:xlink="http://www.w3.org/1999/xlink" overflow="hidden"><defs><clipPath id="clip0"><rect x="0" y="0" width="1280" height="720"/></clipPath></defs><g clip-path="url(#clip0)"><rect x="0" y="0" width="1280" height="720" fill="#FFFFFF"/><text font-family="SimSun,SimSun_MSFontService,sans-serif" font-weight="700" font-size="43" transform="translate(191.026 67)">LS算法和DV算法的比较<tspan fill="#44546A" font-size="29" x="7.0737" y="55">报文复杂性</tspan><tspan fill="#44546A" font-family="Arial,Arial_MSFontService,sans-serif" font-weight="400" font-size="29" x="7.0737" y="104">•</tspan><tspan fill="#44546A" font-size="29" x="31.0737" y="104">LS:</tspan><tspan font-size="29" x="90.407" y="104">具有</tspan><tspan font-size="29" x="149.407" y="104">n</tspan><tspan font-size="29" x="164.24" y="104">个节点，</tspan><tspan font-size="29" x="282.24" y="104">E</tspan><tspan font-size="29" x="297.074" y="104">个链路</tspan></text><path d="M222.1 173.467 267.1 173.467 267.1 174.467 222.1 174.467Z" fill="#44546A" fill-rule="evenodd"/><text font-family="SimSun,SimSun_MSFontService,sans-serif" font-weight="700" font-size="29" transform="translate(222.1 206)">情况, <tspan font-size="29" x="88.6667" y="0">每次发送</tspan>O(<tspan font-size="29" x="236.333" y="0">nE</tspan>) <tspan font-size="29" x="295.667" y="0">个报</tspan><tspan font-size="29" x="0" y="35">文</tspan><tspan fill="#44546A" font-family="Arial,Arial_MSFontService,sans-serif" font-weight="400" font-size="29" x="-24" y="84">•</tspan><tspan fill="#44546A" font-size="29" x="0" y="84">DV:</tspan><tspan font-size="29" x="59.3333" y="84">只是在邻居间交换信息</tspan></text><path d="M222.1 292.467 267.1 292.467 267.1 293.467 222.1 293.467Z" fill="#44546A" fill-rule="evenodd"/><path d="M267.1 292.467 281.1 292.467 281.1 293.467 267.1 293.467Z" fill="#FF0000" fill-rule="evenodd"/><text font-family="Arial,Arial_MSFontService,sans-serif" font-weight="400" font-size="29" transform="translate(244.767 332)">•<tspan font-family="SimSun,SimSun_MSFontService,sans-serif" font-weight="700" font-size="29" x="28.5333" y="0">收敛时间是变化的</tspan><tspan fill="#44546A" font-family="SimSun,SimSun_MSFontService,sans-serif" font-weight="700" font-size="29" x="-46.6667" y="52">收敛速度</tspan><tspan fill="#44546A" font-size="29" x="-46.6667" y="101">•</tspan><tspan fill="#44546A" font-family="SimSun,SimSun_MSFontService,sans-serif" font-weight="700" font-size="29" x="-22.6667" y="101">LS:</tspan><tspan font-family="SimSun,SimSun_MSFontService,sans-serif" font-weight="700" font-size="29" x="36.6667" y="101">O(n</tspan><tspan font-family="SimSun,SimSun_MSFontService,sans-serif" font-weight="700" font-size="20" x="81.1667" y="92">2</tspan><tspan font-family="SimSun,SimSun_MSFontService,sans-serif" font-weight="700" font-size="29" x="91" y="101">) </tspan><tspan font-family="SimSun,SimSun_MSFontService,sans-serif" font-weight="700" font-size="29" x="120.667" y="101">算法要求</tspan><tspan font-family="SimSun,SimSun_MSFontService,sans-serif" font-weight="700" font-size="29" x="253.5" y="101">发送</tspan></text><path d="M222.1 435.467 267.1 435.467 267.1 436.467 222.1 436.467Z" fill="#44546A" fill-rule="evenodd"/><text font-family="SimSun,SimSun_MSFontService,sans-serif" font-weight="700" font-size="29" transform="translate(222.1 468)">O(<tspan font-size="29" x="29.6667" y="0">nE</tspan><tspan font-size="29" x="59.3333" y="0">) </tspan><tspan font-size="29" x="89" y="0">个消息</tspan><tspan font-family="Arial,Arial_MSFontService,sans-serif" font-weight="400" font-size="29" x="22.6667" y="42">•</tspan><tspan font-size="29" x="51.2" y="42">可能导致振荡</tspan><tspan fill="#44546A" font-family="Arial,Arial_MSFontService,sans-serif" font-weight="400" font-size="29" x="-24" y="91">•</tspan><tspan fill="#44546A" font-size="29" x="0" y="91">DV</tspan><tspan fill="#44546A" font-size="29" x="29.6667" y="91">:</tspan><tspan font-size="29" x="59.3333" y="91">收敛时间变化</tspan></text><path d="M222.1 561.467 252.1 561.467 252.1 562.467 222.1 562.467Z" fill="#44546A" fill-rule="evenodd"/><text font-family="Arial,Arial_MSFontService,sans-serif" font-weight="400" font-size="29" transform="translate(244.767 600)">•<tspan font-family="SimSun,SimSun_MSFontService,sans-serif" font-weight="700" font-size="29" x="28.5333" y="0">可能产生循环路由</tspan><tspan font-size="29" x="0" y="42">•</tspan><tspan font-family="SimSun,SimSun_MSFontService,sans-serif" font-weight="700" font-size="29" x="28.5333" y="42">计数到无限的问题</tspan><tspan fill="#44546A" font-family="SimSun,SimSun_MSFontService,sans-serif" font-weight="700" font-size="29" x="411.833" y="-476">健壮性</tspan><tspan fill="#44546A" font-family="SimSun,SimSun_MSFontService,sans-serif" font-weight="700" font-size="29" x="500.333" y="-476">:</tspan><tspan font-family="SimSun,SimSun_MSFontService,sans-serif" font-weight="700" font-size="29" x="530" y="-476">如果路由器出故障会怎</tspan><tspan font-family="SimSun,SimSun_MSFontService,sans-serif" font-weight="700" font-size="29" x="435.833" y="-434">么样</tspan><tspan font-family="SimSun,SimSun_MSFontService,sans-serif" font-weight="700" font-size="29" x="494.833" y="-434">?</tspan><tspan fill="#44546A" font-family="SimSun,SimSun_MSFontService,sans-serif" font-weight="700" font-size="29" x="411.833" y="-379">LS:</tspan></text><path d="M656.6 223.467 701.6 223.467 701.6 224.467 656.6 224.467Z" fill="#44546A" fill-rule="evenodd"/><text fill="#1F1F20" font-family="Arial,Arial_MSFontService,sans-serif" font-weight="400" font-size="29" transform="translate(704.933 265)">•<tspan fill="#000000" font-family="SimSun,SimSun_MSFontService,sans-serif" font-weight="700" font-size="29" x="26.8667" y="0">节点会广告错误的链路开</tspan><tspan fill="#000000" font-family="SimSun,SimSun_MSFontService,sans-serif" font-weight="700" font-size="29" x="26.8667" y="32">销</tspan><tspan font-size="29" x="0" y="70">•</tspan><tspan fill="#000000" font-family="SimSun,SimSun_MSFontService,sans-serif" font-weight="700" font-size="29" x="26.8667" y="70">每个节点只计算自己的转</tspan><tspan fill="#000000" font-family="SimSun,SimSun_MSFontService,sans-serif" font-weight="700" font-size="29" x="26.8667" y="102">发表</tspan><tspan fill="#44546A" font-family="SimSun,SimSun_MSFontService,sans-serif" font-weight="700" font-size="27" x="0" y="138">(</tspan><tspan fill="#44546A" font-family="SimSun,SimSun_MSFontService,sans-serif" font-weight="700" font-size="27" x="13.5" y="138">提供了一定程度的健壮性</tspan><tspan fill="#44546A" font-family="SimSun,SimSun_MSFontService,sans-serif" font-weight="700" font-size="27" x="308.667" y="138">)</tspan><tspan fill="#44546A" font-family="SimSun,SimSun_MSFontService,sans-serif" font-weight="700" font-size="29" x="-48.3333" y="188">DV:</tspan></text><path d="M656.6 455.467 701.6 455.467 701.6 456.467 656.6 456.467Z" fill="#44546A" fill-rule="evenodd"/><text fill="#1F1F20" font-family="Arial,Arial_MSFontService,sans-serif" font-weight="400" font-size="27" transform="translate(704.933 494)">•<tspan fill="#000000" font-family="SimSun,SimSun_MSFontService,sans-serif" font-weight="700" font-size="27" x="26.8667" y="0">DV</tspan><tspan fill="#000000" font-family="SimSun,SimSun_MSFontService,sans-serif" font-weight="700" font-size="27" x="53.8667" y="0">节点会通告错误的路径开销</tspan><tspan font-size="27" x="0" y="36">•</tspan><tspan fill="#000000" font-family="SimSun,SimSun_MSFontService,sans-serif" font-weight="700" font-size="27" x="26.8667" y="36">每个节点的转发表可被其他节</tspan><tspan fill="#000000" font-family="SimSun,SimSun_MSFontService,sans-serif" font-weight="700" font-size="27" x="26.8667" y="64">点使用</tspan><tspan fill="#44546A" font-size="27" x="47.6667" y="93">•</tspan><tspan fill="#44546A" font-family="SimSun,SimSun_MSFontService,sans-serif" font-weight="700" font-size="27" x="71.6667" y="93">错误会扩散到整个网络</tspan><tspan fill="#919293" font-family="Times New Roman,Times New Roman_MSFontService,sans-serif" font-size="16" x="461.333" y="198">23</tspan></text></g></svg>