<svg width="960" height="720" xmlns="http://www.w3.org/2000/svg" xmlns:xlink="http://www.w3.org/1999/xlink" overflow="hidden"><defs><clipPath id="clip0"><rect x="0" y="0" width="960" height="720"/></clipPath></defs><g clip-path="url(#clip0)"><rect x="0" y="0" width="960" height="720" fill="#FFFFFF"/><text font-family="SimSun,SimSun_MSFontService,sans-serif" font-weight="700" font-size="43" transform="translate(119.267 88)">输出端口<tspan fill="#44546A" font-family="Arial,Arial_MSFontService,sans-serif" font-weight="400" font-size="28" x="-19.8333" y="353">•</tspan><tspan fill="#44546A" font-style="oblique" font-size="28" x="-1.83328" y="353">缓存：</tspan><tspan font-size="28" x="82.6667" y="353">当分组从交换结构到达的速率快于输出链路速</tspan><tspan font-size="28" x="22.6667" y="391">率时</tspan><tspan font-size="28" x="79.0001" y="391">,</tspan><tspan font-size="28" x="93.1667" y="391">需要缓存</tspan><tspan fill="#44546A" font-family="Arial,Arial_MSFontService,sans-serif" font-weight="400" font-size="28" x="-19.8333" y="466">•</tspan><tspan fill="#44546A" font-style="oblique" font-size="28" x="-1.83328" y="466">调度原则</tspan><tspan font-size="28" x="110.833" y="466">：</tspan><tspan font-size="28" x="139" y="466">在等待传输的排队分组中进行选择</tspan><tspan fill="#919293" font-family="Times New Roman,Times New Roman_MSFontService,sans-serif" font-weight="400" font-size="12" x="753" y="603">20</tspan></text><rect x="225" y="163" width="480" height="193" stroke="#5F5F5F" stroke-width="2" stroke-miterlimit="8" fill="#FFFFFF"/><rect x="532.5" y="211.5" width="149" height="87" stroke="#006600" stroke-width="3" stroke-miterlimit="8" fill="#FFFFFF"/><text font-family="Tahoma,Tahoma_MSFontService,sans-serif" font-weight="400" font-size="21" transform="translate(590.027 250)">line<tspan font-size="21" x="-37.3267" y="26">termination</tspan></text><rect x="394.5" y="183.5" width="121" height="148" stroke="#ED7D31" stroke-width="3" stroke-miterlimit="8" fill="#FFFFFF"/><path d="M376.575 257.002 389.084 257.627 388.935 260.624 376.425 259.998ZM387.736 254.556 396.5 259.5 387.287 263.545Z"/><path d="M516.575 253.002 529.084 253.627 528.935 256.624 516.425 255.998ZM527.736 250.556 536.5 255.5 527.287 259.545Z"/><path d="M0.0192292-1.49988 70.5198-0.596023 70.4813 2.40373-0.0192292 1.49988ZM69.0584-3.61501 78 1 68.943 5.38425Z" transform="matrix(1 0 0 -1 679.5 259.5)"/><rect x="398" y="215" width="111" height="87" fill="#FFFFFF"/><text font-family="Tahoma,Tahoma_MSFontService,sans-serif" font-weight="400" font-size="21" transform="translate(433.906 231)">link <tspan font-size="21" x="-6.5" y="23">layer </tspan><tspan font-size="21" x="-18.6867" y="46">protocol</tspan><tspan font-size="21" x="-10.9067" y="69">(send)</tspan></text><rect x="241.5" y="177.5" width="131" height="158" stroke="#FF0000" stroke-width="3" stroke-miterlimit="8" fill="#FFFFFF"/><text font-family="Arial,Arial_MSFontService,sans-serif" font-weight="400" font-size="21" transform="translate(264.951 204)">datagram<tspan font-size="21" x="17.9467" y="25">buffer</tspan><tspan font-size="21" x="1.33331" y="102">queueing</tspan></text><rect x="254" y="242" width="105" height="49" stroke="#FFFFFF" stroke-width="4" stroke-miterlimit="8" fill="#FF0000"/><path d="M268 243 269 290" stroke="#FFFFFF" stroke-width="4" stroke-linejoin="round" stroke-miterlimit="10" fill="none" fill-rule="evenodd"/><path d="M279 244 280 290" stroke="#FFFFFF" stroke-width="4" stroke-linejoin="round" stroke-miterlimit="10" fill="none" fill-rule="evenodd"/><path d="M291 243 292 290" stroke="#FFFFFF" stroke-width="4" stroke-linejoin="round" stroke-miterlimit="10" fill="none" fill-rule="evenodd"/><path d="M302 243 303 290" stroke="#FFFFFF" stroke-width="4" stroke-linejoin="round" stroke-miterlimit="10" fill="none" fill-rule="evenodd"/><path d="M313 243 314 290" stroke="#FFFFFF" stroke-width="4" stroke-linejoin="round" stroke-miterlimit="10" fill="none" fill-rule="evenodd"/><path d="M324 243 325 290" stroke="#FFFFFF" stroke-width="4" stroke-linejoin="round" stroke-miterlimit="10" fill="none" fill-rule="evenodd"/><path d="M336 243 337 290" stroke="#FFFFFF" stroke-width="4" stroke-linejoin="round" stroke-miterlimit="10" fill="none" fill-rule="evenodd"/><path d="M347 244 348 290" stroke="#FFFFFF" stroke-width="4" stroke-linejoin="round" stroke-miterlimit="10" fill="none" fill-rule="evenodd"/><path d="M158.5 149.5 159.5 379.5" stroke="#000000" stroke-width="3" stroke-linejoin="round" stroke-miterlimit="10" fill="none" fill-rule="evenodd"/><path d="M1.60694e-06-1.5 90.5001-1.4999 90.5001 1.5001-1.60694e-06 1.5ZM89-4.4999 98 0.000104987 89 4.50009Z" transform="matrix(1 0 0 -1 157.5 263.5)"/></g></svg>