<svg width="1280" height="720" xmlns="http://www.w3.org/2000/svg" xmlns:xlink="http://www.w3.org/1999/xlink" overflow="hidden"><defs><clipPath id="clip0"><rect x="0" y="0" width="1280" height="720"/></clipPath><clipPath id="clip1"><rect x="220" y="133" width="536" height="203"/></clipPath><clipPath id="clip2"><rect x="755" y="133" width="250" height="203"/></clipPath><clipPath id="clip3"><rect x="221" y="216" width="536" height="203"/></clipPath><clipPath id="clip4"><rect x="756" y="130" width="126" height="404"/></clipPath><clipPath id="clip5"><rect x="756" y="130" width="126" height="404"/></clipPath><clipPath id="clip6"><rect x="881" y="130" width="125" height="404"/></clipPath><clipPath id="clip7"><rect x="881" y="130" width="125" height="404"/></clipPath></defs><g clip-path="url(#clip0)"><rect x="0" y="0" width="1280" height="720" fill="#FFFFFF"/><text font-family="DengXian Light,DengXian Light_MSFontService,sans-serif" font-weight="700" font-size="43" transform="translate(230.933 77)">涉及计算<tspan font-size="43" x="170.667" y="0">-</tspan><tspan font-size="43" x="192" y="0">CIDR</tspan><tspan font-size="43" x="280.667" y="0">地址分配</tspan></text><path d="M220 215.5 755.132 215.5 755.132 267.5 220 267.5Z" fill="#C00000" fill-rule="evenodd"/><path d="M755.132 215.5 1004.33 215.5 1004.33 267.5 755.132 267.5Z" fill="#C00000" fill-rule="evenodd"/><path d="M755.132 214.833 755.132 269.5" stroke="#FFFFFF" stroke-width="1.33333" stroke-linejoin="round" stroke-miterlimit="10" fill="none" fill-rule="evenodd"/><path d="M220 214.833 220 269.5" stroke="#FFFFFF" stroke-width="1.33333" stroke-linejoin="round" stroke-miterlimit="10" fill="none" fill-rule="evenodd"/><path d="M1004.33 214.833 1004.33 269.5" stroke="#FFFFFF" stroke-width="1.33333" stroke-linejoin="round" stroke-miterlimit="10" fill="none" fill-rule="evenodd"/><path d="M219.333 215.5 1005 215.5" stroke="#FFFFFF" stroke-width="1.33333" stroke-linejoin="round" stroke-miterlimit="10" fill="none" fill-rule="evenodd"/><path d="M219.333 267.5 1005 267.5" stroke="#FFFFFF" stroke-width="4" stroke-linejoin="round" stroke-miterlimit="10" fill="none" fill-rule="evenodd"/><g clip-path="url(#clip1)"><text fill="#FFFFFF" font-family="DengXian,DengXian_MSFontService,sans-serif" font-weight="700" font-size="24" transform="translate(229.599 242)">网络部分（高</text></g><text fill="#FFFFFF" font-family="DengXian,DengXian_MSFontService,sans-serif" font-weight="700" font-size="24" transform="translate(373.599 242)">x比特）</text><g clip-path="url(#clip2)"><text fill="#FFFFFF" font-family="DengXian,DengXian_MSFontService,sans-serif" font-weight="700" font-size="24" transform="translate(764.731 242)">主机号（</text></g><text fill="#FFFFFF" font-family="DengXian,DengXian_MSFontService,sans-serif" font-weight="700" font-size="24" transform="translate(860.731 242)">32<tspan font-size="24" x="26.6666" y="0">-</tspan>x）</text><path d="M221.333 298.167 756.465 298.167 756.465 365.358 221.333 365.358Z" fill="#C00000" fill-rule="evenodd"/><path d="M756.465 298.167 881.066 298.167 881.066 365.358 756.465 365.358Z" fill="#C00000" fill-rule="evenodd"/><path d="M881.066 298.167 1005.67 298.167 1005.67 365.358 881.066 365.358Z" fill="#C00000" fill-rule="evenodd"/><path d="M756.465 297.5 756.465 367.358" stroke="#FFFFFF" stroke-width="1.33333" stroke-linejoin="round" stroke-miterlimit="10" fill="none" fill-rule="evenodd"/><path d="M881.066 297.5 881.066 367.358" stroke="#FFFFFF" stroke-width="1.33333" stroke-linejoin="round" stroke-miterlimit="10" fill="none" fill-rule="evenodd"/><path d="M221.333 297.5 221.333 367.358" stroke="#FFFFFF" stroke-width="1.33333" stroke-linejoin="round" stroke-miterlimit="10" fill="none" fill-rule="evenodd"/><path d="M1005.67 297.5 1005.67 367.358" stroke="#FFFFFF" stroke-width="1.33333" stroke-linejoin="round" stroke-miterlimit="10" fill="none" fill-rule="evenodd"/><path d="M220.667 298.167 1006.33 298.167" stroke="#FFFFFF" stroke-width="1.33333" stroke-linejoin="round" stroke-miterlimit="10" fill="none" fill-rule="evenodd"/><path d="M220.667 365.358 1006.33 365.358" stroke="#FFFFFF" stroke-width="4" stroke-linejoin="round" stroke-miterlimit="10" fill="none" fill-rule="evenodd"/><g clip-path="url(#clip3)"><text fill="#FFFFFF" font-family="DengXian,DengXian_MSFontService,sans-serif" font-weight="700" font-size="24" transform="translate(230.932 325)">网络部分（高</text></g><text fill="#FFFFFF" font-family="DengXian,DengXian_MSFontService,sans-serif" font-weight="700" font-size="24" transform="translate(374.932 325)">x比特）</text><g clip-path="url(#clip4)"><text fill="#FFFFFF" font-family="DengXian,DengXian_MSFontService,sans-serif" font-weight="700" font-size="24" transform="translate(766.064 325)">借用</text></g><text fill="#FFFFFF" font-family="DengXian,DengXian_MSFontService,sans-serif" font-weight="700" font-size="24" transform="translate(814.064 325)">y<tspan font-size="24" x="12.1667" y="0">比</tspan></text><g clip-path="url(#clip5)"><text fill="#FFFFFF" font-family="DengXian,DengXian_MSFontService,sans-serif" font-weight="700" font-size="24" transform="translate(766.064 354)">特主机号</text></g><g clip-path="url(#clip6)"><text fill="#FFFFFF" font-family="DengXian,DengXian_MSFontService,sans-serif" font-weight="700" font-size="24" transform="translate(890.665 325)">主机号</text></g><g clip-path="url(#clip7)"><text fill="#FFFFFF" font-family="DengXian,DengXian_MSFontService,sans-serif" font-weight="700" font-size="24" transform="translate(890.665 354)">(32</text></g><text fill="#FFFFFF" font-family="DengXian,DengXian_MSFontService,sans-serif" font-weight="700" font-size="24" transform="translate(925.332 354)">-x-y)<tspan fill="#5B9BD5" font-weight="400" font-size="43" x="-716.498" y="-177">•</tspan><tspan fill="#000000" font-weight="400" font-size="43" x="-680.498" y="-177">给出</tspan><tspan fill="#000000" font-weight="400" font-size="43" x="-595.165" y="-177">a.b.c.d</tspan><tspan fill="#000000" font-weight="400" font-size="43" x="-477.498" y="-177">/x</tspan><tspan fill="#000000" font-weight="400" font-size="43" x="-442.498" y="-177">的地址块，等分成若干子网</tspan><tspan fill="#5B9BD5" font-weight="400" font-size="32" x="-716.498" y="56">•</tspan><tspan fill="#000000" font-weight="400" font-size="32" x="-680.498" y="56">借用</tspan><tspan fill="#000000" font-weight="400" font-size="32" x="-616.498" y="56">y</tspan><tspan fill="#000000" font-weight="400" font-size="32" x="-601.498" y="56">比特主机号，原地址块可划分为</tspan><tspan fill="#000000" font-weight="400" font-size="32" x="-153.498" y="56">2</tspan><tspan fill="#000000" font-weight="400" font-size="21" x="-136.665" y="46">y</tspan><tspan fill="#000000" font-weight="400" font-size="32" x="-126.665" y="56">个包含</tspan><tspan fill="#000000" font-weight="400" font-size="32" x="-30.6648" y="56">2</tspan><tspan fill="#000000" font-weight="400" font-size="21" x="-13.8315" y="46">(32</tspan><tspan fill="#000000" font-weight="400" font-size="21" x="14.6685" y="46">-</tspan><tspan fill="#000000" font-weight="400" font-size="21" x="25.3352" y="46">x</tspan><tspan fill="#000000" font-weight="400" font-size="21" x="34.6685" y="46">-</tspan><tspan fill="#000000" font-weight="400" font-size="21" x="45.3352" y="46">y)</tspan><tspan fill="#000000" font-weight="400" font-size="32" x="61.5018" y="56">个</tspan><tspan fill="#000000" font-weight="400" font-size="32" x="93.5018" y="56">IP</tspan><tspan fill="#000000" font-weight="400" font-size="32" x="119.002" y="56">的子</tspan><tspan fill="#000000" font-weight="400" font-size="32" x="-680.498" y="94">网</tspan><tspan fill="#5B9BD5" font-weight="400" font-size="32" x="-716.498" y="141">•</tspan><tspan fill="#000000" font-weight="400" font-size="32" x="-680.498" y="141">例：</tspan><tspan fill="#000000" font-weight="400" font-size="32" x="-616.498" y="141">x=23</tspan><tspan fill="#000000" font-weight="400" font-size="32" x="-547.332" y="141">，原地址块</tspan><tspan fill="#000000" font-weight="400" font-size="32" x="-387.331" y="141">512</tspan><tspan fill="#000000" font-weight="400" font-size="32" x="-336.831" y="141">个</tspan><tspan fill="#000000" font-weight="400" font-size="32" x="-304.831" y="141">IP</tspan><tspan fill="#000000" font-weight="400" font-size="32" x="-279.331" y="141">地址，</tspan><tspan fill="#000000" font-weight="400" font-size="32" x="-183.331" y="141">y=3</tspan><tspan fill="#000000" font-weight="400" font-size="32" x="-130.165" y="141">，则源地址分成了</tspan><tspan fill="#000000" font-weight="400" font-size="32" x="125.835" y="141">8</tspan><tspan fill="#000000" font-weight="400" font-size="32" x="142.668" y="141">个</tspan><tspan fill="#000000" font-weight="400" font-size="32" x="-680.498" y="179">64</tspan><tspan fill="#000000" font-weight="400" font-size="32" x="-646.832" y="179">个</tspan><tspan fill="#000000" font-weight="400" font-size="32" x="-614.832" y="179">IP</tspan><tspan fill="#000000" font-weight="400" font-size="32" x="-589.332" y="179">的子网</tspan><tspan fill="#000000" font-weight="400" font-size="32" x="-668.498" y="225">X000 </tspan><tspan fill="#000000" font-weight="400" font-size="32" x="-572.998" y="225">对应</tspan><tspan fill="#000000" font-weight="400" font-size="32" x="-508.998" y="225">64</tspan><tspan fill="#000000" font-weight="400" font-size="32" x="-475.332" y="225">个</tspan><tspan fill="#000000" font-weight="400" font-size="32" x="-443.332" y="225">IP</tspan><tspan fill="#000000" font-weight="400" font-size="32" x="-417.832" y="225">，</tspan><tspan fill="#000000" font-weight="400" font-size="32" x="-385.831" y="225">X001</tspan><tspan fill="#000000" font-weight="400" font-size="32" x="-316.831" y="225">对应</tspan><tspan fill="#000000" font-weight="400" font-size="32" x="-252.831" y="225">64</tspan><tspan fill="#000000" font-weight="400" font-size="32" x="-219.165" y="225">个</tspan><tspan fill="#000000" font-weight="400" font-size="32" x="-187.165" y="225">IP…X111 </tspan><tspan fill="#000000" font-weight="400" font-size="32" x="-52.6648" y="225">对应</tspan><tspan fill="#000000" font-weight="400" font-size="32" x="11.3352" y="225">64</tspan><tspan fill="#000000" font-weight="400" font-size="32" x="45.0018" y="225">个</tspan><tspan fill="#000000" font-weight="400" font-size="32" x="77.0018" y="225">IP</tspan><tspan fill="#000000" font-weight="400" font-size="32" x="102.502" y="225">地址</tspan></text></g></svg>