<svg width="716" height="306" xmlns="http://www.w3.org/2000/svg" xmlns:xlink="http://www.w3.org/1999/xlink" overflow="hidden"><defs><clipPath id="clip0"><rect x="287" y="327" width="716" height="306"/></clipPath></defs><g clip-path="url(#clip0)" transform="translate(-287 -327)"><rect x="293.5" y="583.5" width="278" height="40" stroke="#000000" stroke-width="1.33333" stroke-miterlimit="8" fill="none"/><text font-family="Comic Sans MS,Comic Sans MS_MSFontService,sans-serif" font-weight="400" font-size="24" transform="translate(302.5 611)">physical</text><rect x="293.5" y="544.5" width="278" height="39" stroke="#000000" stroke-width="1.33333" stroke-miterlimit="8" fill="none"/><text font-family="Comic Sans MS,Comic Sans MS_MSFontService,sans-serif" font-weight="400" font-size="24" transform="translate(303 572)">link</text><rect x="293.5" y="476.5" width="278" height="68" stroke="#000000" stroke-width="1.33333" stroke-miterlimit="8" fill="none"/><text font-family="Comic Sans MS,Comic Sans MS_MSFontService,sans-serif" font-weight="400" font-size="24" transform="translate(303 503)">network forwarding<tspan font-size="24" x="21.5" y="29">(IP) table</tspan></text><rect x="293.5" y="407.5" width="278" height="68" stroke="#000000" stroke-width="1.33333" stroke-miterlimit="8" fill="none"/><text font-family="Comic Sans MS,Comic Sans MS_MSFontService,sans-serif" font-weight="400" font-size="24" transform="translate(303 435)">Transprt<tspan font-size="24" x="14.3333" y="29">(UDP)</tspan></text><path d="M382.5 358C382.5 341.708 412.049 328.5 448.5 328.5 484.951 328.5 514.5 341.708 514.5 358 514.5 374.292 484.951 387.5 448.5 387.5 412.049 387.5 382.5 374.292 382.5 358Z" stroke="#000000" stroke-width="1.33333" stroke-linejoin="round" stroke-miterlimit="10" fill="none" fill-rule="evenodd"/><text font-family="Comic Sans MS,Comic Sans MS_MSFontService,sans-serif" font-weight="400" font-size="24" transform="translate(411.333 365)">routed</text><path d="M0.666667-3.27062e-07 0.666769 208.667-0.666564 208.667-0.666667 3.27062e-07ZM0.00010237 208.667 4.0001 206 0.000104987 214-3.9999 206Z" fill="#44546A" transform="matrix(1 0 0 -1 410.5 598.5)"/><rect x="719.5" y="584.5" width="279" height="39" stroke="#000000" stroke-width="1.33333" stroke-miterlimit="8" fill="none"/><text font-family="Comic Sans MS,Comic Sans MS_MSFontService,sans-serif" font-weight="400" font-size="24" transform="translate(899.167 612)">physical</text><rect x="720.5" y="545.5" width="278" height="39" stroke="#000000" stroke-width="1.33333" stroke-miterlimit="8" fill="none"/><text font-family="Comic Sans MS,Comic Sans MS_MSFontService,sans-serif" font-weight="400" font-size="24" transform="translate(949.333 572)">link</text><rect x="720.5" y="476.5" width="278" height="68" stroke="#000000" stroke-width="1.33333" stroke-miterlimit="8" fill="none"/><text font-family="Comic Sans MS,Comic Sans MS_MSFontService,sans-serif" font-weight="400" font-size="24" transform="translate(897.333 504)">network<tspan font-size="24" x="47.3334" y="29">(IP)</tspan></text><rect x="720.5" y="408.5" width="278" height="68" stroke="#000000" stroke-width="1.33333" stroke-miterlimit="8" fill="none"/><text font-family="Comic Sans MS,Comic Sans MS_MSFontService,sans-serif" font-weight="400" font-size="24" transform="translate(888 436)">Transprt<tspan font-size="24" x="34.8333" y="29">(UDP)</tspan></text><path d="M788.5 358.5C788.5 342.484 818.049 329.5 854.5 329.5 890.951 329.5 920.5 342.484 920.5 358.5 920.5 374.516 890.951 387.5 854.5 387.5 818.049 387.5 788.5 374.516 788.5 358.5Z" stroke="#000000" stroke-width="1.33333" stroke-linejoin="round" stroke-miterlimit="10" fill="none" fill-rule="evenodd"/><text font-family="Comic Sans MS,Comic Sans MS_MSFontService,sans-serif" font-weight="400" font-size="24" transform="translate(817.167 366)">routed</text><path d="M0.666667-3.27062e-07 0.666769 208.667-0.666564 208.667-0.666667 3.27062e-07ZM0.00010237 208.667 4.0001 206 0.000104987 214-3.9999 206Z" fill="#44546A" transform="matrix(1 0 0 -1 872.5 603.5)"/><text font-family="Comic Sans MS,Comic Sans MS_MSFontService,sans-serif" font-weight="400" font-size="24" transform="translate(726.583 504)">forwarding<tspan font-size="24" x="32.58" y="29">table</tspan></text><path d="M410.5 597.5 873.5 597.5" stroke="#44546A" stroke-width="1.33333" stroke-linejoin="round" stroke-miterlimit="10" fill="none" fill-rule="evenodd"/><path d="M465.167 394.833 465.167 475.167 463.833 475.167 463.833 394.833ZM464.5 394.833 460.5 397.5 464.5 389.5 468.5 397.5ZM464.5 475.167 468.5 472.5 464.5 480.5 460.5 472.5Z" fill="#44546A"/><path d="M831.167 391.833 831.167 472.167 829.833 472.167 829.833 391.833ZM830.5 391.833 826.5 394.5 830.5 386.5 834.5 394.5ZM830.5 472.167 834.5 469.5 830.5 477.5 826.5 469.5Z" fill="#44546A"/></g></svg>