<svg width="960" height="720" xmlns="http://www.w3.org/2000/svg" xmlns:xlink="http://www.w3.org/1999/xlink" overflow="hidden"><defs><clipPath id="clip0"><rect x="0" y="0" width="960" height="720"/></clipPath></defs><g clip-path="url(#clip0)"><rect x="0" y="0" width="960" height="720" fill="#FFFFFF"/><text font-family="SimSun,SimSun_MSFontService,sans-serif" font-weight="700" font-size="43" transform="translate(26.1001 99)">网络层服务模型<tspan fill="#919293" font-family="Times New Roman,Times New Roman_MSFontService,sans-serif" font-weight="400" font-size="12" x="852.167" y="592">9</tspan><tspan fill="#44546A" font-size="32" x="0.0666676" y="87">网络体</tspan><tspan fill="#44546A" font-size="32" x="0.0666676" y="126">系结构</tspan><tspan font-family="Arial,Arial_MSFontService,sans-serif" font-size="27" x="0.0666676" y="197">Internet</tspan><tspan font-family="Arial,Arial_MSFontService,sans-serif" font-size="27" x="0.0666676" y="293">ATM</tspan><tspan font-family="Arial,Arial_MSFontService,sans-serif" font-size="27" x="0.0666676" y="389">ATM</tspan><tspan fill="#44546A" font-size="32" x="144.567" y="88">服务</tspan><tspan fill="#44546A" font-size="32" x="144.567" y="127">模型</tspan><tspan font-size="27" x="144.567" y="198">尽力而为</tspan><tspan font-family="Arial,Arial_MSFontService,sans-serif" font-size="27" x="144.567" y="294">CBR</tspan><tspan font-family="Arial,Arial_MSFontService,sans-serif" font-size="27" x="144.567" y="390">ABR</tspan><tspan fill="#44546A" font-size="27" x="293.65" y="120">带宽保证</tspan><tspan font-size="27" x="333.903" y="184">无</tspan><tspan font-size="27" x="293.65" y="280">恒定速率</tspan><tspan font-size="27" x="293.65" y="376">保证最小</tspan><tspan font-size="27" x="320.483" y="408">速率</tspan></text><path d="M18.5001 244.5 928.5 245.5" stroke="#ED7D31" stroke-width="2.66667" stroke-linejoin="round" stroke-miterlimit="10" fill="none" fill-rule="evenodd"/><path d="M24.5001 336.5 922.5 337.5" stroke="#ED7D31" stroke-width="2.66667" stroke-linejoin="round" stroke-miterlimit="10" fill="none" fill-rule="evenodd"/><path d="M0 0 918 1" stroke="#ED7D31" stroke-width="2.66667" stroke-linejoin="round" stroke-miterlimit="10" fill="none" fill-rule="evenodd" transform="matrix(1 0 0 -1 19.5001 436.5)"/><path d="M0 0 918 1" stroke="#ED7D31" stroke-width="2.66667" stroke-linejoin="round" stroke-miterlimit="10" fill="none" fill-rule="evenodd" transform="matrix(1 0 0 -1 19.5001 550.5)"/><text fill="#44546A" font-family="SimSun,SimSun_MSFontService,sans-serif" font-weight="700" font-size="27" transform="translate(469.833 206)">无丢包<tspan font-size="27" x="0" y="30">保证</tspan><tspan fill="#000000" font-size="27" x="0" y="101">无</tspan><tspan fill="#000000" font-size="27" x="0" y="197">是</tspan><tspan fill="#000000" font-size="27" x="0" y="293">无</tspan><tspan font-size="27" x="100" y="11">排序</tspan><tspan fill="#000000" font-size="27" x="100" y="82">任何可</tspan><tspan fill="#000000" font-size="27" x="100" y="114">能顺序</tspan><tspan fill="#000000" font-size="27" x="100" y="178">有序</tspan><tspan fill="#000000" font-size="27" x="100" y="274">有序</tspan><tspan font-size="32" x="207.5" y="11">定时</tspan><tspan fill="#000000" font-size="27" x="207.5" y="83">不维持</tspan><tspan fill="#000000" font-size="27" x="207.5" y="179">维持</tspan><tspan fill="#000000" font-size="27" x="207.5" y="275">不维持</tspan><tspan font-size="32" x="319.833" y="2">拥塞指示</tspan><tspan fill="#000000" font-size="27" x="370.747" y="68">无</tspan><tspan fill="#000000" font-size="27" x="343.913" y="196">无拥塞</tspan><tspan fill="#000000" font-size="27" x="330.5" y="292">提供拥塞</tspan><tspan fill="#000000" font-size="27" x="357.333" y="324">指示</tspan><tspan font-size="32" x="-1.33331" y="-44">服务质量</tspan></text><path d="M329.5 179.5 745.5 179.5" stroke="#ED7D31" stroke-width="1.33333" stroke-linejoin="round" stroke-miterlimit="10" fill="none" fill-rule="evenodd"/></g></svg>