<svg width="939" height="690" xmlns="http://www.w3.org/2000/svg" xmlns:xlink="http://www.w3.org/1999/xlink" overflow="hidden"><defs><clipPath id="clip0"><rect x="11" y="12" width="939" height="690"/></clipPath></defs><g clip-path="url(#clip0)" transform="translate(-11 -12)"><text font-family="SimSun,SimSun_MSFontService,sans-serif" font-weight="700" font-size="43" transform="translate(100.858 70)">128.14.32.0/20 表示的地址（2<tspan font-size="28" x="601" y="-13">12 </tspan><tspan font-size="43" x="644" y="0">个地址）</tspan></text><rect x="215.5" y="92.5001" width="734" height="598" stroke="#44546A" stroke-miterlimit="8" fill="#CCECFF"/><text fill="#0563C1" font-family="Arial,Arial_MSFontService,sans-serif" font-weight="400" font-size="37" transform="translate(224.933 133)">10000000 00001110<tspan font-size="37" x="348.453" y="0">0010</tspan><tspan fill="#333399" font-size="37" x="431.787" y="0">0000 00000000</tspan><tspan font-size="37" x="0" y="45">10000000 00001110</tspan><tspan font-size="37" x="348.453" y="45">0010</tspan><tspan fill="#333399" font-size="37" x="431.787" y="45">0000 00000001</tspan><tspan font-size="37" x="0" y="90">10000000 00001110</tspan><tspan font-size="37" x="348.453" y="90">0010</tspan><tspan fill="#333399" font-size="37" x="431.787" y="90">0000 00000010</tspan><tspan font-size="37" x="0" y="135">10000000 00001110</tspan><tspan font-size="37" x="348.453" y="135">0010</tspan><tspan fill="#333399" font-size="37" x="431.787" y="135">0000 00000011</tspan><tspan font-size="37" x="0" y="180">10000000 00001110</tspan><tspan font-size="37" x="348.453" y="180">0010</tspan><tspan fill="#333399" font-size="37" x="431.787" y="180">0000 00000100</tspan><tspan font-size="37" x="0" y="224">10000000 00001110</tspan><tspan font-size="37" x="348.453" y="224">0010</tspan><tspan fill="#333399" font-size="37" x="431.787" y="224">0000 00000101</tspan><tspan font-size="37" x="0" y="359">10000000 00001110</tspan><tspan font-size="37" x="348.453" y="359">0010</tspan><tspan fill="#333399" font-size="37" x="431.787" y="359">1111 11111011</tspan><tspan font-size="37" x="0" y="404">10000000 00001110</tspan><tspan font-size="37" x="348.453" y="404">0010</tspan><tspan fill="#333399" font-size="37" x="431.787" y="404">1111 11111100</tspan><tspan font-size="37" x="0" y="448">10000000 00001110</tspan><tspan font-size="37" x="348.453" y="448">0010</tspan><tspan fill="#333399" font-size="37" x="431.787" y="448">1111 11111101</tspan><tspan font-size="37" x="0" y="493">10000000 00001110</tspan><tspan font-size="37" x="348.453" y="493">0010</tspan><tspan fill="#333399" font-size="37" x="431.787" y="493">1111 11111110</tspan><tspan font-size="37" x="0" y="538">10000000 00001110</tspan><tspan font-size="37" x="348.453" y="538">0010</tspan><tspan fill="#333399" font-size="37" x="431.787" y="538">1111 11111111</tspan><tspan fill="#333399" font-family="Symbol,Symbol_MSFontService,sans-serif" font-weight="700" font-size="72" x="499" y="274"></tspan><tspan font-family="Symbol,Symbol_MSFontService,sans-serif" font-weight="700" font-size="72" x="180.5" y="268"></tspan></text><rect x="223.5" y="95.5001" width="433" height="590" stroke="#0563C1" stroke-width="3" stroke-miterlimit="8" fill="none"/><rect x="16.5001" y="231.5" width="116" height="140" stroke="#333399" stroke-miterlimit="8" fill="none"/><text font-family="SimSun,SimSun_MSFontService,sans-serif" font-weight="400" font-size="24" transform="translate(25.6667 260)">所有地址<tspan font-size="24" x="4" y="33">的</tspan><tspan font-family="Arial,Arial_MSFontService,sans-serif" font-size="24" x="34.6667" y="33">20 </tspan>位<tspan font-size="24" x="0" y="66">前缀都是</tspan><tspan font-size="24" x="12" y="99">一样的</tspan></text></g></svg>