<svg width="960" height="720" xmlns="http://www.w3.org/2000/svg" xmlns:xlink="http://www.w3.org/1999/xlink" overflow="hidden"><defs><clipPath id="clip0"><rect x="0" y="0" width="960" height="720"/></clipPath><clipPath id="clip1"><path d="M217.5 45.5001 217.5 118.5 793.5 118.5 793.5 45.5001ZM1.43051e-05 1.07288e-05 960 1.07288e-05 960 720 1.43051e-05 720Z" fill-rule="evenodd" clip-rule="evenodd"/></clipPath></defs><g clip-path="url(#clip0)"><rect x="0" y="0" width="960" height="720" fill="#FFFFFF"/><rect x="747" y="630" width="167" height="53" fill="#FFCCFF"/><rect x="256" y="632" width="491" height="52" fill="#CCECFF"/><text font-family="Times New Roman,Times New Roman_MSFontService,sans-serif" font-weight="400" font-size="27" transform="translate(267.667 667)">1 1 1 1 1 1 1 1 1 1 1 1 1 1 1 1 1 1 1 1 1 1 1 1<tspan font-size="27" x="483.333" y="0">0 0 0 0 0 0 0 0</tspan></text><rect x="578" y="447" width="335" height="51" fill="#FFCCFF"/><text font-family="Times New Roman,Times New Roman_MSFontService,sans-serif" font-weight="400" font-size="27" transform="translate(588.5 481)">0 0 0 0 0 0 0 0 0 0 0 0 0 0 0 0</text><rect x="256" y="447" width="323" height="52" fill="#CCECFF"/><text font-family="Times New Roman,Times New Roman_MSFontService,sans-serif" font-weight="400" font-size="27" transform="translate(262.333 481)">1 1 1 1 1 1 1 1 1 1 1 1 1 1 1 1</text><rect x="256" y="263" width="169" height="52" fill="#CCECFF"/><rect x="422" y="263" width="489" height="52" fill="#FFCCFF"/><text font-family="Times New Roman,Times New Roman_MSFontService,sans-serif" font-weight="400" font-size="27" transform="translate(263.667 299)">1 1 1 1 1 1 1 1<tspan font-size="27" x="165.333" y="0">0 0 0 0 0 0 0 0 0 0 0 0 0 0 0 0 0 0 0 0 0 0 0 0</tspan></text><rect x="2.50005" y="165.5" width="949" height="542" stroke="#000000" stroke-miterlimit="8" fill="none"/><rect x="256" y="548" width="491" height="52" fill="#CCECFF"/><text font-family="Times New Roman,Times New Roman_MSFontService,sans-serif" font-weight="400" font-size="27" transform="translate(271.667 581)">110<tspan font-size="27" x="119.013" y="0">net</tspan>-<tspan font-size="27" x="160.347" y="0">id</tspan></text><path d="M748 546 748 600" stroke="#000000" stroke-width="2" stroke-linejoin="round" stroke-miterlimit="10" fill="none" fill-rule="evenodd"/><rect x="255.5" y="547.5" width="659" height="54" stroke="#000000" stroke-width="1.33333" stroke-miterlimit="8" fill="none"/><rect x="253" y="184" width="165" height="52" fill="#CCECFF"/><rect x="425" y="188" width="488" height="51" fill="#FFCCFF"/><text font-family="Times New Roman,Times New Roman_MSFontService,sans-serif" font-weight="400" font-size="27" transform="translate(265.167 222)">0<tspan font-size="27" x="53.3333" y="0">net</tspan>-<tspan font-size="27" x="94.6667" y="0">id</tspan><tspan font-size="27" x="334.333" y="0">host</tspan><tspan font-size="27" x="378.667" y="0">-</tspan><tspan font-size="27" x="387.5" y="0">id </tspan><tspan font-family="SimSun,SimSun_MSFontService,sans-serif" font-size="27" x="414.833" y="0">为全</tspan><tspan font-size="27" x="474.833" y="0">0</tspan></text><path d="M423.5 186.5 423.5 239.5" stroke="#000000" stroke-width="1.33333" stroke-linejoin="round" stroke-miterlimit="10" fill="none" fill-rule="evenodd"/><rect x="256.5" y="185.5" width="659" height="54" stroke="#000000" stroke-width="1.33333" stroke-miterlimit="8" fill="none"/><rect x="256" y="366" width="323" height="51" fill="#CCECFF"/><text font-family="Times New Roman,Times New Roman_MSFontService,sans-serif" font-weight="400" font-size="27" transform="translate(268 402)">10<tspan font-size="27" x="66.6667" y="0">net</tspan>-<tspan font-size="27" x="108" y="0">id</tspan></text><path d="M581.5 365.5 581.5 418.5" stroke="#000000" stroke-width="1.33333" stroke-linejoin="round" stroke-miterlimit="10" fill="none" fill-rule="evenodd"/><rect x="255.5" y="364.5" width="659" height="55" stroke="#000000" stroke-width="1.33333" stroke-miterlimit="8" fill="none"/><rect x="749" y="548" width="163" height="51" fill="#FFCCFF"/><rect x="255.5" y="261.5" width="660" height="55" stroke="#000000" stroke-width="1.33333" stroke-miterlimit="8" fill="none"/><text font-family="SimSun,SimSun_MSFontService,sans-serif" font-weight="400" font-size="27" transform="translate(119.583 222)">网络地址<tspan font-family="Times New Roman,Times New Roman_MSFontService,sans-serif" font-size="27" x="-92.4999" y="-14">A</tspan><tspan font-size="27" x="-96.1666" y="13">类</tspan><tspan font-size="27" x="-96.1666" y="41">地</tspan><tspan font-size="27" x="-96.1666" y="68">址</tspan><tspan font-size="27" x="-28.5833" y="64">默认子网掩码</tspan><tspan font-family="Times New Roman,Times New Roman_MSFontService,sans-serif" font-size="27" x="1.41669" y="92">255.0.0.0</tspan><tspan font-size="27" x="0.833336" y="180">网络地址</tspan><tspan font-family="Times New Roman,Times New Roman_MSFontService,sans-serif" font-size="27" x="-91.3367" y="164">B</tspan><tspan font-size="27" x="-95.75" y="191">类</tspan><tspan font-size="27" x="-95.75" y="219">地</tspan><tspan font-size="27" x="-95.75" y="246">址</tspan><tspan font-size="27" x="-32.0833" y="241">默认子网掩码</tspan><tspan font-family="Times New Roman,Times New Roman_MSFontService,sans-serif" font-size="27" x="-15.4166" y="269">255.255.0.0</tspan></text><rect x="255.5" y="446.5" width="660" height="54" stroke="#000000" stroke-width="1.33333" stroke-miterlimit="8" fill="none"/><text font-family="SimSun,SimSun_MSFontService,sans-serif" font-weight="400" font-size="27" transform="translate(120.417 584)">网络地址<tspan font-family="Times New Roman,Times New Roman_MSFontService,sans-serif" font-size="27" x="-92.17" y="-13">C</tspan><tspan font-size="27" x="-96.5834" y="14">类</tspan><tspan font-size="27" x="-96.5834" y="42">地</tspan><tspan font-size="27" x="-96.5834" y="69">址</tspan><tspan font-size="27" x="-32.9166" y="69">默认子网掩码</tspan><tspan font-family="Times New Roman,Times New Roman_MSFontService,sans-serif" font-size="27" x="-29.5833" y="97">255.255.255.0</tspan></text><rect x="255.5" y="630.5" width="659" height="55" stroke="#000000" stroke-width="1.33333" stroke-miterlimit="8" fill="none"/><rect x="582" y="365" width="331" height="51" fill="#FFCCFF"/><text font-family="Times New Roman,Times New Roman_MSFontService,sans-serif" font-weight="400" font-size="27" transform="translate(753.5 581)">host<tspan font-size="27" x="44.3333" y="0">-</tspan><tspan font-size="27" x="53.1667" y="0">id </tspan><tspan font-family="SimSun,SimSun_MSFontService,sans-serif" font-size="27" x="80.5" y="0">为全</tspan><tspan font-size="27" x="140.5" y="0">0</tspan><tspan font-size="27" x="-83" y="-179">host</tspan><tspan font-size="27" x="-38.6667" y="-179">-</tspan><tspan font-size="27" x="-29.8333" y="-179">id </tspan><tspan font-family="SimSun,SimSun_MSFontService,sans-serif" font-size="27" x="-2.5" y="-179">为全</tspan><tspan font-size="27" x="57.5" y="-179">0</tspan></text><path d="M2.50005 339.5 951.5 339.5" stroke="#000000" stroke-linejoin="round" stroke-miterlimit="10" fill="none" fill-rule="evenodd"/><path d="M2.50005 523.5 951.5 523.5" stroke="#000000" stroke-linejoin="round" stroke-miterlimit="10" fill="none" fill-rule="evenodd"/><path d="M71.5001 166.5 71.5002 708.5" stroke="#000000" stroke-linejoin="round" stroke-miterlimit="10" fill="none" fill-rule="evenodd"/><g clip-path="url(#clip1)"><rect x="220.167" y="48.1667" width="576" height="73" fill="#E7E6E6"/><path d="M220.667 48.6667 220.667 120.667 795.667 120.667 795.667 48.6667ZM219.667 47.6667 796.667 47.6667 796.667 121.667 219.667 121.667Z" fill="#E7E6E6" fill-rule="evenodd"/><path d="M230.535 81.5827C233.606 80.375 236.91 77.3731 240.446 72.5768 243.31 69.1091 245.803 64.494 247.925 58.7316 248.84 59.4045 249.935 60.0083 251.212 60.5432 250.108 60.8882 249.185 61.8975 248.443 63.571 246.959 66.5729 244.915 69.9458 242.31 73.6896 240.464 76.3983 237.565 79.5555 233.614 83.1613 232.838 82.6437 231.811 82.1175 230.535 81.5827ZM232.191 103.243C236.176 102.467 239.584 100.776 242.413 98.1711 244.673 96.2905 246.312 94.1685 247.33 91.8049 249.107 87.9575 250.116 84.093 250.358 80.2111L243.888 80.2111C242.508 80.2111 241.309 80.2974 240.291 80.4699L240.291 78.0891C241.343 78.2616 242.543 78.3478 243.888 78.3478L265.368 78.3478C266.92 78.3133 268.189 78.2271 269.172 78.0891 268.896 79.176 268.646 81.2031 268.421 84.1706 268.352 85.2057 268.232 87.0259 268.059 89.631 267.749 93.8752 267.498 97.0065 267.309 99.0251 267.24 101.32 266.377 102.803 264.721 103.476 263.444 104.115 261.098 104.572 257.682 104.848 257.285 103.571 256.862 102.545 256.414 101.768 257.639 101.941 258.803 102.027 259.907 102.027 263.185 102.096 264.911 101.147 265.083 99.1804 265.445 95.7126 265.928 89.3895 266.532 80.2111L252.687 80.2111C251.773 86.2495 250.591 90.5023 249.142 92.9694 247.761 95.9024 245.821 98.3264 243.319 100.241 240.455 102.432 237.677 104.158 234.986 105.417 234.037 104.503 233.105 103.778 232.191 103.243ZM280.3 80.5217C279.144 81.3325 278.264 82.0571 277.66 82.6955 272.674 79.2967 268.43 75.2165 264.928 70.4548 262.806 67.3493 261.201 64.4854 260.114 61.863 260.08 61.794 260.045 61.7077 260.011 61.6042 259.51 60.431 259.036 59.4907 258.587 58.7834 259.674 58.6799 260.804 58.4383 261.978 58.0588 261.84 58.4556 261.771 58.8697 261.771 59.301 261.771 60.0256 261.96 60.8106 262.34 61.6559 264.669 66.8835 267.636 71.1535 271.242 74.466 274.71 77.7267 277.729 79.7453 280.3 80.5217ZM289.409 88.6735 307.059 88.6735C307.455 87.5176 307.723 86.0856 307.861 84.3776L311.406 85.1799C310.595 85.8182 310.121 86.353 309.983 86.7844 309.879 87.0259 309.741 87.4486 309.569 88.0524 309.465 88.3285 309.396 88.5355 309.362 88.6735L327.891 88.6735C329.133 88.6735 330.324 88.5873 331.462 88.4147L331.462 90.7956C330.565 90.6231 329.375 90.5368 327.891 90.5368L310.837 90.5368C316.772 97.6794 324.087 101.268 332.782 101.302 331.644 102.182 330.867 103.114 330.453 104.097 321.258 102.234 313.96 97.9037 308.56 91.1061 305.299 98.3522 298.441 103.217 287.986 105.702 287.382 104.667 286.571 103.83 285.553 103.192 296.008 102.139 302.953 97.9209 306.386 90.5368L289.409 90.5368C288.046 90.5368 286.916 90.6231 286.019 90.7956L286.019 88.4147C286.692 88.5873 287.822 88.6735 289.409 88.6735ZM286.77 82.8508C294.326 80.9702 300.649 77.5456 305.739 72.5768L291.117 72.5768C289.668 72.5768 288.538 72.6631 287.727 72.8356L287.727 70.4548C288.4 70.6273 289.53 70.7136 291.117 70.7136L307.55 70.7136 307.55 61.2678C307.55 59.8703 307.464 58.7575 307.292 57.9294L309.879 57.9294C309.707 58.6712 309.621 59.784 309.621 61.2678L309.621 70.7136 326.054 70.7136C327.607 70.7136 328.788 70.6273 329.599 70.4548L329.599 72.8356C328.53 72.6976 327.348 72.6113 326.054 72.5768L309.621 72.5768 309.621 72.7839C317.419 76.2861 323.509 79.2881 327.891 81.7897L326.468 83.86C320.498 80.0127 314.883 77.0453 309.621 74.9577L309.621 79.0466C309.621 80.5648 309.707 81.8329 309.879 82.8508L307.292 82.8508C307.464 82.0399 307.55 80.7718 307.55 79.0466L307.55 73.7414C302.461 78.2616 296.345 81.9881 289.202 84.9211 288.46 84.0757 287.649 83.3856 286.77 82.8508ZM294.404 62.6135 295.827 60.7502C298.657 62.7342 301.503 64.9426 304.367 67.3752L302.84 69.1349C300.114 66.6161 297.302 64.4422 294.404 62.6135ZM312.959 67.5822C315.495 66.133 318.23 63.4675 321.163 59.5856L323.88 61.5007C322.638 61.9147 321.68 62.4754 321.007 63.1828 318.471 65.7017 316.401 67.6253 314.796 68.9538Z" fill="#E7E6E6"/><path d="M340.643 100.604 340.643 64.1403 343.231 64.1403 343.231 100.604ZM371.716 74.8024C371.716 72.1455 370.879 70.0752 369.206 68.5915 367.532 67.1078 365.039 66.3659 361.727 66.3659L355.619 66.3659 355.619 83.4719 361.96 83.4719C365.065 83.4719 367.468 82.7214 369.167 81.2204 370.866 79.7194 371.716 77.5801 371.716 74.8024ZM374.356 74.7248C374.356 78.0373 373.269 80.6899 371.095 82.6826 368.921 84.6752 365.962 85.6716 362.218 85.6716L355.619 85.6716 355.619 100.604 353.031 100.604 353.031 64.1403 362.089 64.1403C365.919 64.1403 368.921 65.0676 371.095 66.9223 373.269 68.777 374.356 71.3778 374.356 74.7248Z" fill="#E7E6E6"/><path d="M379.055 96.9548C381.488 96.4544 384.223 95.5487 387.259 94.2375L387.259 74.6472 383.351 74.6472C382.282 74.6472 381.005 74.7334 379.521 74.9059L379.521 72.4733C381.074 72.6459 382.351 72.7321 383.351 72.7321L387.259 72.7321 387.259 63.2863C387.259 62.4064 387.173 61.1901 387 59.6374L389.485 59.6374C389.312 61.0866 389.226 62.3029 389.226 63.2863L389.226 72.7321 392.875 72.7321C393.979 72.7321 395.187 72.6459 396.498 72.4733L396.498 74.9059C395.256 74.7334 394.048 74.6472 392.875 74.6472L389.226 74.6472 389.226 93.5129C392.832 92.2017 395.696 90.8215 397.818 89.3723 397.611 90.2521 397.507 91.1665 397.507 92.1154 393.159 94.0995 389.407 95.6953 386.25 96.903 384.352 97.6449 382.428 98.5938 380.479 99.7497ZM394.686 80.1594 393.884 77.6491C395.195 77.5111 396.256 77.3386 397.067 77.1315L401.052 76.2258 401.052 65.4601C401.052 64.4422 400.966 63.2087 400.794 61.7595L403.278 61.7595C403.106 63.2087 403.019 64.425 403.019 65.4084L403.019 75.6823 410.524 73.7932 410.524 61.5007C410.524 60.6898 410.438 59.4649 410.265 57.8259L412.75 57.8259C412.577 59.3786 412.491 60.5863 412.491 61.4489L412.491 73.3015 419.918 71.4123C421.126 71.0845 422.359 70.6187 423.619 70.0148 423.377 71.4641 423.257 72.7062 423.257 73.7414 423.257 77.8303 423.188 82.3849 423.05 87.4055 423.05 90.3729 422.075 92.0205 420.125 92.3483 419.176 92.5899 417.908 92.7624 416.321 92.8659 415.89 91.779 415.441 90.8646 414.975 90.1227 416.58 90.3643 417.822 90.4678 418.702 90.4333 420.324 90.5713 421.117 89.0531 421.083 85.8786 421.083 85.1022 421.1 83.9377 421.134 82.3849 421.169 78.4514 421.203 75.32 421.238 72.9909L412.491 75.2165 412.491 91.7531C412.491 92.8573 412.577 94.2202 412.75 95.842L410.265 95.842C410.472 94.2547 410.559 92.8918 410.524 91.7531L410.524 75.6823 403.019 77.6491 403.019 96.9548C402.864 101.147 404.572 103.157 408.143 102.985L418.391 102.985C421.238 103.019 423.179 102.527 424.214 101.509 425.301 100.526 425.862 98.6369 425.896 95.842 426.673 96.5493 427.475 97.0928 428.303 97.4724 427.561 100.44 426.517 102.407 425.172 103.373 423.895 104.425 421.738 104.934 418.702 104.9L407.884 104.9C403.192 105.038 400.914 102.743 401.052 98.0158L401.052 78.1408 397.662 79.0983C396.782 79.3054 395.79 79.659 394.686 80.1594ZM431.952 96.4113C435.023 95.773 438.128 94.6774 441.268 93.1247L441.268 75.2165 436.196 75.2165C435.126 75.2165 434.014 75.3027 432.858 75.4753L432.858 73.0944C433.979 73.267 435.092 73.3532 436.196 73.3532L441.268 73.3532 441.268 62.5617C441.234 61.285 441.148 60.155 441.009 59.1716L443.494 59.1716C443.321 60.362 443.235 61.492 443.235 62.5617L443.235 73.3532 448.1 73.3532C449.308 73.3187 450.404 73.2324 451.387 73.0944L451.387 75.4753C450.335 75.3027 449.239 75.2165 448.1 75.2165L443.235 75.2165 443.235 92.2966C447.117 90.6231 449.834 89.2256 451.387 88.1042 451.421 89.1221 451.499 90.0537 451.62 90.8991 444.857 93.556 438.654 96.3682 433.013 99.3356 432.944 99.1631 432.858 98.9129 432.754 98.5851 432.495 97.7743 432.228 97.0497 431.952 96.4113ZM456.899 71.2311 456.899 102.415 465.879 102.415 465.879 61.3195C465.879 60.3706 465.784 59.2578 465.594 57.9811L468.105 57.9811C467.915 59.1888 467.82 60.3016 467.82 61.3195L467.82 76.0187 475.713 76.0187C476.955 75.9842 478.051 75.898 479 75.7599L479 78.1408C477.947 77.951 476.852 77.8561 475.713 77.8561L467.82 77.8561 467.82 102.415 477.162 102.415C478.077 102.415 479.172 102.32 480.449 102.131L480.449 104.537C479.31 104.348 478.215 104.253 477.162 104.253L447.531 104.253C446.548 104.253 445.418 104.348 444.141 104.537L444.141 102.131C445.383 102.32 446.513 102.415 447.531 102.415L454.958 102.415 454.958 71.2311C454.924 70.2477 454.829 69.1349 454.674 67.8928L457.184 67.8928C457.029 68.9279 456.934 70.0407 456.899 71.2311ZM498.451 75.2165 490.196 75.2165C488.919 75.2165 487.824 75.3027 486.909 75.4753L486.909 73.0944C487.755 73.267 488.85 73.3532 490.196 73.3532L499.15 73.3532 499.15 62.0182C496.252 62.346 493.336 62.5962 490.403 62.7687 490.041 61.7681 489.566 60.8451 488.98 59.9997 490.205 60.1895 491.602 60.2844 493.172 60.2844 494.345 60.2844 495.751 60.224 497.39 60.1032 500.927 59.8962 504.498 59.1026 508.104 57.7224L510.123 60.1032C509.243 60.1377 508.449 60.2671 507.742 60.4914 505.62 60.9055 503.446 61.3109 501.22 61.7077L501.22 73.3532 507.949 73.3532C509.329 73.3532 510.476 73.267 511.391 73.0944L511.391 75.4753C510.356 75.3027 509.208 75.2165 507.949 75.2165L501.22 75.2165 501.22 78.3996C504.257 80.5907 507.38 83.2217 510.589 86.2927L508.803 88.6218C506.922 85.6888 504.395 83.1613 501.22 81.0392L501.22 102.027C501.22 103.511 501.324 104.753 501.531 105.754L498.814 105.754C498.934 104.58 499.047 103.338 499.15 102.027L499.15 79.0983C495.82 85.2057 491.982 90.2866 487.634 94.341 486.961 93.5991 486.202 93.0729 485.357 92.7624 489.842 90.209 494.207 84.3604 498.451 75.2165ZM515.583 97.9123 515.583 67.4787C515.583 65.995 515.488 64.8132 515.299 63.9333 516.196 64.0368 517.386 64.1231 518.87 64.1921L529.403 64.1921C530.576 64.1921 531.654 64.1058 532.637 63.9333 532.465 64.9857 532.379 66.133 532.379 67.3752L532.379 97.3171C532.379 99.0423 532.465 100.224 532.637 100.862L530.05 100.862C530.222 100.224 530.308 99.0423 530.308 97.3171L530.308 96.2043 517.654 96.2043 517.654 97.9123C517.654 99.603 517.74 100.802 517.912 101.509L515.299 101.509C515.419 100.595 515.514 99.396 515.583 97.9123ZM517.654 66.0554 517.654 94.341 530.308 94.341 530.308 66.0554ZM543.765 79.2536 562.916 79.2536 562.916 76.5881C562.916 75.5012 562.821 74.3194 562.631 73.0427 567.237 70.5065 571.654 66.9352 575.881 62.3288L548.424 62.3288C547.371 62.3288 546.12 62.4237 544.671 62.6135L544.671 60.2067C546.12 60.431 547.371 60.5259 548.424 60.4914L576.632 60.4914C577.874 60.4914 579.288 60.3965 580.876 60.2067 575.148 66.4694 569.843 71.1535 564.96 74.259L564.96 79.2536 583.205 79.2536C584.447 79.2536 585.715 79.1587 587.009 78.9689L587.009 81.3757C585.784 81.1859 584.516 81.091 583.205 81.091L564.96 81.091 564.96 98.9216C565.081 102.027 564.029 103.718 561.803 103.994 560.595 104.287 558.404 104.555 555.23 104.796 555.04 103.847 554.669 102.769 554.117 101.561 555.514 101.872 556.696 102.027 557.662 102.027 558.611 102.062 559.741 101.975 561.052 101.768 562.329 101.63 562.95 100.535 562.916 98.4816L562.916 81.091 543.765 81.091C542.678 81.091 541.462 81.1859 540.116 81.3757L540.116 78.9689C541.359 79.1587 542.575 79.2536 543.765 79.2536ZM596.714 60.5432C598.025 60.7157 599.207 60.8019 600.259 60.8019L632.815 60.8019C633.833 60.8364 634.997 60.7502 636.308 60.5432 636.136 61.9579 636.05 63.1397 636.05 64.0886L636.05 98.5334C636.119 100.862 635.566 102.346 634.393 102.985 633.341 103.761 630.813 104.218 626.811 104.356 626.569 103.407 626.164 102.441 625.594 101.458 627.233 101.647 628.545 101.742 629.528 101.742 630.667 101.742 631.529 101.63 632.116 101.406 633.496 101.044 634.152 99.9826 634.083 98.2228L634.083 62.6652 598.939 62.6652 598.939 100.759C598.939 101.932 599.025 103.261 599.198 104.744L596.714 104.744C596.886 103.364 596.972 102.036 596.972 100.759L596.972 64.3474C596.972 63.364 596.886 62.0959 596.714 60.5432ZM599.586 96.4113C602.295 94.479 605.245 89.9933 608.437 82.9543 605.607 77.7267 603.183 73.8622 601.165 71.3605L603.287 70.2477C605.012 73.1289 607.031 76.6226 609.343 80.7287 611.171 76.105 612.353 71.904 612.888 68.1257L616.019 69.0573C615.346 69.5231 614.881 70.1615 614.622 70.9724 613.362 74.975 612.025 78.8999 610.611 82.7473 612.836 87.1984 614.527 90.7266 615.683 93.3317L613.302 94.341C613.026 92.6848 611.792 89.5448 609.601 84.9211 607.082 90.1141 604.745 94.3324 602.588 97.5759 601.639 97.0928 600.639 96.7046 599.586 96.4113ZM614.855 96.5666C617.425 94.7378 620.332 90.2349 623.576 83.0578 620.401 76.381 618.124 72.5682 616.744 71.6193L619.177 70.3513C621.023 73.8018 622.808 77.3817 624.533 81.091 626.276 76.2603 627.535 72.1455 628.312 68.7468L631.443 69.9113C630.615 70.3771 630.028 71.0845 629.683 72.0334 628.769 74.8283 627.406 78.4514 625.594 82.9025 627.509 86.9224 629.174 90.6662 630.589 94.134L628.415 95.195C628.243 93.1074 626.966 89.7173 624.585 85.0246 622.325 89.5103 620.099 93.6423 617.908 97.4206 617.063 97.11 616.045 96.8254 614.855 96.5666ZM645.745 87.0949C648.177 86.7671 651.05 85.8096 654.363 84.2224L654.363 72.5251 650.196 72.5251C649.195 72.5251 648.048 72.6113 646.754 72.7839L646.754 70.403C647.91 70.5755 649.057 70.6618 650.196 70.6618L654.363 70.6618 654.363 61.7077C654.328 60.638 654.242 59.5425 654.104 58.4211L656.588 58.4211C656.416 59.6978 656.329 60.7933 656.329 61.7077L656.329 70.6618 659.357 70.6618C660.341 70.6618 661.367 70.5755 662.437 70.403L662.437 72.7839C661.367 72.6113 660.341 72.5251 659.357 72.5251L656.329 72.5251 656.329 83.446C657.399 83.0492 659.012 82.3246 661.169 81.2722 661.376 81.1859 661.531 81.1083 661.634 81.0392L661.376 83.7565C659.892 84.2396 658.21 84.9125 656.329 85.7751L656.329 101.509C656.398 103.597 656.01 104.848 655.165 105.262 654.492 105.831 652.413 106.219 648.928 106.426 648.704 105.547 648.367 104.632 647.919 103.683 648.695 103.821 649.661 103.89 650.817 103.89 652.439 103.856 653.431 103.683 653.793 103.373 654.225 103.079 654.414 102.355 654.363 101.199L654.363 86.4479C650.032 88.294 647.669 89.424 647.272 89.8381 646.875 88.8547 646.366 87.9403 645.745 87.0949ZM659.098 77.3903C664.74 76.3379 669.329 73.0685 672.866 67.5822L665.93 67.5822C664.861 67.5822 663.713 67.6685 662.488 67.841L662.488 65.4601C663.644 65.6327 664.792 65.7189 665.93 65.7189L673.927 65.7189C675.066 63.2863 675.704 60.8882 675.842 58.5246L679.336 59.7409C678.456 60.1377 677.748 61.2505 677.214 63.0793 677.11 63.3553 676.972 63.7263 676.799 64.1921 676.541 64.8304 676.342 65.3394 676.204 65.7189L686.659 65.7189C687.746 65.7189 688.911 65.6327 690.153 65.4601L690.153 67.841C688.98 67.6685 687.815 67.5822 686.659 67.5822L680.992 67.5822C684.477 73.034 689.334 76.2516 695.562 77.235 694.492 77.9424 693.655 78.7878 693.051 79.7712 686.409 76.9763 681.587 72.9133 678.585 67.5822L675.48 67.5822C672.288 72.4992 667.69 76.4932 661.686 79.5641 660.944 78.8223 660.082 78.0977 659.098 77.3903ZM664.559 79.3054C665.715 79.4779 666.914 79.5641 668.156 79.5641L675.48 79.5641 675.48 76.7433C675.445 75.4839 675.35 74.3366 675.195 73.3015L677.809 73.3015C677.55 74.7162 677.421 75.8635 677.421 76.7433L677.421 79.5641 685.003 79.5641C686.142 79.5641 687.367 79.4779 688.678 79.3054 688.523 80.3923 688.428 81.5223 688.393 82.6955L688.393 92.2189C688.428 93.3576 688.523 94.4704 688.678 95.5573 687.539 95.4193 686.297 95.333 684.951 95.2985L677.421 95.2985 677.421 100.966C677.386 102.346 677.688 103.183 678.326 103.476 678.896 103.856 680.328 104.028 682.622 103.994 687.143 103.925 689.532 103.468 689.791 102.622 690.567 101.449 690.895 99.5427 690.774 96.903 691.671 97.6449 692.594 98.2056 693.543 98.5851 692.767 102.053 691.844 104.054 690.774 104.589 689.86 105.469 687.194 105.943 682.778 106.012 680.794 106.012 679.12 105.857 677.757 105.547 676.756 105.115 676.135 104.649 675.894 104.149 675.618 103.735 675.48 102.89 675.48 101.613L675.48 95.2985 668.052 95.2985C666.741 95.333 665.577 95.4193 664.559 95.5573 664.731 94.4359 664.818 93.4007 664.818 92.4518L664.818 82.4885C664.818 81.5568 664.731 80.4958 664.559 79.3054ZM666.784 81.4274 666.784 86.6032 675.48 86.6032 675.48 81.4274ZM666.784 93.4611 675.48 93.4611 675.48 88.4665 666.784 88.4665ZM677.421 81.4274 677.421 86.6032 686.427 86.6032 686.427 81.4274ZM677.421 88.4665 677.421 93.4611 686.427 93.4611 686.427 88.4665ZM721.156 94.2892 721.156 91.9084C722.433 92.0809 723.545 92.1672 724.494 92.1672L736.58 92.1672C737.529 92.1672 738.711 92.0809 740.125 91.9084L740.125 94.2892C738.849 94.1167 737.667 94.0305 736.58 94.0305L724.494 94.0305C723.58 93.996 722.467 94.0822 721.156 94.2892ZM742.247 60.5432C741.937 62.3719 741.126 69.6698 739.815 82.4367L743.205 82.4367C744.119 82.4712 745.301 82.3763 746.75 82.152 746.215 86.2236 745.775 91.4167 745.43 97.7311 745.292 100.819 744.568 102.803 743.257 103.683 742.273 104.598 739.694 105.072 735.519 105.107 735.381 104.33 735.113 103.433 734.717 102.415 736.304 102.553 737.874 102.64 739.427 102.674 741.911 102.881 743.222 101.026 743.36 97.11 743.671 93.6078 743.99 89.3291 744.318 84.2741L728.35 84.2741C727.436 84.2741 726.151 84.369 724.494 84.5588 725.806 77.5542 726.478 71.5934 726.513 66.6765L730.058 67.2199C729.247 67.9618 728.773 69.0056 728.635 70.3513 728.273 72.8184 727.755 76.8469 727.082 82.4367L737.744 82.4367C738.314 77.0194 738.736 72.8788 739.012 70.0148 739.34 66.9094 739.59 64.4595 739.763 62.6652L725.012 62.6652C723.96 62.6652 722.864 62.7515 721.725 62.924L721.725 60.5432C722.795 60.7157 723.891 60.8019 725.012 60.8019L738.107 60.8019C739.28 60.8019 740.66 60.7157 742.247 60.5432ZM698.15 86.2409C703.377 82.9284 707.423 75.829 710.287 64.9426L704.568 64.9426C703.653 64.9426 702.54 65.0288 701.229 65.2014L701.229 62.8205C702.54 62.993 703.653 63.0793 704.568 63.0793L716.161 63.0793C717.197 63.0793 718.387 62.993 719.733 62.8205L719.733 65.2014C718.283 65.0288 717.093 64.9426 716.161 64.9426L712.512 64.9426C711.063 70.3081 709.597 74.5091 708.113 77.5456L714.686 77.5456C715.601 77.5456 716.782 77.4593 718.232 77.2868 718.059 78.6325 717.973 79.8143 717.973 80.8322L717.973 97.8605C717.973 98.7404 718.059 99.8877 718.232 101.302L715.644 101.302C715.816 99.8877 715.903 98.7404 715.903 97.8605L715.903 96.903 708.165 96.903 708.165 98.7404C708.165 99.5513 708.251 100.699 708.424 102.182L705.836 102.182C706.008 100.854 706.094 99.7066 706.094 98.7404L706.094 80.8322C704.507 83.2303 702.851 85.4387 701.126 87.4572 700.211 87.0086 699.219 86.6032 698.15 86.2409ZM708.165 79.4089 708.165 95.0397 715.903 95.0397 715.903 79.4089Z" fill="#E7E6E6"/></g><rect x="217.5" y="45.5001" width="576" height="73" stroke="#333399" stroke-miterlimit="8" fill="#FFFFCC"/><text font-family="DengXian Light,DengXian Light_MSFontService,sans-serif" font-weight="300" font-size="53" transform="translate(226.6 96)">分类<tspan font-size="53" x="106.667" y="0">IP</tspan>地址和子网掩码</text></g></svg>