<svg width="960" height="720" xmlns="http://www.w3.org/2000/svg" xmlns:xlink="http://www.w3.org/1999/xlink" overflow="hidden"><defs><clipPath id="clip0"><rect x="0" y="0" width="960" height="720"/></clipPath></defs><g clip-path="url(#clip0)"><rect x="0" y="0" width="960" height="720" fill="#FFFFFF"/><text font-family="SimSun,SimSun_MSFontService,sans-serif" font-weight="700" font-size="43" transform="translate(54.1001 73)">隧道<tspan fill="#919293" font-family="Times New Roman,Times New Roman_MSFontService,sans-serif" font-weight="400" font-size="12" x="818.167" y="618">56</tspan></text><path d="M227.5 173.5C227.5 166.873 243.842 161.5 264 161.5 284.158 161.5 300.5 166.873 300.5 173.5 300.5 180.127 284.158 185.5 264 185.5 243.842 185.5 227.5 180.127 227.5 173.5Z" stroke="#000000" stroke-width="1.33333" stroke-linejoin="round" stroke-miterlimit="10" fill="#0563C1" fill-rule="evenodd"/><path d="M227.5 159.5 228.5 172.5" stroke="#000000" stroke-width="1.33333" stroke-linejoin="round" stroke-miterlimit="10" fill="none" fill-rule="evenodd"/><path d="M284.5 161.5 285.5 174.5" stroke="#000000" stroke-width="1.33333" stroke-linejoin="round" stroke-miterlimit="10" fill="none" fill-rule="evenodd"/><rect x="227" y="159" width="73" height="13" fill="#0563C1"/><path d="M226.5 162.5C226.5 155.873 243.066 150.5 263.5 150.5 283.935 150.5 300.5 155.873 300.5 162.5 300.5 169.127 283.935 174.5 263.5 174.5 243.066 174.5 226.5 169.127 226.5 162.5Z" stroke="#000000" stroke-width="1.33333" stroke-linejoin="round" stroke-miterlimit="10" fill="#0563C1" fill-rule="evenodd"/><path d="M0 0 13 1" stroke="#000000" stroke-width="2.66667" stroke-linejoin="round" stroke-miterlimit="10" fill="none" fill-rule="evenodd" transform="matrix(1 0 0 -1 244.5 155.5)"/><path d="M270.5 168.5 281.5 168.5" stroke="#000000" stroke-width="2.66667" stroke-linejoin="round" stroke-miterlimit="10" fill="none" fill-rule="evenodd"/><path d="M256.5 155.5 270.5 168.5" stroke="#000000" stroke-width="2.66667" stroke-linejoin="round" stroke-miterlimit="10" fill="none" fill-rule="evenodd"/><path d="M244.5 168.5 257.5 169.5" stroke="#000000" stroke-width="2.66667" stroke-linejoin="round" stroke-miterlimit="10" fill="none" fill-rule="evenodd"/><path d="M269.5 154.5 281.5 154.5" stroke="#000000" stroke-width="2.66667" stroke-linejoin="round" stroke-miterlimit="10" fill="none" fill-rule="evenodd"/><path d="M0 0 14 14" stroke="#000000" stroke-width="2.66667" stroke-linejoin="round" stroke-miterlimit="10" fill="none" fill-rule="evenodd" transform="matrix(1 0 0 -1 256.5 168.5)"/><text font-family="Comic Sans MS,Comic Sans MS_MSFontService,sans-serif" font-weight="700" font-size="24" transform="translate(254.333 146)">A</text><path d="M336.5 173.5C336.5 166.873 353.066 161.5 373.5 161.5 393.935 161.5 410.5 166.873 410.5 173.5 410.5 180.127 393.935 185.5 373.5 185.5 353.066 185.5 336.5 180.127 336.5 173.5Z" stroke="#000000" stroke-width="1.33333" stroke-linejoin="round" stroke-miterlimit="10" fill="#0563C1" fill-rule="evenodd"/><path d="M336.5 160.5 337.5 173.5" stroke="#000000" stroke-width="1.33333" stroke-linejoin="round" stroke-miterlimit="10" fill="none" fill-rule="evenodd"/><path d="M394.5 161.5 395.5 174.5" stroke="#000000" stroke-width="1.33333" stroke-linejoin="round" stroke-miterlimit="10" fill="none" fill-rule="evenodd"/><rect x="336" y="160" width="74" height="13" fill="#0563C1"/><path d="M336.5 163C336.5 156.096 353.066 150.5 373.5 150.5 393.935 150.5 410.5 156.096 410.5 163 410.5 169.904 393.935 175.5 373.5 175.5 353.066 175.5 336.5 169.904 336.5 163Z" stroke="#000000" stroke-width="1.33333" stroke-linejoin="round" stroke-miterlimit="10" fill="#0563C1" fill-rule="evenodd"/><path d="M0 0 13 1" stroke="#000000" stroke-width="2.66667" stroke-linejoin="round" stroke-miterlimit="10" fill="none" fill-rule="evenodd" transform="matrix(1 0 0 -1 354.5 156.5)"/><path d="M379.5 169.5 391.5 169.5" stroke="#000000" stroke-width="2.66667" stroke-linejoin="round" stroke-miterlimit="10" fill="none" fill-rule="evenodd"/><path d="M366.5 155.5 380.5 169.5" stroke="#000000" stroke-width="2.66667" stroke-linejoin="round" stroke-miterlimit="10" fill="none" fill-rule="evenodd"/><path d="M354.5 169.5 367.5 170.5" stroke="#000000" stroke-width="2.66667" stroke-linejoin="round" stroke-miterlimit="10" fill="none" fill-rule="evenodd"/><path d="M379.5 155.5 391.5 155.5" stroke="#000000" stroke-width="2.66667" stroke-linejoin="round" stroke-miterlimit="10" fill="none" fill-rule="evenodd"/><path d="M0 0 14 15" stroke="#000000" stroke-width="2.66667" stroke-linejoin="round" stroke-miterlimit="10" fill="none" fill-rule="evenodd" transform="matrix(1 0 0 -1 366.5 169.5)"/><text font-family="Comic Sans MS,Comic Sans MS_MSFontService,sans-serif" font-weight="700" font-size="24" transform="translate(364.167 146)">B</text><path d="M653.5 172.5C653.5 165.873 670.066 160.5 690.5 160.5 710.935 160.5 727.5 165.873 727.5 172.5 727.5 179.127 710.935 184.5 690.5 184.5 670.066 184.5 653.5 179.127 653.5 172.5Z" stroke="#000000" stroke-width="1.33333" stroke-linejoin="round" stroke-miterlimit="10" fill="#0563C1" fill-rule="evenodd"/><path d="M653.5 159.5 654.5 172.5" stroke="#000000" stroke-width="1.33333" stroke-linejoin="round" stroke-miterlimit="10" fill="none" fill-rule="evenodd"/><path d="M711.5 160.5 712.5 173.5" stroke="#000000" stroke-width="1.33333" stroke-linejoin="round" stroke-miterlimit="10" fill="none" fill-rule="evenodd"/><rect x="653" y="159" width="73" height="13" fill="#0563C1"/><path d="M652.5 162C652.5 155.096 669.066 149.5 689.5 149.5 709.935 149.5 726.5 155.096 726.5 162 726.5 168.904 709.935 174.5 689.5 174.5 669.066 174.5 652.5 168.904 652.5 162Z" stroke="#000000" stroke-width="1.33333" stroke-linejoin="round" stroke-miterlimit="10" fill="#0563C1" fill-rule="evenodd"/><path d="M0 0 14 1" stroke="#000000" stroke-width="2.66667" stroke-linejoin="round" stroke-miterlimit="10" fill="none" fill-rule="evenodd" transform="matrix(1 0 0 -1 670.5 155.5)"/><path d="M696.5 168.5 707.5 168.5" stroke="#000000" stroke-width="2.66667" stroke-linejoin="round" stroke-miterlimit="10" fill="none" fill-rule="evenodd"/><path d="M683.5 154.5 696.5 168.5" stroke="#000000" stroke-width="2.66667" stroke-linejoin="round" stroke-miterlimit="10" fill="none" fill-rule="evenodd"/><path d="M671.5 168.5 684.5 169.5" stroke="#000000" stroke-width="2.66667" stroke-linejoin="round" stroke-miterlimit="10" fill="none" fill-rule="evenodd"/><path d="M696.5 154.5 707.5 154.5" stroke="#000000" stroke-width="2.66667" stroke-linejoin="round" stroke-miterlimit="10" fill="none" fill-rule="evenodd"/><path d="M0 0 13 15" stroke="#000000" stroke-width="2.66667" stroke-linejoin="round" stroke-miterlimit="10" fill="none" fill-rule="evenodd" transform="matrix(1 0 0 -1 683.5 168.5)"/><text font-family="Comic Sans MS,Comic Sans MS_MSFontService,sans-serif" font-weight="700" font-size="24" transform="translate(680.667 145)">E</text><path d="M757.5 171.5C757.5 164.873 774.066 159.5 794.5 159.5 814.935 159.5 831.5 164.873 831.5 171.5 831.5 178.127 814.935 183.5 794.5 183.5 774.066 183.5 757.5 178.127 757.5 171.5Z" stroke="#000000" stroke-width="1.33333" stroke-linejoin="round" stroke-miterlimit="10" fill="#0563C1" fill-rule="evenodd"/><path d="M757.5 158.5 758.5 171.5" stroke="#000000" stroke-width="1.33333" stroke-linejoin="round" stroke-miterlimit="10" fill="none" fill-rule="evenodd"/><path d="M815.5 159.5 816.5 172.5" stroke="#000000" stroke-width="1.33333" stroke-linejoin="round" stroke-miterlimit="10" fill="none" fill-rule="evenodd"/><rect x="757" y="158" width="73" height="12" fill="#0563C1"/><path d="M756.5 160.5C756.5 153.873 773.066 148.5 793.5 148.5 813.935 148.5 830.5 153.873 830.5 160.5 830.5 167.127 813.935 172.5 793.5 172.5 773.066 172.5 756.5 167.127 756.5 160.5Z" stroke="#000000" stroke-width="1.33333" stroke-linejoin="round" stroke-miterlimit="10" fill="#0563C1" fill-rule="evenodd"/><path d="M0 0 14 1" stroke="#000000" stroke-width="2.66667" stroke-linejoin="round" stroke-miterlimit="10" fill="none" fill-rule="evenodd" transform="matrix(1 0 0 -1 774.5 154.5)"/><path d="M800.5 167.5 811.5 167.5" stroke="#000000" stroke-width="2.66667" stroke-linejoin="round" stroke-miterlimit="10" fill="none" fill-rule="evenodd"/><path d="M787.5 153.5 800.5 167.5" stroke="#000000" stroke-width="2.66667" stroke-linejoin="round" stroke-miterlimit="10" fill="none" fill-rule="evenodd"/><path d="M775.5 167.5 788.5 168.5" stroke="#000000" stroke-width="2.66667" stroke-linejoin="round" stroke-miterlimit="10" fill="none" fill-rule="evenodd"/><path d="M800.5 152.5 811.5 152.5" stroke="#000000" stroke-width="2.66667" stroke-linejoin="round" stroke-miterlimit="10" fill="none" fill-rule="evenodd"/><path d="M0 0 13 14" stroke="#000000" stroke-width="2.66667" stroke-linejoin="round" stroke-miterlimit="10" fill="none" fill-rule="evenodd" transform="matrix(1 0 0 -1 787.5 166.5)"/><text font-family="Comic Sans MS,Comic Sans MS_MSFontService,sans-serif" font-weight="700" font-size="24" transform="translate(784.667 144)">F</text><rect x="410.5" y="167.5" width="239" height="7" stroke="#FF0000" stroke-width="1.33333" stroke-miterlimit="8" fill="#FF0000"/><path d="M302.5 169.5 336.5 169.5" stroke="#000000" stroke-width="1.33333" stroke-linejoin="round" stroke-miterlimit="10" fill="none" fill-rule="evenodd"/><path d="M726.5 167.5 760.5 167.5" stroke="#000000" stroke-width="1.33333" stroke-linejoin="round" stroke-miterlimit="10" fill="none" fill-rule="evenodd"/><text font-family="Comic Sans MS,Comic Sans MS_MSFontService,sans-serif" font-weight="700" font-size="21" transform="translate(241.667 206)">IPv6<tspan font-size="21" x="109.833" y="0">IPv6</tspan><tspan font-size="21" x="427.5" y="0">IPv6</tspan><tspan font-size="21" x="530.5" y="0">IPv6</tspan><tspan fill="#44546A" font-size="21" x="258" y="-50">tunnel</tspan><tspan font-family="SimSun,SimSun_MSFontService,sans-serif" font-size="24" x="-188.5" y="-40">逻辑观点</tspan><tspan font-size="24" x="-91.8333" y="-40">:</tspan><tspan font-family="SimSun,SimSun_MSFontService,sans-serif" font-size="24" x="-187.5" y="81">物理观点</tspan><tspan font-size="24" x="-90.8333" y="81">:</tspan></text><path d="M226.5 292C226.5 285.096 242.842 279.5 263 279.5 283.158 279.5 299.5 285.096 299.5 292 299.5 298.904 283.158 304.5 263 304.5 242.842 304.5 226.5 298.904 226.5 292Z" stroke="#000000" stroke-width="1.33333" stroke-linejoin="round" stroke-miterlimit="10" fill="#0563C1" fill-rule="evenodd"/><path d="M226.5 278.5 227.5 291.5" stroke="#000000" stroke-width="1.33333" stroke-linejoin="round" stroke-miterlimit="10" fill="none" fill-rule="evenodd"/><path d="M283.5 279.5 284.5 292.5" stroke="#000000" stroke-width="1.33333" stroke-linejoin="round" stroke-miterlimit="10" fill="none" fill-rule="evenodd"/><rect x="226" y="278" width="73" height="13" fill="#0563C1"/><path d="M225.5 281C225.5 274.096 242.066 268.5 262.5 268.5 282.935 268.5 299.5 274.096 299.5 281 299.5 287.904 282.935 293.5 262.5 293.5 242.066 293.5 225.5 287.904 225.5 281Z" stroke="#000000" stroke-width="1.33333" stroke-linejoin="round" stroke-miterlimit="10" fill="#0563C1" fill-rule="evenodd"/><path d="M0 0 13 1" stroke="#000000" stroke-width="2.66667" stroke-linejoin="round" stroke-miterlimit="10" fill="none" fill-rule="evenodd" transform="matrix(1 0 0 -1 243.5 274.5)"/><path d="M269.5 287.5 280.5 287.5" stroke="#000000" stroke-width="2.66667" stroke-linejoin="round" stroke-miterlimit="10" fill="none" fill-rule="evenodd"/><path d="M255.5 273.5 269.5 287.5" stroke="#000000" stroke-width="2.66667" stroke-linejoin="round" stroke-miterlimit="10" fill="none" fill-rule="evenodd"/><path d="M243.5 287.5 256.5 288.5" stroke="#000000" stroke-width="2.66667" stroke-linejoin="round" stroke-miterlimit="10" fill="none" fill-rule="evenodd"/><path d="M268.5 273.5 280.5 273.5" stroke="#000000" stroke-width="2.66667" stroke-linejoin="round" stroke-miterlimit="10" fill="none" fill-rule="evenodd"/><path d="M0 0 14 14" stroke="#000000" stroke-width="2.66667" stroke-linejoin="round" stroke-miterlimit="10" fill="none" fill-rule="evenodd" transform="matrix(1 0 0 -1 255.5 287.5)"/><text font-family="Comic Sans MS,Comic Sans MS_MSFontService,sans-serif" font-weight="700" font-size="24" transform="translate(253.333 265)">A</text><path d="M335.5 292.5C335.5 285.873 352.066 280.5 372.5 280.5 392.935 280.5 409.5 285.873 409.5 292.5 409.5 299.127 392.935 304.5 372.5 304.5 352.066 304.5 335.5 299.127 335.5 292.5Z" stroke="#000000" stroke-width="1.33333" stroke-linejoin="round" stroke-miterlimit="10" fill="#0563C1" fill-rule="evenodd"/><path d="M335.5 279.5 336.5 292.5" stroke="#000000" stroke-width="1.33333" stroke-linejoin="round" stroke-miterlimit="10" fill="none" fill-rule="evenodd"/><path d="M393.5 280.5 394.5 293.5" stroke="#000000" stroke-width="1.33333" stroke-linejoin="round" stroke-miterlimit="10" fill="none" fill-rule="evenodd"/><rect x="335" y="279" width="74" height="12" fill="#0563C1"/><path d="M335.5 281.5C335.5 274.873 352.066 269.5 372.5 269.5 392.935 269.5 409.5 274.873 409.5 281.5 409.5 288.127 392.935 293.5 372.5 293.5 352.066 293.5 335.5 288.127 335.5 281.5Z" stroke="#000000" stroke-width="1.33333" stroke-linejoin="round" stroke-miterlimit="10" fill="#0563C1" fill-rule="evenodd"/><path d="M0 0 13 1" stroke="#000000" stroke-width="2.66667" stroke-linejoin="round" stroke-miterlimit="10" fill="none" fill-rule="evenodd" transform="matrix(1 0 0 -1 353.5 275.5)"/><path d="M378.5 288.5 390.5 288.5" stroke="#000000" stroke-width="2.66667" stroke-linejoin="round" stroke-miterlimit="10" fill="none" fill-rule="evenodd"/><path d="M365.5 274.5 379.5 288.5" stroke="#000000" stroke-width="2.66667" stroke-linejoin="round" stroke-miterlimit="10" fill="none" fill-rule="evenodd"/><path d="M353.5 288.5 366.5 289.5" stroke="#000000" stroke-width="2.66667" stroke-linejoin="round" stroke-miterlimit="10" fill="none" fill-rule="evenodd"/><path d="M378.5 273.5 390.5 273.5" stroke="#000000" stroke-width="2.66667" stroke-linejoin="round" stroke-miterlimit="10" fill="none" fill-rule="evenodd"/><path d="M0 0 14 14" stroke="#000000" stroke-width="2.66667" stroke-linejoin="round" stroke-miterlimit="10" fill="none" fill-rule="evenodd" transform="matrix(1 0 0 -1 365.5 287.5)"/><text font-family="Comic Sans MS,Comic Sans MS_MSFontService,sans-serif" font-weight="700" font-size="24" transform="translate(363.167 265)">B</text><path d="M652.5 291.5C652.5 284.873 669.066 279.5 689.5 279.5 709.935 279.5 726.5 284.873 726.5 291.5 726.5 298.127 709.935 303.5 689.5 303.5 669.066 303.5 652.5 298.127 652.5 291.5Z" stroke="#000000" stroke-width="1.33333" stroke-linejoin="round" stroke-miterlimit="10" fill="#0563C1" fill-rule="evenodd"/><path d="M652.5 278.5 653.5 291.5" stroke="#000000" stroke-width="1.33333" stroke-linejoin="round" stroke-miterlimit="10" fill="none" fill-rule="evenodd"/><path d="M710.5 279.5 711.5 292.5" stroke="#000000" stroke-width="1.33333" stroke-linejoin="round" stroke-miterlimit="10" fill="none" fill-rule="evenodd"/><rect x="652" y="278" width="73" height="12" fill="#0563C1"/><path d="M651.5 280.5C651.5 273.873 668.066 268.5 688.5 268.5 708.935 268.5 725.5 273.873 725.5 280.5 725.5 287.127 708.935 292.5 688.5 292.5 668.066 292.5 651.5 287.127 651.5 280.5Z" stroke="#000000" stroke-width="1.33333" stroke-linejoin="round" stroke-miterlimit="10" fill="#0563C1" fill-rule="evenodd"/><path d="M0 0 14 1" stroke="#000000" stroke-width="2.66667" stroke-linejoin="round" stroke-miterlimit="10" fill="none" fill-rule="evenodd" transform="matrix(1 0 0 -1 669.5 274.5)"/><path d="M695.5 287.5 706.5 287.5" stroke="#000000" stroke-width="2.66667" stroke-linejoin="round" stroke-miterlimit="10" fill="none" fill-rule="evenodd"/><path d="M682.5 273.5 695.5 287.5" stroke="#000000" stroke-width="2.66667" stroke-linejoin="round" stroke-miterlimit="10" fill="none" fill-rule="evenodd"/><path d="M670.5 287.5 683.5 288.5" stroke="#000000" stroke-width="2.66667" stroke-linejoin="round" stroke-miterlimit="10" fill="none" fill-rule="evenodd"/><path d="M695.5 272.5 706.5 272.5" stroke="#000000" stroke-width="2.66667" stroke-linejoin="round" stroke-miterlimit="10" fill="none" fill-rule="evenodd"/><path d="M0 0 13 14" stroke="#000000" stroke-width="2.66667" stroke-linejoin="round" stroke-miterlimit="10" fill="none" fill-rule="evenodd" transform="matrix(1 0 0 -1 682.5 286.5)"/><text font-family="Comic Sans MS,Comic Sans MS_MSFontService,sans-serif" font-weight="700" font-size="24" transform="translate(679.667 264)">E</text><path d="M756.5 290.5C756.5 283.873 773.066 278.5 793.5 278.5 813.935 278.5 830.5 283.873 830.5 290.5 830.5 297.127 813.935 302.5 793.5 302.5 773.066 302.5 756.5 297.127 756.5 290.5Z" stroke="#000000" stroke-width="1.33333" stroke-linejoin="round" stroke-miterlimit="10" fill="#0563C1" fill-rule="evenodd"/><path d="M756.5 277.5 757.5 290.5" stroke="#000000" stroke-width="1.33333" stroke-linejoin="round" stroke-miterlimit="10" fill="none" fill-rule="evenodd"/><path d="M814.5 278.5 815.5 291.5" stroke="#000000" stroke-width="1.33333" stroke-linejoin="round" stroke-miterlimit="10" fill="none" fill-rule="evenodd"/><rect x="756" y="277" width="73" height="12" fill="#0563C1"/><path d="M755.5 279.5C755.5 272.873 772.066 267.5 792.5 267.5 812.935 267.5 829.5 272.873 829.5 279.5 829.5 286.127 812.935 291.5 792.5 291.5 772.066 291.5 755.5 286.127 755.5 279.5Z" stroke="#000000" stroke-width="1.33333" stroke-linejoin="round" stroke-miterlimit="10" fill="#0563C1" fill-rule="evenodd"/><path d="M0 0 14 1" stroke="#000000" stroke-width="2.66667" stroke-linejoin="round" stroke-miterlimit="10" fill="none" fill-rule="evenodd" transform="matrix(1 0 0 -1 773.5 272.5)"/><path d="M799.5 286.5 810.5 286.5" stroke="#000000" stroke-width="2.66667" stroke-linejoin="round" stroke-miterlimit="10" fill="none" fill-rule="evenodd"/><path d="M786.5 272.5 799.5 286.5" stroke="#000000" stroke-width="2.66667" stroke-linejoin="round" stroke-miterlimit="10" fill="none" fill-rule="evenodd"/><path d="M774.5 285.5 787.5 286.5" stroke="#000000" stroke-width="2.66667" stroke-linejoin="round" stroke-miterlimit="10" fill="none" fill-rule="evenodd"/><path d="M799.5 271.5 810.5 271.5" stroke="#000000" stroke-width="2.66667" stroke-linejoin="round" stroke-miterlimit="10" fill="none" fill-rule="evenodd"/><path d="M0 0 13 14" stroke="#000000" stroke-width="2.66667" stroke-linejoin="round" stroke-miterlimit="10" fill="none" fill-rule="evenodd" transform="matrix(1 0 0 -1 786.5 285.5)"/><text font-family="Comic Sans MS,Comic Sans MS_MSFontService,sans-serif" font-weight="700" font-size="24" transform="translate(783.667 263)">F</text><path d="M301.5 288.5 335.5 288.5" stroke="#000000" stroke-width="1.33333" stroke-linejoin="round" stroke-miterlimit="10" fill="none" fill-rule="evenodd"/><path d="M725.5 286.5 759.5 286.5" stroke="#000000" stroke-width="1.33333" stroke-linejoin="round" stroke-miterlimit="10" fill="none" fill-rule="evenodd"/><text font-family="Comic Sans MS,Comic Sans MS_MSFontService,sans-serif" font-weight="700" font-size="21" transform="translate(240.667 325)">IPv6<tspan font-size="21" x="109.833" y="0">IPv6</tspan><tspan font-size="21" x="427.5" y="-1">IPv6</tspan><tspan font-size="21" x="530.5" y="0">IPv6</tspan></text><path d="M409.5 287.5 653.5 287.5" stroke="#000000" stroke-width="1.33333" stroke-linejoin="round" stroke-miterlimit="10" fill="none" fill-rule="evenodd"/><path d="M440.5 293C440.5 286.096 457.066 280.5 477.5 280.5 497.935 280.5 514.5 286.096 514.5 293 514.5 299.904 497.935 305.5 477.5 305.5 457.066 305.5 440.5 299.904 440.5 293Z" stroke="#000000" stroke-width="1.33333" stroke-linejoin="round" stroke-miterlimit="10" fill="#0563C1" fill-rule="evenodd"/><path d="M440.5 279.5 441.5 292.5" stroke="#000000" stroke-width="1.33333" stroke-linejoin="round" stroke-miterlimit="10" fill="none" fill-rule="evenodd"/><path d="M498.5 280.5 499.5 293.5" stroke="#000000" stroke-width="1.33333" stroke-linejoin="round" stroke-miterlimit="10" fill="none" fill-rule="evenodd"/><rect x="440" y="279" width="73" height="13" fill="#0563C1"/><path d="M439.5 282C439.5 275.096 456.066 269.5 476.5 269.5 496.935 269.5 513.5 275.096 513.5 282 513.5 288.904 496.935 294.5 476.5 294.5 456.066 294.5 439.5 288.904 439.5 282Z" stroke="#000000" stroke-width="1.33333" stroke-linejoin="round" stroke-miterlimit="10" fill="#0563C1" fill-rule="evenodd"/><path d="M0 0 13 1" stroke="#000000" stroke-width="2.66667" stroke-linejoin="round" stroke-miterlimit="10" fill="none" fill-rule="evenodd" transform="matrix(1 0 0 -1 457.5 275.5)"/><path d="M483.5 288.5 494.5 288.5" stroke="#000000" stroke-width="2.66667" stroke-linejoin="round" stroke-miterlimit="10" fill="none" fill-rule="evenodd"/><path d="M470.5 274.5 483.5 288.5" stroke="#000000" stroke-width="2.66667" stroke-linejoin="round" stroke-miterlimit="10" fill="none" fill-rule="evenodd"/><path d="M457.5 288.5 471.5 289.5" stroke="#000000" stroke-width="2.66667" stroke-linejoin="round" stroke-miterlimit="10" fill="none" fill-rule="evenodd"/><path d="M483.5 274.5 494.5 274.5" stroke="#000000" stroke-width="2.66667" stroke-linejoin="round" stroke-miterlimit="10" fill="none" fill-rule="evenodd"/><path d="M0 0 13 14" stroke="#000000" stroke-width="2.66667" stroke-linejoin="round" stroke-miterlimit="10" fill="none" fill-rule="evenodd" transform="matrix(1 0 0 -1 470.5 288.5)"/><text font-family="Comic Sans MS,Comic Sans MS_MSFontService,sans-serif" font-weight="700" font-size="24" transform="translate(467.5 265)">C</text><path d="M544.5 292C544.5 285.096 560.842 279.5 581 279.5 601.158 279.5 617.5 285.096 617.5 292 617.5 298.904 601.158 304.5 581 304.5 560.842 304.5 544.5 298.904 544.5 292Z" stroke="#000000" stroke-width="1.33333" stroke-linejoin="round" stroke-miterlimit="10" fill="#0563C1" fill-rule="evenodd"/><path d="M544.5 278.5 545.5 291.5" stroke="#000000" stroke-width="1.33333" stroke-linejoin="round" stroke-miterlimit="10" fill="none" fill-rule="evenodd"/><path d="M601.5 279.5 602.5 292.5" stroke="#000000" stroke-width="1.33333" stroke-linejoin="round" stroke-miterlimit="10" fill="none" fill-rule="evenodd"/><rect x="544" y="278" width="73" height="13" fill="#0563C1"/><path d="M543.5 281C543.5 274.096 560.066 268.5 580.5 268.5 600.935 268.5 617.5 274.096 617.5 281 617.5 287.904 600.935 293.5 580.5 293.5 560.066 293.5 543.5 287.904 543.5 281Z" stroke="#000000" stroke-width="1.33333" stroke-linejoin="round" stroke-miterlimit="10" fill="#0563C1" fill-rule="evenodd"/><path d="M0 0 13 1" stroke="#000000" stroke-width="2.66667" stroke-linejoin="round" stroke-miterlimit="10" fill="none" fill-rule="evenodd" transform="matrix(1 0 0 -1 561.5 274.5)"/><path d="M587.5 287.5 598.5 287.5" stroke="#000000" stroke-width="2.66667" stroke-linejoin="round" stroke-miterlimit="10" fill="none" fill-rule="evenodd"/><path d="M573.5 273.5 587.5 287.5" stroke="#000000" stroke-width="2.66667" stroke-linejoin="round" stroke-miterlimit="10" fill="none" fill-rule="evenodd"/><path d="M561.5 287.5 574.5 288.5" stroke="#000000" stroke-width="2.66667" stroke-linejoin="round" stroke-miterlimit="10" fill="none" fill-rule="evenodd"/><path d="M586.5 273.5 598.5 273.5" stroke="#000000" stroke-width="2.66667" stroke-linejoin="round" stroke-miterlimit="10" fill="none" fill-rule="evenodd"/><path d="M0 0 14 14" stroke="#000000" stroke-width="2.66667" stroke-linejoin="round" stroke-miterlimit="10" fill="none" fill-rule="evenodd" transform="matrix(1 0 0 -1 573.5 287.5)"/><text font-family="Comic Sans MS,Comic Sans MS_MSFontService,sans-serif" font-weight="700" font-size="24" transform="translate(571.333 264)">D<tspan fill="#44546A" font-size="21" x="-117.833" y="62">IPv4</tspan><tspan fill="#44546A" font-size="21" x="-13.4999" y="62">IPv4</tspan></text><rect x="273.5" y="342.5" width="76" height="151" stroke="#000000" stroke-width="1.33333" stroke-miterlimit="8" fill="#FFFFFF"/><text font-family="Comic Sans MS,Comic Sans MS_MSFontService,sans-serif" font-weight="700" font-size="19" transform="translate(278.167 368)">Flow: X<tspan font-size="19" x="0" y="22">Src: A</tspan><tspan font-size="19" x="0" y="45">Dest: F</tspan><tspan font-size="19" x="0" y="112">data</tspan></text><rect x="709.5" y="344.5" width="76" height="151" stroke="#000000" stroke-width="1.33333" stroke-miterlimit="8" fill="#FFFFFF"/><text font-family="Comic Sans MS,Comic Sans MS_MSFontService,sans-serif" font-weight="700" font-size="19" transform="translate(714.167 370)">Flow: X<tspan font-size="19" x="0" y="22">Src: A</tspan><tspan font-size="19" x="0" y="45">Dest: F</tspan><tspan font-size="19" x="0" y="112">data</tspan></text><rect x="384.5" y="342.5" width="97" height="230" stroke="#000000" stroke-width="1.33333" stroke-miterlimit="8" fill="#FF0000"/><rect x="392.5" y="406.5" width="76" height="151" stroke="#000000" stroke-width="1.33333" stroke-miterlimit="8" fill="#FFFFFF"/><text font-family="Comic Sans MS,Comic Sans MS_MSFontService,sans-serif" font-weight="700" font-size="19" transform="translate(397.167 432)">Flow: X<tspan font-size="19" x="0" y="22">Src: A</tspan><tspan font-size="19" x="0" y="45">Dest: F</tspan><tspan font-size="19" x="0" y="112">data</tspan><tspan font-size="24" x="-9.66666" y="-62">Src:B</tspan><tspan font-size="24" x="-9.66666" y="-33">Dest: E</tspan></text><path d="M273.5 331.833 341.167 331.833 341.167 333.167 273.5 333.167ZM341.167 332.5 338.5 328.5 346.5 332.5 338.5 336.5Z"/><path d="M391.5 331.833 458.167 331.833 458.167 333.167 391.5 333.167ZM458.167 332.5 455.5 328.5 463.5 332.5 455.5 336.5Z"/><path d="M605.5 332.833 672.167 332.833 672.167 334.167 605.5 334.167ZM672.167 333.5 669.5 329.5 677.5 333.5 669.5 337.5Z"/><path d="M715.5 332.833 783.167 332.833 783.167 334.167 715.5 334.167ZM783.167 333.5 780.5 329.5 788.5 333.5 780.5 337.5Z"/><rect x="596.5" y="343.5" width="96" height="230" stroke="#000000" stroke-width="1.33333" stroke-miterlimit="8" fill="#FF0000"/><rect x="603.5" y="407.5" width="77" height="151" stroke="#000000" stroke-width="1.33333" stroke-miterlimit="8" fill="#FFFFFF"/><text font-family="Comic Sans MS,Comic Sans MS_MSFontService,sans-serif" font-weight="700" font-size="19" transform="translate(608.5 433)">Flow: X<tspan font-size="19" x="0" y="22">Src: A</tspan><tspan font-size="19" x="0" y="45">Dest: F</tspan><tspan font-size="19" x="0" y="112">data</tspan><tspan font-size="24" x="-9.66669" y="-63">Src:B</tspan><tspan font-size="24" x="-9.66669" y="-34">Dest: E</tspan><tspan font-size="21" x="-339.833" y="182">A</tspan><tspan font-size="21" x="-324.167" y="182">-</tspan><tspan font-size="21" x="-311.167" y="182">to</tspan><tspan font-size="21" x="-290" y="182">-</tspan><tspan font-size="21" x="-277" y="182">B:</tspan><tspan font-size="21" x="-320.167" y="208">IPv6</tspan></text><path d="M310.167 521.833 310.167 599.5 308.833 599.5 308.833 521.833ZM309.5 521.833 305.5 524.5 309.5 516.5 313.5 524.5Z"/><text font-family="Comic Sans MS,Comic Sans MS_MSFontService,sans-serif" font-weight="700" font-size="21" transform="translate(717.333 616)">E<tspan font-size="21" x="13.3334" y="0">-</tspan>to<tspan font-size="21" x="47.5" y="0">-</tspan>F:<tspan font-size="21" x="18.2467" y="26">IPv6</tspan></text><path d="M758.167 523.833 758.167 600.5 756.833 600.5 756.833 523.833ZM757.5 523.833 753.5 526.5 757.5 518.5 761.5 526.5Z"/><text font-family="Comic Sans MS,Comic Sans MS_MSFontService,sans-serif" font-weight="700" font-size="21" transform="translate(392.08 628)">B-to<tspan font-size="21" x="47.6667" y="0">-</tspan>C:<tspan font-size="21" x="-15.2467" y="26">IPv6 inside</tspan><tspan font-size="21" x="18.42" y="51">IPv4</tspan></text><path d="M432.167 584.833 432.167 598.5 430.833 598.5 430.833 584.833ZM431.5 584.833 427.5 587.5 431.5 579.5 435.5 587.5Z"/><text font-family="Comic Sans MS,Comic Sans MS_MSFontService,sans-serif" font-weight="700" font-size="21" transform="translate(603.747 629)">D<tspan font-size="21" x="15.3334" y="0">-</tspan>to<tspan font-size="21" x="49.5" y="0">-</tspan>E:<tspan font-size="21" x="-14.2466" y="26">IPv6 inside</tspan><tspan font-size="21" x="19.42" y="51">IPv4</tspan></text><path d="M645.167 585.833 645.167 599.5 643.833 599.5 643.833 585.833ZM644.5 585.833 640.5 588.5 644.5 580.5 648.5 588.5Z"/></g></svg>