<svg width="960" height="720" xmlns="http://www.w3.org/2000/svg" xmlns:xlink="http://www.w3.org/1999/xlink" overflow="hidden"><defs><clipPath id="clip0"><rect x="0" y="0" width="960" height="720"/></clipPath></defs><g clip-path="url(#clip0)"><rect x="0" y="0" width="960" height="720" fill="#FFFFFF"/><text font-family="Arial,Arial_MSFontService,sans-serif" font-weight="700" font-size="32" transform="translate(81.8571 160)">FDMA</text><path d="M1.33333-1.02928e-06 1.33343 130.667-1.33323 130.667-1.33333 1.02928e-06ZM0.00010087 130.667 4.0001 128 0.000104987 136-3.9999 128Z" transform="matrix(1 0 0 -1 312.5 325.5)"/><text font-family="Arial,Arial_MSFontService,sans-serif" font-weight="700" font-size="32" transform="translate(153.857 273)">frequency</text><path d="M312.5 324.167 827.172 324.167 827.172 326.833 312.5 326.833ZM827.167 325.5 824.5 321.5 832.5 325.5 824.5 329.5Z"/><text font-family="Arial,Arial_MSFontService,sans-serif" font-weight="700" font-size="32" transform="translate(541.857 368)">time</text><rect x="320.5" y="221.5" width="480" height="96" stroke="#000000" stroke-width="1.33333" stroke-miterlimit="8" fill="#5B9BD5"/><rect x="319.5" y="222.5" width="480" height="24" stroke="#000000" stroke-width="1.33333" stroke-miterlimit="8" fill="#3366FF"/><rect x="319.5" y="246.5" width="480" height="24" stroke="#000000" stroke-width="1.33333" stroke-miterlimit="8" fill="#99CC00"/><rect x="319.5" y="270.5" width="480" height="24" stroke="#000000" stroke-width="1.33333" stroke-miterlimit="8" fill="#FFCC00"/><rect x="319.5" y="294.5" width="480" height="24" stroke="#000000" stroke-width="1.33333" stroke-miterlimit="8" fill="#FF00FF"/><text font-family="Arial,Arial_MSFontService,sans-serif" font-weight="700" font-size="32" transform="translate(80.5238 418)">TDMA</text><path d="M1.33333-1.02928e-06 1.33343 130.667-1.33323 130.667-1.33333 1.02928e-06ZM0.00010087 130.667 4.0001 128 0.000104987 136-3.9999 128Z" transform="matrix(1 0 0 -1 311.5 590.5)"/><text font-family="Arial,Arial_MSFontService,sans-serif" font-weight="700" font-size="32" transform="translate(152.524 538)">frequency</text><path d="M311.5 589.167 826.172 589.167 826.172 591.833 311.5 591.833ZM826.167 590.5 823.5 586.5 831.5 590.5 823.5 594.5Z"/><text font-family="Arial,Arial_MSFontService,sans-serif" font-weight="700" font-size="32" transform="translate(540.524 634)">time</text><rect x="319.5" y="486.5" width="480" height="96" stroke="#000000" stroke-width="1.33333" stroke-miterlimit="8" fill="#5B9BD5"/><rect x="319.5" y="486.5" width="24" height="96" stroke="#000000" stroke-width="1.33333" stroke-miterlimit="8" fill="#3366FF"/><rect x="415.5" y="486.5" width="24" height="96" stroke="#000000" stroke-width="1.33333" stroke-miterlimit="8" fill="#3366FF"/><rect x="511.5" y="486.5" width="24" height="96" stroke="#000000" stroke-width="1.33333" stroke-miterlimit="8" fill="#3366FF"/><rect x="607.5" y="486.5" width="24" height="96" stroke="#000000" stroke-width="1.33333" stroke-miterlimit="8" fill="#3366FF"/><rect x="703.5" y="486.5" width="24" height="96" stroke="#000000" stroke-width="1.33333" stroke-miterlimit="8" fill="#3366FF"/><rect x="343.5" y="486.5" width="24" height="96" stroke="#000000" stroke-width="1.33333" stroke-miterlimit="8" fill="#99CC00"/><rect x="439.5" y="486.5" width="24" height="96" stroke="#000000" stroke-width="1.33333" stroke-miterlimit="8" fill="#99CC00"/><rect x="535.5" y="486.5" width="24" height="96" stroke="#000000" stroke-width="1.33333" stroke-miterlimit="8" fill="#99CC00"/><rect x="631.5" y="486.5" width="24" height="96" stroke="#000000" stroke-width="1.33333" stroke-miterlimit="8" fill="#99CC00"/><rect x="727.5" y="486.5" width="24" height="96" stroke="#000000" stroke-width="1.33333" stroke-miterlimit="8" fill="#99CC00"/><rect x="367.5" y="486.5" width="24" height="96" stroke="#000000" stroke-width="1.33333" stroke-miterlimit="8" fill="#FFCC00"/><rect x="463.5" y="486.5" width="24" height="96" stroke="#000000" stroke-width="1.33333" stroke-miterlimit="8" fill="#FFCC00"/><rect x="559.5" y="486.5" width="24" height="96" stroke="#000000" stroke-width="1.33333" stroke-miterlimit="8" fill="#FFCC00"/><rect x="655.5" y="486.5" width="24" height="96" stroke="#000000" stroke-width="1.33333" stroke-miterlimit="8" fill="#FFCC00"/><rect x="751.5" y="486.5" width="24" height="96" stroke="#000000" stroke-width="1.33333" stroke-miterlimit="8" fill="#FFCC00"/><rect x="391.5" y="486.5" width="24" height="96" stroke="#000000" stroke-width="1.33333" stroke-miterlimit="8" fill="#FF00FF"/><rect x="487.5" y="486.5" width="24" height="96" stroke="#000000" stroke-width="1.33333" stroke-miterlimit="8" fill="#FF00FF"/><rect x="583.5" y="486.5" width="24" height="96" stroke="#000000" stroke-width="1.33333" stroke-miterlimit="8" fill="#FF00FF"/><rect x="679.5" y="486.5" width="24" height="96" stroke="#000000" stroke-width="1.33333" stroke-miterlimit="8" fill="#FF00FF"/><rect x="775.5" y="486.5" width="24" height="96" stroke="#000000" stroke-width="1.33333" stroke-miterlimit="8" fill="#FF00FF"/><path d="M319.5 246.5 799.5 246.5" stroke="#000000" stroke-width="1.33333" stroke-linejoin="round" stroke-miterlimit="10" fill="none" fill-rule="evenodd"/><path d="M319.5 270.5 799.5 270.5" stroke="#000000" stroke-width="1.33333" stroke-linejoin="round" stroke-miterlimit="10" fill="none" fill-rule="evenodd"/><path d="M319.5 294.5 799.5 294.5" stroke="#000000" stroke-width="1.33333" stroke-linejoin="round" stroke-miterlimit="10" fill="none" fill-rule="evenodd"/><path d="M343.5 486.5 343.5 582.5" stroke="#000000" stroke-width="1.33333" stroke-linejoin="round" stroke-miterlimit="10" fill="none" fill-rule="evenodd"/><path d="M367.5 486.5 367.5 582.5" stroke="#000000" stroke-width="1.33333" stroke-linejoin="round" stroke-miterlimit="10" fill="none" fill-rule="evenodd"/><path d="M391.5 486.5 391.5 582.5" stroke="#000000" stroke-width="1.33333" stroke-linejoin="round" stroke-miterlimit="10" fill="none" fill-rule="evenodd"/><path d="M415.5 486.5 415.5 582.5" stroke="#000000" stroke-width="1.33333" stroke-linejoin="round" stroke-miterlimit="10" fill="none" fill-rule="evenodd"/><path d="M439.5 486.5 439.5 582.5" stroke="#000000" stroke-width="1.33333" stroke-linejoin="round" stroke-miterlimit="10" fill="none" fill-rule="evenodd"/><path d="M463.5 486.5 463.5 582.5" stroke="#000000" stroke-width="1.33333" stroke-linejoin="round" stroke-miterlimit="10" fill="none" fill-rule="evenodd"/><path d="M487.5 486.5 487.5 582.5" stroke="#000000" stroke-width="1.33333" stroke-linejoin="round" stroke-miterlimit="10" fill="none" fill-rule="evenodd"/><path d="M511.5 486.5 511.5 582.5" stroke="#000000" stroke-width="1.33333" stroke-linejoin="round" stroke-miterlimit="10" fill="none" fill-rule="evenodd"/><path d="M535.5 486.5 535.5 582.5" stroke="#000000" stroke-width="1.33333" stroke-linejoin="round" stroke-miterlimit="10" fill="none" fill-rule="evenodd"/><path d="M559.5 486.5 559.5 582.5" stroke="#000000" stroke-width="1.33333" stroke-linejoin="round" stroke-miterlimit="10" fill="none" fill-rule="evenodd"/><path d="M583.5 486.5 583.5 582.5" stroke="#000000" stroke-width="1.33333" stroke-linejoin="round" stroke-miterlimit="10" fill="none" fill-rule="evenodd"/><path d="M607.5 486.5 607.5 582.5" stroke="#000000" stroke-width="1.33333" stroke-linejoin="round" stroke-miterlimit="10" fill="none" fill-rule="evenodd"/><path d="M631.5 486.5 631.5 582.5" stroke="#000000" stroke-width="1.33333" stroke-linejoin="round" stroke-miterlimit="10" fill="none" fill-rule="evenodd"/><path d="M655.5 486.5 655.5 582.5" stroke="#000000" stroke-width="1.33333" stroke-linejoin="round" stroke-miterlimit="10" fill="none" fill-rule="evenodd"/><path d="M679.5 486.5 679.5 582.5" stroke="#000000" stroke-width="1.33333" stroke-linejoin="round" stroke-miterlimit="10" fill="none" fill-rule="evenodd"/><path d="M703.5 486.5 703.5 582.5" stroke="#000000" stroke-width="1.33333" stroke-linejoin="round" stroke-miterlimit="10" fill="none" fill-rule="evenodd"/><path d="M727.5 486.5 727.5 582.5" stroke="#000000" stroke-width="1.33333" stroke-linejoin="round" stroke-miterlimit="10" fill="none" fill-rule="evenodd"/><path d="M751.5 486.5 751.5 582.5" stroke="#000000" stroke-width="1.33333" stroke-linejoin="round" stroke-miterlimit="10" fill="none" fill-rule="evenodd"/><path d="M775.5 486.5 775.5 582.5" stroke="#000000" stroke-width="1.33333" stroke-linejoin="round" stroke-miterlimit="10" fill="none" fill-rule="evenodd"/><path d="M319.5 234.5 799.5 234.5" stroke="#000000" stroke-width="1.33333" stroke-linejoin="round" stroke-miterlimit="10" stroke-dasharray="5.33333 4" fill="none" fill-rule="evenodd"/><path d="M319.5 258.5 799.5 258.5" stroke="#000000" stroke-width="1.33333" stroke-linejoin="round" stroke-miterlimit="10" stroke-dasharray="5.33333 4" fill="none" fill-rule="evenodd"/><path d="M319.5 282.5 799.5 282.5" stroke="#000000" stroke-width="1.33333" stroke-linejoin="round" stroke-miterlimit="10" stroke-dasharray="5.33333 4" fill="none" fill-rule="evenodd"/><path d="M319.5 306.5 799.5 306.5" stroke="#000000" stroke-width="1.33333" stroke-linejoin="round" stroke-miterlimit="10" stroke-dasharray="5.33333 4" fill="none" fill-rule="evenodd"/><path d="M331.5 486.5 331.5 582.5" stroke="#000000" stroke-width="1.33333" stroke-linejoin="round" stroke-miterlimit="10" stroke-dasharray="5.33333 4" fill="none" fill-rule="evenodd"/><path d="M355.5 486.5 355.5 582.5" stroke="#000000" stroke-width="1.33333" stroke-linejoin="round" stroke-miterlimit="10" stroke-dasharray="5.33333 4" fill="none" fill-rule="evenodd"/><path d="M379.5 486.5 379.5 582.5" stroke="#000000" stroke-width="1.33333" stroke-linejoin="round" stroke-miterlimit="10" stroke-dasharray="5.33333 4" fill="none" fill-rule="evenodd"/><path d="M403.5 486.5 403.5 582.5" stroke="#000000" stroke-width="1.33333" stroke-linejoin="round" stroke-miterlimit="10" stroke-dasharray="5.33333 4" fill="none" fill-rule="evenodd"/><path d="M427.5 486.5 427.5 582.5" stroke="#000000" stroke-width="1.33333" stroke-linejoin="round" stroke-miterlimit="10" stroke-dasharray="5.33333 4" fill="none" fill-rule="evenodd"/><path d="M451.5 486.5 451.5 582.5" stroke="#000000" stroke-width="1.33333" stroke-linejoin="round" stroke-miterlimit="10" stroke-dasharray="5.33333 4" fill="none" fill-rule="evenodd"/><path d="M475.5 486.5 475.5 582.5" stroke="#000000" stroke-width="1.33333" stroke-linejoin="round" stroke-miterlimit="10" stroke-dasharray="5.33333 4" fill="none" fill-rule="evenodd"/><path d="M499.5 486.5 499.5 582.5" stroke="#000000" stroke-width="1.33333" stroke-linejoin="round" stroke-miterlimit="10" stroke-dasharray="5.33333 4" fill="none" fill-rule="evenodd"/><path d="M523.5 486.5 523.5 582.5" stroke="#000000" stroke-width="1.33333" stroke-linejoin="round" stroke-miterlimit="10" stroke-dasharray="5.33333 4" fill="none" fill-rule="evenodd"/><path d="M547.5 486.5 547.5 582.5" stroke="#000000" stroke-width="1.33333" stroke-linejoin="round" stroke-miterlimit="10" stroke-dasharray="5.33333 4" fill="none" fill-rule="evenodd"/><path d="M571.5 486.5 571.5 582.5" stroke="#000000" stroke-width="1.33333" stroke-linejoin="round" stroke-miterlimit="10" stroke-dasharray="5.33333 4" fill="none" fill-rule="evenodd"/><path d="M595.5 486.5 595.5 582.5" stroke="#000000" stroke-width="1.33333" stroke-linejoin="round" stroke-miterlimit="10" stroke-dasharray="5.33333 4" fill="none" fill-rule="evenodd"/><path d="M619.5 486.5 619.5 582.5" stroke="#000000" stroke-width="1.33333" stroke-linejoin="round" stroke-miterlimit="10" stroke-dasharray="5.33333 4" fill="none" fill-rule="evenodd"/><path d="M643.5 486.5 643.5 582.5" stroke="#000000" stroke-width="1.33333" stroke-linejoin="round" stroke-miterlimit="10" stroke-dasharray="5.33333 4" fill="none" fill-rule="evenodd"/><path d="M667.5 486.5 667.5 582.5" stroke="#000000" stroke-width="1.33333" stroke-linejoin="round" stroke-miterlimit="10" stroke-dasharray="5.33333 4" fill="none" fill-rule="evenodd"/><path d="M691.5 486.5 691.5 582.5" stroke="#000000" stroke-width="1.33333" stroke-linejoin="round" stroke-miterlimit="10" stroke-dasharray="5.33333 4" fill="none" fill-rule="evenodd"/><path d="M715.5 486.5 715.5 582.5" stroke="#000000" stroke-width="1.33333" stroke-linejoin="round" stroke-miterlimit="10" stroke-dasharray="5.33333 4" fill="none" fill-rule="evenodd"/><path d="M739.5 486.5 739.5 582.5" stroke="#000000" stroke-width="1.33333" stroke-linejoin="round" stroke-miterlimit="10" stroke-dasharray="5.33333 4" fill="none" fill-rule="evenodd"/><path d="M763.5 486.5 763.5 582.5" stroke="#000000" stroke-width="1.33333" stroke-linejoin="round" stroke-miterlimit="10" stroke-dasharray="5.33333 4" fill="none" fill-rule="evenodd"/><path d="M787.5 486.5 787.5 582.5" stroke="#000000" stroke-width="1.33333" stroke-linejoin="round" stroke-miterlimit="10" stroke-dasharray="5.33333 4" fill="none" fill-rule="evenodd"/><text font-family="Arial,Arial_MSFontService,sans-serif" font-weight="700" font-size="32" transform="translate(604.19 178)">4 users</text><rect x="759.5" y="153.5" width="24" height="24" stroke="#000000" stroke-width="1.33333" stroke-miterlimit="8" fill="#3366FF"/><rect x="791.5" y="153.5" width="24" height="24" stroke="#000000" stroke-width="1.33333" stroke-miterlimit="8" fill="#99CC00"/><rect x="823.5" y="153.5" width="24" height="24" stroke="#000000" stroke-width="1.33333" stroke-miterlimit="8" fill="#FFCC00"/><rect x="855.5" y="153.5" width="24" height="24" stroke="#000000" stroke-width="1.33333" stroke-miterlimit="8" fill="#FF00FF"/><text font-family="Arial,Arial_MSFontService,sans-serif" font-weight="700" font-size="32" transform="translate(604.69 126)">Example:</text></g></svg>