<svg width="960" height="720" xmlns="http://www.w3.org/2000/svg" xmlns:xlink="http://www.w3.org/1999/xlink" overflow="hidden"><defs><clipPath id="clip0"><rect x="0" y="0" width="960" height="720"/></clipPath></defs><g clip-path="url(#clip0)"><rect x="0" y="0" width="960" height="720" fill="#FFFFFF"/><rect x="591.5" y="162.5" width="200" height="372" stroke="#ED7D31" stroke-width="2.66667" stroke-miterlimit="8" fill="#ED7D31"/><text font-family="SimSun,SimSun_MSFontService,sans-serif" font-weight="700" font-size="48" transform="translate(43.1667 75)">网际协议栈<tspan fill="#44546A" font-family="Arial,Arial_MSFontService,sans-serif" font-weight="400" font-size="28" x="1" y="79">•</tspan><tspan fill="#44546A" font-size="28" x="19" y="79">应用层</tspan><tspan fill="#44546A" font-size="28" x="103.5" y="79">application:</tspan><tspan font-size="28" x="287.667" y="79">支持网络应用，报文</tspan><tspan font-size="28" x="19" y="109">传送</tspan><tspan font-family="Arial,Arial_MSFontService,sans-serif" font-weight="400" font-size="24" x="47.6667" y="141">•</tspan><tspan font-size="24" x="76.2" y="141">FTP, SMTP, STTP …</tspan><tspan fill="#44546A" font-family="Arial,Arial_MSFontService,sans-serif" font-weight="400" font-size="28" x="1" y="181">•</tspan><tspan fill="#44546A" font-size="28" x="19" y="181">传输层</tspan><tspan fill="#44546A" font-size="28" x="103.5" y="181">transport: </tspan><tspan font-size="28" x="57.6667" y="222">主机进程间</tspan><tspan fill="#44546A" font-size="28" x="198.5" y="222">数据段</tspan><tspan font-size="28" x="283" y="222">传送</tspan><tspan font-family="Arial,Arial_MSFontService,sans-serif" font-weight="400" font-size="24" x="47.6667" y="254">•</tspan><tspan font-size="24" x="76.2" y="254">TCP, UDP</tspan><tspan fill="#44546A" font-family="Arial,Arial_MSFontService,sans-serif" font-weight="400" font-size="28" x="1" y="294">•</tspan><tspan fill="#44546A" font-size="28" x="19" y="294">网络层</tspan><tspan fill="#44546A" font-size="28" x="103.5" y="294">network: </tspan><tspan font-size="28" x="57.6667" y="335">主机</tspan><tspan font-size="28" x="114" y="335">(</tspan><tspan font-size="28" x="128.167" y="335">源目标节点</tspan><tspan font-size="28" x="269" y="335">)</tspan><tspan font-size="28" x="283.167" y="335">间</tspan><tspan fill="#44546A" font-size="28" x="311.333" y="335">分组</tspan><tspan font-size="28" x="367.667" y="335">传送</tspan><tspan font-family="Arial,Arial_MSFontService,sans-serif" font-weight="400" font-size="24" x="47.6667" y="367">•</tspan><tspan font-size="24" x="76.2" y="367">主要是</tspan><tspan font-size="24" x="148.7" y="367">IP</tspan><tspan font-size="24" x="173.033" y="367">协议</tspan><tspan font-size="24" x="221.367" y="367">, </tspan><tspan font-size="24" x="245.7" y="367">路由协议</tspan><tspan font-size="24" x="354.533" y="367">…</tspan><tspan fill="#44546A" font-family="Arial,Arial_MSFontService,sans-serif" font-weight="400" font-size="28" x="1" y="407">•</tspan><tspan fill="#44546A" font-size="28" x="19" y="407">链路层</tspan><tspan fill="#44546A" font-size="28" x="103.5" y="407">link: </tspan><tspan font-size="28" x="57.6667" y="448">相邻网络节点间的</tspan><tspan fill="#44546A" font-size="28" x="283" y="448">数据帧</tspan><tspan font-size="28" x="367.5" y="448">传送</tspan><tspan font-family="Arial,Arial_MSFontService,sans-serif" font-weight="400" font-size="24" x="47.6667" y="480">•</tspan><tspan font-size="24" x="76.2" y="480">PPP, Ethernet …</tspan><tspan fill="#44546A" font-family="Arial,Arial_MSFontService,sans-serif" font-weight="400" font-size="28" x="1" y="520">•</tspan><tspan fill="#44546A" font-size="28" x="19" y="520">物理层</tspan><tspan fill="#44546A" font-size="28" x="103.5" y="520">physical: </tspan><tspan font-size="28" x="57.6667" y="561">物理介质上的</tspan><tspan fill="#44546A" font-size="28" x="226.667" y="561">比特</tspan><tspan font-size="28" x="283" y="561">传送</tspan></text><rect x="583.5" y="167.5" width="200" height="372" stroke="#ED7D31" stroke-width="2.66667" stroke-miterlimit="8" fill="#FFFFFF"/><text font-family="Comic Sans MS,Comic Sans MS_MSFontService,sans-serif" font-weight="700" font-size="32" transform="translate(603 212)">application<tspan font-size="32" x="8.57996" y="77">transport</tspan><tspan font-size="32" x="20.5" y="154">network</tspan><tspan font-size="32" x="55" y="231">link</tspan><tspan font-size="32" x="20.5" y="308">physical</tspan></text><path d="M583.5 240.5 781.5 240.5" stroke="#ED7D31" stroke-width="2.66667" stroke-linejoin="round" stroke-miterlimit="10" fill="none" fill-rule="evenodd"/><path d="M583.5 314.5 781.5 314.5" stroke="#ED7D31" stroke-width="2.66667" stroke-linejoin="round" stroke-miterlimit="10" fill="none" fill-rule="evenodd"/><path d="M583.5 389.5 781.5 389.5" stroke="#ED7D31" stroke-width="2.66667" stroke-linejoin="round" stroke-miterlimit="10" fill="none" fill-rule="evenodd"/><path d="M583.5 463.5 781.5 463.5" stroke="#ED7D31" stroke-width="2.66667" stroke-linejoin="round" stroke-miterlimit="10" fill="none" fill-rule="evenodd"/><text fill="#44546A" font-family="Comic Sans MS,Comic Sans MS_MSFontService,sans-serif" font-weight="700" font-size="27" transform="translate(796.833 235)">message<tspan font-size="27" x="5.66669" y="74">segment</tspan><tspan font-size="27" x="0" y="149">datagram</tspan><tspan font-size="27" x="-0.166687" y="224">frame</tspan><tspan font-size="27" x="12" y="298">bit</tspan></text></g></svg>