<svg width="560" height="384" xmlns="http://www.w3.org/2000/svg" xmlns:xlink="http://www.w3.org/1999/xlink" overflow="hidden"><defs><clipPath id="clip0"><rect x="193" y="287" width="560" height="384"/></clipPath></defs><g clip-path="url(#clip0)" transform="translate(-193 -287)"><path d="M252.5 614.5 634.5 614.5" stroke="#000000" stroke-width="2.66667" stroke-linejoin="round" stroke-miterlimit="10" fill="none" fill-rule="evenodd"/><path d="M0 0 0.000104987 324" stroke="#000000" stroke-width="2.66667" stroke-linejoin="round" stroke-miterlimit="10" fill="none" fill-rule="evenodd" transform="matrix(1 0 0 -1 252.5 613.5)"/><path d="M4.00968 3.58233 246.502 281.562 245.498 282.438 3.00492 4.45882ZM3.50596 4.01904 2.24465 8.65803 0 0 8.27322 3.3991Z" fill="#ED7D31" transform="matrix(-1 0 0 1 498.5 331.5)"/><path d="M250.5 315.5 546.5 610.5" stroke="#ED7D31" stroke-width="2.66667" stroke-linejoin="round" stroke-miterlimit="10" fill="none" fill-rule="evenodd"/><text font-family="Comic Sans MS,Comic Sans MS_MSFontService,sans-serif" font-weight="700" font-size="27" transform="translate(225.833 327)">R<tspan font-size="27" x="310" y="320">R</tspan><tspan font-family="SimHei,SimHei_MSFontService,sans-serif" font-size="24" x="297.667" y="21">相等带宽份额</tspan><tspan font-family="SimHei,SimHei_MSFontService,sans-serif" font-size="24" x="73.6667" y="316">连接</tspan><tspan font-size="24" x="122" y="316">1</tspan><tspan font-family="SimHei,SimHei_MSFontService,sans-serif" font-size="24" x="136.667" y="316">的吞吐量</tspan></text><text font-family="SimHei,SimHei_MSFontService,sans-serif" font-weight="700" font-size="24" transform="matrix(-1.83697e-16 -1 1 -1.83697e-16 239.333 560)">连接<tspan font-family="Arial,Arial_MSFontService,sans-serif" font-size="24" x="48" y="8.81746e-15">2</tspan><tspan font-size="24" x="62" y="1.13892e-14">的吞吐量</tspan></text><path d="M4.00862 3.58015 89.5023 101.562 88.4977 102.438 3.00397 4.45676ZM3.50644 4.01862 2.2457 8.65776 0 0 8.27363 3.3981Z" fill="#FF0000" transform="matrix(-1 0 0 1 480.5 485.5)"/><path d="M0.315212-0.58744 118.616 62.8908 117.985 64.0657-0.315212 0.58744ZM118.3 63.4783 117.842 58.6928 123 66 114.059 65.7421Z" fill="#FF0000" transform="matrix(-1 0 0 1 479.5 487.5)"/><path d="M4.04829 3.53622 91.4975 101.556 90.5025 102.444 3.05336 4.42386ZM3.55053 3.97972 2.34101 8.63248 0 0 8.31059 3.30668Z" fill="#FF0000" transform="matrix(-1 0 0 1 448.5 452.5)"/><text font-family="SimHei,SimHei_MSFontService,sans-serif" font-weight="700" font-size="21" transform="translate(456.75 458)">拥塞避免<tspan font-family="Comic Sans MS,Comic Sans MS_MSFontService,sans-serif" font-size="21" x="86" y="0">: </tspan><tspan font-size="21" x="104.667" y="0">增加窗口</tspan></text><path d="M0.40894-0.52651 99.1967 76.2019 98.3788 77.2549-0.40894 0.52651ZM98.7879 76.7285 99.1355 71.9337 103 80 94.2282 78.2518Z" fill="#FF0000" transform="matrix(-1 0 0 1 444.5 457.5)"/><text font-family="SimHei,SimHei_MSFontService,sans-serif" font-weight="700" font-size="21" transform="translate(433.667 434)">丢失<tspan font-family="Comic Sans MS,Comic Sans MS_MSFontService,sans-serif" font-size="21" x="43" y="0">: </tspan><tspan font-size="21" x="61.6667" y="0">减小窗口</tspan></text><path d="M4.04369 3.54071 89.498 99.5568 88.502 100.443 3.0477 4.42714ZM3.54575 3.98398 2.33063 8.63528 0 0 8.30661 3.31666Z" fill="#FF0000" transform="matrix(-1 0 0 1 431.5 437.5)"/><path d="M0.463863-0.478827 92.633 88.8101 91.7053 89.7677-0.463863 0.478827ZM92.1694 89.2891 93.0373 84.5607 96 93 87.4709 90.3066Z" fill="#FF0000" transform="matrix(-1 0 0 1 430.5 438.5)"/><path d="M4.06319 3.51809 90.4955 99.554 89.5045 100.446 3.07213 4.41004ZM3.56781 3.96424 2.37854 8.62221 0 0 8.32489 3.2705Z" fill="#FF0000" transform="matrix(-1 0 0 1 423.5 430.5)"/><text font-family="SimHei,SimHei_MSFontService,sans-serif" font-weight="700" font-size="24" transform="translate(263.417 324)">全带宽利用率线<tspan font-size="21" x="249.167" y="182">拥塞避免</tspan><tspan font-family="Comic Sans MS,Comic Sans MS_MSFontService,sans-serif" font-size="21" x="335.167" y="182">: </tspan><tspan font-size="21" x="353.833" y="182">增加窗口</tspan><tspan font-size="21" x="226.083" y="161">丢失</tspan><tspan font-family="Comic Sans MS,Comic Sans MS_MSFontService,sans-serif" font-size="21" x="269.083" y="161">: </tspan><tspan font-size="21" x="287.75" y="161">减小窗口</tspan></text></g></svg>