<svg width="960" height="720" xmlns="http://www.w3.org/2000/svg" xmlns:xlink="http://www.w3.org/1999/xlink" overflow="hidden"><defs><clipPath id="clip0"><rect x="0" y="0" width="960" height="720"/></clipPath></defs><g clip-path="url(#clip0)"><rect x="0" y="0" width="960" height="720" fill="#FFFFFF"/><text fill="#919293" font-family="Arial,Arial_MSFontService,sans-serif" font-weight="400" font-size="19" transform="translate(863.667 693)">17</text><rect x="338" y="162" width="349" height="336" fill="#ED7D31"/><rect x="330.5" y="171.5" width="350" height="337" stroke="#000000" stroke-width="1.33333" stroke-miterlimit="8" fill="#FFFFFF"/><text font-family="SimHei,SimHei_MSFontService,sans-serif" font-weight="700" font-size="24" transform="translate(368.635 200)">源端口号<tspan font-size="24" x="163" y="0">目的端口号</tspan></text><path d="M329.5 214.5 679.5 214.5" stroke="#000000" stroke-width="1.33333" stroke-linejoin="round" stroke-miterlimit="10" fill="none" fill-rule="evenodd"/><path d="M328.5 256.5 677.5 256.5" stroke="#000000" stroke-width="1.33333" stroke-linejoin="round" stroke-miterlimit="10" fill="none" fill-rule="evenodd"/><path d="M0 0 0.000104987 41" stroke="#000000" stroke-width="1.33333" stroke-linejoin="round" stroke-miterlimit="10" fill="none" fill-rule="evenodd" transform="matrix(1 0 0 -1 502.5 213.5)"/><text font-family="Comic Sans MS,Comic Sans MS_MSFontService,sans-serif" font-weight="700" font-size="24" transform="translate(458.302 154)">32 bits</text><path d="M550.505 146.833 671.172 147.791 671.161 149.124 550.495 148.167ZM671.167 148.458 668.532 144.437 676.5 148.5 668.469 152.436Z"/><path d="M5.93146e-07-0.666667 112.667-0.666566 112.667 0.666767-5.93146e-07 0.666667ZM112.667 0.000100242 110-3.9999 118 0.000104987 110 4.0001Z" transform="matrix(-1 0 0 1 447.5 148.5)"/><text font-family="SimHei,SimHei_MSFontService,sans-serif" font-weight="700" font-size="27" transform="translate(392.635 395)">应用数据（报文）<tspan font-family="Comic Sans MS,Comic Sans MS_MSFontService,sans-serif" font-size="27" x="22.8333" y="167">UDP </tspan>数据报格式</text><path d="M0 0 0.000104987 41" stroke="#000000" stroke-width="1.33333" stroke-linejoin="round" stroke-miterlimit="10" fill="none" fill-rule="evenodd" transform="matrix(1 0 0 -1 502.5 256.5)"/><text font-family="SimHei,SimHei_MSFontService,sans-serif" font-weight="700" font-size="24" transform="translate(389.302 241)">长度<tspan font-size="24" x="169.333" y="-1">校验和</tspan><tspan font-size="24" x="-226" y="-31">长度以字节为</tspan><tspan font-size="24" x="-250.167" y="0">单位，包括报文</tspan><tspan font-size="24" x="-201.833" y="27">首都和数据</tspan></text><path d="M300.631 218.846 370.401 232.8 370.14 234.108 300.369 220.154ZM370.27 233.454 368.44 229.009 375.5 234.5 366.871 236.853Z"/></g></svg>