<svg width="960" height="720" xmlns="http://www.w3.org/2000/svg" xmlns:xlink="http://www.w3.org/1999/xlink" overflow="hidden"><defs><clipPath id="clip0"><rect x="0" y="0" width="960" height="720"/></clipPath></defs><g clip-path="url(#clip0)"><rect x="0" y="0" width="960" height="720" fill="#FFFFFF"/><path d="M27.5001 55.5001 912.5 55.5002" stroke="#000000" stroke-width="1.33333" stroke-linejoin="round" stroke-miterlimit="10" fill="none" fill-rule="evenodd"/><text fill="#898989" font-family="Arial,Arial_MSFontService,sans-serif" font-weight="700" font-size="16" transform="translate(932.6 707)">18<tspan fill="#A50021" font-size="32" x="-592.149" y="-634">15~ 12 11~ 6 5 ~ 0</tspan></text><rect x="337" y="78" width="332" height="96" stroke="#000000" stroke-width="4" stroke-miterlimit="8" fill="#FEFEFA"/><text fill="#063DE8" font-family="SimHei,SimHei_MSFontService,sans-serif" font-weight="700" font-size="32" transform="translate(359.544 111)">0000 <tspan fill="#0000FF" font-size="32" x="129.333" y="0">X</tspan><tspan fill="#0000FF" font-size="32" x="242.5" y="0">Y</tspan><tspan font-size="32" x="0" y="58">1110 </tspan><tspan fill="#0000FF" font-size="32" x="129.333" y="58">X</tspan><tspan fill="#0000FF" font-size="32" x="242.5" y="58">Y</tspan></text><text fill="#063DE8" font-family="Arial,Arial_MSFontService,sans-serif" font-weight="700" font-size="11" transform="matrix(6.12323e-17 1 -1 6.12323e-17 395.116 122)">...<tspan font-size="11" x="4.22408e-15" y="-68.9845">...</tspan><tspan font-size="11" x="-5" y="-193.42">...</tspan></text><rect x="337" y="172" width="332" height="180" stroke="#000000" stroke-width="4" stroke-miterlimit="8" fill="#FEFEFA"/><text fill="#DF3C09" font-family="SimHei,SimHei_MSFontService,sans-serif" font-weight="700" font-size="32" transform="translate(357.971 203)">1111<tspan fill="#FF0000" font-size="32" x="64.6667" y="0">0 </tspan><tspan fill="#063DE8" font-size="32" x="97" y="0">00000 </tspan><tspan fill="#0000FF" font-size="32" x="242.5" y="0">Z</tspan><tspan font-size="32" x="0" y="58">11110 </tspan><tspan fill="#063DE8" font-size="32" x="97" y="58">11111 </tspan><tspan fill="#0000FF" font-size="32" x="242.5" y="58">Z</tspan></text><text fill="#063DE8" font-family="Arial,Arial_MSFontService,sans-serif" font-weight="700" font-size="11" transform="matrix(6.12323e-17 1 -1 6.12323e-17 402.653 219)">...<tspan font-size="11" x="5.8783e-15" y="-96">...</tspan><tspan font-size="11" x="1.22465e-14" y="-200">...</tspan></text><text fill="#A50021" font-family="SimHei,SimHei_MSFontService,sans-serif" font-weight="700" font-size="27" transform="translate(673.502 133)">15</text><rect x="337" y="349" width="332" height="122" stroke="#000000" stroke-width="4" stroke-miterlimit="8" fill="#FEFEFA"/><text fill="#DF3C09" font-family="SimHei,SimHei_MSFontService,sans-serif" font-weight="700" font-size="32" transform="translate(358.275 296)">11111 <tspan fill="#063DE8" font-size="32" x="97" y="0">00000 </tspan><tspan fill="#0000FF" font-size="32" x="242.5" y="0">Z</tspan><tspan font-size="32" x="0" y="38">11111</tspan><tspan fill="#063DE8" font-size="32" x="97" y="38">00001 </tspan><tspan fill="#0000FF" font-size="32" x="242.5" y="38">Z</tspan><tspan font-size="32" x="-0.303802" y="84">11111 </tspan><tspan fill="#063DE8" font-size="32" x="96.6962" y="84">00010 000000 </tspan><tspan font-size="32" x="-0.303802" y="138">11111</tspan><tspan fill="#063DE8" font-size="32" x="96.6962" y="138">11111 111111</tspan></text><text fill="#063DE8" font-family="Arial,Arial_MSFontService,sans-serif" font-weight="700" font-size="11" transform="matrix(6.12323e-17 1 -1 6.12323e-17 402.653 391)">...<tspan font-size="11" x="5.8783e-15" y="-96">...</tspan><tspan font-size="11" x="1.22465e-14" y="-200">...</tspan></text><path d="M443.5 406.5C443.5 376.677 466.781 352.5 495.5 352.5 524.219 352.5 547.5 376.677 547.5 406.5 547.5 436.323 524.219 460.5 495.5 460.5 466.781 460.5 443.5 436.323 443.5 406.5Z" stroke="#FC0128" stroke-width="1.33333" stroke-linejoin="round" stroke-miterlimit="10" fill="none" fill-rule="evenodd"/><path d="M0 0 0.216693 21.1331" stroke="#FC0128" stroke-width="1.33333" stroke-linejoin="round" stroke-miterlimit="10" fill="none" fill-rule="evenodd" transform="matrix(-1 0 0 1 490.717 462.5)"/><path d="M558.5 400C558.5 369.901 581.781 345.5 610.5 345.5 639.219 345.5 662.5 369.901 662.5 400 662.5 430.1 639.219 454.5 610.5 454.5 581.781 454.5 558.5 430.1 558.5 400Z" stroke="#FC0128" stroke-width="1.33333" stroke-linejoin="round" stroke-miterlimit="10" fill="none" fill-rule="evenodd"/><path d="M610.5 454.5 610.5 478.536" stroke="#FC0128" stroke-width="1.33333" stroke-linejoin="round" stroke-miterlimit="10" fill="none" fill-rule="evenodd"/><text fill="#A50021" font-family="Arial,Arial_MSFontService,sans-serif" font-weight="700" font-size="27" transform="translate(472.705 504)">30<tspan font-size="27" x="119.946" y="1">64</tspan></text><path d="M633.5 180.5C636.538 180.5 639 180.91 639 181.417L639 218.583C639 219.09 641.463 219.5 644.5 219.5 641.463 219.5 639 219.91 639 220.417L639 257.583C639 258.09 636.538 258.5 633.5 258.5" stroke="#FC0128" stroke-width="1.33333" stroke-linejoin="round" stroke-miterlimit="10" fill="none" fill-rule="evenodd"/><path d="M633.5 275.5C636.538 275.5 639 275.91 639 276.417L639 303.583C639 304.09 641.463 304.5 644.5 304.5 641.463 304.5 639 304.91 639 305.417L639 332.583C639 333.09 636.538 333.5 633.5 333.5" stroke="#FC0128" stroke-width="1.33333" stroke-linejoin="round" stroke-miterlimit="10" fill="none" fill-rule="evenodd"/><path d="M0 0 30.9068 0.0940682" stroke="#FC0128" stroke-width="1.33333" stroke-linejoin="round" stroke-miterlimit="10" fill="none" fill-rule="evenodd" transform="matrix(1 0 0 -1 644.5 219.594)"/><path d="M644.5 304.5 680.735 305.611" stroke="#FC0128" stroke-width="1.33333" stroke-linejoin="round" stroke-miterlimit="10" fill="none" fill-rule="evenodd"/><text fill="#A50021" font-family="Arial,Arial_MSFontService,sans-serif" font-weight="700" font-size="27" transform="translate(678.812 225)">32<tspan font-size="32" x="4.72662" y="91">2</tspan></text><text fill="#A50021" font-family="SimSun,SimSun_MSFontService,sans-serif" font-weight="700" font-size="24" writing-mode="tb-rl" transform="translate(305.149 85)" x="8.625" y="3.5625">二地址</text><text fill="#A50021" font-family="SimSun,SimSun_MSFontService,sans-serif" font-weight="700" font-size="24" writing-mode="tb-rl" transform="translate(300.375 213)" x="8.625" y="3.5625">一地址</text><text fill="#A50021" font-family="SimSun,SimSun_MSFontService,sans-serif" font-weight="700" font-size="24" writing-mode="tb-rl" transform="translate(303.594 358)" x="8.625" y="3.5625">零地址</text><text fill="#0000FF" font-family="Segoe UI Symbol,Segoe UI Symbol_MSFontService,sans-serif" font-weight="400" font-size="27" transform="translate(66.0717 535)"><tspan font-family="SimHei,SimHei_MSFontService,sans-serif" font-weight="700" font-size="27" x="30" y="0">解</tspan><tspan font-family="Arial,Arial_MSFontService,sans-serif" font-weight="700" font-size="27" x="56.8333" y="0">:</tspan><tspan font-family="SimHei,SimHei_MSFontService,sans-serif" font-weight="700" font-size="27" x="65.6667" y="0">操作码按短到长进行扩展编码</tspan><tspan font-size="27" x="0" y="34"></tspan><tspan font-family="SimHei,SimHei_MSFontService,sans-serif" font-weight="700" font-size="27" x="30" y="34">二地址指令</tspan><tspan font-family="Arial,Arial_MSFontService,sans-serif" font-weight="700" font-size="27" x="164.167" y="34">: </tspan><tspan font-family="SimHei,SimHei_MSFontService,sans-serif" font-weight="700" font-size="27" x="180.333" y="34">操作码</tspan><tspan font-family="Arial,Arial_MSFontService,sans-serif" font-weight="700" font-size="27" x="260.833" y="34">4</tspan><tspan font-family="SimHei,SimHei_MSFontService,sans-serif" font-weight="700" font-size="27" x="275.667" y="34">位</tspan><tspan font-family="Arial,Arial_MSFontService,sans-serif" font-weight="700" font-size="27" x="302.5" y="34">(</tspan><tspan font-family="Arial,Arial_MSFontService,sans-serif" font-weight="700" font-size="27" x="311.333" y="34">0000 </tspan><tspan font-family="SimHei,SimHei_MSFontService,sans-serif" font-weight="700" font-size="27" x="378" y="34">～</tspan><tspan font-family="Arial,Arial_MSFontService,sans-serif" font-weight="700" font-size="27" x="412.167" y="34">1110</tspan><tspan font-family="SimHei,SimHei_MSFontService,sans-serif" font-weight="700" font-size="27" x="468.553" y="34">：</tspan><tspan font-family="Arial,Arial_MSFontService,sans-serif" font-weight="700" font-size="27" x="495.387" y="34">15</tspan><tspan font-family="SimHei,SimHei_MSFontService,sans-serif" font-weight="700" font-size="27" x="525.053" y="34">条</tspan><tspan font-family="Arial,Arial_MSFontService,sans-serif" font-weight="700" font-size="27" x="551.887" y="34">) </tspan><tspan font-size="27" x="0" y="70"></tspan><tspan font-family="SimHei,SimHei_MSFontService,sans-serif" font-weight="700" font-size="27" x="30" y="70">一地址指令</tspan><tspan font-family="Arial,Arial_MSFontService,sans-serif" font-weight="700" font-size="27" x="164.167" y="70">: </tspan><tspan fill="#C2228D" font-family="Arial,Arial_MSFontService,sans-serif" font-weight="700" font-size="27" x="180.333" y="70">11110</tspan><tspan font-family="Arial,Arial_MSFontService,sans-serif" font-weight="700" font-size="27" x="257.413" y="70">(00000 </tspan><tspan font-family="SimHei,SimHei_MSFontService,sans-serif" font-weight="700" font-size="27" x="347.747" y="70">～</tspan><tspan font-family="Arial,Arial_MSFontService,sans-serif" font-weight="700" font-size="27" x="381.913" y="70">11111:32</tspan><tspan font-family="SimHei,SimHei_MSFontService,sans-serif" font-weight="700" font-size="27" x="488.687" y="70">条</tspan><tspan font-family="Arial,Arial_MSFontService,sans-serif" font-weight="700" font-size="27" x="515.52" y="70">); </tspan><tspan fill="#C2228D" font-family="Arial,Arial_MSFontService,sans-serif" font-weight="700" font-size="27" x="540.52" y="70">11111</tspan><tspan font-family="Arial,Arial_MSFontService,sans-serif" font-weight="700" font-size="27" x="616.127" y="70">(00000 </tspan><tspan font-family="SimHei,SimHei_MSFontService,sans-serif" font-weight="700" font-size="27" x="706.46" y="70">～</tspan><tspan font-family="Arial,Arial_MSFontService,sans-serif" font-weight="700" font-size="27" x="740.627" y="70">00001:2</tspan><tspan font-family="SimHei,SimHei_MSFontService,sans-serif" font-weight="700" font-size="27" x="838.46" y="70">条</tspan><tspan font-family="Arial,Arial_MSFontService,sans-serif" font-weight="700" font-size="27" x="865.293" y="70">) </tspan><tspan font-size="27" x="0" y="107"></tspan><tspan font-family="SimHei,SimHei_MSFontService,sans-serif" font-weight="700" font-size="27" x="30" y="107">零地址指令</tspan><tspan font-family="Arial,Arial_MSFontService,sans-serif" font-weight="700" font-size="27" x="164.167" y="107">: </tspan><tspan fill="#C2228D" font-family="Arial,Arial_MSFontService,sans-serif" font-weight="700" font-size="27" x="180.333" y="107">11111</tspan><tspan font-family="Arial,Arial_MSFontService,sans-serif" font-weight="700" font-size="27" x="255.94" y="107">(00010 </tspan><tspan font-family="SimHei,SimHei_MSFontService,sans-serif" font-weight="700" font-size="27" x="346.273" y="107">～</tspan><tspan font-family="Arial,Arial_MSFontService,sans-serif" font-weight="700" font-size="27" x="380.44" y="107">11111:30) (000000 </tspan><tspan font-family="SimHei,SimHei_MSFontService,sans-serif" font-weight="700" font-size="27" x="608.547" y="107">～</tspan><tspan font-family="Arial,Arial_MSFontService,sans-serif" font-weight="700" font-size="27" x="642.713" y="107">111111:2</tspan><tspan font-family="Arial,Arial_MSFontService,sans-serif" font-weight="700" font-size="18" x="748.013" y="99">6</tspan><tspan font-family="Arial,Arial_MSFontService,sans-serif" font-weight="700" font-size="27" x="757.847" y="107">=64)</tspan><tspan font-size="27" x="0" y="144"></tspan><tspan font-family="SimHei,SimHei_MSFontService,sans-serif" font-weight="700" font-size="27" x="30" y="144">故零地址指令最多有</tspan><tspan font-family="Arial,Arial_MSFontService,sans-serif" font-weight="700" font-size="27" x="278.833" y="144">30</tspan><tspan font-family="Arial,Arial_MSFontService,sans-serif" font-weight="700" font-size="27" x="308.5" y="144">x64=1920</tspan><tspan font-family="SimHei,SimHei_MSFontService,sans-serif" font-weight="700" font-size="27" x="427.833" y="144">条</tspan></text></g></svg>